<svg id="Layer_1" data-name="Layer 1" xmlns="http://www.w3.org/2000/svg" viewBox="0 0 215.49 47.52"><defs><style>.cls-1{fill:#3c1d22;}.cls-2{fill:#f36e38;}.cls-3{fill:#fff;}</style></defs><path class="cls-1" d="M88.64,13.85l-2.15,2A10.79,10.79,0,0,0,77.86,12a11.14,11.14,0,0,0-8.28,3.37,11.53,11.53,0,0,0-3.28,8.39,11.63,11.63,0,0,0,3.28,8.44,11.14,11.14,0,0,0,8.28,3.32,10.84,10.84,0,0,0,8.75-4l2.15,1.94a13.79,13.79,0,0,1-10.9,5A14.41,14.41,0,0,1,67.4,34.24a14.16,14.16,0,0,1-4.26-10.5A14.1,14.1,0,0,1,67.4,13.28,14.44,14.44,0,0,1,77.86,9.07,13.8,13.8,0,0,1,88.64,13.85Z"/><path class="cls-1" d="M91.48,27.72a10.94,10.94,0,0,1,2.88-7.91,9.76,9.76,0,0,1,7.34-3,8.54,8.54,0,0,1,6.77,3A10.44,10.44,0,0,1,111.1,27c0,.44,0,.89,0,1.29H94.48c.16,4.5,3,7.38,7.3,7.38a7.68,7.68,0,0,0,6.28-2.84l2,2a10.65,10.65,0,0,1-8.27,3.61,10.16,10.16,0,0,1-7.46-2.88,10.3,10.3,0,0,1-2.84-7.62Zm16.42-2.07a5.71,5.71,0,0,0-1.83-4.26,6,6,0,0,0-4.37-1.78,7.09,7.09,0,0,0-4.83,1.78,6.11,6.11,0,0,0-2.19,4.26Z"/><path class="cls-1" d="M114.75,9.59h3V32.5c0,2.27.65,3.16,2.56,3.16a5.18,5.18,0,0,0,1.45-.16v2.8a5.56,5.56,0,0,1-1.45.16,6.66,6.66,0,0,1-3.57-.89c-1.26-.69-2-2.39-2-4.87Z"/><path class="cls-1" d="M123.35,27.72a11,11,0,0,1,2.87-7.91,9.78,9.78,0,0,1,7.34-3,8.51,8.51,0,0,1,6.77,3A10.4,10.4,0,0,1,143,27c0,.44,0,.89,0,1.29H126.35c.16,4.5,3,7.38,7.29,7.38a7.7,7.7,0,0,0,6.29-2.84l2,2a10.62,10.62,0,0,1-8.27,3.61,10.18,10.18,0,0,1-7.46-2.88,10.33,10.33,0,0,1-2.83-7.62Zm16.42-2.07a5.71,5.71,0,0,0-1.83-4.26,6.05,6.05,0,0,0-4.38-1.78,7.08,7.08,0,0,0-4.82,1.78,6.11,6.11,0,0,0-2.19,4.26Z"/><path class="cls-1" d="M147.55,32.46c.53,1.74,2.35,3.08,5.15,3.08,3.36,0,4.5-1.54,4.5-3.12a2.57,2.57,0,0,0-1.14-2.31,20.32,20.32,0,0,0-4-1.95c-3.73-1.46-5.55-3-5.55-6,0-3.12,2.55-5.39,6.16-5.39a6.13,6.13,0,0,1,5.92,3.53l-2.43,1.25a3.67,3.67,0,0,0-3.45-2c-1.9,0-3.2,1-3.2,2.63s1.38,2.52,4.46,3.69c4.21,1.62,6.2,3.41,6.2,6.53s-2.64,5.92-7.5,5.92c-3.89,0-6.89-1.79-7.7-4.91Z"/><path class="cls-1" d="M165.07,20.21h-2.4V17.42h2.4V9.59h3v7.83h4.74v2.79h-4.74V32.13c0,2.6.85,3.53,2.83,3.53a12.78,12.78,0,0,0,1.91-.12v2.72a8.93,8.93,0,0,1-1.87.2,6.56,6.56,0,0,1-3.85-1c-1.25-.82-2-2.6-2-5.32Z"/><path class="cls-1" d="M176.38,13.44a2,2,0,0,1,0-2.87,2,2,0,0,1,2.84,0,2,2,0,0,1,0,2.87A2,2,0,0,1,176.38,13.44Zm-.08,24.41V17.42h3V37.85Z"/><path class="cls-1" d="M190.81,25.73a14.06,14.06,0,0,0,4.3-.77,2.2,2.2,0,0,0,1.13-2.23c0-1.66-1.42-3.12-4.38-3.12a6.67,6.67,0,0,0-5.51,2.88l-2.07-1.71a8.74,8.74,0,0,1,7.58-4c4.42,0,7.38,2.47,7.38,6.36V34.08c0,1.54.81,1.58,1.71,1.58h.36v2.15a3.92,3.92,0,0,1-2.07.45,2.31,2.31,0,0,1-2.15-1.1,4.06,4.06,0,0,1-.44-1.3c-1.46,1.75-3.77,2.6-7,2.6-4.38,0-7.38-2.43-7.38-6.12C182.3,28.16,185.13,26.17,190.81,25.73ZM190,35.66c4,0,6.24-1.82,6.24-4.7V27.31c-.56.61-2.35,1-5.31,1.26-3.73.32-5.63,1.21-5.63,3.69C185.3,34.4,187.08,35.66,190,35.66Z"/><path class="cls-1" d="M204.23,9.59h3V32.5c0,2.27.65,3.16,2.55,3.16a5.21,5.21,0,0,0,1.46-.16v2.8a5.59,5.59,0,0,1-1.46.16,6.64,6.64,0,0,1-3.56-.89c-1.26-.69-2-2.39-2-4.87Z"/><path class="cls-1" d="M6.86,22.7A25.05,25.05,0,0,1,15.1,4.1a21.38,21.38,0,0,0,0,37.21A25.06,25.06,0,0,1,6.86,22.7Z"/><circle class="cls-2" cx="29.06" cy="23.76" r="21.37"/><path class="cls-3" d="M35.86,33a10.15,10.15,0,0,1-6.3,2.55,8.89,8.89,0,0,1-1.93-.06,10.34,10.34,0,0,1-8.89-11A10.31,10.31,0,0,1,30,15a10.07,10.07,0,0,1,6.1,2.81l4.68-.25a13.64,13.64,0,1,0-.22,15.24Z"/><path class="cls-3" d="M30,22.65A1.64,1.64,0,1,1,31.66,21,1.65,1.65,0,0,1,30,22.65Zm0-2.5a.86.86,0,1,0,.86.86A.86.86,0,0,0,30,20.15Z"/><path class="cls-3" d="M21.66,26.31a1.64,1.64,0,1,1,1.64-1.64A1.63,1.63,0,0,1,21.66,26.31Zm0-2.5a.86.86,0,1,0,.86.86A.86.86,0,0,0,21.66,23.81Z"/><path class="cls-3" d="M32.05,28a1.64,1.64,0,1,1,1.64-1.64A1.65,1.65,0,0,1,32.05,28Zm0-2.5a.86.86,0,1,0,.86.86A.86.86,0,0,0,32.05,25.45Z"/><rect class="cls-3" x="16.79" y="20.62" width="11.93" height="0.78"/><rect class="cls-3" x="23.3" y="24.28" width="4.83" height="0.78"/><rect class="cls-3" x="27.35" y="24.28" width="0.78" height="11.45"/><rect class="cls-3" x="31.66" y="27.27" width="0.78" height="8.47"/></svg>