<?xml version="1.0" encoding="utf-8"?>
<!-- Generator: Adobe Illustrator 16.0.0, SVG Export Plug-In . SVG Version: 6.00 Build 0)  -->
<!DOCTYPE svg PUBLIC "-//W3C//DTD SVG 1.1//EN" "http://www.w3.org/Graphics/SVG/1.1/DTD/svg11.dtd">
<svg version="1.1" xmlns="http://www.w3.org/2000/svg" xmlns:xlink="http://www.w3.org/1999/xlink" x="0px" y="0px"
	 width="500.58px" height="500.58px" viewBox="0 0 500.58 500.58" enable-background="new 0 0 500.58 500.58" xml:space="preserve">
<g id="Layer_1">
</g>
<g id="Layer_2">
	<g>
		<polygon fill="none" stroke="#000000" stroke-width="2" stroke-miterlimit="10" points="163.457,102.791 206.123,78.124 
			246.789,101.791 205.123,126.124 		"/>
		<polyline fill="none" stroke="#000000" stroke-width="2" stroke-miterlimit="10" points="162.457,102.791 163.457,398.789 
			200.789,421.457 204.789,198.79 256.123,229.457 		"/>
		<polyline fill="none" stroke="#000000" stroke-width="2" stroke-miterlimit="10" points="205.123,126.124 205.123,150.79 
			297.457,204.79 246.789,234.124 		"/>
		<polyline fill="none" stroke="#000000" stroke-width="2" stroke-miterlimit="10" points="247.789,101.791 246.789,128.79 
			338.123,180.124 358.789,169.457 399.457,195.457 246.789,282.123 		"/>
		<polyline fill="none" stroke="#000000" stroke-width="2" stroke-miterlimit="10" points="400.457,195.457 399.457,242.124 
			245.789,330.123 		"/>
		<polyline fill="none" stroke="#000000" stroke-width="2" stroke-miterlimit="10" points="246.789,223.88 244.789,397.457 
			200.789,422.457 		"/>
		<line fill="none" stroke="#000000" stroke-width="2" stroke-miterlimit="10" x1="205.123" y1="150.79" x2="246.789" y2="128.79"/>
		<polyline fill="none" stroke="#000000" stroke-width="2" stroke-miterlimit="10" points="163.457,375.457 141.457,386.789 
			141.457,339.457 100.123,315.457 163.457,280.123 		"/>
		<polyline fill="none" stroke="#000000" stroke-width="2" stroke-miterlimit="10" points="100.123,315.457 100.123,362.789 
			141.457,387.789 		"/>
		
			<line fill="none" stroke="#000000" stroke-width="2" stroke-miterlimit="10" x1="141.457" y1="339.457" x2="163.457" y2="328.123"/>
	</g>
</g>
</svg>
