<?xml version="1.0" encoding="utf-8"?>
<!-- Generator: Adobe Illustrator 16.0.0, SVG Export Plug-In . SVG Version: 6.00 Build 0)  -->
<!DOCTYPE svg PUBLIC "-//W3C//DTD SVG 1.1//EN" "http://www.w3.org/Graphics/SVG/1.1/DTD/svg11.dtd">
<svg version="1.1" xmlns="http://www.w3.org/2000/svg" xmlns:xlink="http://www.w3.org/1999/xlink" x="0px" y="0px" width="475px"
	 height="475px" viewBox="0 0 475 475" enable-background="new 0 0 475 475" xml:space="preserve">
<g id="Layer_1">
</g>
<g id="Layer_2">
	<g>
		<polyline fill="none" stroke="#000000" stroke-width="2" stroke-miterlimit="10" points="236.735,142.66 208.436,93.71 
			153.877,93.71 126.598,139.091 181.667,237.265 265.799,93.71 292.569,139.091 		"/>
		<path fill="none" stroke="#000000" stroke-width="2" stroke-miterlimit="10" d="M265.799,93.71"/>
		<polyline fill="none" stroke="#000000" stroke-width="2" stroke-miterlimit="10" points="265.799,92.71 320.103,92.18 
			349.657,139.091 		"/>
		<polyline fill="none" stroke="#000000" stroke-width="2" stroke-miterlimit="10" points="320.573,285.686 376.701,285.686 
			405,238.265 377.466,190.845 263.799,190.845 348.657,334.635 292.569,334.635 237.118,238.265 405,238.265 		"/>
		<polyline fill="none" stroke="#000000" stroke-width="2" stroke-miterlimit="10" points="349.657,334.635 321.059,382.82 
			265.799,382.82 292.569,334.635 		"/>
		
			<line fill="none" stroke="#000000" stroke-width="2" stroke-miterlimit="10" x1="264.799" y1="382.82" x2="237.735" y2="330.635"/>
		<polyline fill="none" stroke="#000000" stroke-width="2" stroke-miterlimit="10" points="153.877,284.154 126.598,334.635 
			153.877,379.742 		"/>
		<polyline fill="none" stroke="#000000" stroke-width="2" stroke-miterlimit="10" points="153.877,93.71 237.118,238.265 
			126.598,238.265 96.769,284.154 262.188,283.572 209.201,382.82 153.877,378.742 292.569,139.091 348.657,139.091 318.064,190.08 
					"/>
		<polyline fill="none" stroke="#000000" stroke-width="2" stroke-miterlimit="10" points="95.769,284.154 70,238.265 
			96.769,190.845 126.598,238.265 		"/>
		
			<line fill="none" stroke="#000000" stroke-width="2" stroke-miterlimit="10" x1="96.769" y1="189.845" x2="154.877" y2="189.845"/>
	</g>
</g>
</svg>
