<?xml version="1.0" encoding="utf-8"?>
<!-- Generator: Adobe Illustrator 16.0.0, SVG Export Plug-In . SVG Version: 6.00 Build 0)  -->
<!DOCTYPE svg PUBLIC "-//W3C//DTD SVG 1.1//EN" "http://www.w3.org/Graphics/SVG/1.1/DTD/svg11.dtd">
<svg version="1.1" id="Layer_1" xmlns="http://www.w3.org/2000/svg" xmlns:xlink="http://www.w3.org/1999/xlink" x="0px" y="0px"
	 width="500px" height="500px" viewBox="0 0 500 500" enable-background="new 0 0 500 500" xml:space="preserve">
<polygon fill="none" stroke="#000000" stroke-width="2" stroke-miterlimit="10" points="207.354,124.033 247.861,102.334 
	286.921,126.924 289.815,221.686 248.585,248.444 205.909,223.855 "/>
<polyline fill="none" stroke="#000000" stroke-width="2" stroke-miterlimit="10" points="207.354,124.033 208.801,128.374 
	247.139,150.795 "/>
<polyline fill="none" stroke="#000000" stroke-width="2" stroke-miterlimit="10" points="289.093,320.055 289.093,367.797 
	247.139,391.666 247.139,150.795 286.921,126.924 "/>
<polyline fill="none" stroke="#000000" stroke-width="2" stroke-miterlimit="10" points="205.909,319.336 205.909,368.521 
	247.139,391.666 "/>
<polyline fill="none" stroke="#000000" stroke-width="2" stroke-miterlimit="10" points="290.54,176.114 332.492,150.074 
	372.274,174.664 372.999,223.855 331.046,247 "/>
<path fill="none" stroke="#000000" stroke-width="2" stroke-miterlimit="10" d="M372.274,174.664"/>
<polyline fill="none" stroke="#000000" stroke-width="2" stroke-miterlimit="10" points="372.274,174.664 289.815,221.686 
	372.999,273.04 372.999,319.336 331.771,343.205 249.311,296.186 "/>
<polyline fill="none" stroke="#000000" stroke-width="2" stroke-miterlimit="10" points="372.999,273.04 333.215,296.186 
	248.585,248.444 162.51,295.465 163.229,341.757 "/>
<line fill="none" stroke="#000000" stroke-width="2" stroke-miterlimit="10" x1="333.215" y1="296.186" x2="333.215" y2="343.205"/>
<polyline fill="none" stroke="#000000" stroke-width="2" stroke-miterlimit="10" points="205.909,176.114 163.229,150.797 
	122,175.389 123.45,222.408 164.679,248.447 "/>
<polyline fill="none" stroke="#000000" stroke-width="2" stroke-miterlimit="10" points="122.725,175.389 205.909,223.855 
	122.725,273.04 122,321.505 163.229,341.757 246.414,296.188 "/>
<line fill="none" stroke="#000000" stroke-width="2" stroke-miterlimit="10" x1="162.51" y1="295.465" x2="122.725" y2="273.04"/>
</svg>
