<?xml version="1.0" encoding="utf-8"?>
<!-- Generator: Adobe Illustrator 16.0.0, SVG Export Plug-In . SVG Version: 6.00 Build 0)  -->
<!DOCTYPE svg PUBLIC "-//W3C//DTD SVG 1.1//EN" "http://www.w3.org/Graphics/SVG/1.1/DTD/svg11.dtd">
<svg version="1.1" xmlns="http://www.w3.org/2000/svg" xmlns:xlink="http://www.w3.org/1999/xlink" x="0px" y="0px"
	 width="501.05px" height="501.049px" viewBox="0 0 501.05 501.049" enable-background="new 0 0 501.05 501.049"
	 xml:space="preserve">
<g id="Layer_1">
</g>
<g id="Layer_2">
	<g>
		<polyline fill="none" stroke="#000000" stroke-width="2" stroke-miterlimit="10" points="244.458,89.979 283.427,54.987 
			304.104,138.492 205.645,232.096 		"/>
		<polyline fill="none" stroke="#000000" stroke-width="2" stroke-miterlimit="10" points="142.188,212.357 129.938,144.058 
			189.583,160.759 177.087,95.956 276.27,130.141 		"/>
		
			<line fill="none" stroke="#000000" stroke-width="2" stroke-miterlimit="10" x1="183.485" y1="129.875" x2="252.696" y2="151.615"/>
		<polyline fill="none" stroke="#000000" stroke-width="2" stroke-miterlimit="10" points="283.427,53.987 313.383,66.917 
			337.241,147.974 304.104,138.492 		"/>
		<polyline fill="none" stroke="#000000" stroke-width="2" stroke-miterlimit="10" points="455.942,248.241 447.521,217.838 
			415.807,205.71 		"/>
		<polyline fill="none" stroke="#000000" stroke-width="2" stroke-miterlimit="10" points="442.751,184.088 435.374,152.409 
			328.567,117.871 		"/>
		<polyline fill="none" stroke="#000000" stroke-width="2" stroke-miterlimit="10" points="314.672,169.822 389.199,194.692 
			342.543,234.987 401.924,256.724 318.817,328.167 		"/>
		
			<line fill="none" stroke="#000000" stroke-width="2" stroke-miterlimit="10" x1="370.745" y1="245.31" x2="312.694" y2="298.079"/>
		
			<line fill="none" stroke="#000000" stroke-width="2" stroke-miterlimit="10" x1="303.104" y1="263.617" x2="337.241" y2="275.766"/>
		<polyline fill="none" stroke="#000000" stroke-width="2" stroke-miterlimit="10" points="286.467,195.818 318.685,328.035 
			348.736,336.601 454.942,248.241 393.972,223.586 442.218,184.088 338.251,147.974 237.811,242.694 		"/>
		<polyline fill="none" stroke="#000000" stroke-width="2" stroke-miterlimit="10" points="379.999,312.083 393.44,374.366 
			298.537,351.098 264.824,216.636 		"/>
		<polyline fill="none" stroke="#000000" stroke-width="2" stroke-miterlimit="10" points="393.44,375.366 370.745,392.453 
			278.125,370.45 245.619,235.876 		"/>
		
			<line fill="none" stroke="#000000" stroke-width="2" stroke-miterlimit="10" x1="298.537" y1="351.098" x2="278.92" y2="369.654"/>
		
			<line fill="none" stroke="#000000" stroke-width="2" stroke-miterlimit="10" x1="219.562" y1="141.072" x2="227.445" y2="175.67"/>
		<polyline fill="none" stroke="#000000" stroke-width="2" stroke-miterlimit="10" points="140.275,56.577 116.683,78.051 
			123.753,117.076 		"/>
		<polyline fill="none" stroke="#000000" stroke-width="2" stroke-miterlimit="10" points="94.944,109.066 71.616,128.875 
			86.644,223.083 		"/>
		<polyline fill="none" stroke="#000000" stroke-width="2" stroke-miterlimit="10" points="247.897,245.31 112.946,202.114 
			117.188,230.745 254.271,271.79 		"/>
		<polyline fill="none" stroke="#000000" stroke-width="2" stroke-miterlimit="10" points="117.188,230.745 48.288,290.126 
			45.107,260.435 112.946,202.114 94.944,109.861 153.796,124.971 140.275,56.577 267.521,97.932 276.27,130.141 177.063,222.586 		
			"/>
		
			<line fill="none" stroke="#000000" stroke-width="2" stroke-miterlimit="10" x1="48.288" y1="290.126" x2="105.549" y2="309.743"/>
		<polyline fill="none" stroke="#000000" stroke-width="2" stroke-miterlimit="10" points="124.105,260.435 144.253,366.472 
			195.681,327.769 207.875,384.5 269.225,330.419 		"/>
		<polyline fill="none" stroke="#000000" stroke-width="2" stroke-miterlimit="10" points="195.681,326.769 223.504,342.615 
			228.584,366.245 		"/>
		<polyline fill="none" stroke="#000000" stroke-width="2" stroke-miterlimit="10" points="170.741,346.975 153.796,269.692 
			262.381,305.271 		"/>
		<polyline fill="none" stroke="#000000" stroke-width="2" stroke-miterlimit="10" points="306.452,377.892 223.504,447.063 
			188.914,434.964 183.528,409.641 153.796,431.158 124.105,420.023 101.837,280.583 124.105,260.435 153.796,269.692 		"/>
		
			<line fill="none" stroke="#000000" stroke-width="2" stroke-miterlimit="10" x1="276.27" y1="362.768" x2="188.914" y2="434.964"/>
		<polyline fill="none" stroke="#000000" stroke-width="2" stroke-miterlimit="10" points="124.105,420.023 177.775,380.775 
			188.914,434.964 		"/>
		
			<line fill="none" stroke="#000000" stroke-width="2" stroke-miterlimit="10" x1="160.688" y1="302.242" x2="188.914" y2="281.114"/>
		<polyline fill="none" stroke="#000000" stroke-width="2" stroke-miterlimit="10" points="135.168,173.352 167.052,184.088 
			190.583,160.759 		"/>
		<polyline fill="none" stroke="#000000" stroke-width="2" stroke-miterlimit="10" points="341.543,234.987 329.132,209.71 
			357.92,184.088 		"/>
	</g>
</g>
</svg>
