<?xml version="1.0" encoding="utf-8"?>
<!-- Generator: Adobe Illustrator 16.0.0, SVG Export Plug-In . SVG Version: 6.00 Build 0)  -->
<!DOCTYPE svg PUBLIC "-//W3C//DTD SVG 1.1//EN" "http://www.w3.org/Graphics/SVG/1.1/DTD/svg11.dtd">
<svg version="1.1" id="Layer_1" xmlns="http://www.w3.org/2000/svg" xmlns:xlink="http://www.w3.org/1999/xlink" x="0px" y="0px"
	 width="500px" height="500px" viewBox="0 0 500 500" enable-background="new 0 0 500 500" xml:space="preserve">
<g>
	<polygon fill="none" stroke="#000000" stroke-width="2" stroke-miterlimit="10" points="248.959,88.463 175.941,201.4 
		248.959,242.768 321.979,201.4 	"/>
	<polygon fill="none" stroke="#000000" stroke-width="2" stroke-miterlimit="10" points="127.719,220.035 371.574,220.035 
		249.648,411.537 	"/>
	<polyline fill="none" stroke="#000000" stroke-width="2" stroke-miterlimit="10" points="127.719,220.035 248.959,279.276 
		248.959,410.16 	"/>
	<path fill="none" stroke="#000000" stroke-width="2" stroke-miterlimit="10" d="M371.574,220.035"/>
	
		<line fill="none" stroke="#000000" stroke-width="2" stroke-miterlimit="10" x1="248.959" y1="279.276" x2="371.574" y2="220.035"/>
	<line fill="none" stroke="#000000" stroke-width="2" stroke-miterlimit="10" x1="175.941" y1="201.4" x2="321.979" y2="201.4"/>
	<line fill="none" stroke="#000000" stroke-width="2" stroke-miterlimit="10" x1="248.959" y1="88.463" x2="248.959" y2="242.768"/>
	<polygon fill="none" stroke="#000000" stroke-width="2" stroke-miterlimit="10" points="416.646,411.537 363.014,288.21 
		288.143,326.123 282.172,409.832 	"/>
	<line fill="none" stroke="#000000" stroke-width="2" stroke-miterlimit="10" x1="363.014" y1="288.21" x2="282.172" y2="409.832"/>
	
		<line fill="none" stroke="#000000" stroke-width="2" stroke-miterlimit="10" x1="416.646" y1="411.537" x2="288.143" y2="326.123"/>
	<polygon fill="none" stroke="#000000" stroke-width="2" stroke-miterlimit="10" points="83.354,411.537 136.988,288.21 
		211.857,326.123 217.828,409.832 	"/>
	<line fill="none" stroke="#000000" stroke-width="2" stroke-miterlimit="10" x1="136.988" y1="288.21" x2="217.828" y2="409.832"/>
	<line fill="none" stroke="#000000" stroke-width="2" stroke-miterlimit="10" x1="83.354" y1="411.537" x2="211.857" y2="326.123"/>
</g>
</svg>
