<?xml version="1.0" encoding="utf-8"?>
<!-- Generator: Adobe Illustrator 16.0.0, SVG Export Plug-In . SVG Version: 6.00 Build 0)  -->
<!DOCTYPE svg PUBLIC "-//W3C//DTD SVG 1.1//EN" "http://www.w3.org/Graphics/SVG/1.1/DTD/svg11.dtd">
<svg version="1.1" xmlns="http://www.w3.org/2000/svg" xmlns:xlink="http://www.w3.org/1999/xlink" x="0px" y="0px" width="479px"
	 height="479px" viewBox="0 0 479 479" enable-background="new 0 0 479 479" xml:space="preserve">
<g id="Layer_1">
</g>
<g id="Layer_2">
	<g>
		<polyline fill="none" stroke="#000000" stroke-width="2" stroke-miterlimit="10" points="218.5,284.723 249.167,341.166 
			386.833,100.5 89.833,100.5 79.167,121.166 227.833,378.5 250.5,378.5 399.833,119.833 387.833,100.5 		"/>
		<polyline fill="none" stroke="#000000" stroke-width="2" stroke-miterlimit="10" points="250.5,378.5 113.833,141.166 
			175.167,141.166 		"/>
		<polyline fill="none" stroke="#000000" stroke-width="2" stroke-miterlimit="10" points="79.167,121.166 355.5,121.166 
			324.5,175.833 		"/>
		<polyline fill="none" stroke="#000000" stroke-width="2" stroke-miterlimit="10" points="186.5,121.166 160.833,167.833 
			295.833,167.833 		"/>
		<polyline fill="none" stroke="#000000" stroke-width="2" stroke-miterlimit="10" points="307.167,146.499 250.5,244.5 
			219.333,187.166 		"/>
		<polyline fill="none" stroke="#000000" stroke-width="2" stroke-miterlimit="10" points="135.833,141.166 196.5,247.832 
			187.098,265.924 216.333,265.924 159.833,167.833 		"/>
		<line fill="none" stroke="#000000" stroke-width="2" stroke-miterlimit="10" x1="196.5" y1="247.832" x2="206" y2="247.832"/>
		<polyline fill="none" stroke="#000000" stroke-width="2" stroke-miterlimit="10" points="297.708,204.045 302.5,213.665 
			239.5,324.354 		"/>
		<polyline fill="none" stroke="#000000" stroke-width="2" stroke-miterlimit="10" points="302.5,213.665 321.625,213.097 
			307.167,187.165 252.5,284.723 196.5,284.723 		"/>
		<line fill="none" stroke="#000000" stroke-width="2" stroke-miterlimit="10" x1="252.5" y1="284.723" x2="186" y2="167.833"/>
		<polyline fill="none" stroke="#000000" stroke-width="2" stroke-miterlimit="10" points="344.158,141.166 221.833,141.166 
			210.5,122.166 196.5,146.665 307.167,146.665 334.797,192.548 		"/>
		<polyline fill="none" stroke="#000000" stroke-width="2" stroke-miterlimit="10" points="239.5,225.578 262.25,187.165 
			198.103,187.165 		"/>
		
			<line fill="none" stroke="#000000" stroke-width="2" stroke-miterlimit="10" x1="221.833" y1="141.166" x2="219.792" y2="146.207"/>
	</g>
</g>
</svg>
