<?xml version="1.0" encoding="utf-8"?>
<!-- Generator: Adobe Illustrator 16.0.0, SVG Export Plug-In . SVG Version: 6.00 Build 0)  -->
<!DOCTYPE svg PUBLIC "-//W3C//DTD SVG 1.1//EN" "http://www.w3.org/Graphics/SVG/1.1/DTD/svg11.dtd">
<svg version="1.1" xmlns="http://www.w3.org/2000/svg" xmlns:xlink="http://www.w3.org/1999/xlink" x="0px" y="0px" width="501px"
	 height="501px" viewBox="0 0 501 501" enable-background="new 0 0 501 501" xml:space="preserve">
<g id="Layer_1">
</g>
<g id="Layer_2">
	<g>
		<polyline fill="none" stroke="#000000" stroke-width="2" stroke-miterlimit="10" points="242.512,177.28 224.592,186.712 
			111.408,123.519 83.113,135.78 197.24,201.803 169.887,218.781 193.467,235.758 155.738,254.984 		"/>
		<polyline fill="none" stroke="#000000" stroke-width="2" stroke-miterlimit="10" points="260.432,177.752 280.238,189.251 
			389.176,123.519 418.887,133.894 389.176,314.514 362.768,337.149 		"/>
		<polygon fill="none" stroke="#000000" stroke-width="2" stroke-miterlimit="10" points="225.063,219.252 251.555,200.86 
			280.238,217.837 251.943,236.464 		"/>
		<polyline fill="none" stroke="#000000" stroke-width="2" stroke-miterlimit="10" points="174.816,215.72 121.783,184.826 
			144.42,337.149 		"/>
		<polyline fill="none" stroke="#000000" stroke-width="2" stroke-miterlimit="10" points="347.627,254.984 308.533,235.049 
			333.059,218.662 305.705,200.86 418.887,133.894 		"/>
		
			<line fill="none" stroke="#000000" stroke-width="2" stroke-miterlimit="10" x1="219.877" y1="254.984" x2="221.291" y2="288.161"/>
		
			<line fill="none" stroke="#000000" stroke-width="2" stroke-miterlimit="10" x1="280.711" y1="252.155" x2="280.711" y2="285.746"/>
		
			<line fill="none" stroke="#000000" stroke-width="2" stroke-miterlimit="10" x1="251.555" y1="271.781" x2="251.555" y2="305.554"/>
		<polyline fill="none" stroke="#000000" stroke-width="2" stroke-miterlimit="10" points="149.307,200.86 157.625,288.576 
			219.877,254.984 251.555,271.781 280.711,252.155 344.375,288.576 352.865,200.86 		"/>
		<polyline fill="none" stroke="#000000" stroke-width="2" stroke-miterlimit="10" points="329.199,216.15 385.875,180.109 
			362.768,337.149 281.652,285.746 251.555,305.554 221.176,287.161 144.42,337.149 114.238,314.514 82.113,135.78 		"/>
		
			<line fill="none" stroke="#000000" stroke-width="2" stroke-miterlimit="10" x1="168.887" y1="218.781" x2="169.887" y2="247.775"/>
		<polyline fill="none" stroke="#000000" stroke-width="2" stroke-miterlimit="10" points="237.867,227.452 251.555,218.662 
			265.633,227.452 		"/>
		
			<line fill="none" stroke="#000000" stroke-width="2" stroke-miterlimit="10" x1="251.555" y1="218.662" x2="251.555" y2="200.86"/>
		<polygon fill="none" stroke="#000000" stroke-width="2" stroke-miterlimit="10" points="225.063,339.979 251.555,321.587 
			280.238,338.564 251.943,357.191 		"/>
		<polyline fill="none" stroke="#000000" stroke-width="2" stroke-miterlimit="10" points="237.867,348.179 251.555,339.389 
			265.633,348.179 		"/>
		
			<line fill="none" stroke="#000000" stroke-width="2" stroke-miterlimit="10" x1="251.555" y1="339.389" x2="251.555" y2="321.587"/>
		<polygon fill="none" stroke="#000000" stroke-width="2" stroke-miterlimit="10" points="158.096,106.542 251.555,69.051 
			345.555,106.542 252.65,152.522 		"/>
		<polyline fill="none" stroke="#000000" stroke-width="2" stroke-miterlimit="10" points="346.555,106.542 345.555,132.479 
			252.65,181.525 158.096,133.894 157.096,106.542 		"/>
		<polygon fill="none" stroke="#000000" stroke-width="2" stroke-miterlimit="10" points="220.584,106.542 251.555,122.104 
			283.541,106.542 251.084,93.102 		"/>
		<polyline fill="none" stroke="#000000" stroke-width="2" stroke-miterlimit="10" points="234.494,113.532 251.555,106.542 
			267.758,113.532 		"/>
		
			<line fill="none" stroke="#000000" stroke-width="2" stroke-miterlimit="10" x1="251.555" y1="106.542" x2="251.555" y2="93.102"/>
		
			<line fill="none" stroke="#000000" stroke-width="2" stroke-miterlimit="10" x1="334.059" y1="218.662" x2="333.059" y2="247.556"/>
		<polyline fill="none" stroke="#000000" stroke-width="2" stroke-miterlimit="10" points="263.906,297.391 323.152,339.042 
			251.084,396.576 178.846,337.149 237.867,296.684 		"/>
		<polyline fill="none" stroke="#000000" stroke-width="2" stroke-miterlimit="10" points="178.846,337.149 181.676,372.528 
			252.65,431.949 321.738,371.113 323.152,339.042 		"/>
		
			<line fill="none" stroke="#000000" stroke-width="2" stroke-miterlimit="10" x1="251.084" y1="396.576" x2="251.084" y2="431.949"/>
		<line fill="none" stroke="#000000" stroke-width="2" stroke-miterlimit="10" x1="252.65" y1="152.522" x2="252.65" y2="181.525"/>
	</g>
</g>
</svg>
