<?xml version="1.0" encoding="utf-8"?>
<!-- Generator: Adobe Illustrator 16.0.0, SVG Export Plug-In . SVG Version: 6.00 Build 0)  -->
<!DOCTYPE svg PUBLIC "-//W3C//DTD SVG 1.1//EN" "http://www.w3.org/Graphics/SVG/1.1/DTD/svg11.dtd">
<svg version="1.1" xmlns="http://www.w3.org/2000/svg" xmlns:xlink="http://www.w3.org/1999/xlink" x="0px" y="0px"
	 width="468.047px" height="468.047px" viewBox="0 0 468.047 468.047" enable-background="new 0 0 468.047 468.047"
	 xml:space="preserve">
<g id="Layer_1">
</g>
<g id="Layer_2">
	<g>
		<polygon fill="none" stroke="#000000" stroke-width="2" stroke-miterlimit="10" points="249.314,78.357 322.831,213.098 
			272.813,299.863 322.831,299.863 375.91,213.076 299.352,78.357 		"/>
		
			<line fill="none" stroke="#000000" stroke-width="2" stroke-miterlimit="10" x1="197.277" y1="165.143" x2="248.773" y2="78.357"/>
		<polyline fill="none" stroke="#000000" stroke-width="2" stroke-miterlimit="10" points="349.644,255.518 401.429,345.799 
			375.91,389.689 222.794,389.689 171.757,299.863 197.277,255.518 248.314,345.799 401.429,345.799 		"/>
		
			<line fill="none" stroke="#000000" stroke-width="2" stroke-miterlimit="10" x1="248.314" y1="345.799" x2="222.794" y2="389.689"/>
		<polyline fill="none" stroke="#000000" stroke-width="2" stroke-miterlimit="10" points="94.178,344.777 171.757,212.076 
			145.217,166.143 66.618,299.863 94.178,344.777 197.277,344.777 		"/>
		
			<line fill="none" stroke="#000000" stroke-width="2" stroke-miterlimit="10" x1="171.757" y1="212.076" x2="272.813" y2="212.076"/>
		<polyline fill="none" stroke="#000000" stroke-width="2" stroke-miterlimit="10" points="145.217,165.143 248.314,165.143 
			272.813,212.076 248.314,256.992 271.813,299.863 		"/>
		
			<line fill="none" stroke="#000000" stroke-width="2" stroke-miterlimit="10" x1="197.277" y1="254.518" x2="248.314" y2="256.518"/>
		
			<line fill="none" stroke="#000000" stroke-width="2" stroke-miterlimit="10" x1="322.831" y1="213.098" x2="375.91" y2="213.098"/>
	</g>
</g>
</svg>
