<?xml version="1.0" encoding="utf-8"?>
<!-- Generator: Adobe Illustrator 16.0.0, SVG Export Plug-In . SVG Version: 6.00 Build 0)  -->
<!DOCTYPE svg PUBLIC "-//W3C//DTD SVG 1.1//EN" "http://www.w3.org/Graphics/SVG/1.1/DTD/svg11.dtd">
<svg version="1.1" xmlns="http://www.w3.org/2000/svg" xmlns:xlink="http://www.w3.org/1999/xlink" x="0px" y="0px" width="500px"
	 height="500px" viewBox="0 0 500 500" enable-background="new 0 0 500 500" xml:space="preserve">
<g id="Layer_1">
</g>
<g id="Layer_2">
	<g>
		<polygon fill="none" stroke="#000000" stroke-width="2" stroke-miterlimit="10" points="125.614,119.38 175.48,144.314 
			175.48,93.312 248.018,129.58 325.084,93.312 325.084,144.314 376.085,118.813 376.085,149.98 299.02,194.208 299.02,135.247 
			250.85,159.048 198.148,136.38 198.148,188.515 125.614,149.98 		"/>
		<line fill="none" stroke="#000000" stroke-width="2" stroke-miterlimit="10" x1="248.018" y1="129.58" x2="248.018" y2="157.83"/>
		<polyline fill="none" stroke="#000000" stroke-width="2" stroke-miterlimit="10" points="175.48,93.312 201.548,76.313 
			249.177,101.195 299.02,76.313 326.242,92.23 		"/>
		<polyline fill="none" stroke="#000000" stroke-width="2" stroke-miterlimit="10" points="226.585,148.611 226.585,178.315 
			198.148,188.515 		"/>
		<polyline fill="none" stroke="#000000" stroke-width="2" stroke-miterlimit="10" points="274.512,148.611 274.512,178.315 
			299.02,195.316 		"/>
		<polygon fill="none" stroke="#000000" stroke-width="2" stroke-miterlimit="10" points="74.895,207.782 125.614,234.983 
			74.895,263.882 151.397,307.235 151.397,393.088 198.148,365.036 198.148,423.688 226.585,410.089 226.585,322.535 
			175.48,350.586 175.48,292.783 125.614,263.882 175.48,234.983 96.995,188.515 		"/>
		<polygon fill="none" stroke="#000000" stroke-width="2" stroke-miterlimit="10" points="299.02,423.688 299.02,365.886 
			351.152,394.787 351.152,306.104 425.104,264.733 376.085,234.983 425.104,206.083 402.154,188.515 325.084,234.983 
			376.085,264.733 325.084,294.483 325.084,349.735 274.512,324.234 274.512,411.788 		"/>
		<polyline fill="none" stroke="#000000" stroke-width="2" stroke-miterlimit="10" points="175.48,234.983 175.48,264.733 
			150.74,278.444 		"/>
		<polyline fill="none" stroke="#000000" stroke-width="2" stroke-miterlimit="10" points="325.084,234.983 325.084,264.733 
			349.809,278.444 		"/>
		<polyline fill="none" stroke="#000000" stroke-width="2" stroke-miterlimit="10" points="425.104,264.733 425.104,293.634 
			376.085,322.535 376.085,380.337 351.152,394.787 		"/>
		<polyline fill="none" stroke="#000000" stroke-width="2" stroke-miterlimit="10" points="425.104,206.083 425.104,238.383 
			403.798,251.808 		"/>
		<polyline fill="none" stroke="#000000" stroke-width="2" stroke-miterlimit="10" points="325.084,319.059 299.02,306.104 
			274.512,324.234 		"/>
		<polyline fill="none" stroke="#000000" stroke-width="2" stroke-miterlimit="10" points="325.084,380.335 325.084,413.488 
			299.8,423.688 		"/>
		<polyline fill="none" stroke="#000000" stroke-width="2" stroke-miterlimit="10" points="125.614,119.38 150.74,103.513 
			175.198,115.979 		"/>
		<polyline fill="none" stroke="#000000" stroke-width="2" stroke-miterlimit="10" points="325.084,115.904 351.152,103.513 
			376.085,118.813 		"/>
		<polyline fill="none" stroke="#000000" stroke-width="2" stroke-miterlimit="10" points="74.895,207.782 74.895,239.233 
			100.157,249.49 		"/>
		<polyline fill="none" stroke="#000000" stroke-width="2" stroke-miterlimit="10" points="74.895,263.882 74.895,293.634 
			125.614,324.234 125.614,383.736 151.397,394.169 		"/>
		<polyline fill="none" stroke="#000000" stroke-width="2" stroke-miterlimit="10" points="175.48,319.6 201.548,306.104 
			226.764,321.195 		"/>
		<polyline fill="none" stroke="#000000" stroke-width="2" stroke-miterlimit="10" points="175.198,378.806 175.198,411.788 
			196.99,423.611 		"/>
		
			<line fill="none" stroke="#000000" stroke-width="2" stroke-miterlimit="10" x1="325.084" y1="294.483" x2="350.728" y2="306.527"/>
	</g>
	<g>
	</g>
	<g>
	</g>
	<g>
	</g>
	<g>
	</g>
	<g>
	</g>
	<g>
	</g>
</g>
</svg>
