<?xml version="1.0" encoding="utf-8"?>
<!-- Generator: Adobe Illustrator 16.0.0, SVG Export Plug-In . SVG Version: 6.00 Build 0)  -->
<!DOCTYPE svg PUBLIC "-//W3C//DTD SVG 1.1//EN" "http://www.w3.org/Graphics/SVG/1.1/DTD/svg11.dtd">
<svg version="1.1" id="Layer_1" xmlns="http://www.w3.org/2000/svg" xmlns:xlink="http://www.w3.org/1999/xlink" x="0px" y="0px"
	 width="500px" height="500px" viewBox="0 0 500 500" enable-background="new 0 0 500 500" xml:space="preserve">
<polyline fill="none" stroke="#000000" stroke-width="2" stroke-miterlimit="10" points="235.762,232.294 184.977,179.73 
	275.854,89.739 "/>
<line fill="none" stroke="#000000" stroke-width="2" stroke-miterlimit="10" x1="184.977" y1="179.73" x2="148.447" y2="179.73"/>
<polyline fill="none" stroke="#000000" stroke-width="2" stroke-miterlimit="10" points="256.254,212.691 224.18,179.73 
	276.745,129.833 327.529,181.51 185.867,324.064 274.964,412.27 367.623,323.172 297.237,254.569 "/>
<polyline fill="none" stroke="#000000" stroke-width="2" stroke-miterlimit="10" points="277.314,271.173 328.422,323.172 
	277.638,374.85 225.069,324.064 256.951,291.787 277.314,271.173 368.515,178.837 275.854,89.739 234.871,86.179 148.447,179.73 
	213.488,251.896 "/>
<path fill="none" stroke="#000000" stroke-width="2" stroke-miterlimit="10" d="M287.436,324.064l-30.484-32.277L287.436,324.064z"
	/>
<polyline fill="none" stroke="#000000" stroke-width="2" stroke-miterlimit="10" points="324.857,323.172 287.436,324.064 
	256.254,355.247 "/>
<polyline fill="none" stroke="#000000" stroke-width="2" stroke-miterlimit="10" points="258.035,148.543 286.547,180.617 
	146.666,321.392 237.544,414.05 274.964,412.27 "/>
<line fill="none" stroke="#000000" stroke-width="2" stroke-miterlimit="10" x1="185.867" y1="324.064" x2="150.229" y2="322.278"/>
<line fill="none" stroke="#000000" stroke-width="2" stroke-miterlimit="10" x1="327.529" y1="181.51" x2="286.547" y2="180.617"/>
</svg>
