<?xml version="1.0" encoding="utf-8"?>
<!-- Generator: Adobe Illustrator 16.0.0, SVG Export Plug-In . SVG Version: 6.00 Build 0)  -->
<!DOCTYPE svg PUBLIC "-//W3C//DTD SVG 1.1//EN" "http://www.w3.org/Graphics/SVG/1.1/DTD/svg11.dtd">
<svg version="1.1" xmlns="http://www.w3.org/2000/svg" xmlns:xlink="http://www.w3.org/1999/xlink" x="0px" y="0px" width="487px"
	 height="487px" viewBox="0 0 487 487" enable-background="new 0 0 487 487" xml:space="preserve">
<g id="Layer_1">
</g>
<g id="Layer_2">
	<g>
		<polygon fill="none" stroke="#000000" stroke-width="2" stroke-miterlimit="10" points="130.96,136.111 244.719,84.919 
			356.04,136.111 356.04,348.189 243.5,402.08 130.96,349.002 		"/>
		<polyline fill="none" stroke="#000000" stroke-width="2" stroke-miterlimit="10" points="130.96,349.002 243.5,298.623 
			356.04,348.189 		"/>
		<polygon fill="none" stroke="#000000" stroke-width="2" stroke-miterlimit="10" points="191.902,349.002 243.5,323.813 
			294.285,349.002 243.094,375.816 		"/>
		<polyline fill="none" stroke="#000000" stroke-width="2" stroke-miterlimit="10" points="219.032,335.756 243.094,345.752 
			243.094,375.816 		"/>
		
			<line fill="none" stroke="#000000" stroke-width="2" stroke-miterlimit="10" x1="267.581" y1="335.756" x2="243.094" y2="345.752"/>
		<polyline fill="none" stroke="#000000" stroke-width="2" stroke-miterlimit="10" points="294.285,292.559 294.285,162.113 
			243.5,137.736 191.902,163.738 191.902,292.605 		"/>
		<polyline fill="none" stroke="#000000" stroke-width="2" stroke-miterlimit="10" points="243.5,298.623 243.5,162.113 
			267.581,149.294 		"/>
		<line fill="none" stroke="#000000" stroke-width="2" stroke-miterlimit="10" x1="243.5" y1="162.113" x2="219.032" y2="150.066"/>
		<polyline fill="none" stroke="#000000" stroke-width="2" stroke-miterlimit="10" points="161.024,149.112 272.346,199.491 
			272.346,283.186 356.04,318.938 		"/>
		
			<line fill="none" stroke="#000000" stroke-width="2" stroke-miterlimit="10" x1="294.285" y1="189.74" x2="272.346" y2="199.491"/>
		<polyline fill="none" stroke="#000000" stroke-width="2" stroke-miterlimit="10" points="325.975,149.112 213.029,197.866 
			213.029,282.373 161.024,307.563 161.024,149.112 245.094,110.109 325.975,149.112 325.975,306.563 		"/>
		
			<line fill="none" stroke="#000000" stroke-width="2" stroke-miterlimit="10" x1="191.902" y1="189.74" x2="213.029" y2="197.866"/>
		
			<line fill="none" stroke="#000000" stroke-width="2" stroke-miterlimit="10" x1="244.719" y1="84.919" x2="244.719" y2="110.109"/>
	</g>
</g>
</svg>
