<?xml version="1.0" encoding="utf-8"?>
<!-- Generator: Adobe Illustrator 16.0.0, SVG Export Plug-In . SVG Version: 6.00 Build 0)  -->
<!DOCTYPE svg PUBLIC "-//W3C//DTD SVG 1.1//EN" "http://www.w3.org/Graphics/SVG/1.1/DTD/svg11.dtd">
<svg version="1.1" id="Layer_1" xmlns="http://www.w3.org/2000/svg" xmlns:xlink="http://www.w3.org/1999/xlink" x="0px" y="0px"
	 width="500px" height="500px" viewBox="0 0 500 500" enable-background="new 0 0 500 500" xml:space="preserve">
<line fill="none" stroke="#000000" stroke-width="2" stroke-miterlimit="10" x1="233.944" y1="93.582" x2="275.18" y2="162.591"/>
<polyline fill="none" stroke="#000000" stroke-width="2" stroke-miterlimit="10" points="181.767,231.599 235.627,140.71 
	247.408,164.273 196.915,255.161 "/>
<polyline fill="none" stroke="#000000" stroke-width="2" stroke-miterlimit="10" points="247.408,164.273 382.058,165.116 
	395.523,187.838 355.129,254.321 "/>
<line fill="none" stroke="#000000" stroke-width="2" stroke-miterlimit="10" x1="382.058" y1="165.116" x2="340.821" y2="232.439"/>
<polyline fill="none" stroke="#000000" stroke-width="2" stroke-miterlimit="10" points="235.627,186.995 339.98,186.155 
	328.198,209.717 222.161,209.717 "/>
<polyline fill="none" stroke="#000000" stroke-width="2" stroke-miterlimit="10" points="328.198,209.717 394.682,327.537 
	382.058,347.734 302.11,348.574 "/>
<polyline fill="none" stroke="#000000" stroke-width="2" stroke-miterlimit="10" points="302.951,211.401 355.129,302.29 
	327.357,303.13 275.18,210.56 "/>
<line fill="none" stroke="#000000" stroke-width="2" stroke-miterlimit="10" x1="394.682" y1="327.537" x2="314.734" y2="327.537"/>
<polyline fill="none" stroke="#000000" stroke-width="2" stroke-miterlimit="10" points="327.357,303.13 261.716,417.584 
	235.627,418.425 196.074,351.099 "/>
<polyline fill="none" stroke="#000000" stroke-width="2" stroke-miterlimit="10" points="301.268,255.161 248.25,348.574 
	260.873,371.296 315.574,278.727 "/>
<line fill="none" stroke="#000000" stroke-width="2" stroke-miterlimit="10" x1="222.161" y1="349.417" x2="261.716" y2="417.584"/>
<polyline fill="none" stroke="#000000" stroke-width="2" stroke-miterlimit="10" points="248.25,348.574 115.284,347.734 
	101.818,325.012 140.531,258.529 "/>
<line fill="none" stroke="#000000" stroke-width="2" stroke-miterlimit="10" x1="153.993" y1="281.251" x2="115.284" y2="347.734"/>
<polyline fill="none" stroke="#000000" stroke-width="2" stroke-miterlimit="10" points="262.555,325.855 152.313,326.695 
	168.303,302.29 273.496,301.449 "/>
<polyline fill="none" stroke="#000000" stroke-width="2" stroke-miterlimit="10" points="168.303,302.29 100.137,187.838 
	113.601,164.275 195.231,164.275 "/>
<line fill="none" stroke="#000000" stroke-width="2" stroke-miterlimit="10" x1="180.926" y1="187.838" x2="100.137" y2="187.838"/>
<polyline fill="none" stroke="#000000" stroke-width="2" stroke-miterlimit="10" points="192.707,303.133 139.688,210.56 
	168.303,210.56 233.944,93.582 261.716,93.582 304.635,165.116 "/>
<line fill="none" stroke="#000000" stroke-width="2" stroke-miterlimit="10" x1="220.479" y1="301.449" x2="168.303" y2="210.56"/>
</svg>
