<svg id="Layer_1" data-name="Layer 1" xmlns="http://www.w3.org/2000/svg" viewBox="0 0 347.79 47.52"><defs><style>.cls-1{fill:#3c1d22;}.cls-2{fill:#f36e38;}.cls-3{fill:#fff;}.cls-4{fill:#606161;}</style></defs><path class="cls-1" d="M5.32,22.7A25,25,0,0,1,13.57,4.1a21.37,21.37,0,0,0,0,37.21A25,25,0,0,1,5.32,22.7Z"/><circle class="cls-2" cx="27.53" cy="23.76" r="21.37"/><path class="cls-3" d="M34.32,33A10.13,10.13,0,0,1,28,35.56a8.82,8.82,0,0,1-1.92-.06,10.34,10.34,0,0,1-8.89-11A10.31,10.31,0,0,1,28.5,15a10.1,10.1,0,0,1,6.1,2.81l4.68-.25a13.64,13.64,0,1,0-.22,15.24Z"/><path class="cls-3" d="M28.49,22.65A1.64,1.64,0,1,1,30.13,21,1.65,1.65,0,0,1,28.49,22.65Zm0-2.5a.86.86,0,1,0,.86.86A.86.86,0,0,0,28.49,20.15Z"/><path class="cls-3" d="M20.12,26.31a1.64,1.64,0,1,1,1.64-1.64A1.63,1.63,0,0,1,20.12,26.31Zm0-2.5a.86.86,0,1,0,.86.86A.86.86,0,0,0,20.12,23.81Z"/><path class="cls-3" d="M30.52,28a1.64,1.64,0,1,1,1.64-1.64A1.64,1.64,0,0,1,30.52,28Zm0-2.5a.86.86,0,1,0,.86.86A.86.86,0,0,0,30.52,25.45Z"/><rect class="cls-3" x="15.26" y="20.62" width="11.93" height="0.78"/><rect class="cls-3" x="21.76" y="24.28" width="4.83" height="0.78"/><rect class="cls-3" x="25.82" y="24.28" width="0.78" height="11.45"/><rect class="cls-3" x="30.13" y="27.27" width="0.78" height="8.47"/><path class="cls-1" d="M87.11,13.85,85,15.8A10.8,10.8,0,0,0,76.32,12a11.13,11.13,0,0,0-8.27,3.37,11.49,11.49,0,0,0-3.28,8.39,11.59,11.59,0,0,0,3.28,8.44,11.13,11.13,0,0,0,8.27,3.32,10.84,10.84,0,0,0,8.76-4l2.15,1.94a13.8,13.8,0,0,1-10.91,5,14.44,14.44,0,0,1-10.46-4.18,14.19,14.19,0,0,1-4.25-10.5,14.13,14.13,0,0,1,4.25-10.46A14.47,14.47,0,0,1,76.32,9.07,13.8,13.8,0,0,1,87.11,13.85Z"/><path class="cls-1" d="M90,27.72a10.94,10.94,0,0,1,2.88-7.91,9.74,9.74,0,0,1,7.33-3,8.51,8.51,0,0,1,6.77,3A10.4,10.4,0,0,1,109.57,27c0,.44,0,.89,0,1.29H93c.16,4.5,3,7.38,7.29,7.38a7.7,7.7,0,0,0,6.29-2.84l2,2a10.65,10.65,0,0,1-8.28,3.61,10.18,10.18,0,0,1-7.46-2.88A10.33,10.33,0,0,1,90,27.88Zm16.42-2.07a5.71,5.71,0,0,0-1.83-4.26,6.05,6.05,0,0,0-4.38-1.78,7.08,7.08,0,0,0-4.82,1.78,6.11,6.11,0,0,0-2.19,4.26Z"/><path class="cls-1" d="M113.22,9.59h3V32.5c0,2.27.65,3.16,2.55,3.16a5.21,5.21,0,0,0,1.46-.16v2.8a5.59,5.59,0,0,1-1.46.16,6.64,6.64,0,0,1-3.56-.89c-1.26-.69-2-2.39-2-4.87Z"/><path class="cls-1" d="M121.81,27.72a11,11,0,0,1,2.88-7.91,9.78,9.78,0,0,1,7.34-3,8.51,8.51,0,0,1,6.77,3A10.4,10.4,0,0,1,141.44,27c0,.44,0,.89,0,1.29H124.81c.17,4.5,3,7.38,7.3,7.38a7.7,7.7,0,0,0,6.29-2.84l2,2a10.63,10.63,0,0,1-8.27,3.61,10.18,10.18,0,0,1-7.46-2.88,10.34,10.34,0,0,1-2.84-7.62Zm16.42-2.07a5.7,5.7,0,0,0-1.82-4.26A6.09,6.09,0,0,0,132,19.61a7.06,7.06,0,0,0-4.82,1.78A6.11,6.11,0,0,0,125,25.65Z"/><path class="cls-1" d="M146,32.46c.53,1.74,2.35,3.08,5.15,3.08,3.36,0,4.5-1.54,4.5-3.12a2.59,2.59,0,0,0-1.14-2.31,20.62,20.62,0,0,0-4-1.95c-3.73-1.46-5.55-3-5.55-6,0-3.12,2.55-5.39,6.16-5.39a6.13,6.13,0,0,1,5.92,3.53l-2.44,1.25a3.65,3.65,0,0,0-3.44-2c-1.91,0-3.2,1-3.2,2.63s1.37,2.52,4.46,3.69c4.21,1.62,6.2,3.41,6.2,6.53s-2.64,5.92-7.5,5.92c-3.89,0-6.89-1.79-7.7-4.91Z"/><path class="cls-1" d="M163.53,20.21h-2.39V17.42h2.39V9.59h3v7.83h4.75v2.79h-4.75V32.13c0,2.6.86,3.53,2.84,3.53a12.78,12.78,0,0,0,1.91-.12v2.72a8.93,8.93,0,0,1-1.87.2,6.56,6.56,0,0,1-3.85-1c-1.26-.82-2-2.6-2-5.32Z"/><path class="cls-1" d="M174.85,13.44a2,2,0,0,1,0-2.87,1.94,1.94,0,0,1,2.83,0,2,2,0,0,1,0,2.87A2,2,0,0,1,174.85,13.44Zm-.09,24.41V17.42h3V37.85Z"/><path class="cls-1" d="M189.28,25.73a14.06,14.06,0,0,0,4.3-.77,2.2,2.2,0,0,0,1.13-2.23c0-1.66-1.42-3.12-4.38-3.12a6.67,6.67,0,0,0-5.51,2.88l-2.07-1.71a8.74,8.74,0,0,1,7.58-4c4.42,0,7.38,2.47,7.38,6.36V34.08c0,1.54.81,1.58,1.7,1.58h.37v2.15a4,4,0,0,1-2.07.45,2.31,2.31,0,0,1-2.15-1.1,4.06,4.06,0,0,1-.44-1.3c-1.46,1.75-3.77,2.6-7,2.6-4.37,0-7.38-2.43-7.38-6.12C180.76,28.16,183.6,26.17,189.28,25.73Zm-.81,9.93c4,0,6.24-1.82,6.24-4.7V27.31c-.57.61-2.35,1-5.31,1.26-3.73.32-5.63,1.21-5.63,3.69C183.77,34.4,185.55,35.66,188.47,35.66Z"/><path class="cls-1" d="M202.7,9.59h3V32.5c0,2.27.65,3.16,2.55,3.16a5.21,5.21,0,0,0,1.46-.16v2.8a5.59,5.59,0,0,1-1.46.16,6.68,6.68,0,0,1-3.57-.89c-1.25-.69-2-2.39-2-4.87Z"/><path class="cls-4" d="M220.62,37.05V21.1h-4.85V19.26h11.68V21.1h-4.84V37.05Z"/><path class="cls-4" d="M231.16,30.67a6.9,6.9,0,0,1,1.81-5,6.15,6.15,0,0,1,4.62-1.89,5.38,5.38,0,0,1,4.26,1.87,6.57,6.57,0,0,1,1.65,4.54c0,.28,0,.56,0,.81H233c.11,2.84,1.92,4.65,4.6,4.65a4.83,4.83,0,0,0,4-1.79l1.25,1.23a6.71,6.71,0,0,1-5.2,2.27,6.42,6.42,0,0,1-4.7-1.81,6.49,6.49,0,0,1-1.78-4.8Zm10.33-1.3a3.57,3.57,0,0,0-1.15-2.68,3.81,3.81,0,0,0-2.75-1.12,4.46,4.46,0,0,0-3,1.12,3.86,3.86,0,0,0-1.38,2.68Z"/><path class="cls-4" d="M260.75,25.74l-1.14,1.33a5,5,0,0,0-3.73-1.5A4.74,4.74,0,0,0,252.33,27a4.87,4.87,0,0,0-1.4,3.6,5,5,0,0,0,1.4,3.62,4.84,4.84,0,0,0,3.55,1.43,5,5,0,0,0,3.73-1.51l1.14,1.33a6.46,6.46,0,0,1-4.87,1.94A6.66,6.66,0,0,1,251,35.49a6.58,6.58,0,0,1-2-4.87,6.53,6.53,0,0,1,2-4.85,6.69,6.69,0,0,1,4.85-2A6.46,6.46,0,0,1,260.75,25.74Z"/><path class="cls-4" d="M266.62,37.05V19.26h1.89v7.1a4.22,4.22,0,0,1,4-2.38c2.83,0,4.61,1.92,4.61,4.85v8.22H275.2V29.24c0-2.14-1.23-3.5-3.19-3.5a3.42,3.42,0,0,0-3.5,3.63v7.68Z"/><path class="cls-4" d="M284.71,37.05V19.26h2v16H294v1.84Z"/><path class="cls-4" d="M304.49,29.42a8.65,8.65,0,0,0,2.7-.49,1.37,1.37,0,0,0,.72-1.4c0-1.05-.9-2-2.76-2a4.21,4.21,0,0,0-3.47,1.81l-1.3-1.08a5.51,5.51,0,0,1,4.77-2.5c2.78,0,4.65,1.56,4.65,4v6.86c0,1,.51,1,1.07,1h.23V37a2.46,2.46,0,0,1-1.3.28,1.46,1.46,0,0,1-1.36-.69,2.5,2.5,0,0,1-.28-.81,5.42,5.42,0,0,1-4.39,1.63c-2.75,0-4.64-1.53-4.64-3.85C299.13,31,300.92,29.7,304.49,29.42ZM304,35.67c2.52,0,3.93-1.15,3.93-3v-2.3c-.36.39-1.48.64-3.35.79-2.34.21-3.54.77-3.54,2.33C301,34.88,302.14,35.67,304,35.67Z"/><path class="cls-4" d="M316.74,37.05V19.26h1.88V26.1a5,5,0,0,1,4.57-2.3,6.21,6.21,0,0,1,4.62,2,6.72,6.72,0,0,1,1.89,4.85,6.77,6.77,0,0,1-1.89,4.87,6.18,6.18,0,0,1-4.62,1.94,5,5,0,0,1-4.57-2.3v1.92Zm9.74-2.81a5.09,5.09,0,0,0,1.33-3.62,5,5,0,0,0-1.33-3.6,4.22,4.22,0,0,0-3.29-1.45A4.53,4.53,0,0,0,319.75,27a5,5,0,0,0-1.36,3.6,5.12,5.12,0,0,0,1.36,3.62,4.62,4.62,0,0,0,3.44,1.43A4.3,4.3,0,0,0,326.48,34.24Z"/><path class="cls-4" d="M336.49,33.65c.33,1.1,1.48,1.94,3.24,1.94,2.11,0,2.83-1,2.83-2a1.64,1.64,0,0,0-.72-1.46,13.11,13.11,0,0,0-2.5-1.22c-2.34-.92-3.49-1.89-3.49-3.75s1.61-3.4,3.88-3.4A3.85,3.85,0,0,1,343.45,26l-1.53.8a2.29,2.29,0,0,0-2.17-1.28c-1.2,0-2,.61-2,1.66s.86,1.58,2.8,2.32c2.66,1,3.91,2.14,3.91,4.11s-1.66,3.72-4.72,3.72c-2.45,0-4.34-1.12-4.85-3.09Z"/></svg>