<svg width="144" height="131" viewBox="0 0 144 131" fill="none" xmlns="http://www.w3.org/2000/svg">
<path d="M22.8316 74.701L0 48.8289L68.3121 0L136.624 48.8289L113.427 74.701H22.8316Z" fill="#006ADA"/>
<path d="M22.8316 74.701L0 48.8289L68.3121 0L136.624 48.8289L113.427 74.701H22.8316Z" fill="#514ABF"/>
<path d="M133.336 52.1084H0V110.229H133.336V52.1084Z" fill="#006ADA"/>
<path d="M133.336 52.1084H0V110.229H133.336V52.1084Z" fill="url(#paint0_linear)"/>
<path d="M136.624 131H0V48.8291L68.3121 90.0057L136.624 48.8291V131Z" fill="#006ADA"/>
<path d="M119.196 21.2839L104.706 10.2012L66.3236 60.1328L45.0061 43.8275L33.8955 58.2811L62.456 80.0936L69.78 85.5688L119.196 21.2839Z" fill="#3AD29F"/>
<path d="M0.576412 30.4055L0.0332031 30.67L0.0956703 30.5592L0.047998 30.5745L0.114849 30.5252L7.42588 17.5469L11.1631 20.7255L14.3692 23.6864L13.4487 24.1348L14.4836 25.9557L0.576412 30.4055Z" fill="url(#paint1_linear)"/>
<path d="M10.7924 21.0649L13.7229 23.7753L0.44043 30.3623L7.5089 21.3253L10.7924 21.0649Z" fill="#006ADA"/>
<path opacity="0.2" d="M10.7924 21.0649L13.7229 23.7753L0.44043 30.3623L7.5089 21.3253L10.7924 21.0649Z" fill="black"/>
<path d="M7.37429 18.1577L0.44043 30.3624L10.7925 21.065L7.37429 18.1577Z" fill="#006ADA"/>
<path d="M13.8078 25.8739L0.454102 30.2739L11.6169 21.9619L13.8078 25.8739Z" fill="#006ADA"/>
<path d="M125.474 7.05621L122.549 12.1157L144 15.5998L130.184 6.00293L125.474 7.05621Z" fill="#006ADA"/>
<path opacity="0.2" d="M125.474 7.05621L122.549 12.1157L144 15.5998L130.184 6.00293L125.474 7.05621Z" fill="black"/>
<path d="M128.998 1.51123L144 15.6004L125.475 7.05678L128.998 1.51123Z" fill="#006ADA"/>
<path d="M123.34 15.0895L143.941 15.4822L124.709 8.66797L123.34 15.0895Z" fill="#006ADA"/>
<defs>
<linearGradient id="paint0_linear" x1="66.6682" y1="110.229" x2="66.6682" y2="52.1084" gradientUnits="userSpaceOnUse">
<stop stop-opacity="0.12"/>
<stop offset="0.55135" stop-opacity="0.09"/>
<stop offset="1" stop-opacity="0.02"/>
</linearGradient>
<linearGradient id="paint1_linear" x1="10.8716" y1="30.1828" x2="2.64021" y2="23.147" gradientUnits="userSpaceOnUse">
<stop stop-color="#808080" stop-opacity="0.25"/>
<stop offset="0.53514" stop-color="#808080" stop-opacity="0.12"/>
<stop offset="1" stop-color="#808080" stop-opacity="0.1"/>
</linearGradient>
</defs>
</svg>
