<svg class="svg-icon" style="width: 1em; height: 1em;vertical-align: middle;fill: currentColor;overflow: hidden;" viewBox="0 0 1024 1024" version="1.1" xmlns="http://www.w3.org/2000/svg"><path d="M631.9 812.1c-20.8 0-35.9-2.8-41.9-4.2-26.8-1.4-62.7-19-88.4-34.2C464.9 752.5 424 723 387 690.5c-42.3-36.6-79.3-76.8-107.8-115.9-33.8-46.5-55.7-91.9-64.5-134.9-13.7-67.3-6.3-119.8 22.2-156 33.5-43 83.1-45.4 85.2-45.8h1.4c2.1 0 21.5 0.7 44.7 9.5 32.1 12.3 56 34.5 69 64.5 10.2 23.2 11.3 44.7 3.2 66.2-6.7 17.6-51.2 65.5-56.1 77.8 0 1.1 22.3 66.8 89.1 122.8s103.3 67.1 110 66.8c36.6-1.4 79-62.5 122.3-70.1 61.2-10.8 82.8 19.4 99.3 47.6 10.2 17.3 13 39.1 8.8 62.3-3.2 16.6-8.8 28.2-9.5 29.6l-0.4 1.1-0.7 1.1c-41.2 64.8-97.9 86.3-137.7 92.6-12.1 1.7-23.8 2.4-33.6 2.4z" fill="#F9C933" /><path d="M631.9 821.7c-22 0-37.8-3.1-43.3-4.3-31-2-70.8-23-92-35.4-37.5-21.6-78.7-51.5-115.9-84.2-41.9-36.3-79.6-76.9-109.2-117.5-34.8-47.9-57.1-94.5-66.1-138.7-14.3-70.3-6.3-125.4 24.1-164 30.8-39.5 74-47.7 91.1-49.3 0.3 0 1.4-0.1 1.7-0.1h1.4c0.2 0 21.7 0.1 48.2 10.1 34.7 13.4 60.5 37.4 74.5 69.6 11.2 25.6 12.3 49.6 3.3 73.5-4.2 11.2-19.4 30-34 48.2-7.6 9.5-16.8 21-20.6 26.9 5.1 13.4 28.5 67.4 84.8 114.6 62.7 52.6 97.6 64.3 103.5 64.5 15.2-0.6 34.7-16.1 53.5-31.1 21.4-17.1 43.6-34.7 67.4-38.9 65.8-11.7 90.9 20.8 109.4 52.2 11.3 19 14.7 42.9 10 69-3.1 16.3-8.4 28.1-10.1 31.5l-0.2 0.5c-0.3 0.8-0.6 1.5-1.1 2.2l-0.7 1.1C768.4 790 709.3 812.3 667.3 819c-12 1.9-24.2 2.7-35.4 2.7zM322.7 247.6h-0.4c-14.7 1.4-51.6 8.4-77.7 42-26.7 33.9-33.5 83.8-20.4 148.2 8.5 41.4 29.6 85.5 62.8 131.2 28.7 39.4 65.5 78.9 106.3 114.3 36.4 31.9 76.5 61 113 82.1 19.9 11.7 57.1 31.5 84.1 32.9 0.6 0 1.1 0.1 1.7 0.2 4 0.9 18.6 4 39.7 4 10.4 0 21.6-0.8 32.4-2.4 37.9-6 91.5-26.3 130.9-88.3l0.1-0.2c0.1-0.4 0.3-0.7 0.5-1.1 0.6-1.2 5.8-11.9 8.7-27.1 3.9-21.3 1.3-40.6-7.6-55.6-17.1-29.2-35.7-52.5-89.3-43-19 3.4-39.2 19.5-58.7 35-22.2 17.7-43.2 34.4-64.9 35.3h-0.7c-11.9 0-50.4-14.2-115.9-69.1-69.1-57.9-92.5-125.9-92.5-130.2 0-1.2 0.2-2.4 0.7-3.6 2.6-6.6 11.2-17.4 25-34.7 12.4-15.5 27.9-34.7 31-43 7.2-19.1 6.3-37.8-3-58.9-11.9-27.4-33.9-47.9-63.7-59.3-22.8-8.6-41.1-8.9-41.3-8.9h-0.8z" fill="#603813" /><path d="M702.9 521.2h-1c-5.3-0.5-9.2-5.3-8.6-10.6 6-58.5-6.1-103.5-35.9-133.6-49.8-50.3-133.8-43.3-134.7-43.2-5.2 0.5-10-3.4-10.5-8.7-0.5-5.3 3.4-10 8.7-10.5 3.8-0.3 93.8-8 150.1 48.8 34.1 34.4 48.1 84.6 41.5 149.2-0.5 4.8-4.7 8.6-9.6 8.6z" fill="#603813" /><path d="M800.6 510.8h-1c-5.3-0.5-9.2-5.3-8.6-10.6 9.3-91.8-9.8-162.4-56.9-209.9-78.7-79.3-210-68.1-211.4-67.9-5.2 0.5-10-3.4-10.5-8.7-0.5-5.3 3.4-10 8.7-10.5 5.7-0.5 141.8-12.2 226.9 73.6 51.4 51.8 72.4 127.7 62.4 225.5-0.5 4.8-4.7 8.5-9.6 8.5z" fill="#603813" /></svg>