<?xml version="1.0" encoding="utf-8"?>
<!-- Generator: Adobe Illustrator 26.0.2, SVG Export Plug-In . SVG Version: 6.00 Build 0)  -->
<svg version="1.1" id="Layer_1" xmlns="http://www.w3.org/2000/svg" xmlns:xlink="http://www.w3.org/1999/xlink" x="0px" y="0px"
	 viewBox="0 0 1025.4 576.3" style="enable-background:new 0 0 1025.4 576.3;" xml:space="preserve">
<style type="text/css">
	.st0{opacity:0.72;enable-background:new    ;}
	.st1{opacity:0.25;fill:#00CE8F;}
	.st2{fill:#F5F5F5;}
	.st3{fill:#E0E0E0;}
	.st4{fill:#263238;}
	.st5{fill:#FFFFFF;}
	.st6{opacity:0.72;fill:#242A30;enable-background:new    ;}
	.st7{opacity:0.72;fill:#004571;enable-background:new    ;}
	.st8{fill:#FF725E;}
	.st9{fill:#EBEBEB;}
	.st10{opacity:0.3;}
	.st11{fill:none;}
	.st12{fill:#FFBF9D;}
	.st13{fill:#FF9A6C;}
	.st14{fill:#455A64;}
	.st15{fill:#E98D23;}
	.st16{fill:#FFD037;}
	.st17{opacity:0.3;enable-background:new    ;}
	.st18{opacity:0.86;fill:#263238;}
	.st19{fill:#FFB573;}
	.st20{opacity:0.1;enable-background:new    ;}
	.st21{opacity:0.1;fill:#263238;}
	.st22{opacity:0.32;fill:#D05527;enable-background:new    ;}
	.st23{fill:#8A4A43;}
	.st24{fill:#B56760;}
	.st25{fill:#FAFAFA;}
</style>
<g class="st0">
	<path class="st1" d="M222.8,16.2c-33-1-67.4-1.8-97.2,10.2s-52.9,41-42.9,67.7c3.3,8.7,9.6,16.3,15,24.2
		c26.8,39.6,28,90.8,3.2,131.3c-19.1,31.2-51.5,54.9-74.9,83.9c-23.3,29-36.6,69.3-13.6,98.6c15.7,20,44.9,29.8,73.1,32.1
		s56.7-1.4,85.1-2.3c55.2-1.8,110.2,7,160.9,25.8c69.7,25.9,129.8,70.2,203.2,87.3c8.8,2,18,3.7,27,2.3c16-2.5,27.6-13.7,40.1-22.5
		c39.9-28,95.2-33.3,147.1-34.6c51.8-1.3,105.9-0.3,152.7-19.2c40.9-16.5,72.4-47.1,92-81.7s28.1-73.1,31.3-111.4
		c1.9-22.8,1.8-46.3-7.8-67.7c-10.8-24-32.8-43.1-55.8-59.8c-24.1-17.5-50.3-33.3-80-42.7c-35.5-11.3-74-12.9-111.8-15.5
		C692,116.8,615.2,106.4,539.6,91c-71.7-14.5-150.5-30.4-215.8-60C291,16.2,259.7,17.3,222.8,16.2z"/>
</g>
<g id="freepik--background-complete--inject-87">
	<rect x="176" y="353.9" class="st2" width="65.8" height="17.4"/>
	<path class="st3" d="M941.4,375.4c0-0.1,0-0.2,0-0.3v-0.9c0-0.8,0-2,0-3.4c0-3,0-7.3-0.1-12.8l0.2,0.2l-65.8,0.1l0.3-0.3l0,0v8.8
		c0,2.9,0,5.8,0,8.6l-0.3-0.3l46.9,0.1l13.8,0.1h3.7h1h0.3c0,0-0.1,0-0.3,0h-0.9h-3.7l-13.8,0.1l-47.2,0.1h-0.3v-0.3
		c0-2.8,0-5.7,0-8.6v-8.8l0,0l0.3-0.3l65.8,0.1h0.2v0.2c0,5.5-0.1,9.9-0.1,12.9c0,1.4,0,2.6,0,3.4v1.1
		C941.4,375.3,941.4,375.4,941.4,375.4z"/>
	<path class="st3" d="M950.4,358c0-0.1,0-0.2,0-0.3c0-0.3,0-0.6,0-0.9c0-0.9,0-2,0-3.5c0-3-0.1-7.4-0.1-12.7l0.2,0.2l-39.6,0.1
		c-0.3,0.3,0.4-0.4,0.3-0.3l0,0v8.9c0,2.9,0,5.7,0,8.4l-0.3-0.3l28.3,0.1l8.2,0.1h2.2h0.8c-0.2,0-0.5,0-0.7,0h-2.2l-8.1,0.1
		l-28.5,0.2h-0.3v-0.3c0-2.7,0-5.5,0-8.4v-8.9l0,0l0.3-0.3l39.6,0.1h0.2v0.2c0,5.4-0.1,9.7-0.1,12.8c0,1.4,0,2.6,0,3.4
		C950.6,357.5,950.4,358,950.4,358z"/>
	<path class="st3" d="M608.4,483.4c0-0.1,0-0.2,0-0.3v-0.9c0-0.8,0-2,0-3.4c0-3,0-7.3-0.1-12.8l0.2,0.2l-65.8,0.1l0.3-0.3l0,0v4.4
		c0,1.5,0,3,0,4.4v8.6l-0.3-0.3l46.9,0.1l13.8,0.1h3.7h1h0.4c0,0-0.1,0-0.3,0h-0.9h-3.7l-13.8,0.1l-47.2,0.1h-0.3v-0.2
		c0-2.8,0-5.7,0-8.6V466l0,0l0.3-0.3l65.8,0.1h0.2v0.2c0,5.5-0.1,9.9-0.1,12.9c0,1.4,0,2.6,0,3.4v0.9
		C608.4,483.3,608.4,483.4,608.4,483.4z"/>
	<path class="st3" d="M617.3,465.9c0-0.1,0-0.2,0-0.3c0-0.2,0-0.5,0-0.9l-0.1-3.5c0-3,0-7.4-0.1-12.7l0.2,0.2l-39.6,0.1
		c-0.3,0.3,0.4-0.4,0.3-0.3l0,0v8.9c0,2.9,0,5.7,0,8.4l-0.3-0.3l28.3,0.2l8.2,0.1h2.2h0.8c-0.2,0-0.5,0-0.7,0h-2.2l-8.1,0.1
		l-28.5,0.2h-0.3v-0.3c0-2.7,0-5.5,0-8.4v-8.9l0,0l0.3-0.3l39.6,0.1h0.2v0.2c0,5.4-0.1,9.7-0.1,12.8c0,1.4,0,2.6,0,3.4
		S617.4,466,617.3,465.9z"/>
	<rect x="734.1" y="17" class="st2" width="65.8" height="17.4"/>
</g>
<g id="freepik--Line--inject-87">
	<path class="st4" d="M985.5,575.1c0,0.2-216.2,0.4-482.8,0.4S20,575.3,20,575.1c0-0.2,216.1-0.4,482.8-0.4S985.5,574.9,985.5,575.1
		z"/>
</g>
<g id="freepik--Board--inject-87">
	<rect x="362.3" y="72.8" class="st5" width="427.5" height="353.9"/>
	<path class="st4" d="M789.8,426.7c0-2.5-0.1-140.6-0.3-353.9l0.3,0.3H362.3l0,0l0.4-0.4c0,128.1,0,249,0,353.9l-0.3-0.3
		L789.8,426.7L362.4,427H362v-0.3c0-104.9,0-225.8,0-353.9v-0.4h0.4h427.5h0.3v0.3C789.9,286.1,789.8,424.2,789.8,426.7z"/>
	<path class="st3" d="M740.7,168.4c0,0.2-76.7,0.4-171.2,0.4s-171.2-0.2-171.2-0.4s76.6-0.4,171.2-0.4S740.7,168.2,740.7,168.4z"/>
	<path class="st3" d="M740.7,206.2c0,0.2-76.7,0.4-171.2,0.4s-171.2-0.1-171.2-0.4s76.6-0.4,171.2-0.4S740.7,206,740.7,206.2z"/>
	<path class="st3" d="M740.7,244c0,0.2-76.7,0.4-171.2,0.4s-171.2-0.1-171.2-0.4s76.6-0.4,171.2-0.4S740.7,243.8,740.7,244z"/>
	<path class="st3" d="M740.7,281.8c0,0.2-76.7,0.4-171.2,0.4s-171.2-0.2-171.2-0.4c0-0.2,76.6-0.4,171.2-0.4
		S740.7,281.6,740.7,281.8z"/>
	<path class="st3" d="M740.7,319.6c0,0.2-76.7,0.4-171.2,0.4s-171.2-0.2-171.2-0.4s76.6-0.4,171.2-0.4S740.7,319.4,740.7,319.6z"/>
	<path class="st3" d="M740.7,357.4c0,0.2-76.7,0.4-171.2,0.4s-171.2-0.2-171.2-0.4c0-0.2,76.6-0.4,171.2-0.4
		S740.7,357.2,740.7,357.4z"/>
	<rect x="608.5" y="285" class="st6" width="34.1" height="109.8"/>
	<rect x="672.9" y="248.7" class="st6" width="34.1" height="146.1"/>
	<rect x="429" y="343.4" class="st6" width="34.1" height="51.4"/>
	<rect x="485.4" y="328.1" class="st6" width="34.1" height="66.7"/>
	<rect x="543.9" y="308.7" class="st6" width="34.1" height="86.2"/>
	<path class="st7" d="M361,66.4h430.3c6.5,0,11.8,5.3,11.8,11.8v2.5c0,6.5-5.3,11.8-11.8,11.8H361c-6.5,0-11.8-5.3-11.8-11.8v-2.5
		C349.2,71.6,354.5,66.4,361,66.4z"/>
	<path class="st4" d="M743.8,394.8h-1.6h-4.6l-17.7,0.1l-65.1,0.1L440,395.2h-42.8v-0.4c0-73.9,0.1-139.3,0.1-186.1
		c0-23.4,0.1-42.2,0.1-55.2c0-6.5,0-11.5,0-14.9c0-1.7,0-3,0-3.9s0-1.4,0-1.4s0,0.4,0,1.4s0,2.2,0,3.9c0,3.4,0,8.4,0.1,14.9
		c0,13,0,31.7,0.1,55.2c0,46.9,0.1,112.2,0.1,186.1l-0.3-0.4H440l214.8,0.1l65.1,0.1l17.7,0.1h4.6L743.8,394.8z"/>
	<path class="st8" d="M624.5,276.4c0,0-0.2,0.2-0.5,0.5l-1.7,1.5l-6.4,5.8c-5.6,5-13.7,12.3-23.6,21.3l-78.5,70.4l-0.3,0.2l-0.2-0.2
		l-3-3l-38.6-39.5h0.4L418.6,379l-15.4,13.1l-4.1,3.5l-1.1,0.9l-0.4,0.3c0.1-0.1,0.2-0.2,0.4-0.3l1-0.9l4.1-3.5l15.3-13.2l53.5-45.9
		l0.2-0.2l0.2,0.2l38.6,39.5l3,3h-0.5l78.6-70.3l23.8-21.1l6.5-5.7l1.7-1.5C624.3,276.5,624.5,276.4,624.5,276.4z"/>
	<path class="st9" d="M674,241.6l-41.1-16.4c-13.2,1.2-17.2,15.3-14.7,24.4c-7.9-2.1-16.1,2.5-18.3,10.5c-1.3,4.7-0.2,9.7,2.9,13.4
		c-7.3,2.4-11.3,10.2-9,17.5c0,0.1,0.1,0.2,0.1,0.3c2.8,6.9,12.2,10.3,18.7,6.8c4.4-2.3,7.3-7,11.9-8.6c4.4-1.5,9.1,0,13.7,0.5
		c11.5,1,22.9-5.5,29.2-15.1S675.7,252.9,674,241.6z"/>
	<path class="st8" d="M647.7,231.4c-3.9,2.1-7.4,4.9-10.2,8.3c-1,1.3-0.9,3.2,0.4,4.2c0.7,0.6,1.7,0.8,2.7,0.6l0,0
		c-3.7,4-7.1,8.2-10.2,12.6c-1.2,1.7-0.8,4,0.9,5.2c0.9,0.6,2,0.8,3.1,0.6c13.3-3.5,24.8-11.7,32.5-23.1L647.7,231.4z"/>
	<g class="st10">
		<path d="M646.7,236.8c-0.7,0.3-1.3,0.8-1.8,1.4c-0.5,0.6-0.6,1.4-0.3,2.1c0.5,1,2.1,1.1,2.6,2.1c0.5,1-0.5,2.2-1.4,3l-2.9,2.5
			c-0.7,0.6-1.5,1.4-1.2,2.3c0.3,0.9,1.6,1.2,2.7,1c4.8-0.6,9.1-3.5,11.3-7.8L646.7,236.8z"/>
	</g>
	<path class="st8" d="M712,220.3c0,0,0,0.1,0,0.3c3.1,16.6-1.6,33.7-12.6,46.5l-6.9,8l-6.4-24.8L712,220.3z"/>
	<path class="st4" d="M712,220.3l-0.1,0.2l-0.4,0.4l-1.4,1.7l-5.3,6.2c-4.6,5.3-11,12.8-18.5,21.7v-0.1c1.8,7,3.8,14.6,5.8,22.6
		c0.2,0.8,0.4,1.5,0.6,2.2h-0.3l4.1-4.7c1.4-1.6,2.7-3.1,3.9-4.6c2.4-2.9,4.5-6.1,6.2-9.5c1.6-3,2.9-6.2,3.8-9.5
		c0.5-1.5,0.8-3.1,1.2-4.5c0.4-1.4,0.6-2.9,0.7-4.2c0.6-4.3,0.7-8.6,0.2-12.9c-0.1-1.5-0.3-2.7-0.4-3.5c-0.1-0.8-0.1-1-0.2-1.2
		s0,0.1,0.1,0.3c0.1,0.2,0.1,0.5,0.2,0.9c0.1,0.8,0.4,1.9,0.5,3.5c0.5,4.3,0.4,8.7-0.1,13c-0.1,1.4-0.4,2.8-0.7,4.2s-0.7,3-1.2,4.5
		c-1,3.3-2.3,6.5-3.9,9.6c-1.8,3.4-3.8,6.6-6.3,9.6c-1.2,1.6-2.6,3.1-3.9,4.6l-4.1,4.7l-0.2,0.2l-0.1-0.3c-0.2-0.7-0.4-1.4-0.6-2.2
		l-5.8-22.6v-0.1l0,0l18.7-21.7l5.4-6.2l1.4-1.6l0.4-0.4L712,220.3z"/>
	<path class="st8" d="M666.5,181h-0.3c-16.6-0.6-32.7,6.4-43.5,19.1l-6.8,7.9l25.1,2.6L666.5,181z"/>
	<path class="st4" d="M666.5,181l-0.1,0.1l-0.3,0.4l-1.4,1.6l-5.2,6.1l-18.4,21.4l0,0h-0.1l-22.9-2.4l-2.2-0.2h-0.3l0.2-0.2l4.1-4.7
		c1.4-1.5,2.6-3.1,3.9-4.5c2.6-2.8,5.4-5.3,8.4-7.5c2.8-2,5.7-3.7,8.8-5.1c1.4-0.7,2.9-1.2,4.2-1.8s2.7-1,4.1-1.4
		c4.1-1.2,8.3-1.8,12.6-2c1.5-0.1,2.7,0,3.5,0h0.9h0.3h-1.2c-0.8,0-2,0-3.5,0.1c-4.3,0.2-8.5,0.9-12.6,2.1c-1.4,0.3-2.7,0.8-4.1,1.4
		c-1.4,0.5-2.8,1.1-4.2,1.8c-3.1,1.4-6,3.2-8.7,5.1c-3,2.2-5.8,4.7-8.4,7.5c-1.4,1.4-2.6,3-3.9,4.5L616,208l-0.1-0.3l2.2,0.2
		l22.9,2.4h-0.1l18.3-21.1l5.3-6.1c0.6-0.7,1.1-1.3,1.4-1.6l0.4-0.4C666.5,181.1,666.5,181,666.5,181z"/>
	<path class="st2" d="M757,122.1c-3.6-3.1-18.3,0.5-37.9,10.7c-11.5,6-22,13.9-31.1,23.2l-57.7,67l17.6,15.2l10.2,8.8l17.6,15.2
		l52.6-60.8c5.1-5.9,9.6-12.3,13.5-19.1c3.9-6.8,7.3-13.9,10.1-21.3C759.6,140.4,760.6,125.2,757,122.1"/>
	<line class="st11" x1="639.5" y1="212.4" x2="684.8" y2="251"/>
	<path class="st4" d="M684.8,251c-0.1,0.1-10.2-8.5-22.7-19.2c-12.5-10.7-22.6-19.3-22.5-19.4s10.3,8.5,22.7,19.2
		C674.7,242.2,684.8,250.9,684.8,251z"/>
	<line class="st11" x1="637.5" y1="214.2" x2="682.8" y2="252.8"/>
	<path class="st4" d="M682.8,252.8c0,0-10.2-8.5-22.7-19.2s-22.6-19.3-22.5-19.4c0.1-0.1,10.2,8.5,22.7,19.2
		S682.9,252.7,682.8,252.8z"/>
	<line class="st11" x1="635.7" y1="216.4" x2="681" y2="255"/>
	<path class="st4" d="M681,255c-0.1,0-10.2-8.5-22.7-19.2c-12.5-10.7-22.6-19.4-22.5-19.4c0.1-0.1,10.2,8.5,22.7,19.2
		C671,246.2,681.1,254.9,681,255z"/>
	<line class="st11" x1="633.9" y1="218.6" x2="679.2" y2="257.2"/>
	<path class="st4" d="M679.2,257.2c0,0-10.2-8.5-22.7-19.2c-12.5-10.7-22.6-19.3-22.5-19.4c0.1-0.1,10.2,8.5,22.7,19.2
		S679.3,257.1,679.2,257.2z"/>
	<line class="st11" x1="632.1" y1="220.7" x2="677.4" y2="259.3"/>
	<path class="st4" d="M677.4,259.3c0,0.1-10.2-8.5-22.7-19.2c-12.5-10.7-22.6-19.4-22.5-19.4s10.2,8.5,22.7,19.2
		C667.3,250.6,677.4,259.3,677.4,259.3z"/>
	<path class="st4" d="M689.3,200.8l-0.2,0.4c-0.1,0.2-0.4,0.5-0.7,0.9c-0.6,0.8-1.6,2-2.8,3.4c-2.4,2.8-5.8,6.8-9.5,11
		c-3.7,4.2-7.2,8.1-9.7,10.8l-3,3.3l-0.8,0.9c-0.1,0.1-0.2,0.2-0.3,0.3c0.1-0.1,0.2-0.2,0.3-0.3l0.8-0.9l2.9-3.3l9.6-10.9l9.6-10.9
		l2.9-3.3c0.3-0.4,0.6-0.7,0.8-0.9C689.3,200.8,689.3,200.8,689.3,200.8z"/>
	<path class="st4" d="M712,220.3c0,0.1-10.2-8.6-22.7-19.3s-22.5-19.5-22.5-19.6c0.1-0.1,10.2,8.6,22.7,19.3
		C702,211.4,712.1,220.2,712,220.3z"/>
	<path class="st4" d="M673.9,226c0.1,0,0.3,0,0.4,0c0.4,0.1,0.8,0.4,1,0.7c0.4,0.5,0.5,1.2,0.2,1.8c-0.4,1-1.5,1.5-2.5,1.1
		c-0.5-0.2-0.9-0.7-1.1-1.2c-0.2-0.6-0.1-1.3,0.4-1.8c0.3-0.3,0.6-0.5,1.1-0.6c0.1,0,0.3,0,0.4,0c-0.1,0.1-0.3,0.1-0.4,0.1
		c-0.4,0.1-0.7,0.4-0.9,0.7c-0.3,0.4-0.4,1-0.3,1.5c0.3,0.9,1.2,1.4,2.1,1.1c0.5-0.1,0.8-0.5,1-0.9c0.2-0.5,0.2-1.1-0.1-1.6
		c-0.2-0.3-0.5-0.6-0.9-0.7C674.1,226,673.9,226,673.9,226z"/>
	<path class="st4" d="M685.3,213.3c0.1,0,0.3,0,0.4,0c0.4,0.1,0.7,0.4,1,0.7c0.4,0.5,0.5,1.2,0.2,1.8c-0.4,1-1.5,1.5-2.5,1.1
		c-0.5-0.2-0.9-0.7-1.1-1.2c-0.2-0.6-0.1-1.3,0.4-1.8c0.3-0.3,0.6-0.5,1.1-0.6c0.3,0,0.5,0,0.4,0s-0.1,0-0.4,0.1
		c-0.4,0.1-0.7,0.3-0.9,0.6c-0.4,0.4-0.5,1-0.3,1.6c0.3,0.9,1.2,1.4,2.1,1.1c0.5-0.1,0.8-0.5,1-0.9c0.2-0.5,0.2-1.1-0.1-1.6
		c-0.2-0.3-0.5-0.6-0.8-0.7C685.5,213.3,685.3,213.3,685.3,213.3z"/>
	<g class="st10">
		<path d="M641.6,209.8c0,0,17.2-19,24.9-28.8c-5.8,2.9-12.4,6.3-17,10.8C644.7,196.7,641.9,203.1,641.6,209.8z"/>
	</g>
	<path class="st8" d="M630.8,271.1c-1.9,0.1-3.3,1.6-3.3,3.5c0.1,1.9,1.6,3.3,3.5,3.3c1.9-0.1,3.3-1.6,3.3-3.5
		c-0.1-1.8-1.5-3.2-3.3-3.3"/>
	
		<ellipse transform="matrix(0.7798 -0.6261 0.6261 0.7798 53.1686 486.328)" class="st5" cx="717.9" cy="167.6" rx="16.2" ry="16.2"/>
	<path class="st4" d="M734,169.6c0-1.3,0-2.7-0.1-4c-0.5-3.6-2.2-6.9-4.8-9.5c-1.8-1.7-3.9-3-6.3-3.8c-2.7-0.9-5.6-1-8.4-0.3
		c-1.5,0.3-2.9,0.9-4.3,1.7c-1.4,0.8-2.7,1.8-3.7,2.9c-4.8,5-5.7,12.6-2.3,18.6c1.5,2.8,3.8,5,6.6,6.4c4.8,2.5,10.5,2.3,15.2-0.3
		c3.1-1.8,5.6-4.6,7-8C733.3,172.2,733.7,170.9,734,169.6c0,0.3,0,0.6-0.1,1c0,0.4-0.1,0.8-0.3,1.2c-0.1,0.6-0.3,1.1-0.5,1.7
		c-2.3,6-7.8,10.1-14.2,10.5c-3,0.2-5.9-0.4-8.5-1.7c-1.4-0.7-2.7-1.6-3.9-2.7c-1.2-1.1-2.2-2.5-3-3.9c-3.6-6.3-2.6-14.2,2.4-19.4
		c1.1-1.2,2.5-2.3,3.9-3c1.4-0.8,2.9-1.4,4.4-1.7c2.9-0.6,5.9-0.5,8.7,0.4c2.4,0.8,4.7,2.2,6.5,4c2.6,2.6,4.3,6.1,4.7,9.8
		c0.1,0.6,0.1,1.1,0.1,1.7c0,0.4,0,0.8,0,1.3C734.2,169,734.1,169.3,734,169.6z"/>
	<path class="st8" d="M757,122.1c-3.6-3.1-18.3,0.5-37.9,10.7l32.8,28.2C759.6,140.5,760.6,125.2,757,122.1"/>
	<path class="st4" d="M757,122.1c0,0,0.2,0.2,0.6,0.6c0.4,0.7,0.8,1.5,1,2.3c0.6,3.1,0.7,6.3,0.3,9.5c-0.8,8.3-3.7,20.1-9.7,33.9
		c-3.3,7.5-7.3,14.8-11.9,21.7c-2.6,3.8-5.4,7.5-8.4,11l-9.6,11.2l-43.3,50.2l-0.2,0.3l-0.3-0.2l-22.7-19.6l-22.8-19.6l-0.3-0.2
		l0.2-0.3l43.3-50.2l9.6-11.1l4.6-5.3c1.6-1.7,3.2-3.3,4.9-4.8c6.1-5.5,12.7-10.5,19.7-14.8c5.8-3.4,11.8-6.5,18-9.2
		c4.6-2.1,9.4-3.8,14.3-5.1c3.1-0.9,6.3-1.3,9.5-1.2c0.5,0.1,0.9,0.1,1.4,0.3c0.3,0.1,0.7,0.2,1,0.4
		C756.8,121.9,757,122.1,757,122.1l-0.8-0.4c-0.3-0.1-0.6-0.2-1-0.3c-0.4-0.1-0.9-0.1-1.4-0.2c-3.2,0-6.3,0.4-9.4,1.4
		c-4.9,1.4-9.6,3.1-14.2,5.2c-6.2,2.7-12.1,5.8-17.9,9.3c-7,4.3-13.6,9.3-19.6,14.8c-1.6,1.5-3.3,3.1-4.8,4.8l-4.6,5.3l-9.6,11.2
		l-43.3,50.3v-0.5l22.8,19.6l22.8,19.6h-0.5l43.3-50.2l9.6-11.1c3-3.5,5.8-7.1,8.4-10.9c4.6-6.8,8.5-14,11.9-21.5
		c6-13.7,9-25.6,9.9-33.8c0.4-3.1,0.4-6.3-0.2-9.5c-0.2-0.8-0.5-1.6-0.9-2.3C757.2,122.3,757,122.1,757,122.1z"/>
	<path class="st4" d="M719.2,179.7c-0.3-1.1-0.4-2.2-0.4-3.2c-0.2-2-0.3-4.8-0.4-7.9c-0.1-3.1-0.1-5.6-0.1-7.9
		c-0.1-1.1-0.1-2.2,0-3.3c0.3,1.1,0.4,2.1,0.4,3.2c0.2,2,0.3,4.8,0.3,7.9c0.1,3.1,0.1,5.6,0.1,7.9
		C719.3,177.5,719.3,178.6,719.2,179.7z"/>
	<path class="st4" d="M715.6,176.6c-0.5-2.3-0.7-4.7-0.7-7.1c-0.2-2.4-0.2-4.8,0-7.2c0.5,2.3,0.7,4.7,0.8,7.1
		C715.8,171.8,715.8,174.2,715.6,176.6z"/>
	<path class="st9" d="M641.6,305.3c-3.1-1-6.4-0.2-8.6,2.1c-1.8,2.1-2,5.2-0.5,7.6c-2.6,1.2-4.3,3.9-4.2,6.8c0.1,2.9,1.6,5.5,4.1,7
		c2.4,1.5,5.3,2,8.1,1.4c6.9-1.4,11.4-8.1,10-15.1C649.5,310.4,646.1,306.7,641.6,305.3L641.6,305.3z"/>
	<path class="st9" d="M582.4,295.1c0,4-3.3,7.3-7.3,7.3c-4,0-7.3-3.3-7.3-7.3c0-4,3.3-7.3,7.3-7.3c0,0,0,0,0,0
		C579.1,287.8,582.4,291,582.4,295.1C582.4,295.1,582.4,295.1,582.4,295.1z"/>
	<path class="st4" d="M414.5,153.3c-2.8,0.4-5.6,0.5-8.5,0.4c-2.8,0.1-5.7,0-8.5-0.4c2.8-0.3,5.6-0.5,8.5-0.4
		C408.8,152.9,411.7,153,414.5,153.3z"/>
	<path class="st4" d="M414.5,189.3c-2.8,0.3-5.6,0.5-8.5,0.4c-2.8,0.1-5.7,0-8.5-0.4c2.8-0.4,5.6-0.5,8.5-0.4
		C408.8,188.8,411.7,189,414.5,189.3z"/>
	<path class="st4" d="M414.5,225.3c-2.8,0.3-5.6,0.5-8.5,0.4c-2.8,0.1-5.7,0-8.5-0.4c2.8-0.3,5.6-0.5,8.5-0.4
		C408.8,224.8,411.7,224.9,414.5,225.3z"/>
	<path class="st4" d="M414.5,261.2c-2.8,0.4-5.6,0.5-8.5,0.4c-2.8,0.1-5.7,0-8.5-0.4c2.8-0.3,5.6-0.5,8.5-0.4
		C408.8,260.8,411.7,260.9,414.5,261.2z"/>
	<path class="st4" d="M414.5,297.2c-2.8,0.3-5.6,0.5-8.5,0.4c-2.8,0.1-5.7,0-8.5-0.4c2.8-0.4,5.6-0.5,8.5-0.4
		C408.8,296.7,411.7,296.8,414.5,297.2z"/>
	<path class="st4" d="M414.5,333.2c-2.8,0.3-5.6,0.5-8.5,0.4c-2.8,0.1-5.7,0-8.5-0.4c2.8-0.3,5.6-0.5,8.5-0.4
		C408.8,332.7,411.7,332.9,414.5,333.2z"/>
</g>
<g id="freepik--character-3--inject-87">
	<path class="st4" d="M793.2,351.1c-9.6,0.9-16.8,15.8-14.8,23.8c1,3.9,3.1,8.2,0.1,11.3c-3,3.1-9.5,3.3-12.3,6.5c0,0-3.5,4.1-2.7,9
		c0.8,4.9,0.5,11.5-3.3,13.5l20,5.6c1.9-2.2,2.4-5.4,4.3-7.6c-2.2,2.3-3.8,10.1,6.7,10.2l6-6.2c18.1,3.3,37.2,7.6,50.8-1.2"/>
	<path class="st4" d="M886.8,387.3c-1.6-3.6-3.9-6.9-5.1-10.6c-2.5-8.1,0.6-17.7-4.1-24.7c-3.3-5-9.6-7-15.5-8.3
		c-5.9-1.2-11.4-1.8-16.1-5.6c-3.4-2.8-5.6-6.9-9-9.7c-4.8-4.1-11.5-4.9-17.8-4.7s-13,1.4-18.5,4.8s-9.8,9.1-10.2,15.5
		c-0.2,3.1,0.5,6.3-0.2,9.4c-0.8,3.4-3.1,6.1-4.4,9.3c-2.7,7-0.2,15,5.9,19.3l49.2,52.8c9.6,2.6,18.8-9.9,25.3-17.4
		S890.8,396.4,886.8,387.3z"/>
	<path class="st12" d="M792.4,374.8c0.6-13.1,9-29.2,22.1-28l40.7,9.7c4,0.4,6.3,3.3,6.3,7.3l-2.2,98.3h0.3c0,0-8.8,27.8-35.8,19.8
		c-5.4-1.6-7.6,0.4-8.7-5.5l0,0c-1.2-0.4,0,0,0-0.7c-0.4-7.3-1-22.5-1-22.5l0,0c-0.2-7.9-0.3-11.1-0.3-11.1s-16.7-2.5-20.5-24.2
		C791.5,407,791.7,389.3,792.4,374.8z"/>
	<path class="st4" d="M825.9,391.3c0,1.5,1.2,2.7,2.7,2.8c1.5,0.1,2.8-1.1,2.8-2.6c0-1.5-1.2-2.7-2.7-2.8
		C827.3,388.7,826,389.8,825.9,391.3z"/>
	<path class="st4" d="M797,391.7c0,1.5,1.2,2.7,2.7,2.8c1.5,0.1,2.8-1.1,2.8-2.6c0-1.5-1.2-2.7-2.7-2.8
		C798.4,389.1,797.1,390.3,797,391.7z"/>
	<path class="st4" d="M795.7,384.5c0.4,0.5,2.7-1.4,6-1.2c3.3,0.1,5.5,2.2,5.9,1.7c0.2-0.2-0.1-1.1-1.1-2c-2.6-2.5-6.7-2.7-9.6-0.4
		C795.9,383.5,795.5,384.3,795.7,384.5z"/>
	<path class="st4" d="M825.5,385.1c0.4,0.4,2.8-1.6,6.3-1.8c3.5-0.2,6.1,1.6,6.5,1.1c0.2-0.2-0.3-1-1.4-1.8c-1.5-1-3.4-1.5-5.2-1.4
		c-1.8,0.1-3.6,0.8-5,2C825.7,384,825.3,384.9,825.5,385.1z"/>
	<path class="st4" d="M815.4,406.5c-1.6-0.5-3.2-0.8-4.9-0.8c-0.8-0.1-1.5-0.2-1.6-0.7c-0.1-0.8,0.1-1.6,0.5-2.3l2.2-5.9
		c3-8.4,5.2-15.2,4.9-15.3c-0.3-0.1-3.1,6.6-6.1,14.9l-2.1,5.9c-0.5,0.9-0.6,2-0.4,3c0.2,0.5,0.7,0.9,1.3,1.1
		c0.4,0.1,0.9,0.2,1.4,0.2C812.1,406.7,813.7,406.7,815.4,406.5z"/>
	<path class="st13" d="M813.8,442.1c10.2,0,20.3-2.8,29-8.2c0,0-7.1,16-28.9,14.3L813.8,442.1z"/>
	<path class="st8" d="M816.7,413.7c1.2-1.5,3-2.2,4.9-2c1.3,0.1,2.6,0.7,3.4,1.8c0.8,1,1,2.4,0.3,3.6c-1,1.1-2.5,1.5-3.9,1
		c-1.4-0.5-2.8-1.3-3.9-2.3c-0.3-0.2-0.6-0.5-0.9-0.9C816.5,414.6,816.5,414.1,816.7,413.7"/>
	<path class="st4" d="M824.2,408.5c-0.5,0-0.4,3.2-3.2,5.6c-2.7,2.4-6.2,2-6.3,2.5c0,0.2,0.8,0.6,2.2,0.6c1.9,0,3.8-0.7,5.2-1.9
		c1.4-1.2,2.3-2.9,2.5-4.7C824.8,409.2,824.5,408.4,824.2,408.5z"/>
	<path class="st4" d="M824.9,374.9c0.3,0.8,3.3,0.4,6.8,0.8c3.5,0.4,6.4,1.3,6.8,0.6c0.2-0.4-0.3-1.1-1.5-1.9c-3.1-1.9-7-2.3-10.4-1
		C825.4,373.8,824.8,374.5,824.9,374.9z"/>
	<path class="st4" d="M795.9,373.7c0.6,0.7,3-0.1,5.8-0.1c2.8-0.1,5.3,0.4,5.8-0.3c0.2-0.4-0.1-1-1.2-1.7c-1.5-0.8-3.1-1.1-4.7-1
		c-1.6,0-3.2,0.5-4.6,1.4C795.9,372.6,795.6,373.3,795.9,373.7z"/>
	<path class="st4" d="M899.3,382.2c-2.3-3.6,1.4-8.1-2.1-11.4c-3.1-3-10.7-2.5-13.5-5.6c-2.3-2.4-2.4-3-2.7-5.4
		c-0.3-3-2.6-15.4-21-16.6l-1.7,11.6c-1.2-0.4-2.4-0.8-3.6-1.2c-15.3-4.3-31-6.9-46.8-7.5c-1.7,3.4,0.5,7.6,3.7,9.7
		c3.2,2.1,7,2.7,10.7,3.6c3.6,0.9,7.4,2.7,9.2,6c1.8,3.3,1,8,2.7,11.7c2.9,6.3,12.2,7.5,15,13.8c2.2,4.8-0.2,10.2-0.4,15.4
		c-0.2,6,2.4,11.8,7.1,15.5c3.7,2.9,9.9,8.1,10.2,7l46.6-34.1C915,387.8,902.5,387.2,899.3,382.2z"/>
	<path class="st4" d="M864.1,426.6c-1.5-0.2-2.9-0.6-4.3-1.1c-9.8-4-15.2-14.6-12.6-24.8c0.4-1.7,0.9-3.3,1.2-5
		c0.3-1.7,0.3-3.5-0.2-5.2c-0.5-1.7-1.8-3.1-3.4-3.9c-1.7-0.8-3.6-1.4-5.4-1.9c-1.9-0.5-3.7-1.4-5.2-2.8c-1.3-1.5-2-3.3-2.2-5.3
		c-0.6-3.7-0.2-7.3-1.7-10.3l-0.3-0.5l-0.4-0.5c-0.2-0.3-0.5-0.6-0.7-0.9c-0.6-0.5-1.2-1-1.9-1.4c-1.4-0.7-2.8-1.2-4.3-1.4
		c-2.8-0.4-5.5-1.2-8.1-2.3c-2.1-1.1-3.9-2.6-5.3-4.4c-1.1-1.4-2-2.9-2.6-4.5c-0.4-1-0.7-2.1-0.8-3.2c-0.1-0.4-0.1-0.8-0.1-1.2
		c0.2,1.5,0.6,2.9,1.2,4.2c0.7,1.6,1.6,3.1,2.7,4.4c1.5,1.8,3.2,3.2,5.3,4.2c2.5,1.1,5.2,1.8,8,2.2c1.6,0.3,3.1,0.8,4.5,1.5
		c0.8,0.4,1.4,0.9,2.1,1.5c0.3,0.3,0.6,0.6,0.8,1l0.4,0.5l0.3,0.6c1.6,3.2,1.2,6.9,1.8,10.5c0.2,1.8,0.9,3.5,2.1,4.9
		c1.4,1.3,3,2.2,4.9,2.6c1.9,0.5,3.7,1.1,5.5,1.9c0.9,0.4,1.7,1.1,2.3,1.8c0.6,0.8,1.1,1.6,1.4,2.6c0.5,1.8,0.6,3.7,0.2,5.5
		c-0.3,1.8-0.8,3.4-1.2,5.1c-2.6,10,2.5,20.4,12,24.4c1,0.4,2,0.8,3.1,1.1C863.4,426.4,863.7,426.5,864.1,426.6z"/>
	<path class="st4" d="M795.5,352c-1.1-0.2-2.2-0.3-3.3-0.4c-3.1-0.1-6.1,0.8-8.6,2.4c-3.8,2.4-6.4,6.5-7,10.9
		c-0.3,2.6-0.2,5.3,0.3,7.9c0.2,1.4,0.5,2.8,0.7,4.2c0.3,1.5,0.3,3,0.2,4.5c-0.2,1.6-1,3-2.3,3.9c-1.3,0.7-2.8,1.1-4.2,1.1
		c-1.3,0-2.7,0.2-4,0.6c-1.2,0.4-2.3,1.1-3.3,1.9c-1.8,1.6-3,3.7-3.2,6.1c-0.2,2.1,0,4.2,0.5,6.2c0.4,1.7,0.7,3.4,0.9,5.2
		c0.1,1.3,0.1,2.7-0.2,4c-0.2,0.8-0.5,1.6-0.9,2.4c-0.1,0.2-0.2,0.4-0.4,0.6c-0.1,0.1-0.1,0.2-0.1,0.2c0.5-1,0.9-2,1.1-3.1
		c0.2-1.3,0.2-2.6,0.1-3.9c-0.2-1.7-0.6-3.4-1-5.1c-0.5-2.1-0.7-4.2-0.6-6.4c0.3-2.5,1.5-4.9,3.5-6.5c1-0.9,2.2-1.6,3.5-2.1
		c1.3-0.4,2.7-0.6,4.1-0.7c1.4,0,2.7-0.3,3.9-1c1.2-0.8,1.9-2,2-3.4c0.4-2.8-0.5-5.7-0.8-8.5c-0.5-2.7-0.6-5.4-0.2-8.1
		c0.7-4.7,3.4-8.8,7.4-11.3c2.7-1.6,5.8-2.4,8.9-2.2c0.8,0,1.7,0.2,2.5,0.4C795,351.8,795.2,351.9,795.5,352z"/>
	<path class="st14" d="M890.8,410.2c0,0,0-0.1,0.1-0.3c0.1-0.3,0.2-0.7,0.3-1c0.3-1.3,0.2-2.7-0.1-4c-0.5-2.1-1.7-3.9-3.3-5.2
		c-1-0.8-2.2-1.4-3.5-1.6c-1.4-0.3-2.9-0.3-4.4-0.7c-1.7-0.4-3.1-1.5-3.8-3.1c-0.7-1.7-1.1-3.4-1-5.2c0.1-1.9,0-3.8-0.3-5.6
		c-0.2-1-0.6-1.9-1.1-2.7c-0.6-0.8-1.3-1.5-2.2-1.9c-1.9-0.9-3.9-1.4-6-1.7c-2.2-0.2-4.4-0.9-6.4-1.9c-1-0.6-1.9-1.4-2.5-2.3
		c-0.6-1-1.1-2.1-1.4-3.2c-0.6-2.3-0.8-4.6-1.4-6.9c-1.2-4.5-4.7-8-9.1-9.4c-2.1-0.5-4.3-0.7-6.5-0.6c-1.1,0-2.2-0.1-3.2-0.4
		c-1.1-0.2-2-0.7-2.9-1.4c-1.4-1.5-2.5-3.3-3.1-5.2c-0.7-1.7-1.8-3.2-3.2-4.5c-2.5-2.3-5.7-3.7-9.1-3.8c-2.8-0.1-5.6,0.7-7.8,2.3
		c-1.7,1.2-3.2,2.8-4.3,4.6c-0.7,1.2-1.2,2.4-1.5,3.7c-0.1,0.4-0.1,0.8-0.2,1l-0.1,0.4c0-0.5,0.1-0.9,0.2-1.4
		c0.3-1.3,0.8-2.6,1.4-3.7c1.1-1.9,2.5-3.5,4.3-4.7c2.3-1.7,5.1-2.5,8-2.4c3.5,0.1,6.8,1.5,9.3,3.9c1.4,1.3,2.5,2.9,3.3,4.7
		c0.6,1.9,1.7,3.6,3,5c1.7,1.2,3.8,1.8,5.8,1.7c2.2-0.1,4.5,0.1,6.6,0.6c4.6,1.4,8.2,5,9.5,9.7c0.6,2.3,0.8,4.7,1.4,6.9
		c0.3,1.1,0.7,2.1,1.4,3.1c0.6,0.9,1.4,1.7,2.4,2.2c3.9,2.1,8.6,1.5,12.4,3.5c0.9,0.5,1.7,1.2,2.3,2c0.6,0.8,1,1.8,1.2,2.8
		c0.3,1.9,0.4,3.8,0.3,5.7c0,1.7,0.3,3.5,1,5.1c0.3,0.7,0.8,1.4,1.5,1.9c0.6,0.5,1.3,0.8,2.1,1c1.5,0.4,3,0.4,4.4,0.7
		c1.3,0.3,2.6,0.9,3.6,1.7c1.7,1.4,2.8,3.2,3.3,5.3c0.3,1.3,0.3,2.7,0,4.1c-0.1,0.3-0.2,0.7-0.3,1
		C890.9,410,890.8,410.1,890.8,410.2z"/>
	<path class="st15" d="M827.5,575h105.8l-9.3-23.2c0,0-33.2-90.6-40-97.9c-9-9.6-23.9-17.3-23.9-17.3l-45.8,23.2
		c0,0-13.3,37.7-15,52.6c-0.4,3.5-0.7,7.1-0.7,10.7c-0.3,18.6,10.9,35.4,28.1,42.4l0,0L827.5,575z"/>
	<path class="st12" d="M817.6,429.7l-5.1,5.6c0,0,0.8-10.7-0.5-12c-1.3-1.3-3,0-3,0c-0.4-1.3-1.5-2.3-2.8-2.6
		c-1.6-0.1-3.2,0.2-4.5,1.1c0,0-4.3-2.7-6.7-1.2c-1.3,0.8-2.4,1.8-3.2,3.1c-1.6,0.4-3,1.1-4.3,2.2c-0.7,0.6-1.3,1.3-1.7,2.1
		c0,0-2.6,0.9-2.6,2.7s-2.8,18.9-3.4,25.3c-0.6,6.4-2.1,16.4-2.1,16.4l25.9-0.5c0,0,0.4-13.4,0.8-15c3.1-1.4,5.8-3.6,7.9-6.2
		c3.7-4.5,6.4-11.4,8.4-14.7c1.2-2,4.5-7.6,4.6-8.1c0-1.5-1.7-2-3.2-1.7S818.9,428.5,817.6,429.7z"/>
	<path class="st13" d="M817.6,429.7c0.2-0.2,0.4-0.4,0.6-0.6c0.4-0.4,0.9-1,1.7-1.8c0.4-0.4,1-0.8,1.5-1.1c0.7-0.3,1.5-0.4,2.2-0.3
		c0.4,0.1,0.8,0.2,1.2,0.5c0.4,0.3,0.6,0.8,0.6,1.3c-0.1,0.5-0.3,0.9-0.6,1.4l-0.7,1.4c-1,1.8-2.1,3.7-3.4,5.8
		c-1.2,2.1-2.3,4.5-3.6,7c-1.3,2.7-2.9,5.3-4.8,7.7c-2.1,2.6-4.8,4.8-7.9,6.2l0.2-0.2c-0.4,2.2-0.4,4.7-0.5,7.2s-0.2,5.1-0.3,7.7
		v0.3h-0.3l-25.9,0.5h-0.4v-0.4c0.2-1.5,0.4-3.1,0.6-4.7c0.5-3.7,0.9-7.3,1.4-10.8c0.4-3.6,0.9-7.1,1.4-10.5l1.5-10
		c0.2-1.6,0.5-3.2,0.6-4.8c0-0.4,0-0.7,0.1-1.2c0.1-0.4,0.3-0.8,0.7-1.2c0.6-0.6,1.3-1.1,2.1-1.4l-0.2,0.2c0.3-0.6,0.8-1.1,1.3-1.6
		c0.4-0.5,0.9-1,1.5-1.4c1.1-0.7,2.3-1.2,3.5-1.5l-0.2,0.1c0.6-0.9,1.4-1.7,2.3-2.3c0.4-0.3,0.8-0.6,1.2-0.9c0.5-0.3,1-0.5,1.5-0.5
		c1.9,0,3.8,0.6,5.4,1.7h-0.3c1.3-0.9,2.9-1.2,4.5-1.1c1.5,0.3,2.7,1.3,3.2,2.8l-0.4-0.1c0.7-0.5,1.6-0.7,2.4-0.5
		c0.4,0.1,0.8,0.4,1,0.7c0.1,0.2,0.2,0.4,0.2,0.6c0.1,0.2,0.1,0.4,0.1,0.6c0.2,1.4,0.3,2.7,0.3,4.1c0,2.6-0.1,4.8-0.3,6.8l-0.2-0.1
		l3.8-4.1l1-1C817.5,429.8,817.6,429.7,817.6,429.7c-0.1,0.1-0.2,0.3-0.3,0.4c-0.2,0.3-0.5,0.6-0.9,1.1l-3.7,4.2l-0.3,0.3v-0.4
		c0.1-1.9,0.2-4.2,0.2-6.8c0-1.4-0.1-2.7-0.3-4.1c-0.1-0.3-0.2-0.7-0.3-0.9c-0.2-0.3-0.5-0.5-0.8-0.6c-0.7-0.1-1.4,0-2,0.5l-0.3,0.2
		l-0.1-0.3c-0.4-1.3-1.5-2.2-2.8-2.4c-1.5-0.1-2.9,0.3-4.1,1.1l-0.1,0.1l-0.1-0.1c-1.5-1-3.3-1.5-5.1-1.6c-0.4,0-0.9,0.2-1.2,0.4
		c-0.4,0.3-0.8,0.6-1.2,0.9c-0.8,0.6-1.4,1.3-2,2.1l-0.1,0.1h-0.1c-1.2,0.3-2.3,0.7-3.3,1.4c-0.5,0.4-1,0.8-1.4,1.2
		c-0.4,0.4-0.8,0.9-1.1,1.4L786,428h-0.1c-0.7,0.3-1.3,0.7-1.8,1.2c-0.2,0.2-0.4,0.5-0.5,0.9c-0.1,0.3,0,0.8-0.1,1.2
		c-0.2,1.6-0.4,3.2-0.6,4.8c-0.5,3.2-1,6.6-1.4,10c-0.5,3.4-1,6.9-1.4,10.5s-0.9,7.2-1.4,10.9c-0.2,1.6-0.4,3.2-0.6,4.7l-0.4-0.4
		l25.9-0.4l-0.3,0.3c0.1-2.7,0.2-5.2,0.3-7.7c0.1-2.5,0.3-4.9,0.6-7.3v-0.1l0.2-0.1c3-1.4,5.6-3.5,7.7-6c1.8-2.3,3.4-4.9,4.8-7.6
		c1.4-2.5,2.4-4.9,3.7-7c1.2-2.1,2.4-4.1,3.4-5.8l0.7-1.3c0.2-0.4,0.4-0.8,0.5-1.2c-0.1-0.8-0.7-1.4-1.5-1.5c-0.7-0.1-1.4,0-2.1,0.2
		c-0.5,0.3-1,0.6-1.5,1C818.5,428.9,817.7,429.7,817.6,429.7z"/>
	<g class="st10">
		<path d="M818.6,543l-9.3,8.4c13.1,0.4,24.3-6.1,34.8-13.8c10.6-7.8,30.2-25.2,33.7-37.9C860.2,509.5,833.9,529.7,818.6,543z"/>
	</g>
	<path class="st12" d="M683.9,514.6c-0.2,0-18.1-2-22.7-2.4c-1.4-0.1-2.7,0.7-3.2,2c-0.3,0.9-0.1,1.9,1.5,2.5
		c4.6,1.7,20.5,3.6,20.5,3.6s-7.1-0.5-7.4,2.3c-0.3,2.8,3.3,4.7,3.3,4.7s-2.4,1-1.9,3c0.5,2.1,3.9,3.5,3.9,3.5l1.8,0.7
		c0,0-3,0-3,1.6c0.2,1.7,1.5,3.1,3.2,3.5c1.6,0.4,8.9,1.9,8.9,1.9l5.3-12.8l-4.1-12.2L683.9,514.6z"/>
	<path class="st12" d="M737.6,522c0,0-23.4,2.3-25.2,1.5c-1.8-0.9-20.3-10.5-23.1-11.3c-2.8-0.8-16.3,0.3-16.3,0.3s-2.9,3.1,3.5,5.1
		c6.8,2.1,10.5,1.3,9.7,1.6l-1.6,21.7c0,0,11.5,4.5,16.7,4.2l7.3-2.1l33.3,5.8L737.6,522z"/>
	<path class="st12" d="M679.4,520.1c0.9,0.4,1.8,0.8,2.7,1.2c0.9,0.4,1.8,1,2.4,1.7c0.6,0.8,0.8,1.9,0.3,2.8c-0.7,1-1.9,1.5-3.1,1.5
		c-1.5,0.1-3.1,0-4.6-0.3"/>
	<path class="st13" d="M677.2,527c0-0.1,1,0,2.5,0.1c0.9,0,1.8,0,2.7-0.2c1-0.1,1.9-0.6,2.4-1.6c0.2-1-0.1-2-0.9-2.7
		c-0.7-0.6-1.4-1-2.2-1.4c-0.8-0.3-1.6-0.7-2.2-1.2c0.8,0.2,1.6,0.5,2.4,0.8c0.9,0.3,1.8,0.8,2.5,1.4c1,0.8,1.4,2.1,1.1,3.4
		c-0.2,0.6-0.7,1.2-1.3,1.5c-0.5,0.3-1.1,0.4-1.7,0.5c-0.9,0.1-1.9,0.1-2.8,0C678.9,527.6,678,527.4,677.2,527z"/>
	<path class="st12" d="M680.3,534.6c3.7,0.4,7.4,0.2,11.1-0.5c1.1-0.2,2.4-0.7,2.7-1.7c0.2-0.9-0.1-1.9-0.9-2.4
		c-0.8-0.5-1.6-0.8-2.5-1c-2.8-0.5-5.6-0.8-8.4-0.9"/>
	<path class="st13" d="M682.2,528.1c1.4-0.1,2.8-0.1,4.2,0c1.5,0.1,3,0.3,4.5,0.6c0.9,0.1,1.8,0.5,2.6,1.1c0.4,0.4,0.7,0.8,0.9,1.4
		c0.2,0.6,0.1,1.2-0.1,1.7c-0.6,0.9-1.6,1.5-2.6,1.6c-0.9,0.2-1.8,0.3-2.7,0.4c-1.5,0.2-3,0.3-4.6,0.2c-1,0-2-0.1-3.1-0.2
		c-0.4,0-0.8-0.1-1.1-0.2c0-0.1,1.6,0,4.2,0c1.5,0,3-0.2,4.5-0.4c0.8-0.1,1.7-0.3,2.6-0.5c0.9-0.1,1.6-0.6,2.2-1.2
		c0.3-0.8,0.1-1.7-0.6-2.2c-0.7-0.5-1.5-0.8-2.3-1c-1.6-0.4-3.2-0.6-4.4-0.7C685,528.6,683.6,528.4,682.2,528.1z"/>
	<path class="st12" d="M684.7,535.2c0.8-0.2,1.5-0.2,2.3-0.2c0.8,0,1.5,0.3,2.1,0.8c0.6,0.5,0.8,1.4,0.6,2.1
		c-0.4,0.8-1.1,1.3-1.9,1.5c-2.2,0.6-4.5,0.8-6.8,0.6"/>
	<path class="st13" d="M681.1,540c0.8-0.2,1.6-0.2,2.4-0.2c0.8,0,1.7-0.1,2.5-0.3c1-0.1,1.9-0.5,2.8-1c0.4-0.2,0.6-0.6,0.7-1.1
		c0-0.4-0.1-0.9-0.4-1.2c-0.5-0.6-1.2-1-2-1c-1.4-0.1-2.3,0.1-2.4,0c0.7-0.4,1.6-0.5,2.4-0.5c1,0,1.9,0.4,2.5,1.1
		c0.4,0.5,0.6,1,0.5,1.6c-0.1,0.7-0.4,1.3-0.9,1.6c-0.9,0.6-2,0.9-3.1,1.1c-0.9,0.1-1.7,0.2-2.6,0.1
		C682.7,540.4,681.9,540.3,681.1,540z"/>
	<path class="st13" d="M672.6,512.9c0.1,0-0.1,0.5,0,1.4c0.1,0.5,0.3,1,0.6,1.5c0.5,0.5,1.1,0.9,1.8,1.1c0.9,0.3,1.8,0.5,2.7,0.7
		c1,0.2,2,0.5,3.1,0.6c2.2,0.3,4.7,0.5,7.3,0.7h0.3v0.3c0.1,0.5,0.1,1.1,0.3,1.7c0.6,2.5,1.7,4.9,3.3,7c1.3,1.7,2.8,3.3,4.5,4.6
		c2.9,2.3,5,3.2,4.9,3.3c-0.5-0.1-1-0.3-1.5-0.6c-1.3-0.7-2.6-1.5-3.7-2.3c-1.8-1.3-3.3-2.9-4.7-4.6c-1.7-2.1-2.8-4.6-3.5-7.3
		c-0.1-0.6-0.2-1.2-0.3-1.7l0.3,0.3c-2.6-0.2-5.1-0.4-7.3-0.8c-1.1-0.2-2.1-0.4-3.1-0.7c-0.9-0.2-1.8-0.4-2.7-0.8
		c-0.8-0.3-1.4-0.7-1.9-1.4c-0.3-0.5-0.5-1.1-0.6-1.7c0-0.4,0-0.7,0.1-1.1C672.5,513.1,672.6,512.9,672.6,512.9z"/>
	<polygon class="st15" points="782.4,514.9 726.6,521.1 729.1,553.4 796.6,557.2 	"/>
	<g class="st10">
		<path d="M793.4,547.3c-1.5-5.8-3.1-11.6-4.6-17.5c-0.6-2.9-1.7-5.6-3.2-8c-1.7-2.4-5.2-7-8.1-6.5l-10.4,1.3
			c0.4,5.4,1,11.2,1.5,16.7c0.4,5.5,2.3,10.9,5.6,15.3c3.4,4.5,8.7,7,14.3,7c1.9,0,3.6-0.8,4.8-2.2
			C794.4,551.6,793.9,549.3,793.4,547.3z"/>
	</g>
	<path class="st15" d="M880.7,495c-4.8,12.9-58.6,49.6-58.6,49.6s-16.8,10.7-26.5,10.8c-12.6,0.3-22.9-10.5-23-21.2
		c-0.1-13.7-0.6-66.8-0.6-66.8l34.9-1.6v38.8c0,0,26.6-26,32.9-33.2c12.2-13.8,24.5-26.4,34.8-22"/>
	<path class="st4" d="M874.5,449.5L873,449c-0.7-0.2-1.3-0.3-2-0.3c-0.4-0.1-0.9-0.1-1.4,0c-0.5,0-1,0.1-1.5,0.1
		c-4.2,0.6-9.7,3.9-15.4,9.3c-2.9,2.7-5.9,5.8-9.1,9.3l-4.9,5.5c-1.7,1.9-3.6,3.8-5.5,5.8c-7.7,7.9-16.5,16.6-26.2,26.1l-0.5,0.5
		v-0.7c0-11.9,0-25,0-38.8l0.4,0.3l-34.9,1.6l0.3-0.4c0,7,0.1,14.3,0.2,21.8c0.1,12.8,0.2,25.3,0.3,37.4v4.5c0,1.5,0,3,0.1,4.4
		c0.3,2.9,1.2,5.6,2.7,8.1c2.9,4.9,7.5,8.5,12.9,10.3c2.6,0.8,5.3,1.2,8,1c2.6-0.3,5.2-0.9,7.7-1.9c4.8-1.8,9.4-4,13.8-6.5
		c2.1-1.2,4.2-2.5,6.1-3.9l5.7-4.1c3.7-2.7,7.3-5.2,10.7-7.7c10.8-7.7,21.1-16,30.9-25c2.7-2.4,5.1-5.1,7.3-8
		c0.3-0.4,0.6-0.9,0.9-1.4c0.2-0.3,0.4-0.7,0.6-1l0.4-0.9c-0.4,1.2-1.1,2.3-1.8,3.3c-2.2,2.9-4.6,5.6-7.2,8.1
		c-9.8,9-20,17.4-30.8,25.2c-3.4,2.5-6.9,5.1-10.7,7.8l-5.7,4.1c-2,1.4-4,2.7-6.2,3.9c-4.4,2.6-9,4.7-13.8,6.6
		c-2.5,1-5.2,1.6-7.8,1.9c-2.8,0.2-5.6-0.1-8.2-1c-5.6-1.8-10.3-5.5-13.2-10.6c-1.5-2.6-2.4-5.5-2.7-8.4c-0.1-1.5-0.1-3-0.1-4.5
		v-4.5c-0.1-12.1-0.2-24.6-0.3-37.4c-0.1-7.5-0.1-14.9-0.2-21.8v-0.3h0.3l34.9-1.6h0.4v0.3c0,13.8,0,26.9,0,38.8l-0.5-0.2
		c9.7-9.5,18.5-18.2,26.2-26c1.9-2,3.8-3.9,5.5-5.8l5-5.5c3.2-3.5,6.3-6.6,9.2-9.3c5.8-5.3,11.4-8.6,15.6-9.2c0.5-0.1,1-0.1,1.5-0.1
		c0.5,0,0.9,0,1.4,0c0.7,0.1,1.3,0.2,2,0.4C874,449.3,874.5,449.5,874.5,449.5z"/>
	<path class="st8" d="M780.8,532.1c0,0,0.1-0.4,0.4-1.1c0.3-0.7,0.8-1.7,1.4-3c1.6-3.2,3.5-6.3,5.5-9.3c2-3,4.2-5.8,6.6-8.5
		c0.9-1,1.7-1.8,2.2-2.4c0.6-0.5,0.9-0.8,0.9-0.8c-0.8,1.2-1.8,2.3-2.7,3.4c-1.7,2.1-4.1,5.1-6.4,8.6s-4.3,6.8-5.7,9.1
		C782.3,529.6,781.6,530.9,780.8,532.1z"/>
	<path class="st4" d="M967.9,451.2L967.9,451.2c-5.1-1.1-10.1,2.1-11.2,7.1L931.1,575h18.7L975,462.4
		C976.1,457.3,973,452.4,967.9,451.2z"/>
	<path class="st13" d="M812.6,434.9c0.2,1.3,0.2,2.6,0,3.8c0,1.3-0.2,2.6-0.7,3.8c-0.2-1.3-0.2-2.6,0-3.8
		C812,437.4,812.2,436.2,812.6,434.9z"/>
	<path class="st4" d="M806.7,528c-0.2-1.2-0.3-2.3-0.2-3.5c-0.1-2.2-0.1-5.1-0.1-8.4s0-6.3,0.1-8.4c0-1.2,0-2.3,0.2-3.5
		c0.2,1.2,0.3,2.3,0.2,3.5c0.1,2.2,0.1,5.2,0.1,8.4s0,6.3-0.1,8.4C807,525.7,806.9,526.9,806.7,528z"/>
</g>
<g id="freepik--character-2--inject-87">
	<path class="st12" d="M479,357.1l6-3.7c0,0,7.9-7.1,10.1-8.6s10.5-5.3,11.7-5.2s12.6-0.6,15.3-1.9s5.7-2.9,5.7-2.9
		c1.2,1.4,1.3,3.4,0.3,4.9c-1.6,2.8-10,8.1-10,8.1l3.2,20.4c0,0-7.8,6.1-12.6,6.5s-9.5-0.6-10.9-0.1c-1.4,0.4-4.8,1.6-4.8,1.6
		L479,357.1z"/>
	<polygon class="st4" points="500.6,358.4 553.7,323.2 556.7,327.7 504.1,362.7 	"/>
	<path class="st12" d="M530.4,348.1c0,0,4.1,1.7,1.9,5.4c-2.2,3.8-4.9,2.5-4.9,2.5s1,4.1-3.6,6.2c0.2,2.4-0.8,4.7-2.7,6.2l-2.6,1.4
		l-1.6-3.2c0,0-9.7-0.9-11.2-4.8v-2c-1.1-0.5-1.7-1.7-1.6-2.8c0.3-1.9,0.2-1.9,3.8-3.2c3.7-1.2,11.4-0.4,11.4-0.4s-4.2-1.6-4.1-3.7
		c0.1-2.2,1.7-3.5,6.2-3.2C524.5,346.7,527.5,347.2,530.4,348.1z"/>
	<path class="st13" d="M530.4,348.1c-0.5-0.1-1.1-0.2-1.6-0.4c-1-0.2-2.6-0.6-4.5-0.9c-1.1-0.2-2.2-0.3-3.3-0.3
		c-1.3-0.1-2.5,0.1-3.7,0.5c-0.6,0.2-1.1,0.7-1.4,1.3c-0.3,0.6-0.4,1.3-0.1,2c0.4,0.7,0.9,1.2,1.6,1.6c0.7,0.4,1.4,0.8,2.2,1.1
		l1.9,0.8l-2-0.2c-3.2-0.4-6.4-0.4-9.5,0c-0.8,0.1-1.7,0.4-2.4,0.7c-0.8,0.2-1.6,0.6-2.3,1c-0.3,0.3-0.4,0.6-0.5,1l-0.1,0.7
		c0,0.2,0,0.4,0,0.6c0.2,0.8,0.6,1.5,1.4,1.9l0.2,0.1v0.2c0,0.6,0,1.4,0.1,2v-0.1l0.2,0.4c0.6,0.8,1.3,1.4,2.2,1.9
		c0.9,0.4,1.8,0.8,2.7,1.1c1.9,0.5,3.8,0.9,5.7,1.1h0.2l0.1,0.2c0.6,1.1,1.1,2.1,1.6,3.2l-0.4-0.1l2.6-1.4l0,0
		c1.8-1.4,2.8-3.6,2.6-5.9v-0.2l0.2-0.1c1.2-0.5,2.2-1.4,2.9-2.5c0.6-1,0.8-2.2,0.6-3.3l-0.1-0.4l0.4,0.1c0.8,0.3,1.7,0.2,2.5-0.2
		c0.7-0.4,1.3-0.9,1.8-1.6c0.4-0.6,0.7-1.2,0.9-1.9c0.2-0.6,0.2-1.1,0-1.7c-0.3-0.8-0.8-1.4-1.5-1.9
		C530.8,348.1,530.5,348,530.4,348.1c0.3,0,0.6,0.1,0.9,0.3c0.8,0.4,1.3,1.1,1.7,1.9c0.2,0.6,0.3,1.2,0.1,1.9
		c-0.2,0.7-0.5,1.4-0.9,2c-0.5,0.7-1.1,1.3-1.9,1.7c-0.9,0.5-1.9,0.6-2.9,0.3l0.3-0.3c0.2,1.3,0,2.6-0.6,3.7
		c-0.7,1.2-1.8,2.2-3.1,2.7l0.2-0.3c0.1,1.2-0.1,2.4-0.5,3.5c-0.5,1.2-1.3,2.2-2.3,3l0,0l-2.6,1.4l-0.3,0.1l-0.1-0.3
		c-0.5-1-1.1-2.1-1.7-3.2l0.3,0.2c-2-0.2-3.9-0.6-5.8-1.2c-1-0.3-2-0.7-2.9-1.2c-1-0.5-1.8-1.2-2.5-2.1c-0.1-0.2-0.2-0.4-0.3-0.6
		v-0.1c0-0.7,0-1.4-0.1-2l0.2,0.3c-1-0.4-1.7-1.3-1.9-2.3c0-0.3,0-0.5,0-0.8l0.1-0.7c0.1-0.5,0.3-1,0.7-1.4c0.8-0.5,1.6-0.9,2.5-1.1
		c0.8-0.3,1.7-0.5,2.6-0.7c3.2-0.4,6.5-0.4,9.7,0l-0.1,0.6c-0.8-0.3-1.6-0.7-2.3-1.2c-0.7-0.5-1.3-1.1-1.7-1.8
		c-0.6-1.6,0.2-3.4,1.8-4c0,0,0,0,0,0c1.3-0.4,2.6-0.6,4-0.5c1.1,0.1,2.2,0.2,3.3,0.4c1.5,0.3,3,0.6,4.5,1c0.5,0.1,0.9,0.3,1.2,0.4
		L530.4,348.1z"/>
	<path class="st13" d="M522.7,362.2c-2.7-1.1-5.5-1.9-8.4-2.5c-2.9-0.3-5.8-0.4-8.7-0.1c0.8-0.4,1.7-0.6,2.5-0.6
		c4.2-0.6,8.5,0.1,12.3,1.9C521.3,361.2,522,361.6,522.7,362.2z"/>
	<path class="st13" d="M527.3,356.2c-0.1,0.2-1.9-1-4.5-1.7c-2.5-0.7-4.7-0.9-4.7-1.1c1.6-0.3,3.3-0.1,4.9,0.4
		C524.6,354.2,526.1,355,527.3,356.2z"/>
	<path class="st4" d="M295.7,150.6c1.8-3.4,5.5-5.4,9.4-4.8c4.5-3.5,10.8-3.5,15.3,0c5.2-3.2,12-1.6,15.3,3.6c1,1.6,1.5,3.3,1.7,5.2
		c5-0.9,9.8,2.4,10.8,7.5c0.5,2.9-0.4,5.8-2.4,8c4.7,1.4,7.4,6.4,5.9,11.1c-1.2,4-5.1,6.7-9.3,6.3L297.6,161
		C294.8,158.3,294,154.2,295.7,150.6z"/>
	<path class="st12" d="M343.7,188.6c-2-19.6-18.7-34.4-38.4-34h-2c-21.1,1.7-31.4,20.5-29.2,41.5l4.5,70.2l3.1,8.8l36.3,45.5l9.1-41
		l0.2-18.9c0,0,20.2-3.6,20-23.8C347.3,226.9,345.5,206.8,343.7,188.6z"/>
	<path class="st13" d="M327.3,260.6c-9.4,0.1-18.6-2.4-26.5-7.3c0,0,6.5,14.5,26.5,12.3L327.3,260.6z"/>
	<path class="st4" d="M338.2,207.5c0.1,1.6-1.1,2.9-2.7,3c-1.5,0.2-2.8-0.9-3-2.3c0-0.1,0-0.1,0-0.2c0-1.6,1.1-2.9,2.7-3
		c1.5-0.2,2.8,0.9,3,2.3C338.1,207.3,338.2,207.4,338.2,207.5z"/>
	<path class="st4" d="M339.7,199.6c-0.4,0.4-2.6-1.2-5.7-1.1c-3.1,0.1-5.4,1.7-5.7,1.4c-0.2-0.2,0.2-0.9,1.2-1.6
		c1.3-1,2.9-1.5,4.6-1.5c1.6,0,3.2,0.4,4.5,1.4C339.6,198.7,339.9,199.4,339.7,199.6z"/>
	<path class="st4" d="M311.5,209.3c0,1.6-1.1,2.9-2.7,3c-1.5,0.2-2.8-0.9-3-2.4c0-0.1,0-0.1,0-0.2c-0.1-1.6,1.1-2.9,2.7-3
		c1.5-0.2,2.8,0.9,3,2.4C311.5,209.2,311.5,209.3,311.5,209.3z"/>
	<path class="st4" d="M309.9,199.8c-0.4,0.4-2.6-1.2-5.7-1.1c-3.1,0.1-5.4,1.7-5.7,1.4c-0.2-0.2,0.2-0.9,1.2-1.6
		c1.3-1,2.9-1.5,4.6-1.5c1.6,0,3.2,0.4,4.5,1.4C309.8,198.9,310.1,199.6,309.9,199.8z"/>
	<path class="st4" d="M320.7,222.7c1.6-0.5,3.3-0.9,5-1c0.8-0.1,1.5-0.3,1.7-0.8c0.1-0.8-0.1-1.6-0.6-2.3c-0.8-1.9-1.6-3.9-2.5-6
		c-3.5-8.6-6-15.6-5.6-15.7c0.3-0.1,3.4,6.7,6.9,15.3c0.8,2.1,1.6,4.1,2.4,6c0.5,0.9,0.7,2.1,0.5,3.1c-0.2,0.6-0.7,1-1.3,1.2
		c-0.4,0.1-0.9,0.2-1.4,0.2C324.1,222.8,322.4,222.8,320.7,222.7z"/>
	<path class="st4" d="M311.6,224.9c0.5,0,0.6,3.3,3.5,5.7c2.9,2.3,6.5,1.9,6.6,2.4c0,0.2-0.8,0.7-2.3,0.8c-2,0.1-3.9-0.6-5.4-1.8
		c-1.5-1.2-2.5-2.9-2.7-4.8C311,225.8,311.3,224.9,311.6,224.9z"/>
	<path class="st4" d="M309.8,190.9c-0.4,0.8-3,0.1-6.3,0.3s-6,0.9-6.3,0c-0.1-0.4,0.4-1.1,1.5-1.8c1.5-0.9,3.1-1.3,4.8-1.4
		c1.7-0.1,3.3,0.3,4.8,1.1C309.4,189.8,310,190.5,309.8,190.9z"/>
	<path class="st4" d="M338.9,191.1c-0.5,0.8-2.7,0.2-5.3,0.5s-4.7,1-5.3,0.3c-0.3-0.3,0-1.1,0.9-1.8c1.2-0.9,2.6-1.5,4.1-1.6
		c1.5-0.1,3,0.2,4.3,1C338.7,190,339.1,190.7,338.9,191.1z"/>
	<path class="st4" d="M341.5,179.3c0,0-5.6-12.6-11.8-15.4c-7.5-3.4-10.5,4.8-17.6,2.9s-14.2-5.1-21.3,0.5
		c-7.8,6.1-4.1,10.3-4.3,19.3c-1.2,36.5-7.7,47-9.9,29.8c-0.2-1.9-5.5-3.3-6.4-11.2c-1.2-10.3-1.9-22.8,0.3-30.2
		c1.8-6.2,5.3-10.5,11.4-15.4c9.8-7.6,23.5-8.1,32.8-7.3C323.9,153.1,342,163.4,341.5,179.3z"/>
	<path class="st12" d="M277.8,215.8c-0.2-3-2.7-5.4-5.8-5.2c-0.1,0-0.2,0-0.3,0c-3.8,0.4-7.9,2.7-7.5,10.5
		c0.7,13.9,14.5,10.3,14.5,9.9C278.7,230.6,278.2,221.6,277.8,215.8z"/>
	<path class="st13" d="M275.4,225.9c0,0-0.2,0.2-0.6,0.4c-0.6,0.3-1.2,0.3-1.8,0.1c-1.5-0.5-2.9-2.7-3-5.2c-0.1-1.2,0.1-2.4,0.5-3.5
		c0.2-0.9,0.9-1.6,1.7-1.9c0.6-0.2,1.2,0.1,1.5,0.6c0.2,0.4,0.1,0.7,0.2,0.7c0.1,0,0.3-0.2,0.1-0.8c-0.1-0.3-0.3-0.6-0.6-0.8
		c-0.4-0.3-0.9-0.4-1.4-0.3c-1.1,0.3-2.1,1.1-2.4,2.3c-0.5,1.2-0.7,2.6-0.6,3.9c0.2,2.8,1.8,5.3,3.8,5.8c0.8,0.2,1.6,0,2.2-0.5
		C275.4,226.3,275.5,225.9,275.4,225.9z"/>
	<polygon class="st4" points="249.4,574.8 249.9,502 260.2,475.4 260.2,468.2 376,466.3 376,474.6 389.3,507.7 390,574.8 
		323.1,574.8 317.5,544.5 316.2,574.8 	"/>
	<path class="st2" d="M278.4,260.7l24.2,18.9l15.3,19.4l5.6-20.2l4.1-15.8l6.6,6.5l16.7,35.5l18.8,171.8c0,0-32.7,9.6-49.7,10.7
		c-17,1.2-44-3.5-44-3.5v-90.4l-9.6-89.5l11.6-34.3L278.4,260.7z"/>
	<path class="st4" d="M327.2,486.5c0-0.2,0-0.3,0-0.5c0-0.4,0-0.8,0-1.4c0-1.4-0.1-3.1-0.2-5.4c-0.2-4.8-0.4-11.6-0.7-20
		c-0.6-16.9-1.5-40.2-2.8-66c-1.3-25.8-2.8-49.1-4-66c-0.6-8.4-1.1-15.2-1.4-20c-0.2-2.3-0.3-4.1-0.4-5.4c0-0.6,0-1.1-0.1-1.4
		c0-0.2,0-0.3,0-0.5c0,0.2,0.1,0.3,0.1,0.5l0.1,1.4c0.1,1.4,0.3,3.1,0.5,5.4c0.4,4.7,1,11.5,1.6,20c1.4,16.9,2.9,40.2,4.2,65.9
		s2.1,49.1,2.5,65.9c0.2,8.5,0.4,15.3,0.4,20c0,2.3,0,4.2,0.1,5.4v1.4C327.3,486.1,327.3,486.3,327.2,486.5z"/>
	<path class="st16" d="M274.6,269.6l-5.6,7.7l-45.8,24.1l25.5,77.7l6.9,43.6l-25.7,103.5c0,0,31.2,10.7,34,7.3
		c1.2-1.4,4.4-8.9,7.8-17c6.8-16.2,11.2-33.4,13.1-50.8c1.9-17.6,3.7-40.1,2.4-55.3c-2.4-28.5-6.2-75.5-6.5-87.8
		c-0.3-12.4-2.5-59-2.5-59L274.6,269.6z"/>
	<path class="st16" d="M330.7,265l15.2,8.9l49,16.1l-3.9,34.7l-2.3,89.8l15.4,107.7c0,0-16.5,5.8-23,3.4s-15.4-17.2-15.8-26.1
		c-0.4-8.9-13-95.4-13-95.4L340,287.8L330.7,265z"/>
	<path class="st4" d="M346.8,273.8c0.2,0.2,0.4,0.4,0.6,0.7l1.7,2.1c1.5,1.9,3.6,4.5,6.3,7.9l0.1,0.2l-0.2,0.1l-5.3,4.1l-0.1-0.4
		l6.3,2h0.2v0.2c-0.1,11.2-0.3,25.2-0.4,40.4c-0.3,18.6-0.5,35.4-0.7,47.7c-0.1,6-0.2,11-0.3,14.4c0,1.7-0.1,3-0.1,3.9
		c0,0.4,0,0.7,0,1c0,0.1,0,0.2,0,0.4c0-0.1,0-0.2,0-0.4c0-0.3,0-0.6,0-1c0-1,0-2.3,0-3.9c0-3.5,0-8.4,0-14.5
		c0.1-12.2,0.3-29.1,0.5-47.7c0.2-15.2,0.4-29.3,0.6-40.4l0.2,0.3l-6.2-2l-0.5-0.1l0.4-0.3l5.4-4v0.3l-6.1-8l-1.6-2.1
		C347.2,274.3,347,274.1,346.8,273.8z"/>
	<path class="st4" d="M285.7,395.5c0-0.1-0.1-0.2-0.1-0.3l-0.3-1c-0.3-0.9-0.7-2.2-1.3-3.8c-1.1-3.3-2.7-8.1-4.8-14.1
		c-1.1-3-2.2-6.2-3.5-9.7c-1.4-3.7-2.5-7.5-3.5-11.3c-2.1-8.8-3.8-17.6-4.9-26.6c-1.7-12.4-2.8-24-3.5-34.1v-0.1l0.1-0.1l5.4-5.2
		v0.4l-5.1-3.8l-0.2-0.1l0.1-0.2l9.2-12.5l2.5-3.4c0.3-0.4,0.5-0.6,0.7-0.9c0.1-0.1,0.2-0.2,0.2-0.3c-0.1,0.1-0.1,0.2-0.2,0.3
		c-0.2,0.2-0.4,0.5-0.6,0.9l-2.4,3.5l-9.1,12.7v-0.4l5.2,3.8l0.3,0.2l-0.2,0.2c-1.7,1.7-3.5,3.4-5.4,5.2l0.1-0.2
		c0.7,10,1.9,21.7,3.6,34c1.2,8.9,2.8,17.8,4.8,26.5c1,4,2.2,7.8,3.4,11.2c1.2,3.5,2.3,6.8,3.4,9.7c2,6,3.6,10.8,4.6,14.2
		c0.5,1.7,0.9,3,1.1,3.9l0.3,1C285.7,395.3,285.7,395.4,285.7,395.5z"/>
	<polygon class="st17" points="246.4,459.6 273.1,470.1 274.8,464.2 283.9,472.4 285.5,458 277.2,442.5 248.4,451.8 	"/>
	<path class="st12" d="M336.9,459.4l-10.8-6.6l-9.5-8.6c2.2,1.8,4.7,3.2,7.4,4.1c2.6,0.8,5.5-0.3,7-2.6c0,0-3.9-2.4-5.2-3.2
		c-1.3-0.7-14.8-10.8-18.2-11.5c-3.4-0.7-25.9-5.3-25.9-5.3l-0.4,1.2l-11.1,23.7l9.9,2.7c1.9,2.6,3.6,5.4,5,8.3
		c2.2,4.5,13,8.8,17.2,11s8.9-1.6,8.9-1.6c4.8,1.1,6-4.1,6-4.1c5.5-0.7,6-6.8,6-6.8s10,3.9,13,4.4c1,0.3,1.9-0.3,2.3-1.2
		C338.9,461.9,338.3,460.2,336.9,459.4z"/>
	<path class="st13" d="M323,460.1c-2.2-0.7-4.3-1.6-6.3-2.8c-2.1-1-4-2.4-5.6-4.1c0.1-0.2,2.6,1.6,6,3.4
		C319.1,457.6,321.1,458.8,323,460.1z"/>
	<path class="st13" d="M305.4,459.2c2.2,1,4.3,2.2,6.2,3.7c2,1.3,4,2.7,5.8,4.3c-2.2-0.9-4.3-2.1-6.3-3.6
		C309.2,462.2,307.3,460.8,305.4,459.2z"/>
	<path class="st13" d="M301.2,463.8c0.1-0.1,2.2,1.6,5,3.5c1.8,1.1,3.4,2.3,4.9,3.7c-1.9-0.8-3.7-1.9-5.3-3.1
		C302.9,466,301,464,301.2,463.8z"/>
	<path class="st13" d="M303.9,434.8c0.8,0,1.6,0.2,2.4,0.5c1.9,0.7,3.6,1.7,5.2,2.9c1.6,1.2,3,2.6,4.2,4.2c0.6,0.6,1,1.3,1.4,2.1
		c-0.2,0.1-2.4-2.9-5.9-5.7C308.9,437.2,306.5,435.8,303.9,434.8z"/>
	<path class="st16" d="M199.7,431.6c-2.9-1.8-4.6-4.9-4.8-8.3c-0.1-4.7,0.2-9.4,0.8-14.1c1.9-15.8,27.9-107.9,27.9-107.9l26.1,71.7
		l-9,31.2l45.6,21.9l-12.7,35.9C273.6,462.1,213,439.9,199.7,431.6z"/>
	<path class="st16" d="M394.9,290l41.9,79.6l1.1,1.6l45.7-23.3l15,30.4l-61.5,37.4c-7,4.2-16.1,2.1-20.6-4.6l-27.2-40.6l-7.3-33.3
		L394.9,290z"/>
	<path class="st4" d="M389.7,312.7c0.1,0.3,0.1,0.7,0.1,1c0,0.7,0.1,1.7,0.1,2.9c0,2.6,0.1,6.2,0.2,10.6c0.1,8.9,0.2,21.3,0,34.9
		c-0.2,13.6-0.4,26-0.7,35c-0.2,4.4-0.3,8-0.4,10.6c-0.1,1.2-0.1,2.2-0.1,2.9c0,0.3,0,0.7-0.1,1c0-0.3,0-0.7,0-1c0-0.7,0-1.7,0-2.9
		c0-2.6,0.1-6.2,0.2-10.6c0.2-8.9,0.4-21.3,0.5-34.9c0.1-13.6,0.2-26,0.2-34.9c0-4.4,0-8,0-10.6c0-1.2,0-2.2,0-2.9
		C389.6,313.4,389.6,313,389.7,312.7z"/>
	<path class="st4" d="M233.7,321.3c0.1,0.3,0.2,0.5,0.3,0.8c0.2,0.6,0.4,1.4,0.7,2.3c0.6,2.1,1.4,5.1,2.4,8.6
		c2,7.3,4.8,17.4,7.7,28.6s5.1,21.5,6.5,28.9c0.7,3.7,1.2,6.8,1.6,8.9l0.4,2.4c0.1,0.3,0.1,0.6,0.1,0.9c-0.1-0.3-0.2-0.5-0.2-0.8
		c-0.1-0.6-0.3-1.4-0.5-2.4c-0.4-2.2-1-5.1-1.8-8.8c-1.5-7.4-3.9-17.6-6.7-28.9s-5.5-21.3-7.5-28.7c-0.9-3.6-1.7-6.6-2.2-8.7
		l-0.6-2.4C233.7,321.9,233.7,321.6,233.7,321.3z"/>
	<path class="st4" d="M214.8,439c0,0,0.1,0,0.3,0.1l0.9,0.3l3.3,1.2l12.3,4.7l42.3,16.5l-0.4,0.2l8.5-24.1c1.4-4.1,2.8-8,4.2-11.8
		l0.2,0.4L241,404.7l0,0c-6.1-2-12.7-1.7-18.5,0.8c-1.6,0.7-3.1,1.5-4.6,2.4l-1.1,0.7c-0.1,0.1-0.3,0.2-0.4,0.2l0.4-0.3l1.1-0.8
		c1.4-1,3-1.8,4.5-2.5c5.9-2.6,12.6-3,18.8-1l0,0l45.2,21.7l0.3,0.1l-0.1,0.3c-1.4,3.8-2.7,7.8-4.2,11.8c-3,8.4-5.9,16.6-8.5,24.1
		l-0.1,0.3l-0.3-0.1l-42.2-16.7l-12.2-4.9l-3.2-1.4l-0.8-0.4L214.8,439z"/>
	<path class="st4" d="M438.2,370.4c0.2,1,0.2,2.1,0.1,3.1c-0.2,2.5-0.5,5-1.1,7.5c-0.6,2.9-1.2,5.4-1.6,7.3c-0.2,1-0.4,2-0.8,3
		c0-1,0-2.1,0.3-3.1c0.3-1.9,0.8-4.5,1.4-7.4c0.6-2.9,1-5.5,1.3-7.4C437.9,372.5,438,371.5,438.2,370.4z"/>
	<path class="st4" d="M438.2,372.4c-0.5,2.5-1.2,4.9-2.2,7.2c-0.8,2.4-1.8,4.7-2.9,7c0.5-2.5,1.2-4.9,2.2-7.2
		C436.2,377,437.1,374.6,438.2,372.4z"/>
	<path class="st4" d="M317.3,298.3c-0.5-0.4-0.9-0.7-1.4-1.2c-0.9-0.9-2-2-3.4-3.4L301,282h0.5c-2.3,2.8-3.4,6.4-3.2,10v0.8
		l-0.6-0.5c-5.8-4.7-10.5-9.3-14-12.5c-1.7-1.6-3.2-2.9-4.2-3.7c-0.5-0.4-1-0.9-1.5-1.4c0.6,0.3,1.1,0.7,1.7,1.2
		c1,0.8,2.5,2,4.3,3.6c3.6,3.1,8.4,7.6,14.2,12.3l-0.6,0.3c-0.1-1.3,0-2.6,0.3-3.9c0.5-2.4,1.6-4.7,3.1-6.6l0.3-0.3l0.2,0.3
		l11.3,11.9l3.3,3.5C316.5,297.4,316.9,297.8,317.3,298.3z"/>
	<path class="st4" d="M332.7,272.6c0.1,0.4,0.1,0.7,0.1,1.1c0,0.7,0,1.7-0.1,3c-0.3,3.5-0.8,7-1.7,10.4l-0.2,0.9l-0.4-0.8
		c-1.2-2.3-2.7-4.3-4.5-6.1c-0.5-0.5-1-1-1.6-1.4l0.6-0.2c-1,4.7-2.4,9.3-4.2,13.7c-0.6,1.7-1.2,3-1.7,3.9c-0.2,0.5-0.4,0.9-0.7,1.4
		c0.1-0.5,0.3-1,0.5-1.5l1.5-4.1c1.6-4.5,2.9-9.1,3.9-13.7l0.1-0.6l0.4,0.4c0.5,0.5,1.1,1,1.6,1.5c1.8,1.9,3.4,4,4.5,6.3l-0.6,0.1
		c0.9-3.4,1.5-6.8,1.9-10.2C332.5,274.1,332.6,272.6,332.7,272.6z"/>
	<polygon class="st18" points="374.3,453.2 378.4,465.9 401.6,463.8 394.4,451.6 	"/>
	<path class="st4" d="M374.3,453.2c0.4-0.1,0.9-0.2,1.4-0.2l4.1-0.4c3.5-0.3,8.6-0.8,14.6-1.4h0.2l0.1,0.2l7.3,12.2l0.3,0.5h-0.6
		l-1.2,0.1l-22,1.9h-0.2l-0.1-0.2c-1.2-4-2.2-7.2-2.9-9.5c-0.3-1-0.5-1.9-0.7-2.5c-0.1-0.3-0.2-0.6-0.2-0.8c0.1,0.3,0.3,0.6,0.4,0.9
		l0.9,2.6c0.8,2.3,1.8,5.4,3.1,9.1l-0.3-0.2l22-2.1l1.2-0.1l-0.3,0.5l-7.2-12.2l0.3,0.2c-5.9,0.4-10.8,0.7-14.4,1l-4.2,0.2
		C374.9,453.2,374.4,453.2,374.3,453.2z"/>
	<rect x="359.9" y="352.4" class="st18" width="24.9" height="8"/>
	<path class="st4" d="M384.8,360.4c0-0.2,0-0.4,0-0.6c0-0.4,0-1-0.1-1.6c0-1.5,0-3.4-0.1-5.8l0.2,0.2c-5.9,0.1-14.9,0.1-24.9,0.1
		c0.1-0.2-0.4,0.4,0.4-0.4l0,0v4.1c0,1.4,0,2.7,0,3.9L360,360c7.1,0,13.2,0.1,17.7,0.1l5.2,0.1C384.1,360.3,384.8,360.3,384.8,360.4
		c-0.5,0-1.1,0.1-1.7,0l-5.2,0.1c-4.4,0-10.7,0.1-17.9,0.1h-0.3v-8.3l0,0c0.7-0.7,0.2-0.2,0.4-0.4c10,0,18.9,0,24.9,0.1h0.2v0.2
		c0,2.5-0.1,4.5-0.1,6C385,359,384.9,359.7,384.8,360.4z"/>
	<path class="st17" d="M356.1,290.6l3.8,5.3c0,0-1.1,79.8-5.1,99.7L356.1,290.6z"/>
	<path class="st4" d="M270.5,201.9c-5.8-4.2-5.1-11.2-8.5-17.2c-5.9-10.4,0-14.7,0-14.7c-5-6.4-0.8-15.4,8.6-14.4
		c3-5.2,7.1-9.8,12.1-13.6c9.3-5.7,21.7-5.1,30.2,1.6c2.5-2.2,6.5-2.2,8.9,0.1c2.4,2.3,2.3,6-0.1,8.2c-0.5,0.5-1.1,0.8-1.8,1.1
		c-3.2,4-7.7,7-12.8,8.5c-6.7,2.2-18.4,2.7-25.5,4c0.4,5.3,1.2,10.6,2.4,15.9c1.4,10.6,1.4,21.2,0,31.8
		C279.2,209.7,271.4,207.3,270.5,201.9z"/>
</g>
<g id="freepik--character-1--inject-87">
	<path class="st4" d="M126.9,317.9c0,0-1-26.8-23.1-14.3L126.9,317.9z"/>
	<path class="st18" d="M126.9,317.9c0,0-1-26.8-23.1-14.3L126.9,317.9z"/>
	<path class="st19" d="M123.4,413.8l-7.2,8.9l-12.1,1.8l-19.5-6c0.1-0.3,0.2-0.6,0.3-0.9c5.3-13.6-0.8-37.3-5.4-50.9l33.9,21.6
		C112.2,398.1,113.9,408.7,123.4,413.8z"/>
	<path class="st20" d="M100.2,384.8c0,0,6.4,1.5,13.1,3.6c-0.6,4.6-0.3,9.3,1,13.8c-12.1,1.4-23.7-4.8-29.4-15.5
		c-0.4-2.1-0.9-4.1-1.4-6.1L100.2,384.8z"/>
	<path class="st12" d="M68.6,342.1c6,21.9,8.3,35,22.1,44.1c20.7,13.7,46.2-2.2,46.9-25.4c0.6-21-9.3-53.2-33.2-57.5
		c-16.9-3.3-33.3,7.7-36.6,24.6C67,332.6,67.3,337.5,68.6,342.1z"/>
	<path class="st4" d="M133.6,325.2c0-1.7-0.9-5.3-4.9-3.9c0,0-3.5-4.1-6.4-0.3c0,0-4.8,0-4.6,3c0,4.1,3.8,0.8,8.6,1.9
		C131,327.1,133.4,328,133.6,325.2z"/>
	<path class="st18" d="M133.6,325.2c0-1.7-0.9-5.3-4.9-3.9c0,0-3.5-4.1-6.4-0.3c0,0-4.8,0-4.6,3c0,4.1,3.8,0.8,8.6,1.9
		C131,327.1,133.4,328,133.6,325.2z"/>
	<path class="st4" d="M95,333.9c-0.9-1.4-1.9-5,2.3-5.8c0,0,0.9-5.4,5.4-3.4c0,0,4.1-2.4,5.5,0.3c1.8,3.6-2.9,2.6-6.5,5.9
		C98.2,334.3,96.6,336.3,95,333.9z"/>
	<path class="st18" d="M95,333.9c-0.9-1.4-1.9-5,2.3-5.8c0,0,0.9-5.4,5.4-3.4c0,0,4.1-2.4,5.5,0.3c1.8,3.6-2.9,2.6-6.5,5.9
		C98.2,334.3,96.6,336.3,95,333.9z"/>
	<path class="st21" d="M121.5,336.9c3.8,4.7,8.2,8.9,13.1,12.4c-2,2.5-4.9,4-8.1,4.1L121.5,336.9z"/>
	<path class="st4" d="M97.1,292.2c-6.6-2.2-22.2,0.3-25.7,6.3c-9.9-0.4-18.9,6-21.7,15.5c-1,4.6,0.6,10.5,5.1,12
		c-3.6,2.3-7,5.1-9.9,8.3c-2.9,3.1-4.4,7.2-4.1,11.4c0.4,4.2,3.6,7.6,7.8,8.3c-1.9,3.4-3.3,7-4.1,10.8c-1,4.1-0.2,8.5,2.2,12
		c2.6,3.5,7.3,4.5,11.2,2.6h2.6c-0.7,2.5,0.8,5,3.3,5.7c1.9,0.5,3.9-0.2,5-1.8c1.3-1.7,2-4.6,4.1-4.4c0.6,2.6,1.2,6.1,3.7,6.8
		c2.6,0.7,5.4-0.2,7.3-2.2c-2.9-8,5.7-19.9,2.8-27.9c-2.5-6.2-4.2-12.7-5.1-19.3c-0.5-6.7-10.3-10.6-5.9-15.6
		c4.2-5.2,11.4-7,17.5-4.1c0-4.8,2.7-4.6,2.7-4.6c2.3-1,5-0.7,7,0.8c-0.6-1.4,1.4-3.6,3.8-0.4c0.3-0.7-0.5-2,0.7-2.4
		c1.1-0.5,1.7,0.5,2.8,0.8C109.5,309.3,103.7,294.4,97.1,292.2z"/>
	<path class="st18" d="M97.1,292.2c-6.6-2.2-22.2,0.3-25.7,6.3c-9.9-0.4-18.9,6-21.7,15.5c-1,4.6,0.6,10.5,5.1,12
		c-3.6,2.3-7,5.1-9.9,8.3c-2.9,3.1-4.4,7.2-4.1,11.4c0.4,4.2,3.6,7.6,7.8,8.3c-1.9,3.4-3.3,7-4.1,10.8c-1,4.1-0.2,8.5,2.2,12
		c2.6,3.5,7.3,4.5,11.2,2.6h2.6c-0.7,2.5,0.8,5,3.3,5.7c1.9,0.5,3.9-0.2,5-1.8c1.3-1.7,2-4.6,4.1-4.4c0.6,2.6,1.2,6.1,3.7,6.8
		c2.6,0.7,5.4-0.2,7.3-2.2c-2.9-8,5.7-19.9,2.8-27.9c-2.5-6.2-4.2-12.7-5.1-19.3c-0.5-6.7-10.3-10.6-5.9-15.6
		c4.2-5.2,11.4-7,17.5-4.1c0-4.8,2.7-4.6,2.7-4.6c2.3-1,5-0.7,7,0.8c-0.6-1.4,1.4-3.6,3.8-0.4c0.3-0.7-0.5-2,0.7-2.4
		c1.1-0.5,1.7,0.5,2.8,0.8C109.5,309.3,103.7,294.4,97.1,292.2z"/>
	<path class="st22" d="M132.2,364.2c-2.3-0.7-4.4-2.1-5.8-4.1c-0.3,1.6-1.9,2.7-3.5,2.3c-0.1,0-0.1,0-0.2-0.1
		c-1.2,1.6-2.8,3-4.5,4.1c-1.8,1.1-4.1,1.1-5.9,0c1.4,1.9,3.6,3,5.9,3c2.5,0,4.9-1.2,6.5-3.2c1.4,1,3.4,0.6,4.4-0.8
		c0,0,0.1-0.1,0.1-0.1c1.8,1.6,4.5,1.5,6.2-0.2c-0.4,0.5-1.4,0-1.9,0C132.9,365,132.5,364.6,132.2,364.2z"/>
	<path class="st4" d="M109.4,335.3c0.5,1.8,0,3.4-1.2,3.7c-1.2,0.3-2.4-0.9-2.9-2.7c-0.5-1.7,0-3.4,1.3-3.7
		C107.8,332.4,108.9,333.7,109.4,335.3z"/>
	<path class="st4" d="M130.2,331.7c0.5,1.8,0,3.4-1.2,3.7c-1.2,0.3-2.5-0.9-2.9-2.7c-0.5-1.8,0-3.4,1.3-3.7
		C128.6,328.7,129.7,330.1,130.2,331.7z"/>
	<path class="st23" d="M130.2,406.3c-9.2-0.8-18.1-4.2-25.4-9.9c0,0,4.5,15.3,24.5,15.3L130.2,406.3z"/>
	<path class="st4" d="M76.1,411.1c0,0-13.2,12.2-17.7,30.2C52.6,464.2,73.6,575,73.6,575l110.7-0.2l-23.7-87.6
		c0,0-27.5-53.6-27.8-54.8s-1.4-12.6-1.4-12.6L80.8,399L76.1,411.1z"/>
	<path class="st24" d="M314.6,529.4c-1.1-2.3-8.7-6.8-8.7-6.8c-0.6-2.3-4.4-4.5-4.4-4.5c-1.4-1.3-3.1-2.3-4.9-3
		c-3-1.1-29.6,2.1-29.6,2.1l-19.9,1.4l1.1,26.1c0,0.6,18.6-6.8,18.6-6.8s7.8,1.9,14.8,3.2c7,1.3,20.5-3.6,20.5-3.6l5.2,5
		c1.1,2.2,1.6,4.6,1.6,7.1c0,2.1,2.7,4.1,4.4,2.6c1.7-1.5,0.5-8.8,0.5-8.8c1,0.4,2.1,0.2,2.9-0.4C318.2,542,315.6,531.8,314.6,529.4
		z"/>
	<path class="st23" d="M302.6,530.4c1-0.3,2.1-0.2,3,0.2c2.3,0.8,4.3,2.4,5.6,4.5c1.2,2.1,2.1,4.4,2.6,6.8c0.3,1,0.4,2,0.4,3
		c-0.4-0.9-0.7-1.9-0.9-2.8c-0.6-2.3-1.5-4.5-2.7-6.5c-1.2-2-3.1-3.5-5.2-4.5C304.5,530.7,303.5,530.5,302.6,530.4z"/>
	<path class="st17" d="M78.2,481.4c0,0,51.2,54.8,70.9,65.4c21.2,11.5,30.5,11.2,30.5,11.2l-3.3-15.1L78.2,481.4z"/>
	<path class="st4" d="M269,515.2L183.7,505c0,0-51.7-63.6-65-73.4s-35.5-6.6-42.4,0c-3.5,3.6-5.9,8-7,12.8
		c-2.2,8.7-1.6,17.8,1.7,26.1l2.8,7.1c1.5,1.1,82,73.6,102.9,75.1s93.9-4.4,93.9-4.4L269,515.2z"/>
	<path class="st4" d="M132.8,432.4c-0.8-0.1-1.6-0.3-2.3-0.6c-1.5-0.4-3.6-1.1-6.2-2c-5.2-1.8-12.3-4.5-20-7.6s-14.8-6-19.9-8
		l-6-2.3c-0.8-0.2-1.5-0.6-2.2-0.9c0.8,0.1,1.6,0.4,2.3,0.6c1.5,0.5,3.6,1.2,6.1,2.1c5.2,1.9,12.2,4.6,19.9,7.8s14.8,5.9,19.9,7.8
		c2.6,1,4.7,1.7,6.1,2.2C131.3,431.8,132,432.1,132.8,432.4z"/>
	<path class="st4" d="M110.3,426.4c-0.9-0.2-1.8-0.4-2.6-0.6c-2.4-0.6-4.8-0.9-7.2-1.1c-3.6-0.2-7.2,0.1-10.7,0.9
		c-2.1,0.5-4.1,1.2-6,2.1c-2.1,1-4,2.2-5.8,3.6c-3.5,2.6-6.3,6.2-8.1,10.2c-1.4,3.3-2.3,6.8-2.6,10.4c-0.2,2.4-0.4,4.9-0.4,7.3v2
		c0,0.2,0,0.5,0,0.7c-0.1-0.2-0.1-0.5-0.1-0.7c0-0.5-0.1-1.2-0.1-2c-0.1-2.5-0.1-4.9,0.1-7.4c0.3-3.7,1.1-7.3,2.5-10.7
		c1.8-4.2,4.6-7.8,8.3-10.5c1.8-1.4,3.8-2.7,5.9-3.7c2-0.9,4-1.6,6.1-2.1c6-1.4,12.3-1.2,18.2,0.5c0.8,0.2,1.5,0.5,1.9,0.6
		C109.8,426.2,110.1,426.3,110.3,426.4z"/>
	<path class="st4" d="M118.7,431.6c0,0,0.5,0.4,1.4,1.1c0.4,0.4,1,0.8,1.7,1.4l2.2,2.1c3.3,3.2,7.9,8,13.7,14.3
		c11.5,12.7,27.4,31.4,46.2,54.3l-0.2-0.1l85.4,10.6h0.3v0.3c0.5,10.5,1.1,21.5,1.6,32.7v0.4h-0.3l-2.6,0.2
		c-15.1,1.2-29.9,2.2-44.2,3c-7.1,0.4-14.2,0.8-21,1c-6.9,0.2-13.6,0.5-20.2,0.4c-1.6,0-3.3-0.1-4.9-0.2c-0.4,0-0.8,0-1.2-0.1
		l-1.2-0.2c-0.8-0.1-1.6-0.3-2.4-0.6c-3-1-5.9-2.3-8.7-3.9c-5.3-2.9-10.4-6.1-15.4-9.6c-9.6-6.5-18.2-13.3-25.9-19.4
		c-15.5-12.4-27.7-22.9-36.1-30.2c-4.2-3.7-7.4-6.5-9.6-8.4c-1.1-1-1.9-1.7-2.5-2.2l-0.8-0.8c0,0,0.3,0.2,0.9,0.7l2.5,2.2l9.7,8.3
		c8.4,7.2,20.7,17.7,36.2,30c7.8,6.1,16.4,12.8,26,19.4c4.9,3.5,10.1,6.7,15.3,9.6c2.7,1.5,5.6,2.8,8.6,3.8c3,1,6.3,0.9,9.5,1
		c6.6,0.1,13.3-0.1,20.2-0.4c6.9-0.2,13.9-0.6,21-1c14.3-0.8,29-1.8,44.1-3l2.6-0.2l-0.3,0.4c-0.5-11.2-1.1-22.2-1.6-32.7l0.3,0.3
		l-85.3-10.7h-0.1l-0.1-0.1c-18.8-23-34.6-41.7-46-54.5c-5.7-6.4-10.3-11.3-13.5-14.4l-2.2-2.1l-1.7-1.4L118.7,431.6z"/>
	<path class="st4" d="M179.6,519c0-2.4,0.4-4.8,1.2-7.1c0.6-2.3,1.6-4.6,2.9-6.6c0.2,0.1-1.1,3-2.2,6.8
		C180.4,515.8,179.8,519,179.6,519z"/>
	<path class="st4" d="M48,441.2L48,441.2c-5.2,0-9.4,4.2-9.4,9.4c0,0,0,0,0,0v124.5h18.7V450.6C57.4,445.5,53.2,441.3,48,441.2
		C48,441.2,48,441.2,48,441.2z"/>
</g>
<g id="freepik--Desk--inject-87">
	<path class="st3" d="M385.7,468.1l-0.6-0.1c-1.4-0.3-2.7,0.6-3,1.9l-17.7,80.7h-88.1c-1.4,0-2.5,1.1-2.5,2.5l0,0l0,0
		c0,1.4,1.1,2.5,2.5,2.5c0,0,0,0,0,0h92.4l19.1-84.5C388,469.8,387.1,468.4,385.7,468.1C385.7,468.1,385.7,468.1,385.7,468.1z"/>
	<path class="st4" d="M385.7,468.1c0.6,0.1,1.1,0.4,1.4,0.8c0.5,0.5,0.7,1.2,0.6,1.9c-0.1,0.8-0.4,1.7-0.6,2.7
		c-0.9,4.2-2.3,10.3-4,18c-3.5,15.5-8.4,37.6-14.4,64.2v0.2h-0.2h-92.5c-1.6-0.1-2.8-1.5-2.7-3.1c0.1-1,0.6-1.8,1.5-2.3
		c0.5-0.3,1.2-0.4,1.8-0.4h42.6h45.1l-0.3,0.2c5.7-25.6,10.4-46.9,13.7-61.8c1.7-7.4,3-13.3,3.9-17.3c0.1-0.9,0.4-1.8,0.8-2.6
		c0.4-0.5,1-0.9,1.7-1c0.4-0.1,0.8,0,1.2,0.1l0.4,0.1l-0.4-0.1c-0.4-0.1-0.8-0.1-1.2,0c-0.6,0.1-1.2,0.5-1.6,1
		c-0.4,0.8-0.7,1.6-0.8,2.5c-0.9,4.1-2.1,9.9-3.7,17.3c-3.3,14.9-7.9,36.2-13.5,61.9v0.2h-0.2h-45.1h-42.6c-0.5,0-1,0-1.4,0.3
		c-1,0.6-1.4,2-0.7,3c0.4,0.6,1,1,1.7,1.1h92.5l-0.3,0.2c6-26.5,11.1-48.6,14.6-64.1c1.8-7.7,3.2-13.8,4.1-17.9
		c0.2-1,0.5-1.9,0.6-2.7c0.1-0.7-0.1-1.3-0.6-1.9C386.7,468.4,386.2,468.2,385.7,468.1z"/>
	<rect x="199.5" y="555.8" class="st3" width="628.7" height="19"/>
	<path class="st4" d="M828.2,574.8c0-0.6,0-6.1-0.1-19l0.1,0.1l-628.7,0.3l0,0l0.4-0.4v19l-0.4-0.4L828.2,574.8l-628.7,0.4h-0.4
		v-19.7h0.4l628.7,0.3h0.1v0.1C828.3,568.7,828.2,574.3,828.2,574.8z"/>
	<rect x="626.4" y="543.9" class="st25" width="130.1" height="11.7"/>
	<path class="st4" d="M756.5,555.6c0,0,0-0.3,0-0.8v-2.3c0-2,0-4.9-0.1-8.6l0.1,0.1c-21.7,0.1-71.8,0.2-130.1,0.2l0,0l0.4-0.4v11.7
		l-0.4-0.4l92.3,0.1l27.7,0.1h7.5h2L756.5,555.6l-0.6-0.1H754h-7.4l-27.6,0.1l-92.6,0.1h-0.4v-12l0.4-0.4l0,0
		c58.3,0,108.5,0.1,130.1,0.2h0.1v0.1c0,3.8,0,6.8-0.1,8.7c0,0.9,0,1.7,0,2.2C756.6,555.2,756.5,555.6,756.5,555.6z"/>
	<path class="st4" d="M752.9,551.3c0,0.2-28.2,0.4-62.9,0.4c-34.8,0-62.9-0.2-62.9-0.4c0-0.2,28.2-0.4,62.9-0.4
		C724.7,551,752.9,551.1,752.9,551.3z"/>
	<path class="st4" d="M756,548.2c0,0.2-28.2,0.4-62.9,0.4c-34.8,0-62.9-0.2-62.9-0.4c0-0.2,28.2-0.4,62.9-0.4
		C727.8,547.9,756,548,756,548.2z"/>
</g>
</svg>
