<?xml version="1.0" encoding="utf-8"?>
<!-- Generator: Adobe Illustrator 26.0.2, SVG Export Plug-In . SVG Version: 6.00 Build 0)  -->
<svg version="1.1" id="_x37_d8641e0-c257-4791-b312-86d1704443b9"
	 xmlns="http://www.w3.org/2000/svg" xmlns:xlink="http://www.w3.org/1999/xlink" x="0px" y="0px" viewBox="0 0 1081 836.7"
	 style="enable-background:new 0 0 1081 836.7;" xml:space="preserve">
<style type="text/css">
	.st0{fill:#E2E8F0;}
	.st1{opacity:0.1;fill:#00CE8F;enable-background:new    ;}
	.st2{fill:url(#SVGID_1_);}
	.st3{fill:#65617D;}
	.st4{fill:#2F2D3D;}
	.st5{opacity:0.1;enable-background:new    ;}
	.st6{fill:#FCD7CB;}
	.st7{fill:#FFD037;}
	.st8{fill:#FBBEBE;}
	.st9{fill:#2F2E41;}
	.st10{opacity:0.1;}
	.st11{fill:#18C1C0;}
	.st12{fill:#F6F7F9;}
	.st13{fill:#535461;}
	.st14{fill:#384B66;}
	.st15{fill:#424C56;}
	.st16{fill:#DCE0ED;}
	.st17{opacity:0.2;}
	.st18{opacity:0.75;}
	.st19{fill:#FFFFFF;}
	.st20{fill:#263238;}
	.st21{opacity:0.9;fill:#FFFFFF;enable-background:new    ;}
	.st22{opacity:0.2;enable-background:new    ;}
	.st23{fill:#606060;}
	.st24{fill:none;stroke:#263238;stroke-width:1.0293;stroke-linecap:round;stroke-linejoin:round;}
	.st25{fill:#92E3A9;}
	.st26{fill:none;stroke:#263238;stroke-width:4.1174;stroke-miterlimit:10;}
	.st27{fill:#FFFFFF;stroke:#263238;stroke-width:1.0293;stroke-miterlimit:10;}
	.st28{fill:none;stroke:#263238;stroke-width:1.0293;stroke-miterlimit:10;}
	.st29{fill:#92E3A9;stroke:#263238;stroke-width:1.0293;stroke-miterlimit:10;}
	.st30{fill:#FFD037;stroke:#000000;stroke-width:0.5;stroke-linecap:round;stroke-linejoin:round;stroke-miterlimit:10;}
	.st31{fill:#714900;}
	.st32{fill:#FFFFFF;stroke:#263238;stroke-width:1.0293;stroke-linecap:round;stroke-linejoin:round;}
	.st33{fill:#263238;stroke:#263238;stroke-width:1.0293;stroke-linecap:round;stroke-linejoin:round;}
	.st34{opacity:0.3;enable-background:new    ;}
	.st35{opacity:0.15;enable-background:new    ;}
	.st36{fill:none;stroke:#263238;stroke-width:2.0587;stroke-linecap:round;stroke-linejoin:round;}
	
		.st37{opacity:0.47;fill:none;stroke:#FFFFFF;stroke-width:1.0293;stroke-linecap:round;stroke-linejoin:round;enable-background:new    ;}
</style>
<path class="st0" d="M299.4,2279.7c28.7,12.5,63.7,4.9,96.3,5.8c4.5,0.1,9.2,0.5,12.8,2.6c3.6,2.2,5.3,5.7,7.8,8.7
	c9.1,11.1,27.8,14.7,44.2,12.8c16.3-1.9,31.3-8.1,46.8-12.9c26.7-8.2,57.1-12,83.5-3c2.4,0.8,5,1.8,7.5,1.4
	c5.8-0.7,7.5-6.7,11.5-10.1c7.3-6.2,23.1-4.5,26.3-12.6c1.9-4.8-2.4-9.6-7.1-12.9c-18-12.4-43.7-14.5-67.2-12.6s-46.7,7.2-70.3,7.2
	c-29.5,0-57.9-8.1-87.1-11.4c-20.2-2.3-42.3-2-61.2,4.8C322.5,2254.8,318,2271.3,299.4,2279.7z"/>
<path class="st1" d="M260,97.7c-31.4-1.4-64.3-2.3-92.7,13.4s-50.4,53.9-40.9,89c3.1,11.4,9.2,21.4,14.3,31.8
	c25.5,52.1,26.7,119.4,3,172.7c-18.2,41-49.1,72.2-71.4,110.4s-34.9,91.2-13,129.7c15,26.4,42.8,39.2,69.7,42.3
	c26.9,3.1,54-1.8,81.1-3c52.7-2.4,105.1,9.2,153.4,33.9c66.5,34.1,123.7,92.3,193.7,114.8c8.4,2.7,17.2,4.9,25.8,3
	c15.2-3.2,26.3-18,38.2-29.6c38.1-36.9,90.8-43.7,140.2-45.5c49.4-1.7,100.9-0.4,145.6-25.2c39-21.7,69-62,87.7-107.5
	s26.8-96.1,29.8-146.5c1.8-30,1.7-60.9-7.4-89c-10.3-31.6-31.2-56.7-53.2-78.7c-22.9-23-47.9-43.8-76.2-56.2
	c-33.8-14.8-70.5-16.9-106.6-20.4c-73.8-7.2-147.1-21-219.2-41.1c-68.4-19.1-143.5-40-205.8-78.9C325.1,97.7,295.3,99.2,260,97.7z"
	/>
<g>
	
		<linearGradient id="SVGID_1_" gradientUnits="userSpaceOnUse" x1="255.3849" y1="-518.4731" x2="255.3849" y2="141.3659" gradientTransform="matrix(-1 0 0 -1 -437.2418 804.2398)">
		<stop  offset="0" style="stop-color:#808080;stop-opacity:0.25"/>
		<stop  offset="0.54" style="stop-color:#808080;stop-opacity:0.12"/>
		<stop  offset="1" style="stop-color:#808080;stop-opacity:0.1"/>
	</linearGradient>
	<path class="st2" d="M-808.2,833.8V854c0,0,6.4,63.7,26.8,70.8c2,0.7,4.1,1.2,6.2,1.5c-0.8,5.8-1.5,11.2-2,15.5
		c-2.3,18.2-8.7,46.7-8.7,46.7l1.2,0.3l-0.2,1.1c-2.2,16.8,0.3,44.2,0.3,44.2s3.2,20.4,7.7,41.1c2.7,12.5,2.7,25.3,0,37.8
		c1.5,14.6,0.1,29.3-4.2,43.3c-0.3,1-0.7,2-0.9,3l0,0c-7.3,25.7,2.6,64.8,7.4,82.6c4.4,16.4,6.1,35.8,6.4,39.9
		c-1,1.4-1.3,3.2-0.9,4.9c2.1,8.5-5.3,20.6-5.3,20.6c-0.6,0.7-1,1.5-1.4,2.3c-1.3,3.1-0.8,6.6,1.4,9.2c4.7,6.1,32.5,3.5,37.3,1.6
		c2.9-1.2,2.7-6.5,1.9-12c-0.5-3.5-1.2-7.1-1.5-9.6c-0.5-4.6,0.7-12.3,1.6-16.8l0.3-0.1l-0.2-0.8c0.3-1.6,0.5-2.6,0.5-2.6
		s-0.4,0.4-0.9,0.8l-7.4-35.7c5.7-22.6,0-83,0-83s12.9-23.3,14-58.9c1.1-35,9.9-46.3,10.2-46.7l0,0c18.2,9.3,41.2,108.6,41.2,108.6
		c-1.8,24.1,0.4,61.2,8,81.2c4.6,12.7,6.5,26.2,5.7,39.6c0.7,0.6,1.5,1,2.3,1.4c-0.4,4.3-1.4,11-3.4,13.4l0,0c-0.8,1-1.2,2.4-1,3.7
		c0.5,3.8,3.5,6.9,7.3,7.3c10.3,1.5,35,5.3,41.3,8.2c7.9,3.7,39.3,1.1,40.9-2.6c0.4-1.5,0.2-3.1-0.5-4.5c-1.1-2.3-2.9-4.1-5.1-5.3
		c-0.7-0.4-1.5-0.7-2.3-1c-5.9-1.9-17.1-6-20.1-10.3c0,0-13.9-11.9-17.9-18.4c-1.5-2.6-4.3-4.2-7.3-4.4h-0.3
		c-0.7-18.7-4.3-105.1-7-108.7c-3-4.1,0-27.4,0-27.4l-4.8-37.8c0,0,0.8-64.1-6.4-75.2c-6.2-9.6-7.6-26.5-7.9-30.9
		c-0.1-0.7-0.1-1.1-0.1-1.1c2.1-0.9,2.6-2.3,0-4.3c-9.3-7.3-11.8-67.9-12.1-74.9v-0.7c0.6,0.1,6.9,1.6,23-1.9
		c17-3.7,18.9-41.1,10.6-57.4c-5.2-10.2-5.8-18.1-5.5-22.5c0.3-5.1-0.1-10.1-1.3-15c-7.3-29.7-27.6-27.2-27.6-27.2l-33.7-13.5
		c-3.9-3.4-5.2-8-5.2-12.6c0-0.4,0-0.8,0-1.1c15.8-4.9,26.5-19.4,26.6-35.9c0-8.3-2.7-16.3-7.8-22.9l-0.2-0.2c0-0.1,0.1-0.3,0.1-0.4
		c0.3-1.2,0.2-2.5,0.6-3.7c0.9-2.9,4.1-4.4,6.2-6.6c2.1-2.3,3.3-5.4,3.2-8.5l0,0c0-0.2,0-0.3,0-0.5c0-2.9-0.8-5.8-2.2-8.4
		c-2.4-4.3-7.2-7.9-12.1-7.1c-3.1,0.5-5.8,2.7-8.8,2.8c-3,0.2-5.7-1.5-8.4-2.7c-6.6-2.9-13.9-3.5-20.9-1.8c-2.1,0.4-4.1,1.4-5.8,2.8
		c-1.2,1.2-2,2.9-3.1,4.2c-3.5,4.4-9.8,5.3-15.5,6.3s-12,3.2-13.8,8.5c-0.4,1.2-0.6,2.5-0.5,3.8c0.2,2.5,0.6,5,1.2,7.5v0.2
		c0,0,0-0.1,0-0.1c0.2,0.6,0.1,1.3-0.2,1.9c-0.9,1.4-3.1,0.8-4.7,1.2c-3.2,0.7-4,4.7-4.1,7.9c-0.1,3.7-0.2,7.3-0.3,11
		c0,0.4,0,0.8,0,1.3c0,1.1,0.1,2.1,0.3,3.1c0.7,1.9,1.8,3.6,3.2,5.1l12.5,14.7c4.9,5.8,10,12.3,10.4,19.6v-0.2c0,0.5,0,1.1,0,1.6
		c-1.3,3-3.4,5.6-6,7.6l-0.5,0.4c0,0-9,3.4-32.8,17.1C-815,802.9-808.2,833.8-808.2,833.8z M-638,1280.7L-638,1280.7
		c0,0-0.4,0.2-1,0.5L-638,1280.7z"/>
	<path class="st3" d="M-774.8,1113.7c2.7-12.4,2.7-25.2,0-37.7c-4.4-20.7-7.5-41-7.5-41s-2.4-27.3-0.3-44.1
		c0.7-5.5,1.9-9.8,3.8-11.7c7.8-7.8,111.1,0,111.1,0l10.7,12.8c0,0,0.1,0.4,0.1,1.1c0.3,4.4,1.7,21.2,7.7,30.8c7,11.1,6.3,75,6.3,75
		l4.8,37.7c0,0-3,23.3,0,27.3c3,4.1,7,111.9,7,111.9s-12.6,9.1-23.1,10.8c-3.9,0.6-7.5,0.2-10-1.9c0.8-13.4-1.1-26.8-5.5-39.5
		c-7.4-19.9-9.6-56.9-7.8-80.9c0,0-22.5-99-40.2-108.2l0,0c-0.3,0.3-8.9,11.6-10,46.5c-1.1,35.4-13.7,58.7-13.7,58.7
		s5.5,60.2,0,82.7l7.8,38c0,0-13.7,3.7-32.5,0.8c0,0-1.5-22.2-6.3-40.6s-15.1-59.8-6.3-85.3
		C-774.7,1142.9-773.4,1128.2-774.8,1113.7z"/>
	<path class="st4" d="M-773.8,1309.7c0.3-0.8,0.8-1.6,1.3-2.3c0,0,7.2-12,5.2-20.5c-1.4-6,6.6-10.4,11.4-12.5c3-1.3,6.4-1.6,9.6-0.6
		c2.4,0.7,4.6,2.2,5.3,5c1.5,6.5,7.6,0,7.6,0s-3,13.5-2.2,20.1c0.3,2.6,1,6.1,1.5,9.6c0.8,5.5,1,10.8-1.8,11.9
		c-4.6,1.9-31.8,4.5-36.4-1.6C-774.5,1316.3-775,1312.8-773.8,1309.7z"/>
	<path class="st5" d="M-773.8,1309.7c5.9,0.5,11.7,0.6,17.6,0.3c1.9-0.1,3.9,0,5.8,0.2c8.3,0.8,13.2-0.4,16.1-1.7
		c0.8,5.5,1,10.8-1.8,11.9c-4.6,1.9-31.8,4.5-36.4-1.6C-774.5,1316.3-775,1312.8-773.8,1309.7z"/>
	<path class="st5" d="M-717.9,1056.1l6.5-7.1c0,0,32.4,41.5,39.3,101.9c6.1,53,15.6,120.1,17.8,135.7c-3.9,0.6-7.5,0.2-10-1.9
		c0.8-13.4-1.1-26.8-5.5-39.5c-7.4-19.9-9.6-56.9-7.8-80.9C-677.7,1164.3-700.2,1065.3-717.9,1056.1z"/>
	<path class="st6" d="M-756.3,773.6c3.9-3,8.8-9.4,8.4-22.4c-0.3-6.6-1.5-13-3.4-19.3l47.6,15c0,0-3.8,7.8-3.8,15.9
		c0,4.9,1.4,9.9,6,13.4c2.3,1.7,4.9,2.8,7.7,3.4c23.2,5.5-13.8,44.3-13.8,44.3l-27.2,11.6l-22.1-37.1l-4.5-22.2
		C-759.5,775.7-757.8,774.8-756.3,773.6z"/>
	<path class="st5" d="M-703.7,746.9c0,0-3.8,7.8-3.8,15.9c-13.2,4.3-27.6,1-37.7-8.6c-1-0.9-1.9-1.9-2.8-2.9
		c-0.3-6.6-1.5-13-3.4-19.3L-703.7,746.9z"/>
	<path class="st6" d="M-756.8,725.5c0.1-20.7,16.9-37.4,37.6-37.4c0,0,0,0,0,0c20.8,0,37.7,16.9,37.7,37.7
		c0,20.8-16.9,37.7-37.6,37.7c-20.8,0-37.7-16.9-37.7-37.6C-756.8,725.7-756.8,725.6-756.8,725.5z"/>
	<path class="st5" d="M-756.4,773.6c3.4,5.3,23.9,37.5,35.1,39.1c0,0,4.7,1.9,6.7-1.1c0,0,17.3-24,13.1-35.6
		c2.3,1.7,4.9,2.8,7.7,3.4c23.2,5.5-13.8,44.3-13.8,44.3l-27.2,11.6l-22.1-37.1l-4.5-22.2C-759.5,775.7-757.8,774.8-756.4,773.6z"/>
	<path class="st5" d="M-778.9,979.3c7.8-7.8,111.2,0,111.2,0l10.7,12.8c0,0,0.1,0.4,0.1,1.1c-5.8,2.6-24.5,1.6-24.5,1.6
		s-29.4,1.5-44.6,3.7c-13.8,2-50-6-56.6-7.5C-782,985.5-780.8,981.2-778.9,979.3z"/>
	<path class="st7" d="M-721.3,813.9c-12.2-1.9-35.5-39.9-35.5-39.9s-8.7,3.3-32,17c-23.3,13.7-16.6,44.5-16.6,44.5l37.7,51
		c0,0-5.2,38.5-7.4,56.6c-2.2,18.1-8.5,46.5-8.5,46.5s42.5,10,57.6,7.8s44.6-3.7,44.6-3.7s34.1,1.8,24.5-5.9s-11.8-75.3-11.8-75.3
		s5.9,1.9,22.5-1.8c16.6-3.7,18.5-41,10.3-57.2c-5.1-10.2-5.7-18-5.4-22.5c0.3-5-0.1-10.1-1.2-15c-7.2-29.6-27-27.2-27-27.2
		l-32.9-13.5c7.3,10.5-12.1,37.5-12.1,37.5C-716.6,815.7-721.3,813.9-721.3,813.9z"/>
	<path class="st5" d="M-674.4,856c-0.8,5.2,9.2,15.9,9.2,15.9h-18.5c0,0,8.1-26.6,10.3-31.4s1.8-17,1.8-17S-673.6,850.8-674.4,856z"
		/>
	<path class="st5" d="M-764.5,819c0,0-0.4,12.2,1.8,17s10.3,31.4,10.3,31.4h-18.5c0,0,10-10.7,9.2-15.9
		C-762.3,846.3-764.5,819-764.5,819z"/>
	<path class="st8" d="M-726.1,899.9c11.1-1.8,34.7-20.7,34.7-20.7l19.8-15.6l4.3,5.8c0,0-10.5,19-14.3,27.5
		c-3.8,8.5-44.6,18.5-44.6,18.5S-737.1,901.8-726.1,899.9z"/>
	<path class="st6" d="M-726.1,899.9c11.1-1.8,34.7-20.7,34.7-20.7l19.8-15.6l4.3,5.8c0,0-10.5,19-14.3,27.5
		c-3.8,8.5-44.6,18.5-44.6,18.5S-737.1,901.8-726.1,899.9z"/>
	<path class="st6" d="M-760,875.2c6.4,2.3,12.1-5.1,18.7-6.8c13.4-3.5,19.1,1.5,23.7,3c4.8,1.6,16.1,0.7,18.8,0.4h0.5l10.7,9.6
		l-11.5,25.8l-1.8-1l-6.7-3.7c-15.4-8.5-32.6-13-50.2-13h-3.6v-22.1L-760,875.2z"/>
	<path class="st5" d="M-774.4,802.1c16.6,0.7,11.8,35.4,11.8,35.4c7.4,11.1,6.9,48.3,6.9,48.3s33.7,8.9,38,10.4
		c4.3,1.5-4.9,25.8-4.9,25.8s-35.6,11.1-55.5,4.1c-19.9-7-26.2-70.5-26.2-70.5v-20.1l7.4-8.3C-797,827.2-791.1,801.3-774.4,802.1z"
		/>
	<path class="st7" d="M-775.5,802.1c16.6,0.7,11.8,35.4,11.8,35.4c7.4,11.1,6.9,48.3,6.9,48.3s33.7,8.9,38,10.4
		c4.3,1.5-4.9,25.8-4.9,25.8s-35.5,11.1-55.5,4.1s-26.3-70.5-26.3-70.5v-20.1l7.4-8.3C-798.1,827.2-792.1,801.3-775.5,802.1z"/>
	<path class="st5" d="M-745.2,753.1c-1.5-1.4-2.8-2.9-4.1-4.5c-12.6-16.6-9.3-40.2,7.3-52.8s40.2-9.3,52.8,7.3v0.1
		c-0.7,2.4-2.8,4.2-5.3,4.6c-3,0.5-5.5-0.9-7.6-2.7c-2-1.8-4.5-2.9-7.2-2.9c-4-0.1-10.1,1.3-12.7,4.6c-2.1,2.6-2.2,6.3-2.2,9.6
		c0,3.1,0,6.2,0,9.2c0,2.7,0,5.5-1.3,8c-1.2,2.5-4.1,4.3-6.7,3.5c-3.1-1-4.5-5.1-7.6-5.8c-2.4-0.6-4.8,1.2-5.9,3.4s-1,4.8-0.8,7.2
		C-746.3,745.6-745.8,749.4-745.2,753.1z"/>
	<path class="st9" d="M-702.1,703.9c-2-1.8-4.5-2.9-7.2-2.9c-4-0.1-10.1,1.3-12.7,4.6c-2.1,2.6-2.2,6.3-2.2,9.6v9.3
		c0,2.7,0,5.5-1.3,8c-1.2,2.5-4.1,4.3-6.7,3.5c-3.1-1-4.5-5.1-7.6-5.8c-2.4-0.6-4.8,1.2-5.9,3.4s-1,4.8-0.8,7.2
		c0.3,4.8,0.9,9.7,1.9,14.4c0.6,2.8,1.2,5.6,0.4,8.3s-3.9,4.9-6.4,3.8c1.1-8.4-4.7-16-10.1-22.5l-12.2-14.7
		c-2.6-2.3-3.8-5.7-3.5-9.1c0.1-3.6,0.2-7.3,0.3-10.9c0.1-3.2,0.9-7.2,4-7.8c1.6-0.3,3.8,0.2,4.6-1.2c0.3-0.7,0.4-1.5,0.1-2.2
		c-0.7-3.6-1.8-7.4-0.7-10.9c1.8-5.3,8-7.5,13.5-8.4s11.6-1.8,15.1-6.2c0.9-1.5,1.9-2.9,3-4.2c1.6-1.4,3.5-2.4,5.6-2.8
		c6.8-1.7,14-1.1,20.4,1.8c2.7,1.2,5.2,2.9,8.2,2.7s5.6-2.3,8.6-2.8c4.8-0.8,9.4,2.8,11.8,7.1c3,5.3,3.2,12.6-0.9,17
		c-2,2.2-5.1,3.7-6,6.6c-0.4,1.2-0.3,2.5-0.6,3.6c-0.7,2.4-2.8,4.2-5.3,4.6C-697.4,707.1-699.9,705.8-702.1,703.9z"/>
	<path class="st5" d="M-736.1,865.3l2.8-0.2c5.9-25.6-9.2-50.4-9.2-50.4C-731.1,853.4-736.1,865.3-736.1,865.3z"/>
	<path class="st5" d="M-710.8,815.8c0,0-5.5,28.5,9,50.5l2.7-0.8C-699.1,865.4-708,856.1-710.8,815.8z"/>
	<path class="st5" d="M-772,963.1c1.3-14.3,19.9-8.1,19.9-8.1C-768.5,953.3-772,963.1-772,963.1z"/>
	<path class="st5" d="M-666.6,873l-2.2,40.6c-19,1.1-32.5-4.4-32.5-4.4c6.7-10.3,3-36.2,3-36.2H-666.6z"/>
	<path class="st5" d="M-698.9,871.9L-698.9,871.9h0.5l10.7,9.6l-11.5,25.8l-1.8-1C-695.8,895.3-698.8,873.1-698.9,871.9z"/>
	<path class="st7" d="M-656,871.9l-12.9,40.6c-19,1.1-32.5-4.4-32.5-4.4c6.7-10.3,3-36.2,3-36.2H-656z"/>
	<path class="st4" d="M-665.5,1299.4L-665.5,1299.4c2.9-3.7,3.7-17.3,3.7-17.3c4.8,8.9,22.5-1.2,22.5-1.2c1.5-7.1,5.1-8.7,8.3-8.6
		c3,0.2,5.6,1.9,7.1,4.4c3.9,6.4,17.5,18.3,17.5,18.3c3,4.3,13.8,8.4,19.6,10.3c0.8,0.3,1.5,0.6,2.2,1c2.2,1.2,3.9,3.1,5,5.3
		c0.8,1.4,0.9,2.9,0.5,4.4c-1.5,3.7-32.1,6.3-39.9,2.6c-6.1-2.9-30.3-6.7-40.3-8.2c-3.8-0.5-6.7-3.5-7.2-7.3
		C-666.6,1301.8-666.3,1300.5-665.5,1299.4z"/>
	<path class="st5" d="M-665.5,1299.4L-665.5,1299.4c5.6,2.4,17.1,6,40.4,9.6c24.4,3.8,35.5,0.6,40.5-2.8c2.2,1.2,3.9,3.1,5,5.3
		c0.8,1.4,0.9,2.9,0.5,4.4c-1.5,3.7-32.1,6.3-39.9,2.6c-6.1-2.9-30.3-6.7-40.3-8.2c-3.8-0.5-6.7-3.5-7.2-7.3
		C-666.6,1301.8-666.3,1300.5-665.5,1299.4z"/>
	<g class="st10">
		<path d="M-767.2,697.5c-0.5-2.2-0.9-4.5-1.1-6.7c-0.2,2.8,0.6,5.6,1.1,8.4v0.2C-767.1,698.7-767.1,698.1-767.2,697.5z"/>
		<path d="M-739.8,730.5c3.2,0.7,4.5,4.8,7.6,5.8c2.6,0.8,5.4-1,6.7-3.5c1.3-2.4,1.3-5.3,1.3-8c0-3.1,0-6.2,0-9.3
			c0-3.3,0.1-7,2.2-9.6c2.6-3.3,8.7-4.7,12.7-4.6c2.7,0,5.3,1.1,7.2,2.9c2.2,1.8,4.6,3.2,7.6,2.7c2.5-0.4,4.6-2.2,5.3-4.6
			c0.3-1.2,0.2-2.5,0.6-3.6c0.8-2.9,3.9-4.4,6-6.6c2.3-2.6,3.4-6,3.1-9.5c-0.1,2.9-1.2,5.7-3.1,7.8c-2,2.2-5.1,3.7-6,6.6
			c-0.4,1.2-0.3,2.5-0.6,3.7c-0.7,2.4-2.8,4.2-5.3,4.6c-3,0.5-5.4-0.9-7.6-2.7c-2-1.8-4.5-2.9-7.2-2.9c-4-0.1-10.1,1.3-12.7,4.6
			c-2.1,2.6-2.2,6.3-2.2,9.6c0,3.1,0,6.2,0,9.3c0,2.7,0,5.5-1.3,8c-1.2,2.5-4.1,4.3-6.7,3.5c-3.1-1-4.5-5.1-7.6-5.8
			c-2.4-0.6-4.8,1.2-5.8,3.4c-0.8,1.9-1.1,3.9-0.9,5.9c0-1.5,0.3-2.9,0.9-4.2C-744.6,731.7-742.2,729.9-739.8,730.5z"/>
		<path d="M-776.3,721.4c-0.1,1.3,0,2.7,0.3,4c0.7,1.9,1.7,3.6,3.1,5.1l12.2,14.6c4.8,5.7,9.8,12.3,10.2,19.5
			c0.4-7.9-5-15-10.2-21.2c-4.1-4.9-8.1-9.8-12.2-14.6c-1.4-1.5-2.5-3.2-3.1-5.1C-776.2,722.9-776.3,722.1-776.3,721.4z"/>
		<path d="M-750.5,765.9c0,0.5-0.1,1.1-0.1,1.6c2.6,1.2,5.6-1.1,6.5-3.7c0.3-1.2,0.5-2.4,0.4-3.6c0,0.7-0.2,1.3-0.4,2
			C-745,764.8-747.9,766.9-750.5,765.9z"/>
	</g>
	<path class="st5" d="M-639.3,1280.8c14,6,17.8-0.8,17.8-0.8"/>
	<path class="st5" d="M-767,1286.3c15.2,9.6,27.3-4.7,27.3-4.7"/>
	<path class="st5" d="M-770.4,1119.9c0,0,4.7,5.3,4.4,2.2c-0.3-3-8.8-8.4-8.8-8.4L-770.4,1119.9z"/>
	<path class="st5" d="M-766,1164.7c4.2,2.5,4.7-5.8-1.7-6.1c-3.9-0.2-7.5-1.6-10.5-4.1C-778.2,1154.5-770.2,1162.2-766,1164.7z"/>
	<path class="st5" d="M-772.4,1176.1c-3.3,3.9-7.4-16.2-7.4-16.2"/>
	<path class="st9" d="M-732,760.5l0.3-0.3l-0.3-0.3c-0.3-0.5-0.5-0.5-2.6-0.8c-2.9-0.3-5.7-6.2-7.3-14c-1.6-8.3-1.3-17.9,3.1-20.2
		c1.3-0.8,2.3-2.1,2.9-3.4s1.6-2.3,2.6-2.9c2.6-0.8,5.5-0.3,7.8,1.6c0.5,0.3,0.8,0.3,1.3,0.5c2.9,1,5.7-0.3,6.7-3.1
		c2.3-6.5,8-11.7,15.1-13c1,0,2.1-0.3,3.1-0.3c1.8,0,3.4-0.3,5.2-0.8c2.1-0.5,3.6-1.6,5.2-2.9c5.5-5.2,6-13.5,1-19l-1-1v1
		c-0.5-0.5-1-1.3-1.6-2.1c-2.3-3.1-3.9-5.5-5.7-5.5c-2.9,0-5.5-1-7.5-2.9c-0.5-0.5-1-0.5-1.6-0.5c-5.5,1.6-11.2,1.3-16.6-0.5
		c-11.4-4.7-20.2-6.2-26.2-4.7c-3.6,1-7.3,2.6-10.1,5.2c-0.5,0.8-1,1.3-1.6,1.8c-2.6,3.1-6,5.2-9.9,6.2c-0.3,0-0.5,0.3-0.8,0.3
		c-2.6,1-4.9,3.1-6.5,5.5c-8.6,11.7-11.7,26.5-8.8,40.5c1,6,3.1,11.7,6,17.1l0,0c4.2,6.2,18.4,16.6,24.7,17.9c6.5,1,13,1.3,19.5,1.3
		C-734.3,761.8-733.3,761.5-732,760.5z"/>
</g>
<g>
	<g class="st10">
		<path class="st11" d="M794.4,2067.7c0,0,4-55.6,35.3-86c13.2-12.6,22-29.2,25-47.3c1.3-8.6,1.9-17.3,1.7-25.9"/>
		<path class="st11" d="M875.9,1889.3c-2.3,6.1-20.1,19.8-20.1,19.8s-4.5-22-2.2-28.1c2.3-6.1,9.1-9.3,15.3-7
			C875.1,1876.3,878.2,1883.1,875.9,1889.3z"/>
		<path class="st11" d="M881.6,1930.2c-5.3,3.9-27.6,5.7-27.6,5.7s8.2-20.9,13.5-24.8c5.4-3.8,12.8-2.5,16.5,2.9
			C887.6,1919.2,886.6,1926.3,881.6,1930.2L881.6,1930.2z"/>
		<path class="st11" d="M859.1,1988c-6.5,0.7-26.7-9-26.7-9s17.6-13.9,24.1-14.6c6.5-0.4,12.1,4.7,12.5,11.2
			C869.3,1981.7,865.1,1987,859.1,1988z"/>
		<path class="st11" d="M832.2,2028c-6.3,1.8-27.9-4.4-27.9-4.4s15-16.7,21.3-18.5c6.3-2,12.9,1.5,14.9,7.7c2,6.3-1.5,12.9-7.7,14.9
			C832.6,2027.8,832.4,2027.9,832.2,2028L832.2,2028z"/>
		<path class="st11" d="M830.2,1928.4c2.8,5.9,21.7,18,21.7,18s2.6-22.3-0.2-28.2c-3-5.8-10.1-8.2-16-5.2
			C830.1,1915.9,827.7,1922.6,830.2,1928.4z"/>
		<path class="st11" d="M799.3,1975.5c4.5,4.8,26.1,10.7,26.1,10.7s-4.2-22-8.6-26.9c-4.5-4.8-12-5.1-16.8-0.6
			C795.2,1963.2,794.9,1970.6,799.3,1975.5z"/>
		<path class="st11" d="M775.6,2025.3c3.6,5.5,23.9,15,23.9,15s-0.4-22.4-4-27.9c-3.7-5.4-11.1-6.7-16.5-3
			C773.8,2013,772.3,2020,775.6,2025.3L775.6,2025.3z"/>
		<path class="st11" d="M875.9,1889.3c-2.3,6.1-20.1,19.8-20.1,19.8s-4.5-22-2.2-28.1c2.3-6.1,9.1-9.3,15.3-7
			C875.1,1876.3,878.2,1883.1,875.9,1889.3z"/>
		<path class="st11" d="M881.6,1930.2c-5.3,3.9-27.6,5.7-27.6,5.7s8.2-20.9,13.5-24.8c5.4-3.8,12.8-2.5,16.5,2.9
			C887.6,1919.2,886.6,1926.3,881.6,1930.2L881.6,1930.2z"/>
		<path class="st11" d="M859.1,1988c-6.5,0.7-26.7-9-26.7-9s17.6-13.9,24.1-14.6c6.5-0.4,12.1,4.7,12.5,11.2
			C869.3,1981.7,865.1,1987,859.1,1988z"/>
		<path class="st11" d="M832.2,2028c-6.3,1.8-27.9-4.4-27.9-4.4s15-16.7,21.3-18.5c6.3-2,12.9,1.5,14.9,7.7c2,6.3-1.5,12.9-7.7,14.9
			C832.6,2027.8,832.4,2027.9,832.2,2028L832.2,2028z"/>
		<path class="st11" d="M830.2,1928.4c2.8,5.9,21.7,18,21.7,18s2.6-22.3-0.2-28.2c-3-5.8-10.1-8.2-16-5.2
			C830.1,1915.9,827.7,1922.6,830.2,1928.4z"/>
		<path class="st11" d="M799.3,1975.5c4.5,4.8,26.1,10.7,26.1,10.7s-4.2-22-8.6-26.9c-4.5-4.8-12-5.1-16.8-0.6
			C795.2,1963.2,794.9,1970.6,799.3,1975.5z"/>
		<path class="st11" d="M775.6,2025.3c3.6,5.5,23.9,15,23.9,15s-0.4-22.4-4-27.9c-3.7-5.4-11.1-6.7-16.5-3
			C773.8,2013,772.3,2020,775.6,2025.3L775.6,2025.3z"/>
	</g>
	<g class="st10">
		<path class="st11" d="M805.4,1857.1c0,0,4-55.6,35.3-86c13.2-12.6,22-29.2,25-47.3c1.4-8.6,1.9-17.3,1.7-25.9"/>
		<path class="st11" d="M886.9,1678.6c-2.2,6.1-20.1,19.8-20.1,19.8s-4.5-22-2.2-28.1c2.3-6.1,9.1-9.3,15.3-7
			C886.1,1665.7,889.2,1672.5,886.9,1678.6z"/>
		<path class="st11" d="M892.7,1719.5c-5.3,3.9-27.6,5.7-27.6,5.7s8.2-20.9,13.5-24.8c5.2-4.1,12.6-3.2,16.7,2s3.2,12.6-2,16.7
			C893,1719.3,892.8,1719.4,892.7,1719.5z"/>
		<path class="st11" d="M870.1,1777.4c-6.5,0.7-26.7-9-26.7-9s17.6-13.9,24.1-14.6c6.5-0.8,12.5,3.8,13.3,10.3
			c0.8,6.5-3.8,12.5-10.3,13.3C870.4,1777.4,870.2,1777.4,870.1,1777.4L870.1,1777.4z"/>
		<path class="st11" d="M843.2,1817.3c-6.3,1.8-27.9-4.4-27.9-4.4s15-16.7,21.3-18.5c6.3-1.7,12.9,2,14.6,8.3
			C852.9,1809,849.3,1815.5,843.2,1817.3L843.2,1817.3z"/>
		<path class="st11" d="M841.2,1717.7c2.8,5.9,21.7,18,21.7,18s2.6-22.3-0.2-28.2c-2.7-6-9.7-8.7-15.7-6c-6,2.7-8.7,9.7-6,15.7
			C841.1,1717.4,841.1,1717.6,841.2,1717.7L841.2,1717.7z"/>
		<path class="st11" d="M810.3,1764.8c4.5,4.8,26.1,10.7,26.1,10.7s-4.2-22-8.6-26.8c-4.6-4.7-12.1-4.8-16.8-0.2
			C806.4,1752.9,806.1,1760.1,810.3,1764.8z"/>
		<path class="st11" d="M786.6,1814.7c3.6,5.5,23.9,15,23.9,15s-0.4-22.4-4-27.9c-3.4-5.6-10.7-7.4-16.3-3.9
			c-5.6,3.4-7.4,10.7-3.9,16.3C786.3,1814.3,786.5,1814.5,786.6,1814.7L786.6,1814.7z"/>
		<path class="st11" d="M886.9,1678.6c-2.2,6.1-20.1,19.8-20.1,19.8s-4.5-22-2.2-28.1c2.3-6.1,9.1-9.3,15.3-7
			C886.1,1665.7,889.2,1672.5,886.9,1678.6z"/>
		<path class="st11" d="M892.7,1719.5c-5.3,3.9-27.6,5.7-27.6,5.7s8.2-20.9,13.5-24.8c5.2-4.1,12.6-3.2,16.7,2s3.2,12.6-2,16.7
			C893,1719.3,892.8,1719.4,892.7,1719.5z"/>
		<path class="st11" d="M870.1,1777.4c-6.5,0.7-26.7-9-26.7-9s17.6-13.9,24.1-14.6c6.5-0.8,12.5,3.8,13.3,10.3
			c0.8,6.5-3.8,12.5-10.3,13.3C870.4,1777.4,870.2,1777.4,870.1,1777.4L870.1,1777.4z"/>
		<path class="st11" d="M843.2,1817.3c-6.3,1.8-27.9-4.4-27.9-4.4s15-16.7,21.3-18.5c6.3-1.7,12.9,2,14.6,8.3
			C852.9,1809,849.3,1815.5,843.2,1817.3L843.2,1817.3z"/>
		<path class="st11" d="M841.2,1717.7c2.8,5.9,21.7,18,21.7,18s2.6-22.3-0.2-28.2c-2.7-6-9.7-8.7-15.7-6c-6,2.7-8.7,9.7-6,15.7
			C841.1,1717.4,841.1,1717.6,841.2,1717.7L841.2,1717.7z"/>
		<path class="st11" d="M810.3,1764.8c4.5,4.8,26.1,10.7,26.1,10.7s-4.2-22-8.6-26.8c-4.6-4.7-12.1-4.8-16.8-0.2
			C806.4,1752.9,806.1,1760.1,810.3,1764.8z"/>
		<path class="st11" d="M786.6,1814.7c3.6,5.5,23.9,15,23.9,15s-0.4-22.4-4-27.9c-3.4-5.6-10.7-7.4-16.3-3.9
			c-5.6,3.4-7.4,10.7-3.9,16.3C786.3,1814.3,786.5,1814.5,786.6,1814.7L786.6,1814.7z"/>
	</g>
	<g class="st10">
		<path class="st11" d="M210.3,1930c0,0-47.9-28.6-61-70.2c-5.3-17.5-16.2-32.8-31-43.6c-7.1-5.1-14.6-9.5-22.4-13.2"/>
		<path class="st11" d="M87.6,1776.9c4.5,4.8,8.7,26.8,8.7,26.8s-21.6-5.9-26.1-10.7c-4.3-4.9-3.8-12.4,1.1-16.8
			C76,1772.1,83.2,1772.4,87.6,1776.9L87.6,1776.9z"/>
		<path class="st11" d="M126.7,1790.3c1.1,6.5-7.3,27.2-7.3,27.2s-15-16.7-16.1-23.2c-1.3-6.4,2.9-12.7,9.3-14
			c6.4-1.3,12.7,2.9,14,9.3C126.6,1789.9,126.6,1790.1,126.7,1790.3z"/>
		<path class="st11" d="M168.2,1836.4c-2.2,6.1-20.1,19.8-20.1,19.8s-4.5-22-2.2-28.1c2.1-6.2,8.9-9.5,15.1-7.4
			c6.2,2.1,9.5,8.9,7.4,15.1C168.4,1836,168.3,1836.2,168.2,1836.4L168.2,1836.4z"/>
		<path class="st11" d="M191.8,1878.4c-1.2,6.4-16.4,23-16.4,23s-8.1-20.9-6.9-27.3c1.2-6.4,7.4-10.7,13.9-9.5
			C188.8,1865.8,193,1872,191.8,1878.4L191.8,1878.4L191.8,1878.4z"/>
		<path class="st11" d="M101.9,1835.4c6.6,0.2,25.9-11.2,25.9-11.2s-18.7-12.3-25.3-12.5c-6.6,0-11.9,5.3-11.9,11.8
			C90.5,1829.8,95.5,1835.1,101.9,1835.4L101.9,1835.4z"/>
		<path class="st11" d="M130.1,1884.1c6.3-1.8,21.3-18.5,21.3-18.5s-21.6-6.2-27.9-4.3c-6.3,2-9.7,8.6-7.8,14.9
			C117.7,1882.2,124,1885.7,130.1,1884.1L130.1,1884.1z"/>
		<path class="st11" d="M164,1927.7c6.5-0.7,24.1-14.6,24.1-14.6s-20.2-9.7-26.7-9c-6.5,0.4-11.6,6-11.2,12.5
			c0.4,6.5,6,11.6,12.5,11.2C163.1,1927.9,163.6,1927.8,164,1927.7z"/>
		<path class="st11" d="M87.6,1776.9c4.5,4.8,8.7,26.8,8.7,26.8s-21.6-5.9-26.1-10.7c-4.3-4.9-3.8-12.4,1.1-16.8
			C76,1772.1,83.2,1772.4,87.6,1776.9L87.6,1776.9z"/>
		<path class="st11" d="M126.7,1790.3c1.1,6.5-7.3,27.2-7.3,27.2s-15-16.7-16.1-23.2c-1.3-6.4,2.9-12.7,9.3-14
			c6.4-1.3,12.7,2.9,14,9.3C126.6,1789.9,126.6,1790.1,126.7,1790.3z"/>
		<path class="st11" d="M168.2,1836.4c-2.2,6.1-20.1,19.8-20.1,19.8s-4.5-22-2.2-28.1c2.1-6.2,8.9-9.5,15.1-7.4
			c6.2,2.1,9.5,8.9,7.4,15.1C168.4,1836,168.3,1836.2,168.2,1836.4L168.2,1836.4z"/>
		<path class="st11" d="M191.8,1878.4c-1.2,6.4-16.4,23-16.4,23s-8.1-20.9-6.9-27.3c1.2-6.4,7.4-10.7,13.9-9.5
			C188.8,1865.8,193,1872,191.8,1878.4L191.8,1878.4L191.8,1878.4z"/>
		<path class="st11" d="M101.9,1835.4c6.6,0.2,25.9-11.2,25.9-11.2s-18.7-12.3-25.3-12.5c-6.6,0-11.9,5.3-11.9,11.8
			C90.5,1829.8,95.5,1835.1,101.9,1835.4L101.9,1835.4z"/>
		<path class="st11" d="M130.1,1884.1c6.3-1.8,21.3-18.5,21.3-18.5s-21.6-6.2-27.9-4.3c-6.3,2-9.7,8.6-7.8,14.9
			C117.7,1882.2,124,1885.7,130.1,1884.1L130.1,1884.1z"/>
		<path class="st11" d="M164,1927.7c6.5-0.7,24.1-14.6,24.1-14.6s-20.2-9.7-26.7-9c-6.5,0.4-11.6,6-11.2,12.5
			c0.4,6.5,6,11.6,12.5,11.2C163.1,1927.9,163.6,1927.8,164,1927.7z"/>
	</g>
	<path class="st0" d="M188.1,2222.9c55,15.8,122,6.2,184.4,7.3c8.5,0.2,17.6,0.6,24.4,3.4s10.2,7.2,14.9,11
		c17.5,14.1,53.3,18.7,84.6,16.3c31.3-2.4,60-10.3,89.6-16.4c51.1-10.4,109.4-15.2,159.8-3.8c4.6,1,9.5,2.2,14.4,1.8
		c11-0.9,14.3-8.5,22.1-12.8c13.9-7.9,44.2-5.7,50.3-16c3.6-6-4.7-12.2-13.7-16.3c-34.4-15.8-83.7-18.4-128.7-15.9
		c-45.1,2.4-89.3,9.1-134.6,9.2c-56.4,0-110.9-10.3-166.8-14.5c-38.7-2.9-80.9-2.6-117.2,6.1
		C232.3,2191.4,223.7,2212.3,188.1,2222.9z"/>
	<circle class="st12" cx="510.7" cy="2172.3" r="22"/>
	<g>
		<path class="st13" d="M78,1672.3v514h812.7v-514H78z M707.3,2173.1h-23.2v-6.9h23.2V2173.1z M740.3,2173.1h-23.2v-6.9h23.2V2173.1
			z M773.3,2173.1h-23.2v-6.9h23.2V2173.1z M806.3,2173.1h-23.2v-6.9h23.2V2173.1z M837.1,2178.7c-6.9,0-12.5-5.6-12.5-12.5
			c0-6.9,5.6-12.5,12.5-12.5c6.9,0,12.5,5.6,12.5,12.5C849.6,2173.1,844,2178.7,837.1,2178.7z"/>
		<g>
			<g>
				<polygon class="st13" points="584.8,2243 398.3,2243 417.5,2165.7 565.5,2165.7 				"/>
			</g>
		</g>
		<g>
			<g>
				<path class="st14" d="M684.1,2272.4H314.8v-4.5c0-17.7,14.3-32,32.1-32H652c17.7,0,32.1,14.3,32.1,32V2272.4z"/>
			</g>
		</g>
		<g>
			<g>
				<rect x="97.3" y="1687.6" class="st12" width="774.2" height="451.9"/>
			</g>
		</g>
		<g>
			<g>
				<g>
					<rect x="97.3" y="1687.6" class="st0" width="3.2" height="451.9"/>
				</g>
			</g>
		</g>
		<g>
			<g>
				<polygon class="st13" points="899.3,2190.3 890.7,2190.3 890.7,1668.3 899.3,1676.1 				"/>
			</g>
		</g>
		<g>
			<g>
				<g>
					<rect x="100.5" y="1687.6" class="st0" width="771" height="8.6"/>
				</g>
			</g>
		</g>
		<g>
			<g>
				<polygon class="st13" points="890.7,2181.7 890.7,2190.3 85.6,2190.3 78,2181.7 				"/>
			</g>
		</g>
	</g>
	<g>
		<g>
			<rect x="95" y="1687.1" class="st15" width="776.5" height="23.8"/>
		</g>
	</g>
	<ellipse class="st12" cx="112.2" cy="1699.1" rx="5.2" ry="5.1"/>
	<ellipse class="st12" cx="125.4" cy="1699.1" rx="5.2" ry="5.1"/>
	<ellipse class="st12" cx="138.6" cy="1699.1" rx="5.2" ry="5.1"/>
	<rect x="148.8" y="1847.3" class="st16" width="281.4" height="0.7"/>
	<rect x="148.8" y="1864.2" class="st16" width="281.4" height="0.7"/>
	<rect x="148.8" y="1881.1" class="st16" width="281.4" height="0.7"/>
	<rect x="148.8" y="1898" class="st16" width="281.4" height="0.7"/>
	<rect x="148.8" y="1914.9" class="st16" width="281.4" height="0.7"/>
	<g class="st17">
		<polygon class="st11" points="430.2,1915.6 148.4,1915.6 148.4,1882.4 174.3,1892.2 201,1895.1 224.5,1889.6 252.8,1872.6 
			267,1866.2 277.4,1864.7 287.4,1865.1 303.8,1871.4 326,1882.3 343.5,1884.1 357.4,1880.4 386.7,1861.8 401.7,1857.6 
			417.4,1859.5 430.2,1865.2 		"/>
	</g>
	<path class="st11" d="M197.5,1895c-25.4,0-48.8-12-49.1-12.2l0.7-0.8c0.4,0.2,36.5,18.7,67.1,9.4c11.2-3.4,19.1-8.6,26.8-13.7
		c8-5.3,15.6-10.3,26-12.5c11.9-2.5,24.8-0.2,34.7,6c8.4,5.4,25.2,14,42.9,11.4c9-1.3,16.7-6.4,24.7-11.8
		c15.5-10.4,31.5-21.1,59.1-5.7l-0.7,0.8c-26.9-14.9-42.5-4.5-57.6,5.7c-8.2,5.5-15.9,10.7-25.3,12c-18.2,2.6-35.4-6.1-44-11.6
		c-9.5-6.1-22.1-8.2-33.6-5.8c-10.1,2.1-17.5,7-25.5,12.3c-7.8,5.1-15.8,10.4-27.2,13.9C210.6,1894.2,204.1,1895.1,197.5,1895z"/>
	<ellipse class="st11" cx="284.2" cy="1864.6" rx="7" ry="5.4"/>
	<g class="st17">
		<path class="st11" d="M375.2,1793.3h-88c-0.8,0-1.4,0.5-1.4,1.1c0,0,0,0,0,0v46c0,0.6,0.6,1.1,1.4,1.1c0.4,0,0.8-0.1,1-0.3
			l15.2-12.6c0.3-0.2,0.6-0.3,1-0.3h70.7c0.8,0,1.4-0.5,1.4-1.1l0,0v-32.8C376.6,1793.7,375.9,1793.3,375.2,1793.3z"/>
	</g>
	<rect x="306.1" y="1801.8" class="st12" width="50.1" height="4.8"/>
	<rect x="306.1" y="1812.5" class="st12" width="13.8" height="4.8"/>
	<g class="st10">
		<rect x="162.9" y="2009.1" class="st13" width="23.5" height="8.3"/>
	</g>
	<g class="st10">
		<rect x="162.9" y="2025.1" class="st13" width="23.5" height="8.3"/>
	</g>
	<g class="st10">
		<rect x="162.9" y="2041.1" class="st13" width="23.5" height="8.3"/>
	</g>
	<g class="st10">
		<rect x="162.9" y="2057.1" class="st13" width="23.5" height="8.3"/>
	</g>
	<g class="st10">
		<rect x="162.9" y="2073.1" class="st13" width="23.5" height="8.3"/>
	</g>
	<g class="st10">
		<rect x="162.9" y="2089.1" class="st13" width="23.5" height="8.3"/>
	</g>
	<g class="st10">
		<rect x="162.9" y="2105.1" class="st13" width="23.5" height="8.3"/>
	</g>
	<g class="st10">
		<rect x="162.9" y="2121.1" class="st13" width="23.5" height="8.3"/>
	</g>
	<g class="st10">
		<rect x="208.7" y="2126.6" class="st13" width="22.7" height="8"/>
	</g>
	<g class="st10">
		<rect x="248.7" y="2126.6" class="st13" width="22.7" height="8"/>
	</g>
	<g class="st10">
		<rect x="288.2" y="2126.4" class="st13" width="23.5" height="8.3"/>
	</g>
	<g class="st10">
		<rect x="329.6" y="2126.4" class="st13" width="23.5" height="8.3"/>
	</g>
	<g class="st10">
		<rect x="370.9" y="2126.4" class="st13" width="23.5" height="8.3"/>
	</g>
	<g class="st10">
		<rect x="414.9" y="2126.4" class="st13" width="23.5" height="8.3"/>
	</g>
	<g class="st10">
		<rect x="456.2" y="2126.4" class="st13" width="23.5" height="8.3"/>
	</g>
	<g class="st10">
		<rect x="497.6" y="2126.4" class="st13" width="23.5" height="8.3"/>
	</g>
	<g class="st10">
		<rect x="539" y="2126.4" class="st13" width="23.5" height="8.3"/>
	</g>
	<rect x="335.3" y="1812.5" class="st12" width="20.9" height="4.8"/>
	<rect x="208.7" y="2065.4" class="st13" width="22.7" height="50.1"/>
	<rect x="248.7" y="2042.2" class="st13" width="22.7" height="73.2"/>
	<rect x="288.6" y="2022.8" class="st13" width="22.7" height="92.7"/>
	<rect x="328.5" y="2032.9" class="st13" width="22.7" height="82.6"/>
	<rect x="368.5" y="2015.4" class="st13" width="22.7" height="100.1"/>
	<g class="st18">
		<rect x="414.9" y="2055.1" class="st13" width="23.5" height="64"/>
	</g>
	<g class="st18">
		<rect x="456.2" y="2055.1" class="st13" width="23.5" height="64"/>
	</g>
	<g class="st18">
		<rect x="497.6" y="2055.1" class="st13" width="23.5" height="64"/>
	</g>
	<g class="st18">
		<rect x="538" y="2055.1" class="st13" width="23.5" height="64"/>
	</g>
	<g>
		<path class="st11" d="M624.5,1771.7l201.5-6c2.1-0.1,3.8,1.6,3.8,3.7v3.2c0,2-1.6,3.6-3.6,3.7l-201.5,2.8c-2,0-3.7-1.6-3.7-3.7
			l0,0C621,1773.4,622.6,1771.7,624.5,1771.7z"/>
		<path class="st11" d="M621,1792.2v1.4c0,2,1.6,3.7,3.7,3.7h201.5c2,0,3.7-1.6,3.7-3.7v-1.4c0-2-1.6-3.7-3.7-3.7H624.6
			C622.6,1788.6,621,1790.2,621,1792.2z"/>
		<path class="st11" d="M682.1,1810.3v0.6c0,2,1.6,3.7,3.7,3.7h140.3c2,0,3.7-1.6,3.7-3.7v-2.9c0-2-1.7-3.7-3.7-3.7l-140.3,2.2
			C683.7,1806.7,682.1,1808.3,682.1,1810.3z"/>
		<path class="st11" d="M776.4,1920.9c-0.4,0-0.7-0.1-1-0.4l-60.5-49.1l-59.6,43.7c-0.7,0.5-1.6,0.4-2.2-0.3l-82.9-99.5
			c-9.4,8.3-70.5,61.9-78.7,69c-0.7,0.6-1.7,0.5-2.2-0.1c-0.6-0.7-0.5-1.7,0.1-2.2c8.8-7.7,79.9-70,79.9-70c0.3-0.3,0.7-0.4,1.2-0.4
			c0.4,0,0.8,0.2,1.1,0.6l83,99.6l59.4-43.5c0.6-0.4,1.4-0.4,1.9,0l60.4,49.1l32.3-28.3c0.7-0.6,1.7-0.5,2.2,0.2
			c0.6,0.7,0.5,1.7-0.2,2.2l-33.3,29.1C777.1,1920.8,776.8,1920.9,776.4,1920.9z"/>
		<g>
			<path class="st11" d="M571.6,1974.4c-0.6,0-1.1-0.5-1.1-1.1v-3.2c0-0.6,0.5-1.1,1.1-1.1c0.6,0,1.1,0.5,1.1,1.1v3.2
				C572.7,1973.9,572.2,1974.4,571.6,1974.4z M571.6,1963.9c-0.6,0-1.1-0.5-1.1-1.1v-3.2c0-0.6,0.5-1.1,1.1-1.1
				c0.6,0,1.1,0.5,1.1,1.1v3.2C572.7,1963.4,572.2,1963.9,571.6,1963.9z M571.6,1953.3c-0.6,0-1.1-0.5-1.1-1.1v-3.2
				c0-0.6,0.5-1.1,1.1-1.1c0.6,0,1.1,0.5,1.1,1.1v3.2C572.7,1952.8,572.2,1953.3,571.6,1953.3z M571.6,1942.7
				c-0.6,0-1.1-0.5-1.1-1.1v-3.2c0-0.6,0.5-1.1,1.1-1.1c0.6,0,1.1,0.5,1.1,1.1v3.2C572.7,1942.3,572.2,1942.7,571.6,1942.7z
				 M571.6,1932.2c-0.6,0-1.1-0.5-1.1-1.1v-3.2c0-0.6,0.5-1.1,1.1-1.1c0.6,0,1.1,0.5,1.1,1.1v3.2
				C572.7,1931.7,572.2,1932.2,571.6,1932.2z M571.6,1921.6c-0.6,0-1.1-0.5-1.1-1.1v-3.2c0-0.6,0.5-1.1,1.1-1.1
				c0.6,0,1.1,0.5,1.1,1.1v3.2C572.7,1921.1,572.2,1921.6,571.6,1921.6z M571.6,1911.1c-0.6,0-1.1-0.5-1.1-1.1v-3.2
				c0-0.6,0.5-1.1,1.1-1.1c0.6,0,1.1,0.5,1.1,1.1v3.2C572.7,1910.6,572.2,1911.1,571.6,1911.1z M571.6,1900.5
				c-0.6,0-1.1-0.5-1.1-1.1v-3.2c0-0.6,0.5-1.1,1.1-1.1c0.6,0,1.1,0.5,1.1,1.1v3.2C572.7,1900,572.2,1900.5,571.6,1900.5z
				 M571.6,1889.9c-0.6,0-1.1-0.5-1.1-1.1v-3.2c0-0.6,0.5-1.1,1.1-1.1c0.6,0,1.1,0.5,1.1,1.1v3.2
				C572.7,1889.5,572.2,1889.9,571.6,1889.9z M571.6,1879.4c-0.6,0-1.1-0.5-1.1-1.1v-3.2c0-0.6,0.5-1.1,1.1-1.1
				c0.6,0,1.1,0.5,1.1,1.1v3.2C572.7,1878.9,572.2,1879.4,571.6,1879.4z M571.6,1868.8c-0.6,0-1.1-0.5-1.1-1.1v-3.2
				c0-0.6,0.5-1.1,1.1-1.1c0.6,0,1.1,0.5,1.1,1.1v3.2C572.7,1868.3,572.2,1868.8,571.6,1868.8z M571.6,1858.2
				c-0.6,0-1.1-0.5-1.1-1.1v-3.2c0-0.6,0.5-1.1,1.1-1.1c0.6,0,1.1,0.5,1.1,1.1v3.2C572.7,1857.8,572.2,1858.2,571.6,1858.2z
				 M571.6,1847.7c-0.6,0-1.1-0.5-1.1-1.1v-3.2c0-0.6,0.5-1.1,1.1-1.1c0.6,0,1.1,0.5,1.1,1.1v3.2
				C572.7,1847.2,572.2,1847.7,571.6,1847.7z M571.6,1837.1c-0.6,0-1.1-0.5-1.1-1.1v-3.2c0-0.6,0.5-1.1,1.1-1.1
				c0.6,0,1.1,0.5,1.1,1.1v3.2C572.7,1836.6,572.2,1837.1,571.6,1837.1z"/>
		</g>
		<g>
			<path class="st11" d="M654.3,1976.4c-0.6,0-1.1-0.5-1.1-1.1v-3.2c0-0.6,0.5-1.1,1.1-1.1c0.6,0,1.1,0.5,1.1,1.1v3.2
				C655.4,1975.9,654.9,1976.4,654.3,1976.4z M654.3,1965.8c-0.6,0-1.1-0.5-1.1-1.1v-3.2c0-0.6,0.5-1.1,1.1-1.1
				c0.6,0,1.1,0.5,1.1,1.1v3.2C655.4,1965.3,654.9,1965.8,654.3,1965.8z M654.3,1955.2c-0.6,0-1.1-0.5-1.1-1.1v-3.2
				c0-0.6,0.5-1.1,1.1-1.1c0.6,0,1.1,0.5,1.1,1.1v3.2C655.4,1954.8,654.9,1955.2,654.3,1955.2z M654.3,1944.7
				c-0.6,0-1.1-0.5-1.1-1.1v-3.2c0-0.6,0.5-1.1,1.1-1.1c0.6,0,1.1,0.5,1.1,1.1v3.2C655.4,1944.2,654.9,1944.7,654.3,1944.7z
				 M654.3,1934.1c-0.6,0-1.1-0.5-1.1-1.1v-3.2c0-0.6,0.5-1.1,1.1-1.1c0.6,0,1.1,0.5,1.1,1.1v3.2
				C655.4,1933.6,654.9,1934.1,654.3,1934.1z M654.3,1923.6c-0.6,0-1.1-0.5-1.1-1.1v-3.2c0-0.6,0.5-1.1,1.1-1.1
				c0.6,0,1.1,0.5,1.1,1.1v3.2C655.4,1923.1,654.9,1923.6,654.3,1923.6z"/>
		</g>
		<g>
			<path class="st11" d="M717.2,1978.4c-0.6,0-1-0.5-1.1-1l-0.1-3.2c0-0.6,0.4-1.1,1-1.1c0.6,0,1.1,0.4,1.1,1l0.1,3.2
				C718.3,1977.9,717.8,1978.4,717.2,1978.4C717.2,1978.4,717.2,1978.4,717.2,1978.4z M716.9,1967.8c-0.6,0-1-0.5-1.1-1l-0.1-3.2
				c0-0.6,0.4-1.1,1-1.1c0.6,0,1.1,0.4,1.1,1l0.1,3.2C718,1967.3,717.5,1967.8,716.9,1967.8C716.9,1967.8,716.9,1967.8,716.9,1967.8
				z M716.6,1957.3c-0.6,0-1-0.5-1.1-1l-0.1-3.2c0-0.6,0.4-1.1,1-1.1c0.6,0,1.1,0.4,1.1,1l0.1,3.2
				C717.6,1956.8,717.2,1957.3,716.6,1957.3C716.6,1957.3,716.6,1957.3,716.6,1957.3z M716.2,1946.7c-0.6,0-1-0.5-1.1-1l-0.1-3.2
				c0-0.6,0.4-1.1,1-1.1c0.6,0,1.1,0.4,1.1,1l0.1,3.2C717.3,1946.2,716.8,1946.7,716.2,1946.7
				C716.3,1946.7,716.2,1946.7,716.2,1946.7z M715.9,1936.2c-0.6,0-1-0.5-1.1-1l-0.1-3.2c0-0.6,0.4-1.1,1-1.1c0.6,0,1.1,0.4,1.1,1
				l0.1,3.2C717,1935.7,716.5,1936.1,715.9,1936.2C715.9,1936.2,715.9,1936.2,715.9,1936.2z M715.6,1925.6c-0.6,0-1-0.5-1.1-1
				l-0.1-3.2c0-0.6,0.4-1.1,1-1.1c0.6,0,1.1,0.4,1.1,1l0.1,3.2C716.6,1925.1,716.2,1925.6,715.6,1925.6
				C715.6,1925.6,715.6,1925.6,715.6,1925.6z M715.2,1915.1c-0.6,0-1-0.5-1.1-1l-0.1-3.2c0-0.6,0.4-1.1,1-1.1c0.6,0,1.1,0.4,1.1,1
				l0.1,3.2C716.3,1914.5,715.9,1915,715.2,1915.1C715.3,1915.1,715.3,1915.1,715.2,1915.1z M714.9,1904.5c-0.6,0-1-0.5-1.1-1
				l-0.1-3.2c0-0.6,0.4-1.1,1-1.1c0.6,0,1.1,0.4,1.1,1l0.1,3.2C716,1904,715.5,1904.5,714.9,1904.5
				C714.9,1904.5,714.9,1904.5,714.9,1904.5z M714.6,1893.9c-0.6,0-1-0.5-1.1-1l-0.1-3.2c0-0.6,0.4-1.1,1-1.1c0.6,0,1.1,0.4,1.1,1
				l0.1,3.2C715.7,1893.4,715.2,1893.9,714.6,1893.9C714.6,1893.9,714.6,1893.9,714.6,1893.9z M714.3,1883.4c-0.6,0-1-0.5-1.1-1
				l-0.1-3.2c0-0.6,0.4-1.1,1-1.1c0.6,0,1.1,0.4,1.1,1l0.1,3.2C715.3,1882.9,714.9,1883.4,714.3,1883.4
				C714.3,1883.4,714.3,1883.4,714.3,1883.4z"/>
		</g>
		<g>
			<path class="st11" d="M777.2,1969.7c-0.6,0-1.1-0.5-1.1-1.1v-3.2c0-0.6,0.5-1.1,1.1-1.1c0.6,0,1.1,0.5,1.1,1.1v3.2
				C778.2,1969.2,777.8,1969.7,777.2,1969.7z M777.2,1959.2c-0.6,0-1.1-0.5-1.1-1.1v-3.2c0-0.6,0.5-1.1,1.1-1.1
				c0.6,0,1.1,0.5,1.1,1.1v3.2C778.2,1958.7,777.8,1959.2,777.2,1959.2z M777.2,1948.6c-0.6,0-1.1-0.5-1.1-1.1v-3.2
				c0-0.6,0.5-1.1,1.1-1.1c0.6,0,1.1,0.5,1.1,1.1v3.2C778.2,1948.1,777.8,1948.6,777.2,1948.6z M777.2,1938c-0.6,0-1.1-0.5-1.1-1.1
				v-3.2c0-0.6,0.5-1.1,1.1-1.1c0.6,0,1.1,0.5,1.1,1.1v3.2C778.2,1937.6,777.8,1938,777.2,1938z M777.2,1927.5
				c-0.6,0-1.1-0.5-1.1-1.1v-3.2c0-0.6,0.5-1.1,1.1-1.1c0.6,0,1.1,0.5,1.1,1.1v3.2C778.2,1927,777.8,1927.5,777.2,1927.5z"/>
		</g>
		<g>
			<path class="st13" d="M473.6,1982.2c-0.8-0.1-1.5-0.7-1.5-1.6l-1.4-201.8c0-0.9,0.7-1.6,1.6-1.6c0.9,0,1.6,0.7,1.6,1.6l1.4,201.8
				c0,0.9-0.7,1.6-1.6,1.6C473.7,1982.3,473.6,1982.3,473.6,1982.2z"/>
			<g>
				<polygon class="st13" points="467,1785.3 472.4,1779.8 477.8,1785.2 477.7,1780.6 472.3,1775.3 467,1780.7 				"/>
			</g>
		</g>
		<g>
			<path class="st13" d="M819.4,1982.3H470.6c-0.9,0-1.6-0.7-1.6-1.6s0.7-1.6,1.6-1.6h348.8c0.9,0,1.6,0.7,1.6,1.6
				S820.3,1982.3,819.4,1982.3z"/>
			<g>
				<polygon class="st13" points="813.1,1986.1 818.5,1980.7 813.1,1975.3 817.7,1975.3 823,1980.7 817.7,1986.1 				"/>
			</g>
		</g>
	</g>
	<g>
		<path class="st7" d="M621.3,1771.5h-60.5c-0.5,0-1,0.4-1,1c0,0,0,0,0,0v40.9c0,0.5,0.4,1,1,1c0.3,0,0.5-0.1,0.7-0.3l10.5-11.2
			c0.2-0.2,0.4-0.3,0.7-0.3h48.6c0.5,0,1-0.4,1-1l0,0v-29.1C622.3,1771.9,621.9,1771.5,621.3,1771.5z"/>
	</g>
</g>
<g id="freepik--Window--inject-20">
	<path class="st19" d="M878.2,60.9V545c0,14.4-11.6,26.1-26,26.1c0,0,0,0,0,0H206.5c-14.4,0.1-26.1-11.6-26.1-25.9c0,0,0-0.1,0-0.1
		V60.9c0-14.4,11.6-26.1,26-26.1c0,0,0,0,0,0H852c14.4-0.1,26.1,11.6,26.1,26C878.2,60.8,878.2,60.8,878.2,60.9z"/>
	<path class="st20" d="M878.2,75.8v469.1c0,14.4-11.6,26.1-26,26.1c0,0-0.1,0-0.1,0H206.5c-2.5,0-4.9-0.3-7.2-1L878.2,75.8z"/>
	<path class="st21" d="M878.2,75.8v469.1c0,14.4-11.6,26.1-26,26.1c0,0-0.1,0-0.1,0H206.5c-2.5,0-4.9-0.3-7.2-1L878.2,75.8z"/>
	<path class="st7" d="M699.2,337.9l35.3-15.9l-7.5-42.1l-38.9-3.1c-4.9-13-11.4-25.3-19.5-36.6l12.2-20.6l7.8-13.2l-30.2-30
		l-33.8,20.3c-19.4-13.4-41.4-22.5-64.7-26.7l-9.7-38.7h-42.6l-9.9,39c-13.2,2.7-26,6.8-38.3,12.3l-30.6-26.4l-35,23.8l14.5,37.7
		c-9.2,9.6-17.2,20.3-23.8,31.9l-40.2-4.1l-14.5,40.2l33.1,22.6c-1.6,9.4-2.4,19-2.3,28.5c-0.3,3.9-0.3,7.9,0,11.8l-35.2,19.7
		l11.1,41.1h39.7c3.8,8.2,8.3,16.1,13.3,23.5c2.6,3.8,5.3,7.5,8.2,11.2l-17.1,35.4l32.8,27.5l31.7-23.7c12,7,24.9,12.4,38.3,16.1
		l6.3,38.3l42.6,3.8l12.8-36.1c13.9-1.4,27.6-4.4,40.9-8.9l27.1,27l37-21.4L640,465.5c10.8-9,20.3-19.4,28.5-30.8l37.5,6.7
		l18.1-38.7L694.6,379C697.8,365.5,699.3,351.7,699.2,337.9z M601.8,337.9c0,40-32.5,72.5-72.5,72.5c-40,0-72.5-32.5-72.5-72.5
		c0-40,32.5-72.5,72.5-72.5c19.1,0,37.5,7.6,51.1,21.1c1.3,1.3,2.6,2.6,3.7,4.1c11.3,13,17.6,29.7,17.7,46.9V337.9z"/>
	<path class="st22" d="M694.6,378.9l29.5,23.8L706,441.4l-37.5-6.7c-8.2,11.4-17.8,21.8-28.5,30.8l10.2,36.9l-37,21.4l-27.1-26.9
		c-13.2,4.6-27,7.6-40.9,9.1l-12.7,36l-42.6-3.8l-6.3-38.3c-13.4-3.8-26.2-9.2-38.3-16.1l-31.7,23.7l-32.8-27.5l17-35.4
		c-2.9-3.6-5.6-7.3-8.2-11.2l78.1-57.2c21.1,34.1,65.8,44.6,99.8,23.5c21.4-13.2,34.4-36.5,34.4-61.6v-0.5
		c-0.1-17.2-6.3-33.9-17.7-46.9l96.7-70.9l-12.2,20.6c8,11.3,14.5,23.6,19.4,36.6l38.7,3.1l7.7,42.1l-35.2,15.9
		C699.4,351.7,697.8,365.5,694.6,378.9z"/>
	<path class="st23" d="M845.8,226.1l1.8-0.8c2-0.9,3.2-3.1,2.8-5.2l-0.4-2.2c-0.4-2.2-2.2-3.8-4.4-4l-2.1-0.2
		c-1.7-0.1-3.2-1.1-4-2.6c-0.6-1.2-1.2-2.3-1.9-3.6c-0.9-1.5-0.9-3.3,0-4.8l1.1-1.9c1.1-1.9,0.8-4.3-0.8-5.9l-1.5-1.5
		c-1.5-1.6-4-1.9-5.9-0.7l-1.9,1.1c-1.5,0.9-3.3,0.9-4.8,0c-3-1.8-6.3-3.1-9.7-3.9c-1.7-0.4-3-1.8-3.4-3.5l-0.6-2.3
		c-0.5-2.2-2.5-3.8-4.8-3.7h-2.1c-2.3-0.1-4.3,1.5-4.8,3.7l-0.6,2.3c-0.4,1.7-1.7,3-3.4,3.5c-1.2,0.3-2.3,0.7-3.5,1.1
		c-1.6,0.6-3.5,0.3-4.8-0.9l-1.9-1.6c-1.7-1.4-4.1-1.6-5.9-0.3l-1.7,1.1c-1.9,1.3-2.6,3.7-1.8,5.8l0.9,2.3c0.6,1.6,0.3,3.4-0.7,4.8
		c-0.8,0.9-1.5,1.9-2.2,2.8c-1,1.5-2.7,2.3-4.4,2.1l-2.3-0.2c-2.2-0.2-4.3,1.1-5,3.2l-0.8,2.1c-0.8,2,0,4.3,1.7,5.6l2.2,1.6
		c1.4,1,2.2,2.7,2,4.4c-0.1,1.2-0.2,2.5-0.2,3.8l0,0c-0.1,1.7-0.9,3.2-2.3,4.1l-2.3,1.2c-2,1.1-2.9,3.4-2.3,5.5l0.6,2.1
		c0.6,2.2,2.5,3.6,4.8,3.6h2.3c1.7,0,3.3,0.9,4.2,2.3c0.7,1.1,1.3,2.3,2.1,3.3c1,1.4,1.1,3.2,0.4,4.8l-1,2c-1,2-0.5,4.4,1.3,5.8
		l1.6,1.4c1.7,1.5,4.2,1.5,6,0.2l1.7-1.2c1.4-1,3.2-1.2,4.8-0.5c1.2,0.6,2.4,1.1,3.7,1.6c1.6,0.6,2.8,2,3,3.7l0.3,2.1
		c0.4,2.2,2.2,3.9,4.4,4l2.2,0.2c2.2,0.2,4.3-1.1,5-3.2l0.7-1.9c0.6-1.6,2-2.8,3.7-3.1c1.4-0.2,2.7-0.5,4-0.9c1.7-0.5,3.5,0,4.6,1.3
		l1.4,1.4c1.5,1.6,4,1.9,5.9,0.8l1.9-1.1c2-1.1,2.9-3.4,2.3-5.5l-0.5-1.9c-0.5-1.7,0-3.5,1.2-4.8c1-1,1.9-2,2.8-3.1
		c1.1-1.4,2.9-2,4.6-1.6l1.9,0.3c2.2,0.5,4.4-0.7,5.3-2.7l0.9-2c1-2,0.4-4.4-1.3-5.8l-1.4-1.2c-1.3-1.1-2-2.8-1.8-4.5
		c0.2-1.4,0.4-2.9,0.4-4.3C843.2,228.3,844.2,226.8,845.8,226.1z M828.6,227.4c0,13.4-10.9,24.2-24.2,24.2
		c-13.4,0-24.2-10.9-24.2-24.2s10.9-24.2,24.2-24.2l0,0c13.3,0,24.1,10.8,24.2,24.1L828.6,227.4z"/>
	<path class="st20" d="M878.2,60.9v1.3H180.4v-1.3c0-14.4,11.6-26.1,26-26.1c0,0,0,0,0,0H852c14.4-0.1,26.1,11.6,26.1,26
		C878.2,60.8,878.2,60.8,878.2,60.9z"/>
	<path class="st24" d="M878.2,60.9V545c0,14.4-11.6,26.1-26,26.1c0,0,0,0,0,0H206.5c-14.4,0-26.1-11.6-26.1-26c0,0,0-0.1,0-0.1V60.9
		c0-14.4,11.6-26.1,26-26.1c0,0,0,0,0,0H852c14.4-0.1,26.1,11.6,26.1,26C878.2,60.8,878.2,60.8,878.2,60.9z"/>
	<line class="st24" x1="180.4" y1="60.9" x2="878.2" y2="60.9"/>
	<path class="st25" d="M238.5,48.5c0,2.9-2.4,5.3-5.3,5.3s-5.3-2.4-5.3-5.3s2.4-5.3,5.3-5.3l0,0C236.2,43.2,238.5,45.6,238.5,48.5z"
		/>
	<path class="st25" d="M263.6,48.5c0,2.9-2.4,5.3-5.3,5.2c-2.9,0-5.3-2.4-5.2-5.3c0-2.9,2.4-5.3,5.3-5.2c0,0,0,0,0,0
		C261.3,43.2,263.6,45.6,263.6,48.5z"/>
	<path class="st25" d="M288.6,48.5c0,2.9-2.4,5.3-5.3,5.3c-2.9,0-5.3-2.4-5.3-5.3s2.4-5.3,5.3-5.3l0,0
		C286.2,43.2,288.6,45.6,288.6,48.5z"/>
	<path class="st26" d="M640.7,337.9c0,61.2-49.6,110.8-110.8,110.8S419,399.1,419,337.9c0-61.2,49.6-110.8,110.8-110.8l0,0l0,0
		c60.9,0,110.5,49.2,110.8,110.1V337.9z"/>
</g>
<g id="freepik--Graphics--inject-20">
	<path class="st27" d="M657.6,88h394.5c14.4,0,26.1,11.7,26.1,26.1v87.6c0,14.4-11.7,26.1-26.1,26.1H657.6
		c-14.4,0-26.1-11.7-26.1-26.1v-87.6C631.6,99.7,643.3,88,657.6,88z"/>
	<line class="st28" x1="709.8" y1="157.2" x2="1014.2" y2="157.2"/>
	<polyline class="st28" points="700.3,157.2 748.3,123.4 870.8,123.4 920.7,157.2 	"/>
	<path class="st7" d="M930.2,157.2c0,5.2-4.3,9.5-9.5,9.5c-5.2,0-9.5-4.3-9.5-9.5s4.3-9.5,9.5-9.5c0,0,0,0,0,0
		C926,147.8,930.2,152,930.2,157.2z"/>
	<circle class="st7" cx="748.3" cy="123.4" r="9.5"/>
	<path class="st7" d="M880.2,123.4c0,5.2-4.2,9.5-9.5,9.5c-5.2,0-9.5-4.2-9.5-9.5c0-5.2,4.2-9.5,9.5-9.5c0,0,0,0,0,0
		C876,113.9,880.2,118.1,880.2,123.4z"/>
	<polyline class="st28" points="700.3,157.2 748.3,191.1 974,191.1 1014.2,157.2 	"/>
	<path class="st7" d="M831.3,191.1c0,5.2-4.3,9.5-9.5,9.5c-5.2,0-9.5-4.3-9.5-9.5c0-5.2,4.3-9.5,9.5-9.5l0,0
		C827.1,181.6,831.3,185.9,831.3,191.1z"/>
	<path class="st7" d="M757.8,191.1c0,5.2-4.3,9.5-9.5,9.5c-5.2,0-9.5-4.3-9.5-9.5c0-5.2,4.3-9.5,9.5-9.5l0,0
		C753.6,181.6,757.8,185.9,757.8,191.1z"/>
	<path class="st7" d="M983.5,191.1c0,5.2-4.3,9.5-9.5,9.5c-5.2,0-9.5-4.3-9.5-9.5c0-5.2,4.3-9.5,9.5-9.5l0,0
		C979.2,181.6,983.5,185.9,983.5,191.1z"/>
	<circle class="st7" cx="1014.2" cy="157.2" r="9.5"/>
	<path class="st7" d="M709.8,157.2c0,5.2-4.3,9.5-9.5,9.5c-5.2,0-9.5-4.3-9.5-9.5s4.3-9.5,9.5-9.5c0,0,0,0,0,0
		C705.5,147.8,709.8,152,709.8,157.2z"/>
	<path class="st27" d="M196.1,382.3h227.3c14.4,0,26.1,11.7,26.1,26.1v227.3c0,14.4-11.7,26.1-26.1,26.1H196.1
		c-14.4,0-26.1-11.7-26.1-26.1V408.3C170.1,393.9,181.8,382.3,196.1,382.3z"/>
	<polyline class="st24" points="274.9,541.8 238.7,612.1 402.7,612.1 	"/>
	<polyline class="st24" points="402.7,435.5 326.1,486.4 402.7,509.4 	"/>
	<rect x="384.6" y="417.4" class="st7" width="36.2" height="36.2"/>
	<rect x="384.6" y="491.3" class="st7" width="36.2" height="36.2"/>
	<rect x="308" y="468.3" class="st7" width="36.2" height="36.2"/>
	<rect x="256.8" y="523.7" class="st29" width="36.2" height="36.2"/>
	<rect x="220.6" y="594" class="st7" width="36.2" height="36.2"/>
	<rect x="384.6" y="594" class="st7" width="36.2" height="36.2"/>
	<path class="st27" d="M63.7,272.8h227.3c14.4,0,26.1,11.7,26.1,26.1v227.3c0,14.4-11.7,26.1-26.1,26.1H63.7
		c-14.4,0-26.1-11.7-26.1-26.1V298.8C37.6,284.4,49.3,272.8,63.7,272.8z"/>
	<rect x="67.2" y="299.8" class="st25" width="185.9" height="14.4"/>
	<rect x="67.2" y="323.5" class="st25" width="107.4" height="14.4"/>
	<rect x="67.2" y="347.2" class="st25" width="62.5" height="14.4"/>
	<rect x="67.2" y="370.9" class="st25" width="102.9" height="14.4"/>
	<rect x="67.2" y="394.6" class="st25" width="160.5" height="14.4"/>
	<rect x="67.2" y="418.3" class="st25" width="107.4" height="14.4"/>
	<rect x="67.2" y="442" class="st25" width="74.9" height="14.4"/>
	<rect x="67.2" y="465.7" class="st25" width="121.3" height="14.4"/>
	<rect x="67.2" y="489.4" class="st25" width="147.1" height="14.4"/>
	<rect x="67.2" y="513.1" class="st25" width="185.9" height="14.4"/>
	<rect x="67.2" y="299.8" class="st30" width="185.9" height="14.4"/>
	<rect x="67.2" y="323.5" class="st30" width="107.4" height="14.4"/>
	<rect x="67.2" y="347.2" class="st30" width="62.5" height="14.4"/>
	<rect x="67.2" y="370.9" class="st30" width="102.9" height="14.4"/>
	<rect x="67.2" y="394.6" class="st30" width="160.5" height="14.4"/>
	<rect x="67.2" y="418.3" class="st30" width="107.4" height="14.4"/>
	<rect x="67.2" y="442" class="st30" width="74.9" height="14.4"/>
	<rect x="67.2" y="465.7" class="st30" width="121.3" height="14.4"/>
	<rect x="67.2" y="489.4" class="st30" width="147.1" height="14.4"/>
	<rect x="67.2" y="513.1" class="st30" width="185.9" height="14.4"/>
	<path class="st27" d="M186.8,248.3h67.6c6.8,0,12.3,5.5,12.3,12.3l0,0v12.2l0,0h-92.2l0,0v-12.2C174.5,253.8,180,248.3,186.8,248.3
		C186.8,248.3,186.8,248.3,186.8,248.3z"/>
	<path class="st30" d="M141.1,248.3h66.8c7,0,12.7,5.7,12.7,12.7v11.8l0,0h-92.3l0,0V261C128.3,254,134,248.3,141.1,248.3
		C141.1,248.3,141.1,248.3,141.1,248.3z"/>
	<path class="st27" d="M89.7,248.3h68.5c6.6,0,11.9,5.3,12,11.8v12.7l0,0H77.8l0,0v-12.7C77.9,253.6,83.2,248.3,89.7,248.3z"/>
</g>
<g id="freepik--Table--inject-20">
	<line class="st24" x1="960.2" y1="760.4" x2="1010.9" y2="760.4"/>
	<line class="st24" x1="160.1" y1="760.4" x2="933.4" y2="760.4"/>
	<g id="freepik--Coffee--inject-189--inject-20">
		<path class="st31" d="M946.2,730.7c0,0,9-7.4,13.3,0.7c3.7,7-5.2,14.7-15.3,14.7v5.9c0,0,21.6,0.6,23.2-17.7
			c1.6-18.2-21.3-13.2-21.3-13.2L946.2,730.7z"/>
		<polygon class="st31" points="945.5,760.3 902.1,760.3 895.6,705.9 952,705.9 		"/>
		<path class="st32" d="M895.7,703.3h56.2c1.6,0,3,1.3,3,3v0.3c0,1.6-1.3,3-3,3h-56.2c-1.6,0-3-1.3-3-3v-0.3
			C892.8,704.6,894.1,703.3,895.7,703.3z"/>
	</g>
	<path class="st24" d="M916.5,697.4c0,0,19.9-12,13.4-25.7c-6.5-13.7-28.5-22.8-28.5-44.1c0-18.4,19.6-25.2,32.3-32.5"/>
	<path class="st24" d="M923,608c-10.9,7.4-13.8,22.2-6.4,33.1c0,0,0,0.1,0.1,0.1"/>
	<path class="st24" d="M933.8,662.3c4,7.7,5.1,16.5,3.1,24.9"/>
	<path class="st32" d="M400,755.9c0,0-0.9-15.6-14.7-21.1c-13.8-5.5-21.1-3.2-51.9,5c-19.4,5.1-39.2,8.1-59.2,9.2v7L400,755.9z"/>
	<path class="st32" d="M399.6,755.9c0,0,0.9-15.6,14.7-21.1c13.8-5.5,21.1-3.2,51.9,5c19.4,5.1,39.3,8.2,59.3,9.2v7L399.6,755.9z"/>
	<rect x="271.1" y="753.2" class="st33" width="259.3" height="5"/>
	<path class="st24" d="M406.3,755.7c2.5-7.4,8-13.5,15.3-16.6"/>
	<path class="st24" d="M414.1,754.5c3.7-6.4,10-10.9,17.3-12.3c8.6-1.6,17.3,1.4,25.4,4.6c8.1,3.3,22.2,7.6,30.9,7.6"/>
	<path class="st24" d="M324.3,753.1c8.6-0.9,17-3,25-6.3c4.8-2.3,9.8-4.2,14.9-5.7c5.2-1.5,10.7-1,15.5,1.6c2,1.3,3.8,3,5.3,4.9
		c2,2.6,3.7,5.4,5,8.5"/>
	<path class="st24" d="M371.8,746.1c2.8,0.4,5.4,1.7,7.4,3.8c1.9,2.1,3.5,4.4,4.9,6.8"/>
</g>
<g id="freepik--Character--inject-20">
	<path class="st7" d="M596.5,753.4c-9.5,4.3-19.8,6.7-30.2,7c-16.1,0-48.8-33.2-48.8-33.2s-1.2-3.6,1.4-17
		c2.6-13.4,26.6-136.1,26.6-136.1s2.8-28.6,19.1-46.1c16.2-17.5,48.1-23.8,48.1-23.8s70.5-30.7,110-21.2c39.5,15.7,82.6,31.6,97,44
		c14.4,12.4,49.8,111.5,62.1,162.4c0,0-27,57.4-52.2,73.5c-25.2,16.1-85.9,10.9-85.9,10.9L596.5,753.4z"/>
	<path class="st34" d="M587.6,653.7l-10.2-135.3c-13.5,5.5-23.5,17.3-26.7,31.6c-5.3,24.2-37.2,173.1-33.2,177.3
		c3.9,4.1,24.7,21.9,24.7,21.9s22.4,19.2,45.4,7.7C610.5,745.4,587.6,653.7,587.6,653.7z"/>
	<path class="st35" d="M688.7,530.9c-1.2,4-6.3,5.3-10.5,5.4c-12.1,0.1-23.9-4.2-33.1-12.1c-1.7-1.5-31.6,17-35,18.8
		c-5.4,2.9-10.8,6.1-16.3,8.8c-5.2,2.5-10,3.8-13.4,8.9c-2.2,3.8-3.9,7.8-5,12.1c-7.2,23.7-14.9,47.4-21.5,71.3
		c-5.7,20.7-13.4,43.6-13.1,65.3c0,1.6,0.1,3.1,0.3,4.6c4.6,27.8,55.3,39.3,55.3,39.3s-17.9,11-30.2,7s-40.9-20.4-50-35.7
		l24.9-130.1c0,0-0.3-62.7,44.9-81.3c45.2-18.6,62.9-21.4,62.9-21.4L688.7,530.9z"/>
	<path class="st34" d="M855.5,735.5c0,0,19.7-21.8,26.1-46.1c0,0-30.2-99.7-38-118.4c-7.8-18.7-20.6-40-29.4-49.1l-14.4,205.3
		l-3,43.2c0,0,16.3,0.7,27.5-4.6S855.5,735.5,855.5,735.5z"/>
	<path class="st24" d="M796.7,770.4l17.5-248.5c0,0-84.7-39.5-106.8-43.2c-22.2-3.8-129.8,38.6-129.8,38.6l15.7,238.3"/>
	<path class="st19" d="M644,357.4l-8.7,41.7c0,0-11.1-7.9-13.5,1c-2.4,8.9,4.9,21.1,18.9,21.8c0,0,3.8,18.9,16.3,31.7
		c5.9,6.3,12.1,12.2,18.6,17.7c0,0,4.9,31.7,20.9,32.9s19.1-13.2,22.3-33.2c0,0,13.8-24,17.9-36.9c0,0,17-11.8,5.6-29.1
		c0,0,5.6-41.3-4.1-48.2C728.4,349.8,661,353.4,644,357.4z"/>
	<path class="st19" d="M695.7,507.5c0,0-5.4,27-8.7,27.7c-3.3,0.7-16.6-12-28.1-27.7c-11.6-15.7-9.8-15.8-9.8-15.8
		s5.4-20.7,9.8-23.7c4.4-3,20.3-2.6,20.3-2.6l34.8-1.3c0,0,11.6-1.6,18.8,3c7.2,4.6,10.7,24.7,10.7,24.7s-20.9,38.5-37.9,43.5
		C701.7,526.2,698.4,516.9,695.7,507.5z"/>
	<line class="st28" x1="581.5" y1="710.5" x2="586.1" y2="645.7"/>
	<path class="st25" d="M743.4,369.4c0,0-19.8,7.7-37.3,6.2c0,0-18.5,18.6-42.1,7.5c0,0-21.3,57.7,27.6,95.5
		c-25.1-9.6-44-30.7-50.9-56.7c0,0-13.9,2.2-18.9-18.6c0,0-4-8,14.3-8.1l-0.8-40.2l47.1,9.5l33.8-4.9L743.4,369.4z"/>
	<path class="st21" d="M743.4,369.4c0,0-19.8,7.7-37.3,6.2c0,0-18.5,18.6-42.1,7.5c0,0-17.2,61.8,25.5,94.5c0,0-38.8-13.4-48.9-55.7
		c0,0-13.8-1.5-18.9-18.6c0,0-4-8,14.3-8.1l-0.8-40.2l47.1,9.5l33.8-4.9L743.4,369.4z"/>
	<path class="st24" d="M689.6,449.4c1.5,1.2,3.1,2.4,4.8,3.4c1.1,0.7,2.7,1.3,3.5,0.2c0.3-0.4,0.4-0.9,0.4-1.4
		c0.7-11.4-2-22.9-0.3-34.2"/>
	<path class="st36" d="M705.5,410.9c0,0,5.7-12.5,20.3-1.3"/>
	<path class="st36" d="M687.1,413.2c0,0-10.7-13.3-23.9,0.4"/>
	<path class="st24" d="M672.7,469.4c0,0,5.7,34.1,25.8,35.1c16.3,0.8,19.5-27.3,20.1-37.4"/>
	<path class="st24" d="M638.1,402.9c0,0-8.8-10.6-14.8-5.4c-6,5.2,3,27.9,17.5,24.4"/>
	<path class="st24" d="M676.4,453.6c4.4,5.3,10.3,9,17,10.5"/>
	<ellipse class="st20" cx="675.4" cy="429" rx="2.3" ry="4.9"/>
	<path class="st20" d="M715,429c0,2.7-1,4.9-2.3,4.9s-2.3-2.2-2.3-4.9c0-2.7,1-4.9,2.3-4.9C714,424.1,715,426.3,715,429z"/>
	<path class="st24" d="M696.3,504.2c0,0-5.6,30.4-9.3,31c-3.7,0.7-32.3-25.2-37.9-43.5c0,0,6-23.8,11.6-24.7c2.6-0.4,5.6-0.8,8-1.1"
		/>
	<path class="st24" d="M696.3,504.2c0,0,5.4,30.4,9.2,31c3.8,0.7,32.3-25.2,37.9-43.5c0,0-6.8-23.7-12-25.7
		c-3.3-1.2-6.7-2.2-10.2-2.9"/>
	<path class="st20" d="M643.5,429.5c3.7,6.4,8.2-16,6.3-23.2c-1.3-4.6-3.8-9.2-4.1-13.9c-0.2-5.4,2.3-10.5,4.3-15.6
		c2-5.1,3-11.1,0-15.7c10.5,7.5,22.9,11.9,35.8,12.8c3.3,0.5,6.6,0.2,9.8-0.8c3.2-1.1,5.6-3.7,6.4-7c12.1,1.5,24,3.1,36.1,1.5
		c10.1-1.4,25.8-3.9,31-14.2c7.6-15-12-30.7-23.5-36c-27.9-12.7-65.5-14.9-90.7,5.1c-2.6,2.2-5.3,4.3-8.1,6.3
		c-5.6,3.5-18.2,6.2-22.6,11c-5.9,6.5,1.5,56.9,1.5,56.9s9.7-4.5,13.7,10.5C642.1,417.4,639.7,423.1,643.5,429.5z"/>
	<path class="st20" d="M734.8,364.4c-0.2,0.6-0.3,1.3-0.3,1.9c-0.3,5.7,0.4,11.4,2,16.9c0.6,2.5,1.5,4.9,1.9,7.4
		c0.9,6,0.9,11.7,5.3,16.6c0,0,8.5-29.6,5-50.7c-0.4-2.3-1.2-8.6-4.9-7.5c-2.7,0.8-4.6,5.5-5.9,7.8
		C736.7,359.2,735.6,361.8,734.8,364.4z"/>
	<path class="st24" d="M618.1,336.5c7.6-5.3,17.2-6.6,25.9-3.5c6.7-12,16.1-22.3,27.5-30.2"/>
	<path class="st37" d="M654.4,329.4c0,0,45.5,32.4,73.1,24.4c27.6-8,19.9-31.7,19.9-31.7"/>
	<path class="st37" d="M658.8,324c0,0,57.2,26.3,66.8-10.9"/>
	<path class="st20" d="M672.7,469.4c0,0,10.9,21.1,19.4,20.8c8.5-0.3,24.2-23.1,24.2-23.1s-8.4,10.9-21.2,12
		C686.6,479.8,672.7,469.4,672.7,469.4z"/>
	<path class="st20" d="M738.4,623.5l1.8-0.8c2-0.9,3.2-3.1,2.8-5.3l-0.3-2.1c-0.4-2.2-2.2-3.8-4.4-4l-2.1-0.2
		c-1.7-0.1-3.2-1.2-4-2.7c-0.6-1.2-1.2-2.3-1.9-3.5c-0.9-1.5-0.9-3.3,0-4.8l1.1-1.9c1.1-1.9,0.8-4.3-0.8-5.9l-1.5-1.5
		c-1.5-1.6-4-1.9-5.9-0.7l-1.9,1.1c-1.5,0.9-3.3,0.9-4.8,0c-3-1.8-6.3-3.1-9.7-4c-1.7-0.4-3-1.8-3.4-3.5l-0.6-2.3
		c-0.5-2.2-2.5-3.8-4.8-3.7h-2.1c-2.3-0.1-4.3,1.4-4.8,3.6l-0.6,2.3c-0.4,1.7-1.7,3-3.4,3.4c-1.2,0.3-2.3,0.7-3.5,1.1
		c-1.6,0.6-3.4,0.2-4.8-0.9l-1.9-1.6c-1.6-1.5-4.1-1.6-5.9-0.3l-1.7,1.2c-1.9,1.2-2.7,3.7-1.8,5.8l0.9,2.3c0.6,1.6,0.3,3.4-0.7,4.8
		c-0.8,0.9-1.5,1.9-2.2,2.9c-1,1.4-2.7,2.2-4.4,2l-2.3-0.2c-2.2-0.3-4.4,1-5,3.2l-0.8,2.1c-0.8,2,0,4.3,1.7,5.6l2.3,1.6
		c1.4,1,2.2,2.7,2,4.4c-0.1,1.2-0.2,2.5-0.2,3.7l0,0c0,1.7-0.9,3.2-2.3,4.1l-2.3,1.3c-2,1.1-2.9,3.4-2.3,5.5l0.6,2.1
		c0.6,2.2,2.5,3.7,4.8,3.6h2.3c1.7,0,3.3,0.9,4.2,2.3c0.7,1.2,1.3,2.3,2.1,3.3c1,1.4,1.1,3.2,0.4,4.8l-1,2c-1,2-0.5,4.4,1.3,5.8
		l1.6,1.4c1.7,1.4,4.2,1.5,5.9,0.2l1.7-1.2c1.4-1,3.1-1.1,4.6-0.4c1.2,0.6,2.5,1.1,3.7,1.6c1.6,0.6,2.8,2,3,3.7l0.3,2.1
		c0.4,2.2,2.2,3.8,4.4,4l2.2,0.2c2.2,0.2,4.3-1.1,5-3.2l0.7-1.9c0.6-1.6,2-2.8,3.7-3.1c1.4-0.2,2.7-0.5,4-0.9c1.7-0.4,3.4,0,4.6,1.3
		l1.4,1.4c1.5,1.6,4,1.9,5.9,0.8l1.9-1.1c2-1.1,2.9-3.4,2.3-5.5l-0.5-1.9c-0.5-1.7,0-3.5,1.2-4.8c1-1,1.9-2,2.8-3.1
		c1.1-1.4,2.9-2,4.6-1.6l1.9,0.4c2.2,0.4,4.4-0.7,5.3-2.7l0.9-2c1-2,0.4-4.4-1.3-5.8l-1.4-1.2c-1.4-1-2-2.7-1.8-4.4
		c0.2-1.4,0.4-2.9,0.4-4.3C735.9,625.7,736.9,624.2,738.4,623.5z M709.7,624.7c0,7-5.6,12.6-12.6,12.7c-7,0-12.6-5.6-12.7-12.6
		c0-7,5.6-12.6,12.6-12.7c0,0,0,0,0,0l0,0C704,612.1,709.6,617.7,709.7,624.7L709.7,624.7z"/>
	<path class="st24" d="M582,701.8c-1.9,2.1-4,4-6.2,5.7c-6,5.9-10.6,13.1-13.2,21.1c-1.3,3.7-1.3,7.7,0,11.4
		c2.8,7,11.7,13.9,18.9,9.5"/>
	<path class="st24" d="M581.4,689.5c-6.8-1.1-13.5,2.9-18.1,7.9c-4.6,5-7.9,11.3-12.1,16.7"/>
	<path class="st24" d="M580.9,759.3c-9.1,1.8-18.4,0.8-26.9-2.9c-5.4-2.9-10.4-6.4-14.9-10.5l-17.7-14.6c-2.8-2.3-6-5.7-4.8-9.2
		c0,0,29.5-155.4,34.1-172.2c5.4-19.4,27-32.5,27-32.5"/>
	<path class="st24" d="M802.2,703.4c7.6,5.7,13.4,13.5,16.7,22.4c2.6,8.3,4.4,16.8,5.3,25.4c-4.6,2.6-13.9,9.3-22,9.3"/>
	<path class="st24" d="M803.2,690.5c7.2-1.9,14.2,3,19.6,8s11,10.9,18.3,11.7"/>
	<path class="st24" d="M804.5,771.3c13.9-1.5,26.5-9.1,36.5-18.7c10-9.7,17.7-21.4,25.4-33.1c6.2-9.4,12.5-19.1,15.2-30.1
		c0,0-24.5-80.8-38-118.4c-14.2-39.1-29.4-49.1-29.4-49.1"/>
	<path class="st24" d="M803.2,690.5c12.6-10.6,32-2,45.5,5.1"/>
	<rect x="582" y="647.2" class="st19" width="220.2" height="126.5"/>
	<rect x="580.9" y="773.8" class="st20" width="222.3" height="6.6"/>
	<polygon class="st20" points="580.9,773.8 802.2,647.2 803.2,773.8 	"/>
	<polygon class="st21" points="580.9,773.8 802.2,647.2 803.2,773.8 	"/>
	<circle class="st20" cx="695" cy="708.4" r="18.8"/>
	<rect x="582" y="647.2" class="st24" width="220.2" height="126.5"/>
	<path class="st24" d="M637.1,390.1c0,0,4.8,44.1,11,52.1c6.1,8,25.8,36.8,47.3,36.3s35.5-28,39-39.9c4.4-15,7-30.4,7.9-46"/>
	<path class="st24" d="M736.5,434.1c0,0,15.9-8.2,5.6-29.1"/>
</g>
</svg>
