<?xml version="1.0" encoding="utf-8"?>
<!-- Generator: Adobe Illustrator 26.0.2, SVG Export Plug-In . SVG Version: 6.00 Build 0)  -->
<svg version="1.1" xmlns="http://www.w3.org/2000/svg" xmlns:xlink="http://www.w3.org/1999/xlink" x="0px" y="0px"
	 viewBox="0 0 1000 800" style="enable-background:new 0 0 1000 800;" xml:space="preserve">
<style type="text/css">
	.st0{opacity:0.1;fill:#F9A826;}
	.st1{fill:#95C38B;}
	.st2{fill:#F2F2F2;stroke:#F2F2F2;stroke-width:7.000000e-02;stroke-miterlimit:10;}
	.st3{fill:#263238;}
	.st4{fill:#3F3D56;}
	.st5{fill:#FFFFFF;}
	.st6{fill:#CBCBCB;}
	.st7{fill:#F9A826;}
	.st8{fill:#4C4C4C;}
	.st9{fill:#F2F2F2;}
	.st10{fill:#E5E5E5;}
</style>
<g id="Layer_1">
	<g id="Layer_x0020_1">
		<path class="st0" d="M912.7,799.4l-877.5-0.5c-59-154.1-65.2-290.1,69.5-402.3c76.7-64-4.8-106.2,56.2-177.4
			c40.3-47,82.7-37.1,126.3-27.3c32.3,7.3,65.2,14.6,98.4-1.2c13.8-6.6,27.6-17.1,41.4-33.3c7.8-9.1,16.3-17,25.5-23.9
			c1.4-1.1,2.8-2.1,4.2-3.1c5.5-3.8,11.1-7.3,17-10.4c3.9-2.1,7.9-4,12-5.8h0c6.5-2.8,13.1-5.3,19.9-7.3c9.6-2.9,19.5-5.1,29.7-6.6
			c4.4-0.6,8.9-1.2,13.3-1.5c87.1-7.4,185.2,34.3,235.8,95.2c10.2,12.3,56.5,75.7,20,163c-23.1,55.1,73.5,107.7,107.8,170.6
			C999.3,687.4,913.4,797.3,912.7,799.4L912.7,799.4z"/>
		<path class="st1" d="M-20.4,765c-0.3,0.1-0.7,0.2-1.2,0.3C-21.2,765.2-20.8,765.1-20.4,765z"/>
		<path class="st2" d="M-679.1-228.1c0,2.2-1.8,3.9-3.9,3.9s-3.9-1.8-3.9-3.9c0-2.2,1.8-3.9,3.9-3.9S-679.1-230.2-679.1-228.1z"/>
		<path class="st3" d="M77.7,633.5h811.6c4.4,0,8-1.8,8-3.9v-2.5c0-2.2-3.6-3.9-8-3.9H77.7c-4.4,0-8,1.8-8,3.9v2.5
			C69.7,631.8,73.3,633.5,77.7,633.5z"/>
		<g id="_1954405587552">
			<path class="st3" d="M187,810.3l-0.3,0.1c-3.5,1-6.3,0.7-6.3-0.8l-3.7-176.5l29.2-9.9L192,806.7
				C191.9,807.9,189.7,809.5,187,810.3L187,810.3z"/>
			<path class="st3" d="M746.7,810.3l-0.3,0.1c-3.5,1-6.3,0.7-6.3-0.8l-3.7-176.5l29.2-9.9l-13.9,183.5
				C751.6,807.9,749.4,809.5,746.7,810.3L746.7,810.3z"/>
		</g>
	</g>
	<g>
		<path class="st4" d="M614.1,355.8H247.7c-5.6,0-10.1,4.5-10.1,10.1v0v204.1c0,5.6,4.5,10.1,10.1,10.1l0,0h366.4
			c5.6,0,10.1-4.5,10.1-10.1l0,0V365.9C624.1,360.3,619.6,355.8,614.1,355.8L614.1,355.8L614.1,355.8z"/>
		<rect x="251.1" y="373.6" class="st5" width="359.5" height="202.8"/>
		<circle class="st5" cx="430.6" cy="364.4" r="3.7"/>
		<path class="st4" d="M634.2,572.8h-35.1v-2.5c0-0.3-0.2-0.5-0.5-0.5l0,0h-12c-0.3,0-0.5,0.2-0.5,0.5v0v2.5h-7.5v-2.5
			c0-0.3-0.2-0.5-0.5-0.5l0,0h-12c-0.3,0-0.5,0.2-0.5,0.5l0,0l0,0v2.5H558v-2.5c0-0.3-0.2-0.5-0.5-0.5l0,0h-12
			c-0.3,0-0.5,0.2-0.5,0.5l0,0l0,0v2.5h-7.5v-2.5c0-0.3-0.2-0.5-0.5-0.5l0,0h-12c-0.3,0-0.5,0.2-0.5,0.5l0,0v2.5h-7.5v-2.5
			c0-0.3-0.2-0.5-0.5-0.5l0,0h-12c-0.3,0-0.5,0.2-0.5,0.5l0,0l0,0v2.5h-7.5v-2.5c0-0.3-0.2-0.5-0.5-0.5h-12c-0.3,0-0.5,0.2-0.5,0.5
			l0,0l0,0v2.5h-7.5v-2.5c0-0.3-0.2-0.5-0.5-0.5h-94.2c-0.3,0-0.5,0.2-0.5,0.5l0,0l0,0v2.5h-7.5v-2.5c0-0.3-0.2-0.5-0.5-0.5l0,0h-12
			c-0.3,0-0.5,0.2-0.5,0.5l0,0l0,0v2.5h-7.5v-2.5c0-0.3-0.2-0.5-0.5-0.5l0,0h-12c-0.3,0-0.5,0.2-0.5,0.5l0,0l0,0v2.5H332v-2.5
			c0-0.3-0.2-0.5-0.5-0.5h-12c-0.3,0-0.5,0.2-0.5,0.5l0,0l0,0v2.5h-7.5v-2.5c0-0.3-0.2-0.5-0.5-0.5h-12c-0.3,0-0.5,0.2-0.5,0.5l0,0
			l0,0v2.5h-7.5v-2.5c0-0.3-0.2-0.5-0.5-0.5l0,0h-12c-0.3,0-0.5,0.2-0.5,0.5v2.5h-7.5v-2.5c0-0.3-0.2-0.5-0.5-0.5l0,0h-12
			c-0.3,0-0.5,0.2-0.5,0.5l0,0v2.5h-23.1c-6.6,0-12,5.4-12,12v5.4c0,6.6,5.4,12,12,12h400c6.6,0,12-5.4,12-12v-5.4
			C646.3,578.1,640.9,572.8,634.2,572.8z"/>
		<rect x="394.7" y="393" class="st6" width="116.3" height="4.3"/>
		<rect x="394.7" y="406.6" class="st6" width="116.3" height="4.3"/>
		<rect x="394.7" y="420.3" class="st6" width="116.3" height="4.3"/>
		<rect x="357.9" y="395.6" class="st6" width="26.3" height="26.3"/>
		<circle class="st7" cx="440.5" cy="493.7" r="66.1"/>
		<path class="st8" d="M407.3,459.3c-1.8,0.7-2.9,2.2-2.9,3.9v37.7c0,7.7,3.7,14.9,9.8,19.3l22.1,14.2c1.5,0.9,3.5,0.9,5,0
			l22.1-14.2c6.1-4.4,9.8-11.6,9.8-19.3v-37.6c0-1.8-1.2-3.3-3.1-4C443.2,450.1,432.5,449.9,407.3,459.3L407.3,459.3z"/>
		<path class="st3" d="M470.2,459.3c-13.1-4.5-22.4-6.8-31.4-7v82.8c0.9,0,1.7-0.2,2.5-0.7l22.1-14.2c6.1-4.4,9.8-11.6,9.8-19.3
			v-37.6C473.2,461.5,472,460,470.2,459.3z"/>
		<path class="st9" d="M436,478.8c-2.7,0-4.9,2.2-4.9,4.9v1c0,2.7,2.2,4.9,4.9,4.9h5c2.7,0,4.9-2.2,4.9-4.9v-1
			c0-2.7-2.2-4.9-4.9-4.9H436z M441.1,492.9h-5c-4.5,0-8.2-3.7-8.2-8.2v-1c0-4.5,3.7-8.2,8.2-8.2h5c4.5,0,8.2,3.7,8.2,8.2v1
			C449.3,489.2,445.6,492.9,441.1,492.9z"/>
		<path class="st7" d="M443.2,515.8h-8c-7.4,0-13.5-6-13.5-13.5v-13.2c0-1.7,1.4-3,3-3H452c2.1,0,3.9,1.7,3.9,3.9v13.1
			C455.9,510.1,450.2,515.8,443.2,515.8L443.2,515.8z"/>
		<path class="st9" d="M416.8,468.7l1.6-0.2c0.1,0.5,0.3,0.9,0.6,1.2c0.3,0.2,0.7,0.4,1.2,0.4c0.5,0,0.9-0.1,1.2-0.3
			c0.3-0.2,0.4-0.5,0.4-0.8c0-0.2-0.1-0.4-0.2-0.5c-0.1-0.1-0.3-0.2-0.6-0.3c-0.2-0.1-0.6-0.2-1.3-0.4c-0.9-0.2-1.5-0.5-1.8-0.8
			c-0.5-0.4-0.7-1-0.7-1.6c0-0.4,0.1-0.8,0.3-1.2c0.2-0.4,0.6-0.6,1-0.8c0.4-0.2,1-0.3,1.6-0.3c1,0,1.8,0.2,2.3,0.7
			c0.5,0.4,0.8,1,0.8,1.8l-1.6,0.1c-0.1-0.4-0.2-0.7-0.4-0.9c-0.2-0.2-0.6-0.3-1-0.3c-0.5,0-0.8,0.1-1.1,0.3
			c-0.2,0.1-0.3,0.3-0.3,0.5c0,0.2,0.1,0.4,0.2,0.5c0.2,0.2,0.7,0.4,1.5,0.5c0.8,0.2,1.4,0.4,1.7,0.6c0.4,0.2,0.7,0.5,0.9,0.8
			c0.2,0.3,0.3,0.8,0.3,1.3c0,0.5-0.1,0.9-0.4,1.3c-0.3,0.4-0.6,0.7-1.1,0.9c-0.5,0.2-1.1,0.3-1.8,0.3c-1,0-1.8-0.2-2.3-0.7
			C417.3,470.3,417,469.6,416.8,468.7L416.8,468.7z"/>
		<polygon id="_x31__00000180366446778003852060000004155369216363918728_" class="st9" points="424.8,471.3 424.8,463.2 
			430.7,463.2 430.7,464.6 426.4,464.6 426.4,466.4 430.4,466.4 430.4,467.7 426.4,467.7 426.4,469.9 430.9,469.9 430.9,471.3 		"/>
		<path id="_x32_" class="st9" d="M437.4,468.3l1.6,0.5c-0.2,0.9-0.6,1.5-1.2,2c-0.6,0.4-1.3,0.6-2.1,0.6c-1.1,0-1.9-0.4-2.6-1.1
			c-0.7-0.7-1-1.7-1-3c0-1.3,0.3-2.4,1-3.1c0.7-0.7,1.6-1.1,2.7-1.1c1,0,1.8,0.3,2.4,0.9c0.4,0.3,0.6,0.8,0.8,1.5l-1.6,0.4
			c-0.1-0.4-0.3-0.7-0.6-1c-0.3-0.2-0.7-0.4-1.1-0.4c-0.6,0-1.1,0.2-1.5,0.6c-0.4,0.4-0.6,1.1-0.6,2.1c0,1,0.2,1.7,0.5,2.2
			c0.4,0.4,0.8,0.6,1.4,0.6c0.4,0,0.8-0.1,1.1-0.4C437.1,469.3,437.3,468.9,437.4,468.3L437.4,468.3z"/>
		<path id="_x33_" class="st9" d="M440.4,463.2h1.6v4.4c0,0.7,0,1.1,0.1,1.3c0.1,0.3,0.2,0.6,0.5,0.8c0.3,0.2,0.6,0.3,1.1,0.3
			c0.5,0,0.8-0.1,1-0.3c0.2-0.2,0.4-0.4,0.4-0.7c0-0.3,0.1-0.7,0.1-1.4v-4.5h1.6v4.2c0,1,0,1.6-0.1,2.1c-0.1,0.4-0.2,0.7-0.5,1
			c-0.2,0.3-0.5,0.5-0.9,0.7c-0.4,0.2-0.9,0.2-1.5,0.2c-0.8,0-1.4-0.1-1.7-0.3c-0.4-0.2-0.7-0.4-0.9-0.7c-0.2-0.3-0.4-0.6-0.5-0.9
			c-0.1-0.5-0.2-1.1-0.2-2L440.4,463.2L440.4,463.2z"/>
		<path id="_x34_" class="st9" d="M448.5,471.3v-8h3.4c0.9,0,1.5,0.1,1.9,0.2c0.4,0.1,0.7,0.4,0.9,0.8c0.2,0.4,0.4,0.8,0.4,1.3
			c0,0.6-0.2,1.1-0.5,1.5c-0.4,0.4-0.9,0.6-1.6,0.7c0.4,0.2,0.6,0.4,0.9,0.7c0.2,0.2,0.5,0.7,0.9,1.3l1,1.6h-1.9l-1.2-1.8
			c-0.4-0.6-0.7-1-0.9-1.2c-0.2-0.2-0.3-0.3-0.5-0.3c-0.2-0.1-0.4-0.1-0.8-0.1h-0.3v3.4L448.5,471.3L448.5,471.3z M450.2,466.6h1.2
			c0.8,0,1.3,0,1.5-0.1s0.3-0.2,0.5-0.3c0.1-0.2,0.2-0.4,0.2-0.6c0-0.3-0.1-0.5-0.2-0.7c-0.1-0.2-0.4-0.3-0.6-0.3
			c-0.1,0-0.5,0-1.2,0h-1.3V466.6L450.2,466.6z"/>
		<polygon id="_x35_" class="st9" points="456.6,471.3 456.6,463.2 462.6,463.2 462.6,464.6 458.3,464.6 458.3,466.4 462.3,466.4 
			462.3,467.7 458.3,467.7 458.3,469.9 462.8,469.9 462.8,471.3 		"/>
		<path class="st9" d="M443.4,498.2c0-2.5-2-4.4-4.4-4.4s-4.4,2-4.4,4.4c0,1.8,1,3.3,2.5,4v4.7c0,1,0.9,1.9,1.9,1.9
			c1,0,1.9-0.9,1.9-1.9v-4.7C442.4,501.5,443.4,499.9,443.4,498.2z"/>
		<path class="st4" d="M332.4,580.1H237c-4.7,0-8.5-3.8-8.5-8.5V433.2c0-4.7,3.8-8.5,8.5-8.5h95.4c4.7,0,8.5,3.8,8.5,8.5v138.4
			C340.9,576.3,337.1,580.1,332.4,580.1z"/>
		<path class="st5" d="M332.6,574.7h-95.8c-1.5,0-2.6-1.2-2.6-2.6V432.7c0-1.5,1.2-2.6,2.6-2.6h95.8c1.5,0,2.6,1.2,2.6,2.6V572
			C335.2,573.5,334,574.7,332.6,574.7z"/>
		<rect x="271.1" y="472.8" class="st10" width="53.3" height="3.1"/>
		<rect x="271.1" y="482.5" class="st10" width="53.3" height="3.1"/>
		<rect x="271.1" y="492.2" class="st10" width="53.3" height="3.1"/>
		<rect x="245" y="474.7" class="st10" width="18.7" height="18.7"/>
		<circle class="st7" cx="266.8" cy="524.5" r="7.4"/>
		<circle class="st7" cx="286.5" cy="524.5" r="6.1"/>
		<circle class="st7" cx="306.3" cy="524.5" r="3.7"/>
	</g>
	<g>
		<path class="st4" d="M367.7,479.7H367V460c0-6.3-5.1-11.4-11.4-11.4c0,0,0,0,0,0H314c-6.3,0-11.4,5.1-11.4,11.4c0,0,0,0,0,0v107.7
			c0,6.3,5.1,11.4,11.4,11.4l0,0h41.6c6.3,0,11.4-5.1,11.4-11.4l0,0v-74.1h0.7L367.7,479.7z"/>
		<path class="st5" d="M355.6,451.6h-5.4c0.8,2.1-0.1,4.4-2.2,5.3c-0.5,0.2-1,0.3-1.5,0.3h-23.8c-2.2,0-4-1.8-4-4
			c0-0.5,0.1-1,0.3-1.5h-5.1c-4.7,0-8.5,3.8-8.5,8.5v107.5c0,4.7,3.8,8.5,8.5,8.5h41.8c4.7,0,8.5-3.8,8.5-8.5l0,0l0,0V460.1
			C364.1,455.4,360.3,451.6,355.6,451.6L355.6,451.6z"/>
		<rect x="331" y="491.1" class="st10" width="25.9" height="2.1"/>
		<rect x="331" y="497.5" class="st10" width="25.9" height="2.1"/>
		<rect x="331" y="504" class="st10" width="25.9" height="2.1"/>
		<rect x="313.5" y="492.3" class="st10" width="12.5" height="12.5"/>
		<circle class="st7" cx="322" cy="531.2" r="5.4"/>
		<circle class="st7" cx="336.6" cy="531.2" r="4.4"/>
		<circle class="st7" cx="351.1" cy="531.2" r="2.7"/>
	</g>
</g>
<g id="Layer_2">
</g>
</svg>
