<?xml version="1.0" encoding="utf-8"?>
<!-- Generator: Adobe Illustrator 26.0.2, SVG Export Plug-In . SVG Version: 6.00 Build 0)  -->
<svg version="1.1" xmlns="http://www.w3.org/2000/svg" xmlns:xlink="http://www.w3.org/1999/xlink" x="0px" y="0px"
	 viewBox="0 0 1000 800" style="enable-background:new 0 0 1000 800;" xml:space="preserve">
<style type="text/css">
	.st0{fill:#F9A826;}
	.st1{opacity:6.000000e-02;fill:#F9A826;}
	.st2{fill:#CBD6E2;}
	.st3{fill:#FFFFFF;}
	.st4{fill:#EFF9F8;}
	.st5{fill:#253342;}
	.st6{fill:#33475B;}
	.st7{fill:#263238;}
</style>
<g id="Layer_1">
	<path class="st0" d="M170.6,351.9l3.1-4.9c-0.9-2.6-2-5.1-3.2-7.6l-2,1.6l1.6-2.5c-1.5-3-2.7-4.9-2.7-4.9s-6.3,9.9-8.4,20.5l4,6.2
		l-4.5-3.6c-0.2,1.2-0.2,2.5-0.2,3.7c0,12.5,4.1,22.6,9.1,22.6s9.1-10.1,9.1-22.6c-0.1-4-0.8-7.9-2.1-11.6L170.6,351.9z"/>
	<ellipse class="st1" cx="424.5" cy="329.3" rx="355.1" ry="329.3"/>
	<ellipse class="st1" cx="635.7" cy="436.3" rx="355.1" ry="329.3"/>
	<path class="st2" d="M450.5,128.5c4.3-2.6,9-4.6,13.8-6l2.8-13.7l23.1-0.4l3.3,13.6c4.9,1.2,9.6,3.1,14,5.5l11.6-7.6l16.6,16
		l-7.3,11.9c2.6,4.3,4.6,8.9,6,13.8l13.6,2.9l0.4,23.1l-13.6,3.3c-1.2,4.9-3.1,9.6-5.5,14l7.6,11.6l-16,16.6l-11.9-7.3
		c-4.3,2.6-9,4.6-13.8,6l-2.9,13.7l-23.1,0.4l-3.3-13.6c-4.9-1.2-9.6-3.1-14-5.5l-11.6,7.6l-16.6-16l7.3-11.9
		c-2.6-4.3-4.6-8.9-6-13.8l-13.6-2.9l-0.4-23.1l13.6-3.3c1.2-4.9,3.1-9.6,5.5-14l-7.6-11.6l16.1-16.5l11.9,7.3V128.5z M462.8,159.3
		c-9.5,9.8-9.2,25.5,0.7,34.9c9.8,9.5,25.5,9.2,34.9-0.7c9.4-9.8,9.2-25.4-0.6-34.9C488,149.2,472.3,149.4,462.8,159.3
		C462.8,159.2,462.8,159.2,462.8,159.3z"/>
	<path class="st2" d="M333.5,78c2.9-1.7,6-3.1,9.2-4l1.9-9.2l15.5-0.3l2.2,9.1c3.3,0.8,6.4,2.1,9.4,3.7l7.8-5.1L390.6,83l-4.8,8
		c1.8,2.9,3.1,6,4,9.3l9.1,1.9l0.3,15.5l-9.1,2.2c-0.8,3.3-2,6.4-3.7,9.4l5.1,7.8l-10.7,11.1l-8-4.8c-2.9,1.7-6,3.1-9.2,4l-1.9,9.2
		l-15.5,0.3l-2.2-9.1c-3.3-0.8-6.4-2.1-9.4-3.7l-7.8,5.1l-11.1-10.8l4.8-8c-1.8-2.9-3.1-6-4-9.3l-9.2-1.9l-0.2-15.5l9.1-2.2
		c0.8-3.3,2.1-6.4,3.7-9.4l-5.1-7.8l10.7-11.1L333.5,78C333.6,78,333.5,78,333.5,78z M341.7,98.6c-6.3,6.6-6.1,17.1,0.5,23.5
		c6.6,6.3,17.1,6.1,23.5-0.5c6.3-6.6,6.1-17.1-0.5-23.5c0,0,0,0,0,0C358.6,91.8,348.1,92,341.7,98.6L341.7,98.6L341.7,98.6z"/>
	<path class="st2" d="M844.7,351.8c2.9-1.8,6-3.1,9.2-4l1.9-9.2l15.5-0.3l2.2,9.1c3.3,0.8,6.4,2.1,9.4,3.7l7.8-5.1l11.1,10.7l-4.8,8
		c1.7,2.9,3.1,6,4,9.2l9.2,1.9l0.3,15.5l-9.1,2.2c-0.8,3.3-2.1,6.4-3.7,9.4l5.1,7.8L892,421.9l-8-4.8c-2.9,1.8-6,3.1-9.2,4l-1.9,9.1
		l-15.5,0.3l-2.2-9.1c-3.3-0.8-6.4-2-9.4-3.7l-7.8,5.1L826.9,412l4.8-8c-1.7-2.9-3.1-6-4-9.3l-9.2-1.9l-0.3-15.5l9.1-2.2
		c0.8-3.3,2.1-6.4,3.7-9.4l-5.1-7.8l10.8-11.1L844.7,351.8L844.7,351.8L844.7,351.8z M852.9,372.4c-6.4,6.6-6.2,17.1,0.4,23.5
		c6.6,6.4,17.1,6.2,23.5-0.4c6.4-6.6,6.2-17.1-0.4-23.4C869.8,365.6,859.3,365.8,852.9,372.4C852.9,372.4,852.9,372.4,852.9,372.4
		L852.9,372.4z"/>
	<path class="st2" d="M140.9,218.9l-81.1-21.4c-5.6-1.5-8.9-7.2-7.5-12.8l0,0L81.9,72.4c1.5-5.6,7.2-8.9,12.8-7.5l51.5,13.6l29,51.6
		l-21.5,81.4C152.2,217.1,146.5,220.4,140.9,218.9L140.9,218.9z"/>
	<path class="st3" d="M146.2,78.5l-8.4,31.6c-1.4,5.2,1.7,10.5,7,11.9l30.4,8.1L146.2,78.5z"/>
	<path class="st4" d="M137.6,113c0,0-2.4,7.6,5.6,12.4c0.3,0.2,0.6,0.4,0.9,0.5c3.8,1.8,28.7,13.3,28.8,12.7s2.2-8.5,2.2-8.5
		l-30.4-8C144.8,122,137.3,119.8,137.6,113z"/>
	<path class="st3" d="M131.4,107c-0.1,0.4-8.6-1.5-18.9-4.2c-10.3-2.8-18.7-5.3-18.6-5.7c0.1-0.4,8.6,1.5,18.9,4.2
		C123.1,104.1,131.5,106.6,131.4,107z"/>
	<path class="st3" d="M150.9,131.3c-0.1,0.4-14-2.9-31.1-7.4s-30.8-8.5-30.7-8.9c0.1-0.4,14,2.9,31.1,7.4
		C137.3,126.9,151,130.9,150.9,131.3z"/>
	<path class="st3" d="M152.5,147.7c-0.1,0.4-15.3-3.3-33.9-8.2s-33.6-9.2-33.4-9.6s15.3,3.2,33.9,8.2
		C137.7,143,152.7,147.3,152.5,147.7z"/>
	<path class="st3" d="M148.8,161.7c-0.1,0.4-15.3-3.2-33.9-8.1c-18.6-4.9-33.6-9.2-33.4-9.6c0.2-0.4,15.3,3.2,33.9,8.1
		C133.9,157,148.9,161.3,148.8,161.7z"/>
	<path class="st3" d="M145.1,175.8c-0.1,0.4-15.3-3.3-33.9-8.2s-33.6-9.2-33.4-9.6c0.2-0.4,15.3,3.3,33.9,8.2
		C130.3,171.1,145.2,175.4,145.1,175.8z"/>
	<path class="st3" d="M141.4,189.9c-0.1,0.4-15.3-3.3-33.9-8.2c-18.6-4.9-33.6-9.2-33.4-9.6c0.2-0.4,15.3,3.2,33.9,8.2
		S141.5,189.5,141.4,189.9z"/>
	<g id="freepik--Floor--inject-4">
		<path class="st5" d="M959.7,688.4c0,0.2-216.7,0.4-483.9,0.4s-484-0.2-484-0.4s216.6-0.4,484-0.4S959.7,688.2,959.7,688.4z"/>
	</g>
	<path class="st5" d="M815.6,684.7H152.9c-22.2,0-40.2-18-40.3-40.2v-432c0-16.8,13.6-30.3,30.3-30.3h684
		c15.9,0,28.9,12.9,28.9,28.9v433.5C855.8,666.8,837.8,684.7,815.6,684.7z"/>
	<path class="st6" d="M815.6,684.7l1.6-0.1c1.6,0,3.1-0.2,4.7-0.5c6.1-1,11.8-3.3,16.9-6.9c3.7-2.6,6.9-5.8,9.6-9.5
		c3.2-4.4,5.4-9.5,6.6-14.8c0.3-1.5,0.5-2.9,0.7-4.4s0.2-3.1,0.2-4.7v-9.9c0-6.8,0-14,0-21.8c0-61.5,0-150.5-0.1-260.6
		c0-27.5,0-56.3,0-86.3c0-15,0-30.3,0-45.9v-5.8c0-1.9,0-3.9-0.2-5.8c-0.5-3.9-1.8-7.6-3.7-11c-4.1-6.9-10.9-11.8-18.8-13.5
		c-3.9-0.9-8-0.5-12.1-0.6H626.4H153.2h-7.9c-1.3,0-2.6,0-3.9,0c-1.3,0-2.6,0.2-3.9,0.4c-10.4,1.9-19,9-22.7,18.9
		c-0.9,2.4-1.5,4.9-1.8,7.5c-0.2,2.6-0.2,5.1-0.2,7.7v61.7c0,40.9,0,81.1,0,120.7c0,79.1,0,155.5,0,228.2v13.6c0,1.1,0,2.3,0,3.4
		l0.2,3.3c0.2,2.2,0.6,4.4,1.2,6.6c2.2,8.6,7.4,16.2,14.5,21.6c3.5,2.7,7.4,4.7,11.6,6.1c4.2,1.3,8.5,2,12.9,2h126.2h179.9
		l356.1,0.3l-356.1,0.3H279.6H153.3c-4.4,0-8.8-0.7-13.1-2c-4.2-1.4-8.2-3.5-11.8-6.2c-3.6-2.7-6.7-6-9.3-9.7
		c-2.5-3.7-4.4-7.9-5.6-12.3c-0.6-2.2-1-4.4-1.2-6.7l-0.2-3.4c0-1.1,0-2.2,0-3.4v-13.6c0-72.7,0-149.1,0-228.2V217.3
		c0-2.6,0-5.2,0.2-7.8c0.3-2.6,0.9-5.2,1.8-7.6c3.8-10.1,12.6-17.5,23.2-19.4c1.3-0.3,2.6-0.4,4-0.4c1.3-0.1,2.6,0,3.9,0h7.9h473.2
		h194.3c4,0.1,8.2-0.3,12.2,0.6c12.2,2.6,21.5,12.6,23,25c0.2,2,0.3,3.9,0.2,5.9v5.8c0,15.6,0,30.9,0,45.9c0,30,0,58.8,0,86.3
		c0,110-0.1,199.1-0.1,260.6c0,7.7,0,15,0,21.8c0,3.4,0,6.7,0,9.9c0,1.6-0.1,3.2-0.2,4.7c-0.1,1.5-0.4,3-0.7,4.5
		c-1.2,5.4-3.4,10.4-6.6,14.9c-6.3,8.8-15.9,14.7-26.6,16.3c-1.5,0.3-3.1,0.4-4.7,0.4H815.6z"/>
	<path class="st5" d="M841.7,688.4H118c-22.5,0-40.8-18.3-40.8-40.8l0,0h805.2C882.5,670.1,864.2,688.4,841.7,688.4z"/>
	<path class="st5" d="M841.7,688.4h1.1l3.2-0.2c4.2-0.5,8.2-1.6,12.1-3.2c2.8-1.3,5.5-2.8,7.9-4.7c3-2.2,5.7-4.8,7.9-7.8
		c2.7-3.4,4.8-7.3,6.2-11.4c0.2-0.6,0.4-1.1,0.6-1.7l0.4-1.7c0.2-0.6,0.3-1.2,0.4-1.8s0.2-1.2,0.3-1.8c0.2-1.2,0.4-2.5,0.4-3.7
		c0-0.6,0.1-1.3,0.1-1.9V648v-0.4c0-0.1,0.2,0.2,0,0.1h-1l-177.4,0.1l-585.8,0.1H77.2l0.4-0.4c0,6.8,1.8,13.5,5,19.5
		c0.8,1.5,1.7,2.9,2.7,4.2l1.5,2l1.7,1.9l0.8,0.9l0.9,0.9l1.9,1.7c0.7,0.5,1.4,1,2,1.5c0.7,0.5,1.3,1,2.1,1.5
		c5.7,3.6,12.2,5.8,18.9,6.2c3.3,0.2,6.7,0.1,10,0.1h237.2l250.1,0.2l167.8,0.1l45.5,0.1h11.8L841.7,688.4l-4,0h-11.8l-45.5,0.1
		l-167.8,0.1l-250.1,0.2H125.2c-3.4,0-6.7,0.1-10.1-0.1c-6.8-0.5-13.4-2.6-19.2-6.3c-0.7-0.4-1.4-0.9-2.1-1.5
		c-0.7-0.5-1.5-1-2.1-1.5l-1.9-1.7l-1-0.9l-0.9-1l-1.8-1.9l-1.5-2.1c-1-1.4-1.9-2.9-2.8-4.4c-3.3-6.1-5.1-12.9-5.1-19.9l0.4-0.4
		h40.8l585.8,0.1l177.6,0.1h1c-0.1-0.1,0.3,0.2,0.2,0.2v0.4v0.5c0,0.7,0,1.3-0.1,1.9c-0.1,1.3-0.2,2.5-0.4,3.7
		c-0.1,0.6-0.2,1.2-0.3,1.8l-0.5,1.8c-0.1,0.6-0.3,1.2-0.4,1.7c-0.2,0.6-0.4,1.1-0.6,1.7c-1.4,4.1-3.5,8-6.2,11.4
		c-2.3,3-4.9,5.6-8,7.8c-2.5,1.8-5.2,3.4-8,4.7c-3.9,1.6-7.9,2.7-12.1,3.2C843.1,688.3,841.7,688.4,841.7,688.4z"/>
	<path class="st3" d="M411,647.6l0.6,0.9c5.9,9.5,16.2,15.4,27.4,15.4h103.9c11.6,0,22.2-6.2,28-16.2l0,0H411z"/>
	<path class="st3" d="M169.5,205H824c6,0,10.8,4.8,10.8,10.8v396.5c0,6.2-5.1,11.3-11.3,11.3H175.4c-20.7,0-37.5-13-37.5-29l0,0
		V229.4C137.9,215.9,152,205,169.5,205L169.5,205z"/>
	<path class="st3" d="M440.2,241.4H292.8c-4,0-7.3-3.3-7.3-7.3l0,0c0-4,3.2-7.2,7.2-7.2c0,0,0.1,0,0.1,0h147.5c4,0,7.2,3.2,7.2,7.2
		c0,0,0,0,0,0l0,0C447.4,238.2,444.2,241.4,440.2,241.4z"/>
	<rect x="527.5" y="240" class="st0" width="225" height="162.5"/>
	<rect x="259.3" y="527.1" class="st0" width="73.9" height="46.1"/>
	<rect x="353.9" y="527.1" class="st0" width="73.9" height="46.1"/>
	<path class="st5" d="M683.3,452.4c0,0.2-18.9,0.4-42.3,0.4c-23.4,0-42.3-0.2-42.3-0.4c0-0.2,18.9-0.4,42.3-0.4
		S683.3,452.2,683.3,452.4z"/>
	<path class="st5" d="M702,473.8c0,0.2-27.3,0.4-61,0.4c-33.7,0-61-0.2-61-0.4s27.3-0.4,61-0.4C674.7,473.5,702,473.6,702,473.8z"/>
	<path class="st5" d="M702,490.7c0,0.2-27.3,0.4-61,0.4c-33.7,0-61-0.2-61-0.4c0-0.2,27.3-0.4,61-0.4
		C674.7,490.3,702,490.4,702,490.7z"/>
	<path class="st5" d="M702,507.4c0,0.2-27.3,0.4-61,0.4c-33.7,0-61-0.2-61-0.4c0-0.2,27.3-0.4,61-0.4C674.7,507,702,507.2,702,507.4
		z"/>
	<path class="st0" d="M728.6,559.8h-55.2c-7.7,0-14-6.3-14-14l0,0c0-7.7,6.3-14,14-14h55.2c7.7,0,14,6.3,14,14l0,0
		C742.6,553.5,736.4,559.8,728.6,559.8C728.6,559.8,728.6,559.8,728.6,559.8z"/>
	<path class="st5" d="M537.1,452.4c-0.6,0.1-1.3,0.2-1.9,0.1l-5.3,0.1c-4.5,0-10.7,0.1-17.5,0.1c-6.8,0-13.1,0-17.6-0.1l-5.3-0.1
		c-0.7,0-1.3,0-1.9-0.1c0.6-0.1,1.3-0.2,1.9-0.1l5.3-0.1c4.5,0,10.7-0.1,17.6-0.1c6.9,0,13.1,0,17.5,0.1l5.3,0.1
		C535.8,452.2,536.5,452.3,537.1,452.4z"/>
	<path class="st5" d="M555.9,473.8c-0.2,0-0.5,0-0.7,0l-2,0.1l-7.3,0.1c-6.2,0.1-14.7,0.1-24.2,0.1c-9.4,0-18,0-24.2-0.1l-7.3-0.1
		l-2-0.1c-0.2,0-0.5,0-0.7,0c0.2-0.1,0.5-0.1,0.7-0.1h2l7.3-0.1c6.2,0,14.7-0.1,24.2-0.1c9.4,0,18,0,24.2,0.1l7.3,0.1h2
		C555.4,473.7,555.7,473.8,555.9,473.8z"/>
	<path class="st5" d="M555.9,490.7c-0.2,0.1-0.5,0.1-0.7,0.1l-2,0.1l-7.3,0.1c-6.2,0.1-14.7,0.1-24.2,0.1c-9.4,0-18,0-24.2-0.1
		l-7.3-0.1l-2-0.1c0,0.2-0.2,0.3-0.4,0.3c-0.2,0-0.3-0.2-0.3-0.4c0-0.2,0.2-0.3,0.4-0.3c0.1,0,0.2,0.1,0.3,0.3h2l7.3-0.1
		c6.2,0,14.7-0.1,24.2-0.1c9.4,0,18,0,24.2,0.1l7.3,0.1h2C555.4,490.6,555.7,490.6,555.9,490.7z"/>
	<path class="st5" d="M555.9,507.4c-0.2,0.1-0.5,0.1-0.7,0.1h-2l-7.3,0.1c-6.2,0-14.7,0.1-24.2,0.1c-9.4,0-18,0-24.2-0.1l-7.3-0.1
		h-2c-0.2,0-0.5,0-0.7-0.1c0.2,0,0.5-0.1,0.7-0.1l2-0.1l7.3-0.1c6.2-0.1,14.7-0.1,24.2-0.1c9.4,0,18,0,24.2,0.1l7.3,0.1l2,0.1
		C555.4,507.3,555.7,507.3,555.9,507.4z"/>
	<path class="st0" d="M582.9,531.8h-35.4v28h35.4c7.7,0,14-6.3,14-14C596.9,538.1,590.6,531.8,582.9,531.8z"/>
	<path class="st3" d="M687.1,425.2h-74.3c-10-0.3-17.8-8.6-17.6-18.6c0.3-9.6,8-17.3,17.6-17.6h74.3c10,0.3,17.8,8.6,17.6,18.6
		C704.4,417.2,696.7,424.9,687.1,425.2z M612.8,390.5c-9.2,0.3-16.4,7.9-16.1,17.1c0.3,8.8,7.3,15.9,16.1,16.1h74.3
		c9.2-0.3,16.4-7.9,16.1-17.1c-0.3-8.8-7.3-15.9-16.1-16.1C687.1,390.5,612.8,390.5,612.8,390.5z"/>
	<path class="st3" d="M605.9,280.5c0,0.2-12.9,0.4-28.9,0.4c-15.9,0-28.9-0.2-28.9-0.4c0-0.2,12.9-0.4,28.9-0.4
		C593,280.2,605.9,280.3,605.9,280.5z"/>
	<path class="st3" d="M757.1,235.4c0,0.2-15.2,0.4-33.9,0.4s-33.9-0.2-33.9-0.4c0-0.2,15.2-0.4,33.9-0.4
		C741.9,235,757.1,235.2,757.1,235.4z"/>
	<ellipse class="st3" cx="656.6" cy="292" rx="16" ry="16.5"/>
	<path class="st3" d="M762.5,366.4l-0.6-0.5l-1.8-1.5l-7-5.5l-25.7-20.3l-17.8-14l-2.4-1.9c-0.8-0.6-1.7-1.1-2.7-1.3
		c-2-0.5-4.2,0-5.8,1.2c-3.2,2.8-6.5,5.9-9.9,9L667.5,351c-1.9,1.7-3.7,3.4-5.6,5.1c-2.1,1.8-5,2.2-7.6,1.2
		c-1.3-0.5-2.4-1.3-3.2-2.3l-2.6-2.9l-5.3-5.8l-20.9-22.6l-9.9-10.8l-4.8-5.2c-0.8-0.9-1.6-1.7-2.4-2.6c-0.7-0.9-1.5-1.7-2.4-2.4
		c-2.6-2.1-6.3-2-8.8,0.2c-0.7,0.7-1.5,1.6-2.2,2.4l-8.5,9.3l-15.3,16.7l-22.2,24.2l-6.1,6.5l-1.6,1.7c-0.2,0.2-0.4,0.4-0.6,0.6
		c0,0,0.2-0.2,0.5-0.6c0.3-0.4,0.9-1,1.5-1.7l6-6.6l22-24.3l15.2-16.8c2.7-3,5.6-6.1,8.5-9.3c0.7-0.8,1.5-1.6,2.3-2.4
		c0.9-0.8,1.9-1.3,3-1.6c2.3-0.6,4.8-0.1,6.7,1.5c0.9,0.8,1.7,1.6,2.5,2.5l2.4,2.6l4.8,5.2l9.9,10.8l20.9,22.7l5.3,5.8
		c0.9,1,1.8,1.9,2.6,2.9c0.8,1,1.8,1.7,2.9,2.2c2.3,0.9,5,0.5,6.9-1.1c1.9-1.7,3.7-3.4,5.6-5.1l21.2-19.4c3.4-3.1,6.6-6.1,9.9-9
		c1.8-1.4,4.1-1.8,6.3-1.3c1.1,0.3,2.1,0.8,2.9,1.5l2.4,1.9l17.7,14.1l25.6,20.5l6.9,5.6l1.8,1.5
		C762.3,366.2,762.5,366.4,762.5,366.4z"/>
	<path class="st5" d="M823.5,624.2H148c-6.5,0-11.7-5.3-11.7-11.7V215.3c0-6.5,5.3-11.7,11.7-11.7h675.5c6.5,0,11.7,5.3,11.7,11.7
		v397.2C835.2,619,830,624.2,823.5,624.2z M148,205.1c-5.7,0-10.3,4.6-10.3,10.3v397.2c0.1,5.6,4.6,10.2,10.3,10.2h675.5
		c5.7,0,10.3-4.6,10.3-10.3V215.3c0-5.7-4.6-10.3-10.3-10.3H148z"/>
	<path class="st7" d="M882.5,647.8c0,0.2-179.1,0.4-400,0.4s-400.1-0.2-400.1-0.4s179.1-0.4,400.1-0.4S882.5,647.6,882.5,647.8z"/>
	<g>
		<rect x="259.3" y="240" class="st0" width="164.3" height="159"/>
		<g>
			<polygon class="st3" points="272.1,385.4 317.5,303.6 354.7,355.9 377.3,328.1 410.9,385.4 			"/>
		</g>
		<g>
			<path class="st3" d="M370.5,287.7c0,6.5-5.3,11.8-11.8,11.9s-11.8-5.3-11.9-11.8s5.3-11.8,11.8-11.9c0,0,0,0,0,0
				C365.2,275.9,370.5,281.1,370.5,287.7z"/>
		</g>
		<path class="st3" d="M410.9,252.5l-138.8-0.1l-0.8,0.8v35.7c0,11.7,0,23.1,0,34.3c0,22.3,0,43.3,0,62.7v0.7h0.7l100.8-0.4
			l28.2-0.2h7.4h1.9h0.6c-0.2,0-0.4,0-0.7,0h-1.9h-7.5l-28.3-0.2l-99.7-0.3c0-19.1,0-40,0-62v-34.6c0-5.8,0-11.7,0-17.7v-17.2
			l137.4-0.1c0.1,39.4,0.3,72.1,0.3,95.3c0,11.6,0.1,20.7,0.2,27c0,3.1,0,5.5,0,7.2c0,0.8,0,1.4,0,1.8s0,0.6,0,0.7
			c0-0.2,0-0.4,0-0.6c0-0.4,0-1,0-1.8c0-1.7,0-4,0-7c0-6.3,0-15.3,0.2-26.8c0-23.3,0.2-56.5,0.3-96.4v-0.7L410.9,252.5z"/>
		<path class="st5" d="M403.1,423.4c0,0.3-27.6,0.6-61.7,0.6s-61.7-0.3-61.7-0.6c0-0.3,27.6-0.6,61.7-0.6S403.1,423.1,403.1,423.4z"
			/>
		<path class="st5" d="M427.8,441.8c0,0.3-37.7,0.6-84.2,0.6s-84.2-0.3-84.2-0.6s37.7-0.6,84.2-0.6
			C390.1,441.3,427.8,441.5,427.8,441.8z"/>
		<path class="st5" d="M427.8,459.7c0,0.3-37.7,0.6-84.2,0.6s-84.2-0.3-84.2-0.6s37.7-0.6,84.2-0.6
			C390.1,459.1,427.8,459.4,427.8,459.7z"/>
		<path class="st5" d="M427.8,477.5c0,0.3-37.7,0.6-84.2,0.6s-84.2-0.3-84.2-0.6s37.7-0.6,84.2-0.6
			C390.1,476.9,427.8,477.1,427.8,477.5z"/>
		<path class="st5" d="M328.9,495.3c0,0.3-15.6,0.6-34.8,0.6c-19.2,0-34.7-0.3-34.7-0.6s15.6-0.6,34.7-0.6
			C313.3,494.7,328.9,495,328.9,495.3z"/>
	</g>
</g>
<g id="Layer_2">
</g>
</svg>
