<?xml version="1.0" encoding="utf-8"?>
<!-- Generator: Adobe Illustrator 26.0.2, SVG Export Plug-In . SVG Version: 6.00 Build 0)  -->
<svg version="1.1" id="Layer_1" xmlns="http://www.w3.org/2000/svg" xmlns:xlink="http://www.w3.org/1999/xlink" x="0px" y="0px"
	 viewBox="0 0 1000 800" style="enable-background:new 0 0 1000 800;" xml:space="preserve">
<style type="text/css">
	.st0{opacity:6.000000e-02;fill:#F9A826;}
	.st1{fill:#FFFFFF;}
	.st2{fill:#E0E0E0;}
	.st3{opacity:0.3;}
	.st4{fill:#CBD6E2;}
	.st5{fill:none;}
	.st6{fill-rule:evenodd;clip-rule:evenodd;fill:#CBD6E2;}
	.st7{fill:#EBEBEB;}
	.st8{fill:#263238;}
	.st9{fill:#F9A826;}
	.st10{fill:#00BDA5;}
	.st11{font-family:'Arial-BoldMT';}
	.st12{font-size:19.4029px;}
	.st13{fill:#F7DF1E;}
	.st14{fill:#2F2E41;}
	.st15{fill:#253342;}
	.st16{fill:#EFF9F8;}
	.st17{fill:#455A64;}
	.st18{fill:#FAFAFA;}
	.st19{fill:#FFBE9D;}
	.st20{fill:#1B2023;}
	.st21{fill:#33475B;}
	.st22{fill:#EB996E;}
	.st23{opacity:0.1;fill:#EFF9F8;}
	.st24{fill:#99ACC2;}
	.st25{fill:#3F3D56;}
	.st26{fill:#E6E6E6;}
	.st27{fill:url(#SVGID_1_);}
	.st28{fill:url(#SVGID_00000137852758794449753980000005859498487120172222_);}
	.st29{opacity:0.4438;fill:url(#SVGID_00000160873625955978025470000009678465872255701888_);enable-background:new    ;}
</style>
<ellipse class="st0" cx="496.3" cy="402.4" rx="420.5" ry="389.9"/>
<g id="freepik--background-complete--inject-48">
	<rect x="113.4" y="178.8" class="st1" width="175.2" height="117.3"/>
	<path class="st2" d="M288.7,296.1v-31.9c0-20.5,0-49.7-0.1-85.4l0.3,0.3H113.6l0.3-0.3v117.3l-0.3-0.3l126.2,0.1l36.1,0.1h0.1h-36
		l-126.5,0.1h-0.3V178.3h175.8v0.3c0,35.8-0.1,65.1-0.1,85.6v29.7C289,294.6,288.9,295.4,288.7,296.1z"/>
	<path class="st2" d="M113.4,189.3c0-0.2,39.2-0.3,87.5-0.3s87.5,0.1,87.5,0.3s-39.2,0.3-87.5,0.3S113.4,189.4,113.4,189.3z"/>
	<g class="st3">
		<path class="st2" d="M134.5,187.3c0,0.9-0.7,1.6-1.6,1.6c-0.9,0-1.6-0.7-1.6-1.6s0.7-1.6,1.6-1.6
			C133.8,185.6,134.5,186.4,134.5,187.3L134.5,187.3z"/>
	</g>
	<g class="st3">
		<circle class="st2" cx="138.5" cy="187.3" r="1.6"/>
	</g>
	<g class="st3">
		<path class="st2" d="M145.7,187.3c0,0.9-0.7,1.6-1.6,1.6c-0.9,0-1.6-0.7-1.6-1.6c0-0.9,0.7-1.6,1.6-1.6
			C145,185.6,145.7,186.4,145.7,187.3z"/>
	</g>
	<rect x="128.5" y="201.5" class="st4" width="46.7" height="46.7"/>
	<path class="st4" d="M264.6,214.7c0,0.2-18.2,0.3-40.7,0.3s-40.7-0.1-40.7-0.3c0-0.2,18.2-0.3,40.7-0.3
		C246.4,214.4,264.6,214.6,264.6,214.7z"/>
	<path class="st4" d="M264.6,223.4c0,0.2-18.2,0.3-40.7,0.3s-40.7-0.1-40.7-0.3s18.2-0.3,40.7-0.3
		C246.4,223.1,264.6,223.2,264.6,223.4z"/>
	<path class="st4" d="M264.6,232.1c0,0.2-18.2,0.3-40.7,0.3s-40.7-0.1-40.7-0.3c0-0.2,18.2-0.3,40.7-0.3
		C246.4,231.8,264.6,231.9,264.6,232.1z"/>
	<path class="st4" d="M231.3,240.7c-0.6,0.1-1.2,0.2-1.9,0.1h-5.2c-4.4,0-10.4,0.1-17,0.1c-6.6,0-12.6,0-17-0.1h-5.2
		c-0.6,0-1.2,0-1.9-0.1c0.6-0.1,1.2-0.1,1.9-0.1l5.2-0.1c4.4,0,10.4,0,17,0c6.6,0,12.6,0,17,0l5.2,0.1
		C230.1,240.6,230.7,240.7,231.3,240.7z"/>
	<rect x="131.4" y="264" class="st4" width="22" height="22"/>
	<rect x="171.2" y="264" class="st4" width="22" height="22"/>
	<rect x="211.1" y="264" class="st4" width="22" height="22"/>
	<rect x="250.9" y="264" class="st4" width="22" height="22"/>
	<path class="st5" d="M714.4,225.8c-1.2,1.7-2.7,3.2-4.4,4.6l1.1,5.7l-8.8,3.9l-3.5-4.7c-2.1,0.3-4.2,0.4-6.3,0.2l-3.2,4.9l-9-3.5
		l0.9-5.8c-1.7-1.2-3.3-2.7-4.6-4.4l-5.7,1.1l-3.9-8.9l4.7-3.5c-0.3-2.1-0.4-4.2-0.2-6.3l-4.9-3.3l3.7-9.1l5.8,0.8
		c1.2-1.7,2.7-3.2,4.4-4.6l-1.2-5.7l8.9-3.9l3.3,4.8c2.1-0.3,4.2-0.4,6.3-0.2l3.3-4.9l9,3.5l-0.9,5.8c1.7,1.2,3.3,2.7,4.6,4.4
		l5.7-1.1l3.9,8.9l-4.7,3.5c0.3,2.1,0.4,4.2,0.1,6.3l4.9,3.3l-3.5,9L714.4,225.8L714.4,225.8z M704.6,216c2.1-5.4-0.6-11.4-6-13.4
		c-5.4-2.1-11.4,0.6-13.4,6c-2,5.3,0.6,11.3,6,13.4C696.6,224,702.6,221.4,704.6,216v-0.1V216z"/>
	<path class="st4" d="M704.7,215.9c-0.2,0.8-0.6,1.6-1.1,2.3c-2.3,3.4-6.4,5.1-10.5,4.4c-1.9-0.3-3.6-1.2-5.1-2.4
		c-0.8-0.7-1.5-1.4-2-2.3c-0.6-0.9-1-1.9-1.3-2.9c-0.6-2.2-0.5-4.5,0.3-6.6c0.8-2.1,2.3-3.9,4.2-5.2c0.9-0.6,1.9-1,2.9-1.3
		c1-0.3,2-0.4,3-0.4c3.6,0.1,7,2,8.8,5.2c1.2,2,1.7,4.5,1.4,6.8C705.3,214.4,705,215.2,704.7,215.9c0.3-0.8,0.4-1.6,0.5-2.4
		c0.2-2.3-0.3-4.6-1.5-6.5c-2.8-4.9-9-6.6-13.8-3.8s-6.6,9-3.8,13.8c0.1,0.2,0.3,0.5,0.5,0.7c2.4,3.8,7,5.6,11.3,4.4
		c2.2-0.6,4.2-2,5.6-3.9C703.9,217.5,704.3,216.7,704.7,215.9z"/>
	<path class="st4" d="M714.4,225.8h0.4l1.1,0.1l4.3,0.6h-0.1l3.4-9v0.2l-4.9-3.3l0,0l0,0c0.2-2.1,0.2-4.2-0.2-6.3V208h0.1l4.7-3.5
		v0.3l-4-9l0.2,0.1l-5.7,1.2h-0.2l-0.1-0.1c-1.3-1.6-2.8-3.1-4.5-4.3h-0.1v-0.1c0.3-1.9,0.5-3.7,0.8-5.8l0.1,0.3l-9-3.5h0.3
		l-3.2,4.8l-0.1,0.1h-0.2c-2.1-0.2-4.2-0.2-6.2,0.1h-0.1l-0.1-0.1l-3.6-4.7h0.4l-8.8,3.9l0.1-0.3c0.4,1.9,0.8,3.7,1.1,5.7v0.2
		l-0.1,0.1c-1.6,1.3-3.1,2.8-4.3,4.5l0,0l-0.3,0.1h-0.7l-0.7-0.1l-1.5-0.2l-2.9-0.4l0.3-0.2l-3.3,9l-0.1-0.4l4.9,3.3h0.1v0.2
		c-0.2,2.1-0.2,4.2,0.1,6.2v0.2l-0.1,0.1l-4.7,3.6l0.1-0.4c1.3,3,2.6,6,3.9,8.9l-0.3-0.2l5.7-1.1h0.2l0.1,0.1
		c1.3,1.6,2.8,3.1,4.5,4.3h0.1v0.2c-0.3,2-0.6,3.9-0.9,5.8l-0.1-0.3l9,3.5h-0.3l3.3-4.9v-0.1h0.1c2.1,0.2,4.2,0.2,6.3-0.1h0.1l0,0
		l3.5,4.7h-0.2l8.9-3.9v0.1c-0.4-2.3-0.8-4.2-1.1-5.8l0,0c1.3-1,2.4-2.1,3.4-3.3l0.7-0.9l0.3-0.3l-0.2,0.3c-0.1,0.2-0.4,0.5-0.7,0.9
		c-1,1.2-2.1,2.4-3.3,3.4l0,0c0.3,1.6,0.7,3.4,1.2,5.7l0,0h-0.1l-8.9,4.1l0,0l-0.1-0.1l-3.6-4.7h0.2c-2.1,0.3-4.2,0.4-6.4,0.2h0.2
		l-3.2,4.9l-0.1,0.1h-0.2l-9-3.5h-0.1v-0.2c0.3-1.9,0.6-3.8,0.8-5.8l0.1,0.3c-1.7-1.3-3.3-2.7-4.6-4.4h0.3l-5.7,1.2h-0.2l-0.1-0.2
		l-3.9-8.8l-0.1-0.2l0.2-0.1l4.7-3.5l-0.1,0.3c-0.3-2.1-0.4-4.3-0.2-6.4l0.1,0.3l-4.9-3.3l-0.2-0.1v-0.2l3.5-9l0.1-0.2h0.2l2.9,0.4
		l1.4,0.2l0.7,0.1h0.7c-0.6,0.2-0.1,0-0.3,0.1l0,0c1.3-1.7,2.8-3.2,4.5-4.5l-0.1,0.3l-1.1-5.7v-0.2h0.2l8.9-3.9h0.2l0.1,0.2
		c1.2,1.6,2.4,3.3,3.5,4.7h-0.3c2.1-0.3,4.3-0.4,6.4-0.2l-0.3,0.1l3.3-4.9l0.1-0.2h0.2l9,3.5h0.2v0c-0.3,2-0.6,4-0.9,5.8V192
		c1.7,1.2,3.3,2.7,4.6,4.4h-0.2l5.7-1.1h0.2l0.1,0.2c1.4,3.1,2.7,6.1,3.9,8.9v0.1l-0.1,0.1l-4.7,3.5v-0.2c0.3,2.1,0.4,4.3,0.1,6.4
		v-0.2l4.9,3.3h0.1v0.1l-3.5,9l0,0l0,0l-4.3-0.7l-1.1-0.2L714.4,225.8z"/>
	<path class="st6" d="M766,198.3c-1,1.4-2.3,2.6-3.6,3.7l0.9,4.8l-7.3,3.3l-2.9-3.9c-1.7,0.3-3.5,0.3-5.2,0.1l-2.6,4.1l-7.4-2.9
		l0.7-4.8c-1.4-1.1-2.6-2.3-3.7-3.7l-4.8,0.9l-3.3-7.3l3.6-2.8c-0.2-1.7-0.2-3.4,0-5.2l-4-2.7l2.9-7.4l4.8,0.7
		c1-1.4,2.2-2.6,3.6-3.7l-0.9-4.8l7.3-3.3l2.9,3.9c1.7-0.3,3.5-0.3,5.2-0.1l2.7-4l7.4,2.9l-0.7,4.8c1.4,1,2.6,2.2,3.7,3.6l4.8-0.9
		l3.3,7.4l-3.9,2.9c0.3,1.7,0.3,3.5,0.1,5.2l4,2.7l-2.9,7.4l-4.8-0.7L766,198.3z M757.8,190.1c1.7-4.4-0.5-9.4-4.9-11.2
		c-4.4-1.7-9.4,0.5-11.2,4.9c-1.7,4.4,0.5,9.4,4.9,11.2c0,0,0,0,0,0l0,0C751,196.7,756,194.5,757.8,190.1L757.8,190.1L757.8,190.1z"
		/>
	<path class="st6" d="M734.3,153.5c-1.6,2.2-3.5,4.2-5.6,6l1.5,7.4l-11.5,5.1l-4.6-6c-2.7,0.4-5.5,0.5-8.2,0.2l-4.2,6.3l-11.7-4.7
		l1.1-7.4c-2.2-1.6-4.2-3.5-6-5.6l-7.4,1.5l-5.1-11.5l6.1-4.6c-0.4-2.7-0.5-5.4-0.2-8.2l-6.3-4.2l4.5-11.8l7.4,1.1
		c1.6-2.2,3.5-4.3,5.6-6l-1.5-7.4l11.5-5.1l4.6,6c2.7-0.4,5.5-0.5,8.2-0.2l4.2-6.3l11.8,4.5l-1,7.6c2.2,1.6,4.2,3.5,5.9,5.6l7.4-1.5
		l5.1,11.5l-6.1,4.6c0.4,2.7,0.5,5.4,0.2,8.2l6.3,4.4l-4.5,11.8L734.3,153.5L734.3,153.5z M721.6,140.7c2.7-7-0.8-14.8-7.8-17.5
		c-7-2.7-14.8,0.8-17.5,7.8c-2.7,7,0.8,14.8,7.8,17.5c0,0,0,0,0,0l0,0C711.1,151.1,718.9,147.6,721.6,140.7L721.6,140.7z"/>
	<path class="st4" d="M618.8,91.1c0.3-0.3,0.6-0.7,0.9-0.9l2.5-2.5c2.1-2.1,5.1-4.9,8.3-8.1h0.1V80c-3.3-3.1-6.3-5.9-8.4-7.9
		l-2.5-2.4c-0.3-0.3-0.6-0.6-0.9-1c0.4,0.2,0.7,0.5,1,0.8l2.6,2.3c2.2,1.9,5.2,4.7,8.5,7.8l0.2,0.2l-0.2,0.2l-0.1,0.1
		c-3.3,3.1-6.3,5.9-8.4,7.9l-2.6,2.4C619.4,90.7,619.1,90.9,618.8,91.1z"/>
	<path class="st4" d="M593.2,68.6c-0.3,0.4-0.6,0.7-0.9,1l-2.4,2.5c-2.1,2.1-5.1,4.9-8.4,8.1l0,0v-0.4l8.4,7.9l2.5,2.5
		c0.3,0.3,0.6,0.6,0.9,0.9c-0.4-0.2-0.7-0.5-1-0.8c-0.7-0.6-1.6-1.4-2.6-2.3c-2.2-2-5.2-4.7-8.5-7.8l-0.2-0.2l0.2-0.2l0,0
		c3.3-3.1,6.3-6,8.5-8l2.6-2.3C592.6,69.1,592.9,68.8,593.2,68.6z"/>
	<path class="st4" d="M599.8,96.4c-0.1,0,2.5-7.6,6-16.7s6.4-16.7,6.5-16.6c0.2,0.1-2.5,7.6-6,16.7C602.8,89,599.9,96.5,599.8,96.4z
		"/>
	<path class="st4" d="M647.8,112.6V94c0-11.8,0-28.7-0.1-49.1l0.2,0.2h-83.1l0.3-0.3v67.7l-0.3-0.3l60,0.1H642h-17l-60.1,0.1h-0.2
		V44.3h83.6v0.2c0,20.5-0.1,37.4-0.1,49.2v17.3C648.2,111.6,648,112.1,647.8,112.6z"/>
	<path class="st4" d="M648.4,54.9c0,0.2-18.8,0.3-41.9,0.3s-41.8-0.1-41.8-0.3s18.8-0.3,41.9-0.3C629.8,54.6,648.4,54.8,648.4,54.9z
		"/>
	<path class="st4" d="M571.5,50c0,0.6-0.5,1.1-1.1,1.1c0,0,0,0,0,0l0,0c-0.6,0-1.1-0.5-1.2-1.1c0-0.6,0.5-1.1,1.1-1.2
		C571,48.8,571.5,49.3,571.5,50C571.5,50,571.5,50,571.5,50z"/>
	<circle class="st4" cx="574.5" cy="50" r="1.1"/>
	<path class="st4" d="M579.6,50c0,0.6-0.5,1.1-1.1,1.2c-0.6,0-1.1-0.5-1.2-1.1c0-0.6,0.5-1.1,1.1-1.2c0,0,0,0,0,0
		C579.1,48.9,579.6,49.4,579.6,50C579.6,50,579.6,50,579.6,50z"/>
	<rect x="295.1" y="77.5" class="st1" width="192.1" height="78"/>
	<path class="st2" d="M487.2,155.5v-20.9c0-13.5,0-32.9-0.1-57.1l0.2,0.2l-192.1,0.1l0,0l0.1-0.4v78l-0.3-0.3l137.7,0.1h39.9h-39.8
		L295,155.5h-0.3V76.9h192.7v0.5c0,24.2-0.1,43.7-0.1,57.2V155.5z"/>
	<path class="st2" d="M295.4,88c0-0.2,42.9-0.3,95.9-0.3s95.9,0.1,95.9,0.3s-42.9,0.3-95.9,0.3S295.4,88.2,295.4,88z"/>
	<g class="st3">
		<path class="st7" d="M303.4,83.3c0,0.8-0.6,1.4-1.4,1.4l0,0c-0.8,0-1.4-0.6-1.4-1.4s0.6-1.4,1.4-1.4
			C302.7,81.9,303.4,82.5,303.4,83.3C303.4,83.3,303.4,83.3,303.4,83.3z"/>
	</g>
	<g class="st3">
		<path class="st7" d="M308.1,83.3c0,0.8-0.6,1.4-1.4,1.4c0,0,0,0,0,0l0,0c-0.8,0-1.4-0.6-1.4-1.4c0-0.8,0.6-1.4,1.4-1.4
			C307.5,81.9,308.1,82.6,308.1,83.3C308.1,83.3,308.1,83.3,308.1,83.3z"/>
	</g>
	<g class="st3">
		<circle class="st7" cx="311.5" cy="83.3" r="1.4"/>
	</g>
	<rect x="311.5" y="100.7" class="st4" width="46.4" height="46.4"/>
	<path class="st4" d="M473.9,113.1c0,0.2-23.9,0.3-53.3,0.3c-29.4,0-53.3-0.1-53.3-0.3c0-0.2,23.9-0.3,53.3-0.3
		S473.9,113,473.9,113.1z"/>
	<path class="st4" d="M473.9,122.6c0,0.2-23.9,0.3-53.3,0.3c-29.4,0-53.3-0.1-53.3-0.3s23.9-0.3,53.3-0.3S473.9,122.4,473.9,122.6z"
		/>
	<path class="st4" d="M435.9,132c-0.2,0-0.5,0-0.7,0h-2l-7.3,0.1h-24.3h-24.3L370,132h-2c-0.2,0-0.5,0-0.7,0h2.7h7.3h48.6h7.3H435.9
		L435.9,132z"/>
</g>
<g id="freepik--Floor--inject-48">
	<path class="st8" d="M815.3,733c0,0.2-163.3,0.4-364.6,0.4S86,733.2,86,733c0-0.2,163.2-0.4,364.6-0.4S815.3,732.7,815.3,733z"/>
</g>
<g id="freepik--Screens--inject-48">
	<rect x="773.3" y="343.1" class="st9" width="101.6" height="72.4"/>
	<path class="st1" d="M875.7,353.9c0,0.2-22.9,0.3-51.2,0.3s-51.2-0.1-51.2-0.3s22.9-0.3,51.2-0.3S875.7,353.7,875.7,353.9z"/>
	<path class="st1" d="M781.6,348.6c-0.1,0.8-0.8,1.3-1.6,1.1c-0.6-0.1-1-0.6-1.1-1.1c0.1-0.8,0.8-1.3,1.6-1.1c0,0,0,0,0,0
		C781.1,347.5,781.5,348,781.6,348.6z"/>
	<path class="st1" d="M786.6,348.6c0.1,0.8-0.4,1.5-1.1,1.6c-0.8,0.1-1.5-0.4-1.6-1.1c-0.1-0.8,0.4-1.5,1.1-1.6c0.1,0,0.3,0,0.4,0
		C786.1,347.5,786.5,348,786.6,348.6z"/>
	<path class="st1" d="M791.6,348.6c0,0.8-0.6,1.4-1.3,1.5c-0.7,0-1.3-0.4-1.4-1.1c-0.1-0.8,0.4-1.5,1.2-1.6c0,0,0,0,0,0h0.2
		C790.9,347.4,791.5,347.9,791.6,348.6z"/>
	<rect x="108.2" y="342.1" class="st9" width="74.9" height="53.4"/>
	<path class="st1" d="M183.7,350c0,0.1-16.9,0.2-37.8,0.2s-37.8-0.1-37.8-0.2c0-0.1,16.9-0.2,37.8-0.2S183.7,349.9,183.7,350z"/>
	<path class="st1" d="M114.3,346.1c-0.1,0.6-0.6,0.9-1.2,0.8c-0.4-0.1-0.7-0.4-0.8-0.8l0,0c0-0.5,0.5-0.9,1-0.9l0,0
		C113.8,345.2,114.2,345.6,114.3,346.1C114.3,346.1,114.3,346.1,114.3,346.1L114.3,346.1z"/>
	<path class="st1" d="M118,346.1c0.1,0.6-0.3,1.1-0.9,1.2c-0.6,0.1-1.1-0.3-1.2-0.9c-0.1-0.6,0.3-1.1,0.9-1.2c0.1,0,0.2,0,0.3,0
		C117.5,345.3,117.9,345.7,118,346.1z"/>
	<path class="st1" d="M121.6,346.1c0.1,0.6-0.3,1.1-0.8,1.2c-0.6,0.1-1.1-0.3-1.2-0.8c0,0,0-0.1,0-0.1c-0.1-0.5,0.3-1.1,0.9-1.1
		c0,0,0,0,0,0h0.1C121.1,345.2,121.6,345.6,121.6,346.1z"/>
	<path class="st10" d="M864.9,205.4c-0.1-7.8,6.1-14.1,13.8-14.3c0,0,0,0,0,0h0.7c3.7-0.2,7.3,1.1,10,3.7l-1.3,1.3
		c-2.3-2.2-5.4-3.4-8.6-3.3c-6.8-0.6-12.8,4.4-13.4,11.1c-0.6,6.8,4.4,12.8,11.1,13.4c0.3,0,0.6,0,0.9,0.1c0.5,0,0.9,0,1.4,0
		c3.2,0.1,6.3-1.1,8.6-3.4l1.3,1.3c-2.6,2.6-6.3,4.1-10,3.9c-7.7,0.3-14.2-5.7-14.5-13.4c0,0,0,0,0,0V205.4z"/>
	<path class="st10" d="M893.3,215.8l0.9-1.5c2.5,2.3,5.9,3.6,9.3,3.5c5.7,0,8.1-2.5,8.1-5.6c0-8.4-17.5-3.4-17.5-13.7
		c0-4,3-7.4,9.9-7.4c3,0,6,0.8,8.5,2.5l-0.7,1.6c-2.3-1.5-5-2.3-7.7-2.3c-5.5,0-7.9,2.5-7.9,5.7c0,8.4,17.5,3.4,17.5,13.6
		c0,4-3.2,7.4-10.1,7.4C899.7,219.8,896,218.4,893.3,215.8z"/>
	<path class="st10" d="M917.7,215.8l0.9-1.5c2.5,2.3,5.9,3.6,9.3,3.5c5.7,0,8.1-2.5,8.1-5.6c0-8.4-17.5-3.4-17.5-13.7
		c0-4,3-7.4,9.9-7.4c3,0,6,0.9,8.5,2.5l-0.8,1.6c-2.3-1.5-5-2.3-7.7-2.3c-5.5,0-7.9,2.5-7.9,5.7c0,8.4,17.5,3.4,17.5,13.6
		c0,4-3.2,7.4-10.1,7.4C924.2,219.8,920.5,218.4,917.7,215.8z"/>
	<path class="st10" d="M961.9,241.8v-5.8c0-3.7,0-9.3-0.1-16.2c0-14-0.1-34.2-0.2-58.8l0.4,0.4H837l0.5-0.5v80.8l-0.4-0.5l89.9,0.2
		l25.8,0.1h0.2l-25.7,0.1l-90.2,0.2h-0.5v-81.3h0.5l125,0.1h0.4v0.4c0,24.7-0.2,44.9-0.2,59c0,7,0,12.4,0,16.2v4.2
		C962.2,241,962.1,241.4,961.9,241.8z"/>
	<path class="st10" d="M961.9,173.1c0,0.3-27.9,0.5-62.6,0.5c-34.7,0-62.6-0.1-62.6-0.5c0-0.4,28.1-0.5,62.7-0.5
		S961.9,172.8,961.9,173.1z"/>
	<path class="st10" d="M846.1,167.2c0.1,0.8-0.5,1.6-1.3,1.7c0,0,0,0,0,0c-0.8,0.1-1.6-0.5-1.7-1.3c-0.1-0.8,0.5-1.6,1.3-1.7h0.2
		C845.4,165.8,846.1,166.4,846.1,167.2C846.1,167.2,846.1,167.2,846.1,167.2z"/>
	<path class="st10" d="M851.7,167.2c0.1,0.8-0.5,1.6-1.3,1.7c-0.8,0.1-1.6-0.5-1.7-1.3c-0.1-0.8,0.5-1.6,1.3-1.7c0,0,0,0,0,0h0.2
		C851,165.8,851.7,166.4,851.7,167.2z"/>
	<path class="st10" d="M857.2,167.2c0.1,0.8-0.5,1.6-1.3,1.7c-0.8,0.1-1.6-0.5-1.7-1.3c-0.1-0.8,0.5-1.6,1.3-1.7c0,0,0,0,0,0h0.2
		C856.5,165.8,857.2,166.4,857.2,167.2z"/>
	<text transform="matrix(1 0 0 1 798.3571 386.7395)" class="st1 st11 st12">HTML</text>
	<g>
		<path class="st13" d="M310,99.3h49.3v49.3H310V99.3z"/>
		<path d="M323,140.5l3.8-2.3c0.7,1.3,1.4,2.4,3,2.4c1.5,0,2.5-0.6,2.5-2.9v-15.7h4.6v15.8c0,4.8-2.8,7-6.9,7
			C326.2,144.7,324.1,142.8,323,140.5"/>
		<path d="M339.4,140l3.8-2.2c1,1.6,2.3,2.8,4.6,2.8c1.9,0,3.1-1,3.1-2.3c0-1.6-1.3-2.2-3.4-3.1l-1.2-0.5c-3.3-1.4-5.6-3.2-5.6-7
			c0-3.5,2.6-6.1,6.8-6.1c2.9,0,5.1,1,6.6,3.7l-3.6,2.3c-0.8-1.4-1.7-2-3-2c-1.4,0-2.2,0.9-2.2,2c0,1.4,0.9,2,2.8,2.8l1.2,0.5
			c3.9,1.7,6.2,3.4,6.2,7.3c0,4.2-3.3,6.5-7.7,6.5C343.5,144.7,340.7,142.6,339.4,140"/>
	</g>
</g>
<g id="freepik--Character--inject-48">
	<path class="st14" d="M458.1,269c-0.6-0.6-1.4-1-2.2-1l0.5-1.5c0.6-1.5-0.2-3.1-1.7-3.7c-0.5-0.2-1-0.2-1.5-0.1l-2,0.4l0.2-1.3
		c0.2-1.6-0.9-3-2.4-3.3c-0.5-0.1-1,0-1.4,0.2c-0.9,0.3-1.8,0.3-2.6-0.2c-0.8-0.4-1.4-1.2-1.6-2.1l-0.7-3.3l-0.1-0.2
		c-3.4-5.6-9.9-9.7-17.8-11.2c-7.1-1.3-14.3-0.7-21.3,0c-2.8,0.3-5.9,0.6-8.5,2.2c-2.2,1.4-4.1,4.1-3.7,6.9
		c-6.9-2.1-14.3,2.1-17.9,7.4c-4.3,6.3-5.1,14.3-5.2,20.5c-0.3,14.7,2.7,26.7,9,35.7c0.5,0.7,0.6,2,1.5,2.5l-0.2-0.3
		c1,0.5,2,1.3,1.7,2.2c-1.1,2.5,6.2,8.1,11.4,9.9c9.4,3.4,21.9,3.1,30.7,1.9l0.3-2.1c3.2-0.4,5.4-1.3,6-2.5c1.1-0.9,2.1-1.8,2.9-2.6
		l0,0c0,0,0,0,0.1-0.1c4-3.8,4.9-6,5.3-9.3c0.4-3.2-0.3-6.5-1-9.5c15.3,2.4-6-16.3,8.2-19.9c0.2-0.1,0.3-0.1,0.5-0.1
		c0.4-0.1,0.8-0.2,1.2-0.3c1.9-0.5,3.8-1.3,5.5-2.3c4-2.4,5.3-5.6,7.4-9.3C459.1,271.2,459,269.9,458.1,269z"/>
	<path class="st15" d="M283.5,455.6l40.2,135.6c1.8,6,7.3,10.2,13.6,10.2l163.1,0.4c8.3,0,15.1-6.7,15.1-15.1c0-0.3,0-0.5,0-0.8l0,0
		c-0.4-8-7-14.3-15-14.3h-62.4l-49.9-139.2h-87.4c-9.9,0-17.9,8-18,17.9C282.7,452.1,283,453.9,283.5,455.6L283.5,455.6z"/>
	<path class="st16" d="M421.5,582.7c0,0.3-16.6,0.6-37.2,0.6c-20.6,0-37.2-0.2-37.2-0.6s16.6-0.6,37.2-0.6
		C404.9,582.1,421.5,582.4,421.5,582.7z"/>
	<path class="st16" d="M295.5,436.7c0.3,0,11.4,32.4,24.8,72.6s24,72.8,23.7,72.9c-0.3,0.1-11.4-32.3-24.8-72.6
		S295.1,436.8,295.5,436.7z"/>
	<polygon class="st17" points="414.7,731.1 404.7,730.8 404.7,597.6 414.7,597.6 	"/>
	<polygon class="st17" points="358.6,732.6 461.8,732.6 415.1,716.3 404,716.3 	"/>
	<path class="st9" d="M340,397.6l15.3,76.5l-2.7,57.3l102.9-17.1l-4-50.2l-0.1-41.5l25.2,48.9l19.6-38l-36-65.1l0,0
		c-6.5-6.8-14.6-12.1-23.5-15.2c-4.7-1.7-9.7-2.7-14.8-2.8l0,0c-11.6,3.7-24,3.7-35.6,0l-6,0.7H380c-21.8,2.8-38.6,20.8-39.7,42.8
		L340,397.6z"/>
	<path class="st9" d="M380.4,351c0,0-42.3,0.3-47.5,45l-0.7,32.8l36.4-0.3L380.4,351z"/>
	<path class="st18" d="M481.5,408.4c0,0.3-33.3,0.6-74.3,0.6s-74.2-0.3-74.2-0.6c0-0.3,33.2-0.6,74.3-0.6S481.5,408.1,481.5,408.4z"
		/>
	<path class="st18" d="M481.5,415.5c0,0.3-33.3,0.6-74.3,0.6s-74.4-0.3-74.4-0.6s33.3-0.6,74.4-0.6S481.5,415.3,481.5,415.5z"/>
	<path class="st18" d="M479.1,402.6c0,0.3-32.7,0.6-73.1,0.6s-73.1-0.3-73.1-0.6c0-0.3,32.7-0.6,73.1-0.6S479.1,402.3,479.1,402.6z"
		/>
	<path class="st8" d="M450.9,471.5c-0.3,0-0.2-18.1,0.3-40.4s1.2-40.4,1.5-40.4c0.3,0,0.2,18.1-0.3,40.4
		C451.8,453.4,451.2,471.5,450.9,471.5z"/>
	<path class="st19" d="M436.4,442.1c0,0,20,1.4,23.6,6.7c3.6,5.3,9.1,20.4,7,20.5c-1.3,0.1-2.6-0.3-3.6-1.1l-5.5-9.7
		c0,0,0.9,9.3-2.4,9.6c-3.3,0.3-19.6,3.4-19.6,3.4L436.4,442.1z"/>
	<path class="st9" d="M332.2,420v51.6c0.6,10.8,9.9,19.1,20.8,18.5c1-0.1,2-0.2,2.9-0.4l80.6-16.7l-0.1-33l-69.6,13.4l-0.9-35
		L332.2,420z"/>
	<path class="st8" d="M378.2,485.5c0.3-0.1,0.7-0.2,1.1-0.3l3.1-0.7l11.9-2.5l42-8.6l-0.4,0.5v-34l0.7,0.6l-14.2,2.7l-55.4,10.5
		l-0.6,0.1v-0.5c0.5-15.4,1-28.1,1.3-37.2c0.2-4.4,0.3-7.9,0.4-10.4c0-1.1,0.1-2,0.1-2.7c0-0.3,0-0.6,0.1-0.9c0,0.3,0,0.6,0,0.9v2.7
		c0,2.5,0,6-0.1,10.4c-0.2,9.1-0.5,21.8-0.9,37.2l-0.6-0.5l55.4-10.8l14.3-2.7l0.7-0.1v35.1l-0.4,0.1l-42.1,8.1l-11.9,2.2l-3.1,0.6
		C379.1,485.5,378.6,485.5,378.2,485.5z"/>
	<path class="st8" d="M424.5,351c0.1,0.2,0.2,0.5,0.3,0.7c0.3,0.7,0.5,1.5,0.6,2.3c0.6,2.9,0.4,5.8-0.4,8.7c-1.3,4.2-3.7,7.9-7,10.8
		c-4,3.6-9.3,5.6-14.7,5.6c-5.4,0.1-10.7-2-14.5-5.9c-3-3.2-4.9-7.3-5.4-11.7c-0.4-2.9,0-5.9,1-8.6c0.3-0.7,0.6-1.5,1-2.1
		c0.3-0.5,0.4-0.7,0.5-0.7c0,0-0.5,1-1.1,2.9c-0.8,2.7-1,5.6-0.6,8.4c0.6,4.2,2.4,8,5.4,11.1c3.7,3.6,8.6,5.6,13.7,5.5
		c5.1,0,10.1-1.8,14-5.2c3.2-2.7,5.6-6.3,6.9-10.3c0.9-2.7,1.1-5.6,0.7-8.4C424.7,352,424.4,351,424.5,351z"/>
	<path class="st18" d="M428.4,475.8c-0.2-1.7-0.2-3.4,0-5.1c0.1-3.1,0.3-7.4,0.3-12.2c0-4.8,0-9.1-0.2-12.2c-0.2-1.7-0.2-3.4,0-5.1
		c0.5,1.6,0.7,3.3,0.8,5c0.3,3.1,0.5,7.4,0.5,12.3c0,4.9-0.3,9.1-0.6,12.3C429.1,472.5,428.8,474.2,428.4,475.8z"/>
	<path class="st18" d="M424.2,476.7c-0.2-1.7-0.3-3.4-0.1-5.1c0-3.6,0-7.7,0.1-12.1v-12.2c-0.1-1.7-0.1-3.4,0.2-5
		c0.4,1.6,0.6,3.3,0.6,5c0.2,3.1,0.4,7.4,0.4,12.2c0,4.7-0.2,9.1-0.5,12.2C424.9,473.3,424.6,475,424.2,476.7z"/>
	<path class="st20" d="M505,681.5l15.2,42l21.6,29.8c1.5,2.1,1,4.9-1,6.4c0,0,0,0,0,0l-0.2,0.1l0,0c-1.3,0.8-2.8,0.9-4.2,0.4
		c-8.7-3.6-40.7-17.1-41.7-20.2c-1.1-3.6-21.8-48.8-21.8-48.8L505,681.5z"/>
	<path class="st8" d="M524,745.3c0.5-1.7,1.3-3.2,2.4-4.6c1.3-1.2,2.8-2.1,4.4-2.8c0-0.3-0.7-0.2-1.7,0c-2.7,0.7-4.8,3-5.3,5.7
		C523.8,744.7,523.8,745.3,524,745.3z"/>
	<path class="st8" d="M529.1,749.7c0.3,0.1,1.1-1.8,3-3.2c1.2-0.8,2.5-1.5,3.9-2.1c-1.6-0.3-3.3,0.2-4.4,1.3
		C529.4,747.4,528.9,749.7,529.1,749.7z"/>
	<path class="st8" d="M515.7,740.3c1.3-1.9,2.7-3.6,4.3-5.3c1.8-1.4,3.6-2.7,5.6-3.9c0-0.3-3.3,0.4-6.3,3.1
		C517.4,735.8,516.1,737.9,515.7,740.3z"/>
	<path class="st8" d="M510,727.9c0.2,0.2,2.1-1.7,5.1-2.9s5.6-1.5,5.6-1.9c-2-0.4-4.1-0.1-6,0.9C512.7,724.8,511.1,726.1,510,727.9z
		"/>
	<path class="st8" d="M505.2,715.7c1.6-1.3,3.3-2.4,5.2-3.2c2-0.5,4-0.8,6.1-0.8c0-0.3-0.6-0.5-1.9-0.7c-3.1-0.4-6.3,0.7-8.5,3
		C505.4,715,505.2,715.6,505.2,715.7z"/>
	<path class="st8" d="M509.4,710.2c-0.1-0.5-0.3-1.1-0.6-1.5c-0.7-1.4-1.7-2.7-2.8-3.7c-0.8-0.8-1.9-1.4-3-1.5
		c-0.8-0.1-1.5,0.4-1.9,1.1c-0.3,0.7-0.3,1.4,0,2.1c1.3,2.9,4.5,4.4,7.5,3.6c2.9-0.8,5.1-3.3,5.5-6.3c0.1-0.8-0.2-1.5-0.7-2.1
		c-0.6-0.5-1.4-0.6-2.1-0.2c-0.9,0.6-1.7,1.5-2.2,2.5c-0.8,1.4-1.3,2.8-1.5,4.4c-0.1,0.6-0.1,1.1,0,1.7c0.5-2,1.2-3.9,2.3-5.7
		c0.5-0.9,1.1-1.6,2-2.1c0.4-0.2,0.8-0.2,1.2,0.1c0.3,0.4,0.4,0.9,0.4,1.4c-0.4,2.6-2.3,4.7-4.8,5.4c-2.5,0.7-5.2-0.6-6.4-2.9
		c-0.2-0.5-0.3-1-0.1-1.5c0.2-0.4,0.6-0.6,1-0.6c1,0.1,1.8,0.6,2.5,1.2C507.2,706.8,508.5,708.4,509.4,710.2z"/>
	<path class="st20" d="M569.3,679.8l-1.3,34.1c0,0,34.2,12.8,34.6,19.1l-66.2-0.2l-0.2-53.2L569.3,679.8z"/>
	<path class="st8" d="M569.1,711.7c0,0.3-1.6,0.5-3.2,1.5c-1.6,1.1-2.5,2.4-2.7,2.3s0.2-2,2.1-3.2
		C567.2,711.1,569.1,711.4,569.1,711.7z"/>
	<path class="st8" d="M576,714.6c0,0.3-1.3,0.9-2.4,2.2s-1.4,2.8-1.7,2.8s-0.5-1.9,0.9-3.5C574.2,714.5,576,714.3,576,714.6z"/>
	<path class="st8" d="M579.9,723c-0.3,0-0.7-1.5,0.1-3.3c0.9-1.8,2.3-2.5,2.5-2.2c0.1,0.3-0.8,1.2-1.5,2.7
		C580.2,721.6,580.3,722.9,579.9,723z"/>
	<path class="st8" d="M568.4,696.5c-0.1,0.3-1.6-0.1-3.4,0s-3.3,0.7-3.4,0.4s1.2-1.4,3.4-1.5C567.1,695.3,568.7,696.2,568.4,696.5z"
		/>
	<g class="st3">
		<polygon points="569.1,677.3 568.8,683.3 536.3,683 536.2,677.5 		"/>
	</g>
	<path class="st8" d="M568.6,689.6c-1.1,0.3-2.2,0.3-3.3,0c-1.2-0.2-2.4-0.6-3.5-1.1c-0.6-0.3-1.3-0.6-1.9-1c-0.4-0.2-0.7-0.5-1-0.8
		c-0.4-0.5-0.5-1.2-0.1-1.7c0.3-0.4,0.9-0.7,1.4-0.7c0.4,0,0.8,0.1,1.2,0.2c0.7,0.2,1.4,0.4,2.1,0.7c1.1,0.5,2.2,1.2,3.1,2
		c1.5,1.4,2.1,2.6,2,2.7c-0.1,0.1-0.9-0.9-2.5-2.1c-0.9-0.7-1.9-1.2-3-1.7c-0.6-0.2-1.2-0.4-1.9-0.6c-0.7-0.2-1.3-0.2-1.5,0.1
		c-0.2,0.3,0,0.2,0,0.4c0.2,0.2,0.5,0.4,0.7,0.6c0.6,0.4,1.2,0.7,1.9,1c1,0.5,2.1,0.9,3.2,1.2C566.6,689,567.7,689.3,568.6,689.6z"
		/>
	<path class="st8" d="M568.2,690.1c-0.6-1-0.9-2.1-0.9-3.2c-0.1-1.3,0.1-2.5,0.5-3.7c0.2-0.7,0.5-1.4,0.8-2c0.4-0.9,1.2-1.5,2.1-1.7
		c0.6,0,1.2,0.4,1.4,0.9c0.2,0.4,0.3,0.8,0.3,1.2c0.1,0.7,0.1,1.5,0,2.2c-0.2,1.2-0.7,2.4-1.4,3.4c-1.3,1.7-2.6,2.1-2.7,2
		c0.8-0.7,1.4-1.5,2-2.4c0.6-0.9,0.9-2,1.1-3.1c0.1-0.6,0.1-1.2,0-1.9c-0.1-0.7-0.4-1.3-0.6-1.2c-0.5,0.2-0.9,0.6-1.2,1.1
		c-0.3,0.6-0.6,1.2-0.8,1.9c-0.4,1.1-0.6,2.2-0.7,3.3C568.1,688.7,568.4,690,568.2,690.1z"/>
	<path class="st21" d="M536.3,507c-39.1,4.1-91,9.3-91,9.3l7.1,63.7c0,0,76.3-20.1,75.7-18.5c-0.5,1.5,2.5,118.1,3.4,148.7
		c0.1,4.1,3.4,7.3,7.5,7.3H570c4.1,0,7.5-3.3,7.5-7.5l0.8-164.6c0.3-21-16.5-38.4-37.5-38.7C539.3,506.7,537.8,506.8,536.3,507z"/>
	<path class="st21" d="M351.7,532.7v19.7c0,13.4,15.3,27.7,28.7,27.7h10.4c8.2,0,21-6,27.7-10.8l4-2.9L472,723.2
		c1.1,3.6,4.7,5.7,8.4,5c14.4-2.7,48.3-9,48.3-10.3c0-1.7-40.7-136.2-57.8-191.6c-7-22.7-31.3-35.8-53.7-28.1
		c-0.7,0.3-1.5,0.6-2.3,0.9C390.3,508.8,351.7,532.7,351.7,532.7z"/>
	<path class="st17" d="M524.9,703c-0.1-0.2-0.2-0.3-0.2-0.5l-0.6-1.5c-0.5-1.4-1.3-3.5-2.2-6.2c-1.9-5.3-4.4-13.1-7.4-22.8
		c-6.1-19.3-14.3-46-23.2-75.6c-4.4-14.8-8.6-28.9-12.5-41.7c-1.9-6.4-3.7-12.5-5.4-18.2c-0.9-2.8-1.7-5.6-2.5-8.2
		c-0.7-2.5-1.5-5-2.5-7.4c-1.7-4.2-4.4-7.9-7.7-10.9c-2.5-2.3-5.2-4.4-8.1-6.3c-2.3-1.5-4.2-2.7-5.5-3.5l-1.4-0.9
		c-0.2-0.1-0.3-0.2-0.5-0.4c0.2,0.1,0.4,0.1,0.5,0.3l1.5,0.8c1.3,0.7,3.2,1.9,5.6,3.3c2.9,1.8,5.7,3.9,8.3,6.2
		c3.5,3.1,6.2,6.9,8,11.2c1,2.5,1.9,5,2.6,7.6c0.8,2.6,1.7,5.4,2.5,8.2l5.6,18.2c3.9,12.8,8.1,26.9,12.6,41.7
		c8.9,29.5,16.9,56.2,22.8,75.7l7.1,22.9l2,6.2c0.2,0.7,0.4,1.2,0.5,1.6C525,702.9,524.9,703,524.9,703z"/>
	<path class="st17" d="M536.4,542.4c0.3,0.2-2.3,4.1-4.5,9.4s-3.2,9.9-3.5,9.8c-0.3-0.1,0.1-4.8,2.4-10.3
		C533.2,545.9,536.2,542.2,536.4,542.4z"/>
	<path class="st17" d="M545.2,548.6c0.1,0.3-3.7,2-7.9,5.3c-4.2,3.3-6.8,6.6-7,6.4c-0.3-0.2,2-4,6.3-7.3
		C540.9,549.7,545.1,548.3,545.2,548.6z"/>
	<path class="st17" d="M470.7,714.5c-0.3,0.1-13.2-39.5-28.8-88.5c-15.6-49-28.1-88.8-27.7-88.8c0.4-0.1,13.2,39.5,28.8,88.5
		C458.7,674.6,471,714.4,470.7,714.5z"/>
	<polygon class="st14" points="412.1,483.5 568.5,485 597.7,402.6 483.9,403.3 457.5,477.5 412.1,478.2 	"/>
	<path class="st1" d="M530.7,450.9c-3.5-0.5-5.9-3.7-5.4-7.1c0.5-3.5,3.7-5.9,7.1-5.4c3.5,0.5,5.9,3.7,5.4,7.1c0,0,0,0,0,0l0,0
		C537.4,449,534.2,451.4,530.7,450.9C530.7,450.9,530.7,450.9,530.7,450.9z"/>
	<path class="st19" d="M388.6,286.1l-2.8,62.2c-0.5,10.6,1,26.3,17.8,26.3l0,0c14.5-1.1,18.8-14.7,19.3-24.6
		c0.2-4.6,0.4-8.6,0.4-9.1c0,0,15.9-0.8,17.8-16.4c0.9-7.6,1.5-23.3,1.9-37.5c0.3-15.2-11-28.2-26.2-29.8l-1.5-0.2
		C398.7,256.2,388.9,269.7,388.6,286.1z"/>
	<path class="st22" d="M423.3,340.7c-7.2-0.6-14.1-3.4-19.8-8c0,0,3.6,11.8,19.4,12L423.3,340.7z"/>
	<path class="st8" d="M437.2,297c-0.1,1.2-1.2,2.1-2.4,2c-1.2,0-2.1-1-2.1-2.2c0,0,0,0,0,0l0,0c0.1-1.2,1.2-2.1,2.4-2
		C436.3,294.9,437.2,295.8,437.2,297L437.2,297z"/>
	<path class="st8" d="M438.7,294.4c-0.3,0.3-1.9-1.2-4.3-1.4c-2.4-0.3-4.3,0.8-4.5,0.4s0.2-0.6,1.1-1.1c1.1-0.6,2.4-0.9,3.7-0.7
		c1.3,0.1,2.4,0.7,3.4,1.5C438.6,293.7,438.8,294.4,438.7,294.4z"/>
	<path class="st8" d="M413.5,295.3c-0.1,1.2-1.2,2.1-2.4,2c-1.2-0.1-2.1-1.1-2.1-2.3l0,0c0.1-1.2,1.2-2.1,2.4-2
		C412.6,293.1,413.5,294.1,413.5,295.3C413.5,295.3,413.5,295.3,413.5,295.3L413.5,295.3z"/>
	<path class="st23" d="M412.7,295.5c-0.1,0.8-0.8,1.4-1.6,1.3c-0.8,0-1.4-0.7-1.4-1.5l0,0c0.1-0.8,0.8-1.4,1.6-1.3
		C412.1,294.1,412.7,294.7,412.7,295.5C412.7,295.5,412.7,295.5,412.7,295.5L412.7,295.5z"/>
	<path class="st23" d="M436.4,298.1c-0.1,0.8-0.8,1.4-1.6,1.3c-0.8,0-1.4-0.7-1.4-1.5l0,0c0.1-0.8,0.8-1.4,1.6-1.3
		C435.8,296.6,436.4,297.3,436.4,298.1C436.4,298,436.4,298.1,436.4,298.1L436.4,298.1z"/>
	<path class="st8" d="M415,292.3c-0.3,0.3-1.9-1.2-4.3-1.4c-2.4-0.3-4.3,0.8-4.5,0.4s0.2-0.6,1.1-1.1c1.1-0.6,2.4-0.9,3.7-0.7
		c1.3,0.1,2.4,0.7,3.3,1.5C414.9,291.6,415.1,292.2,415,292.3z"/>
	<path class="st8" d="M421.8,311.1c1.3-0.3,2.6-0.4,4-0.3c0.6,0,1.2,0,1.4-0.5c0.1-0.6,0-1.3-0.2-1.9c-0.4-1.5-0.9-3.2-1.3-4.9
		c-1.3-4.1-2.2-8.4-2.8-12.7c1.6,4,2.8,8.2,3.7,12.4l1.2,4.9c0.3,0.8,0.3,1.7,0,2.4c-0.2,0.4-0.6,0.7-1.1,0.8
		c-0.4,0.1-0.7,0.1-1.1,0C424.4,311.5,423.1,311.4,421.8,311.1z"/>
	<path class="st8" d="M413.2,315.7c0.6-0.6,4,3.7,10.1,3.8c6.1,0.1,10.2-4.1,10.7-3.5c0.5,0.6-0.3,1.6-2.2,3.3
		c-2.4,2-5.5,3.2-8.7,3.2c-3.1,0-6-1.3-8.2-3.4C413.3,317.4,413,315.9,413.2,315.7z"/>
	<path class="st8" d="M416.6,282.9c-0.3,0.6-2.7,0-5.6,0.1c-2.9,0.1-5.2,0.6-5.6,0c-0.4-0.6,0.3-0.9,1.3-1.4c2.7-1.3,5.8-1.3,8.4,0
		C416.3,282.1,416.8,282.6,416.6,282.9z"/>
	<path class="st8" d="M438.5,287.3c-0.5,0.5-2.1-0.3-4.1-0.5s-3.7,0-4.1-0.6c-0.1-0.3,0.2-0.8,1-1.3c2.1-1.1,4.7-0.7,6.5,0.9
		C438.6,286.5,438.8,287.1,438.5,287.3z"/>
	<path class="st19" d="M388.6,297.8c-0.3-0.1-10.4-4.3-11.2,6.4c-0.7,10.8,10.2,9.3,10.2,9C387.7,312.9,388.6,297.8,388.6,297.8z"/>
	<path class="st22" d="M384.6,308.9c-0.2,0.1-0.4,0.2-0.5,0.2c-0.4,0.2-0.9,0.2-1.4,0c-1.4-1-2.1-2.7-1.9-4.3c0-0.9,0.3-1.8,0.7-2.6
		c0.3-0.7,0.8-1.2,1.5-1.3c0.5-0.1,0.9,0.2,1.1,0.6c0.1,0.3,0,0.5,0,0.5c0,0,0.3-0.1,0.2-0.6c0-0.3-0.2-0.5-0.4-0.7
		c-0.3-0.3-0.6-0.4-1-0.4c-0.9,0.1-1.7,0.7-2.1,1.5c-0.5,0.9-0.8,1.9-0.9,2.9c-0.3,1.9,0.7,3.9,2.4,4.8c0.6,0.2,1.2,0.1,1.7-0.2
		C384.6,309.2,384.7,309,384.6,308.9z"/>
</g>
<g id="freepik--Devices--inject-48">
	<path class="st24" d="M681.7,327.8l-29.2,122.3c-0.6,2.5,1.3,5,3.9,5h0.4c1.9,0,3.5-1.3,3.9-3.1l28.8-122.3
		c0.6-2.5-1.3-4.9-3.9-4.9h0C683.8,324.7,682.2,326,681.7,327.8z"/>
	<path class="st24" d="M670.5,410.5c-0.6,2.4,14.1,73.5,14.1,73.5h-7.1l-11.1-56.3L670.5,410.5z"/>
	<path class="st24" d="M615.4,472.3H654c5.7,0,10.4,4.6,10.4,10.4l0,0H610v-5C610,474.7,612.4,472.3,615.4,472.3z"/>
	<rect x="201.1" y="579.4" class="st21" width="70.9" height="154"/>
	<path class="st17" d="M265.9,715.9V706c0-6.4,0-15.6-0.1-27.3c0-23.3-0.1-56-0.2-94.1l0.4,0.4h-59.3l0.4-0.4c0,51,0,97.3-0.1,131.3
		l-0.3-0.3l43.3,0.2l11.8,0.1h-11.6l-43.5,0.1h-0.3v-0.3c0-34,0-80.3-0.1-131.3V584h60.2v0.4c0,38.2-0.1,71.1-0.2,94.4
		c0,11.6,0,20.8-0.1,27.2v9.1C266.1,715.3,266,715.6,265.9,715.9z"/>
	<path class="st17" d="M262.2,595.7v-1.6c0-1.1,0-2.5,0-4.4l0.2,0.2c-9.2,0.1-28.9,0.2-51.6,0.2l0,0l0.4-0.4l0,0v6l-0.4-0.4
		c14.4,0,27.3,0.1,36.5,0.2l11,0.1h3c0.4,0,0.7,0,1.1,0c-0.3,0-0.6,0-1,0h-2.9l-10.9,0.1c-9.3,0-22.2,0.2-36.8,0.2h-0.4v-6.4l0,0
		l0.4-0.4l0,0c22.7,0,42.4,0.1,51.6,0.2l0,0v0.2c0,1.9,0,3.4-0.1,4.5C262.4,594.6,262.3,595.2,262.2,595.7z"/>
	<path class="st17" d="M215.9,600.1c0,0.2-1.1,0.4-2.4,0.4c-1.3,0-2.4-0.2-2.4-0.4c0-0.2,1.1-0.4,2.4-0.4
		C214.8,599.6,215.9,599.8,215.9,600.1z"/>
	<path class="st17" d="M260.9,607.9c0,0.2-11,0.4-24.6,0.4s-24.5-0.2-24.5-0.4c0-0.2,11-0.4,24.5-0.4S260.9,607.7,260.9,607.9z"/>
	<path class="st17" d="M261.1,617.4c0,0.3-10.8,0.4-24.2,0.4s-24.1-0.2-24.1-0.4c0-0.3,10.8-0.4,24.1-0.4S261.1,617.2,261.1,617.4z"
		/>
	<circle class="st9" cx="236.3" cy="639.7" r="3.9"/>
	<path class="st17" d="M225.3,639.6c-1.7,0.4-3.5,0.6-5.2,0.4c-1.7,0.1-3.5,0-5.2-0.4c1.7-0.4,3.5-0.6,5.2-0.4
		C221.9,639,223.7,639.1,225.3,639.6z"/>
	<path class="st17" d="M257,638.5c-3.3,0.5-6.6,0.5-9.8,0c1.6-0.4,3.3-0.6,4.9-0.4C253.8,638,255.4,638.1,257,638.5z"/>
	<path class="st8" d="M203.5,655.9c-0.9-0.1-1.8-0.2-2.7-0.5c-2.5-0.7-4.9-1.8-7-3.3c-3.4-2.3-6.3-5.3-8.5-8.8
		c-2.8-4.6-4.9-9.7-6.2-15c-1.7-6.4-2.3-13-1.9-19.5c0.4-7.6,3-15,7.4-21.2c2.4-3.3,5.4-6.2,8.9-8.4c1.8-1.1,3.7-2.1,5.7-2.8
		c2-0.7,4.2-1.2,6.3-1.5c4.3-0.6,8.7-0.5,13-0.8c4.5-0.1,8.9-1.1,13-3c4-1.9,7-5.5,8.1-9.8c1.7-7.4-3-14.8-10.4-16.5
		c-1.1-0.3-2.3-0.4-3.4-0.3c-2,0.1-3.9,0.8-5.5,2c-1.5,1.2-2.4,3-2.3,4.9c0.4,3.8,3.5,6.8,7.3,7.1c3.6,0,7-1.5,9.3-4.2
		c2.2-2.6,3.8-5.6,4.6-8.9c0.8-3,1.4-6.1,1.9-9.2c1.2-9.4,1.5-18.9,0.9-28.3c-0.2-3.3-0.3-5.9-0.4-7.7c0-0.7,0-1.3-0.1-2
		c0-0.2,0-0.5,0-0.7c0.1,0.2,0.1,0.5,0.1,0.7c0,0.5,0.1,1.1,0.2,2c0.1,1.9,0.4,4.4,0.5,7.7c0.7,9.5,0.5,19-0.6,28.4
		c-0.4,3.1-1,6.2-1.9,9.3c-0.8,3.4-2.4,6.5-4.6,9.2c-2.5,2.9-6.1,4.5-9.9,4.5c-4.2-0.3-7.6-3.5-8-7.7c-0.1-2.2,0.9-4.2,2.6-5.6
		c1.7-1.3,3.7-2.1,5.9-2.2c8.1-0.1,14.8,6.4,14.9,14.5c0,3.4-1.1,6.8-3.3,9.4c-1.5,1.8-3.4,3.3-5.5,4.3c-4.2,1.9-8.7,3-13.3,3.1
		c-4.5,0.3-8.9,0.2-13,0.8c-2.1,0.3-4.2,0.8-6.2,1.5c-2,0.7-3.8,1.6-5.6,2.8c-3.4,2.2-6.3,5-8.7,8.2c-4.4,6.1-7,13.3-7.4,20.7
		c-0.4,6.5,0.2,13,1.9,19.4c1.2,5.2,3.2,10.3,6,14.9c2.1,3.5,4.9,6.5,8.2,8.8c2.1,1.5,4.4,2.6,6.9,3.4c0.8,0.2,1.5,0.4,1.9,0.5
		C203,655.8,203.3,655.8,203.5,655.9z"/>
	<g>
		<path class="st14" d="M233.7,431.2v50.7h35.5v-50.7c0-0.7-0.5-1.4-1.2-1.6c-0.2-0.1-0.3-0.1-0.5-0.1h-32.1
			C234.5,429.5,233.7,430.2,233.7,431.2C233.7,431.2,233.7,431.2,233.7,431.2z M247.6,448.6c0-2.1,1.7-3.8,3.8-3.8
			c2.1,0,3.7,1.7,3.8,3.8v5.9c0,2.1-1.7,3.8-3.8,3.8c-2.1,0-3.8-1.7-3.8-3.8V448.6z"/>
		<path class="st25" d="M177.8,354.8v92.6c0,2.5,2,4.4,4.5,4.5h137.2c2.5,0,4.4-2,4.5-4.5v-92.6c0-2.5-2-4.4-4.5-4.4H182.3
			C179.8,350.3,177.8,352.3,177.8,354.8z"/>
		<path class="st1" d="M181,355.9v90.3c0,1.3,1.1,2.4,2.4,2.4h134.9c1.3,0,2.4-1.1,2.4-2.4v-90.3c0-1.3-1.1-2.4-2.4-2.4H183.4
			C182.1,353.6,181,354.6,181,355.9z"/>
		<path class="st14" d="M206.1,485.8c0.3,0.3,0.7,0.6,1.1,0.5h80.3c0.8,0,1.5-0.7,1.5-1.5c0-0.1,0-0.2,0-0.3l-1.2-5.9
			c-0.1-0.5-0.5-0.9-0.9-1.1c-0.2-0.1-0.3-0.1-0.5-0.1h-77.8c-0.2,0-0.4,0-0.5,0.1c-0.5,0.2-0.8,0.6-0.9,1.1l-1.2,5.9
			C205.7,485,205.8,485.5,206.1,485.8z"/>
		<path class="st25" d="M314,366H187.7c-0.3,0-0.5-0.2-0.5-0.5c0-0.3,0.2-0.5,0.5-0.5H314c0.3,0,0.5,0.2,0.5,0.5
			C314.5,365.8,314.2,366,314,366z"/>
		<ellipse class="st25" cx="196.3" cy="359.4" rx="2.9" ry="3"/>
		<ellipse class="st25" cx="206.5" cy="359.4" rx="2.9" ry="3"/>
		<ellipse class="st25" cx="216.6" cy="359.4" rx="2.9" ry="3"/>
		<path class="st25" d="M307.9,357.2h-7.2c-0.3,0-0.5,0.3-0.5,0.6c0,0.3,0.2,0.5,0.5,0.5h7.2c0.3,0,0.5-0.3,0.5-0.6
			C308.4,357.4,308.2,357.2,307.9,357.2z"/>
		<path class="st25" d="M307.9,359.2h-7.2c-0.3,0-0.5,0.3-0.5,0.6c0,0.3,0.2,0.5,0.5,0.5h7.2c0.3,0,0.5-0.3,0.5-0.6
			C308.4,359.4,308.2,359.2,307.9,359.2z"/>
		<path class="st25" d="M307.9,361.3h-7.2c-0.3,0-0.5,0.3-0.5,0.6c0,0.3,0.2,0.5,0.5,0.5h7.2c0.3,0,0.5-0.3,0.5-0.6
			C308.4,361.5,308.2,361.3,307.9,361.3z"/>
		<path class="st9" d="M244.1,393.3h21.9c0.9,0,1.6,0.7,1.6,1.6v2.1c0,0.9-0.7,1.6-1.6,1.6h-21.9c-0.9,0-1.6-0.7-1.6-1.6v-2.1
			C242.5,394,243.2,393.3,244.1,393.3z"/>
		<path class="st26" d="M231.3,404h47.3c0.9,0,1.6,0.7,1.6,1.6v2.1c0,0.9-0.7,1.6-1.6,1.6h-47.3c-0.9,0-1.6-0.7-1.6-1.6v-2.1
			C229.7,404.7,230.5,404,231.3,404z"/>
		<path class="st26" d="M231.3,414.7h47.3c0.9,0,1.6,0.7,1.6,1.6v2.1c0,0.9-0.7,1.6-1.6,1.6h-47.3c-0.9,0-1.6-0.7-1.6-1.6v-2.1
			C229.7,415.5,230.5,414.7,231.3,414.7z"/>
	</g>
</g>
<g id="freepik--Desk--inject-48">
	<polygon class="st24" points="196.1,484 196.1,499.6 282.7,499.6 282.7,732.7 290.7,732.7 290.7,499.6 652.5,501.4 652.5,732.7 
		660.3,732.7 660.3,501 716.1,501.4 716.1,482.6 	"/>
	<polygon class="st24" points="251.5,496.6 285.7,521.2 282.7,524 248.3,498.1 	"/>
	<polygon class="st24" points="692.5,498.9 652.8,527.1 655.8,529.9 695.7,500.4 	"/>
	<rect x="322" y="478.2" class="st24" width="89.5" height="6.6"/>
</g>
<path class="st14" d="M379.7,482.5c0.6,1.8,2.3,2.9,4.1,2.9l17.7-0.5c1.9,0,3.5-1.3,4-3.1L408,455c0.9,0.4,1.9,0.6,2.8,0.6
	c3.6-0.1,6.4-3.1,6.3-6.6c-0.1-3.6-3.1-6.4-6.6-6.3c-0.4,0-0.8,0-1.2,0.1c-0.8-0.9-2-1.4-3.3-1.4l-27.3,0.7c-0.2,0-0.5,0-0.7,0.1
	c-2.3,0.4-3.8,2.7-3.4,5c0,0.2,0.1,0.4,0.1,0.6L379.7,482.5z M408.5,453.2l1.8-6.4c0.2-0.7,0.2-1.5,0-2.3c0.1,0,0.2,0,0.2,0
	c2.6-0.1,4.7,2,4.7,4.5c0.1,2.5-2,4.7-4.5,4.7C410,453.8,409.2,453.6,408.5,453.2z"/>
<path class="st25" d="M378.2,442.2c0.6,3.3,7.1,5.7,15,5.2c7.2-0.3,13.1-2.9,14.2-5.9c-0.4-0.1-0.8-0.2-1.2-0.2l-27.3,0.7
	C378.6,442.1,378.4,442.1,378.2,442.2z"/>
<path class="st9" d="M394.6,467.8c0,0,0.1,0,0.1,0l3.8-2.5c0.2-0.1,0.2-0.3,0.1-0.5c0,0-0.1-0.1-0.1-0.1l-4-2.6
	c-0.2-0.1-0.4-0.1-0.5,0.1c-0.1,0.2-0.1,0.4,0.1,0.5l3.6,2.3l-3.4,2.2c-0.2,0.1-0.2,0.3-0.1,0.5
	C394.3,467.7,394.4,467.8,394.6,467.8L394.6,467.8z"/>
<path class="st9" d="M388.5,468c0.2,0,0.3-0.2,0.2-0.4c0-0.1-0.1-0.2-0.2-0.2l-3.5-2l3.4-2.5c0.1-0.1,0.2-0.3,0.1-0.5
	c-0.1-0.1-0.3-0.2-0.5-0.1l-3.8,2.9c-0.1,0.1-0.2,0.3-0.1,0.5c0,0,0.1,0.1,0.1,0.1l4,2.3C388.3,468.1,388.4,468.1,388.5,468z"/>
<path class="st9" d="M394.2,470C394.2,470,394.3,470,394.2,470c0.2-0.1,0.3-0.3,0.2-0.5c0,0,0,0,0,0l-5.5-9
	c-0.1-0.2-0.3-0.2-0.5-0.1c-0.2,0.1-0.2,0.3-0.1,0.5l5.5,9C393.9,469.9,394.1,470,394.2,470z"/>
<path class="st14" d="M395,258.7c1.5-5.6,5.6-8.2,11-10c5.5-1.8,11.5-0.8,16.2,2.6c3.1,2.3,5.4,5.6,9,6.9c5.9,2,12.8-2.4,18.5,0.3
	c4.1,1.8,5.9,6.6,4,10.7c-1.4,3.1-4.5,4.9-7.9,4.7c3.8,1.4,5,6.9,2.8,10.3c-2.5,3.3-6.8,4.9-10.9,4c-4-1-7.7-3-10.6-6
	c-3.1-2.7-5.8-5.8-9.1-8.3c-3.2-2.7-7.2-4.1-11.3-4.1c-5.6,0.3-10.3,4.5-12.8,9.5c-2.2,5.1-3.4,10.6-3.3,16.2c0,5.6-0.7,11.1-2,16.5
	c-0.1,0.7-0.5,1.2-1.1,1.5c-0.9,0.3-1.7-0.7-2.1-1.5c-5.1-9.4-8.2-19.7-9.3-30.3c-0.6-6.2-0.5-12,2.9-17.2
	C382.3,259.2,390.8,255.4,395,258.7"/>
<linearGradient id="SVGID_1_" gradientUnits="userSpaceOnUse" x1="183.8029" y1="381.4334" x2="211.7675" y2="357.3795" gradientTransform="matrix(0.5625 0 0 -0.568 52.3015 368.3029)">
	<stop  offset="0" style="stop-color:#5A9FD4"/>
	<stop  offset="1" style="stop-color:#306998"/>
</linearGradient>
<path class="st27" d="M170.5,150.8c-1.2,0-2.3,0.1-3.3,0.3c-2.9,0.5-3.4,1.6-3.4,3.6v2.6h6.9v0.9h-6.9h-2.6c-2,0-3.7,1.2-4.3,3.5
	c-0.6,2.6-0.7,4.3,0,7c0.5,2,1.7,3.5,3.7,3.5h2.4V169c0-2.3,2-4.3,4.3-4.3h6.9c1.9,0,3.4-1.6,3.4-3.5v-6.5c0-1.9-1.6-3.3-3.4-3.6
	C172.9,150.9,171.6,150.8,170.5,150.8L170.5,150.8z M166.8,152.9c0.7,0,1.3,0.6,1.3,1.3c0,0.7-0.6,1.3-1.3,1.3
	c-0.7,0-1.3-0.6-1.3-1.3C165.5,153.5,166,152.9,166.8,152.9z"/>
<linearGradient id="SVGID_00000159443259317113206250000005256819963656658839_" gradientUnits="userSpaceOnUse" x1="222.585" y1="342.8224" x2="212.5839" y2="356.9522" gradientTransform="matrix(0.5625 0 0 -0.568 52.3015 368.3029)">
	<stop  offset="0" style="stop-color:#FFD43B"/>
	<stop  offset="1" style="stop-color:#FFE873"/>
</linearGradient>
<path style="fill:url(#SVGID_00000159443259317113206250000005256819963656658839_);" d="M178.4,158.2v3.1c0,2.4-2,4.4-4.3,4.4h-6.9
	c-1.9,0-3.4,1.6-3.4,3.5v6.5c0,1.9,1.6,3,3.4,3.5c2.2,0.6,4.3,0.8,6.9,0c1.7-0.5,3.4-1.5,3.4-3.5V173h-6.9v-0.9h6.9h3.4
	c2,0,2.7-1.4,3.4-3.5c0.7-2.2,0.7-4.2,0-7c-0.5-2-1.4-3.5-3.4-3.5L178.4,158.2L178.4,158.2z M174.5,174.8c0.7,0,1.3,0.6,1.3,1.3
	c0,0.7-0.6,1.3-1.3,1.3c-0.7,0-1.3-0.6-1.3-1.3C173.2,175.3,173.8,174.8,174.5,174.8z"/>
<radialGradient id="SVGID_00000010306883115781631880000003740674090109433483_" cx="-206.3869" cy="641.2203" r="7.4412" gradientTransform="matrix(1.749360e-08 -0.2399 -1.0549 -3.791698e-07 847.1348 134.051)" gradientUnits="userSpaceOnUse">
	<stop  offset="0" style="stop-color:#B8B8B8;stop-opacity:0.498"/>
	<stop  offset="1" style="stop-color:#7F7F7F;stop-opacity:0"/>
</radialGradient>
<path style="opacity:0.4438;fill:url(#SVGID_00000010306883115781631880000003740674090109433483_);enable-background:new    ;" d="
	M179.9,183.6c0,1-4.1,1.8-9.2,1.8s-9.2-0.8-9.2-1.8l0,0c0-1,4.1-1.8,9.2-1.8S179.9,182.6,179.9,183.6z"/>
</svg>
