<svg id="Layer_1" data-name="Layer 1" xmlns="http://www.w3.org/2000/svg" viewBox="0 0 184 142"><defs><style>.cls-1{fill:#3e3e63;}.cls-2{fill:#f36e38;}</style></defs><title>cloud</title><path class="cls-1" d="M105.09,91.14l0,0c13.11-.94,23.39-12.19,23.39-25.62,0-11.56-7.91-22-18.8-24.9l-.31-.09-.06-.32a29.29,29.29,0,0,0-54.25-9.69l-.18.31-.35-.07A15.87,15.87,0,0,0,35.74,46.31a16.15,16.15,0,0,0,.34,3.28l.07.32-.26.19A22.18,22.18,0,0,0,26.75,68c0,12,9.58,22.59,20.93,23.22H105ZM47.88,86.46h0C39,85.92,31.48,77.46,31.48,68a17.4,17.4,0,0,1,8.63-15,2.34,2.34,0,0,0,1-2.87,10.59,10.59,0,0,1-.67-3.79A11.09,11.09,0,0,1,51.56,35.23a10.65,10.65,0,0,1,3.79.67,2.36,2.36,0,0,0,2.95-1.22A24.57,24.57,0,0,1,105,42.77a2.33,2.33,0,0,0,2,2.09c9.64,1.67,16.9,10.56,16.9,20.68,0,10.74-8.48,20.12-18.91,20.92Z"/><path class="cls-2" d="M77.64,81.34a2.86,2.86,0,0,0-2.86,2.87v33.54a9.87,9.87,0,0,0,2.63,19.32h.23a9.92,9.92,0,0,0,9.86-9.63,9.88,9.88,0,0,0-7-9.69V84.21A2.86,2.86,0,0,0,77.64,81.34Zm3,43a4.14,4.14,0,0,1-3,7h-.12a4.18,4.18,0,0,1-2.89-1.28,4.13,4.13,0,0,1,3-7h.12A4,4,0,0,1,80.65,124.35Z"/><path class="cls-2" d="M59.25,84.21v16.05a5,5,0,0,1-5,5H45.8a9.89,9.89,0,1,0,0,5.73h8.44A10.74,10.74,0,0,0,65,100.26V84.21a2.86,2.86,0,1,0-5.72,0ZM36.34,112.29a4.17,4.17,0,1,1,4.17-4.17A4.17,4.17,0,0,1,36.34,112.29Z"/><path class="cls-2" d="M101,111h8.44a9.9,9.9,0,1,0,0-5.73H101a5,5,0,0,1-5-5V84.24a2.86,2.86,0,1,0-5.72,0v16.05A10.74,10.74,0,0,0,101,111Zm17.9-7a4.17,4.17,0,1,1-4.17,4.16A4.16,4.16,0,0,1,118.94,104Z"/></svg>