<svg id="digital_transformation" data-name="digital transformation" xmlns="http://www.w3.org/2000/svg" viewBox="0 0 260 260"><defs><style>.cls-1{fill:#f36e38;opacity:0.1;}.cls-2,.cls-3{fill:none;stroke-miterlimit:10;}.cls-2{stroke:#2a2a44;stroke-width:3px;opacity:0.88;}.cls-3{stroke:#f36e38;stroke-width:2px;}</style></defs><circle class="cls-1" cx="120.65" cy="130" r="63.5"/><path class="cls-2" d="M120.65,236.72a107.91,107.91,0,0,1-21.13-2.09l-.72-21.58a85.27,85.27,0,0,1-21.42-8.88L61.61,218.91A107.1,107.1,0,0,1,31.72,189l14.76-15.82a84.88,84.88,0,0,1-8.87-21.42h0L16,151.06a108.06,108.06,0,0,1,0-42.25l21.59-.72h0a84.88,84.88,0,0,1,8.87-21.42L31.74,71A107,107,0,0,1,61.61,41.07L77.38,55.82A84.93,84.93,0,0,1,98.8,46.93l.72-21.58a107.91,107.91,0,0,1,21.13-2.09"/><path class="cls-2" d="M120.65,182.38a52.41,52.41,0,1,1,0-104.81"/><line class="cls-3" x1="140.55" y1="109.92" x2="217.74" y2="109.92"/><circle class="cls-3" cx="231.9" cy="109.92" r="14.16" transform="translate(80.11 316.85) rotate(-79.1)"/><polyline class="cls-3" points="140.55 86.36 199.19 86.36 217.74 64.52"/><circle class="cls-3" cx="225.71" cy="52.33" r="14.16"/><polyline class="cls-3" points="140.55 64.52 189.66 64.52 189.66 41.75"/><circle class="cls-3" cx="189.66" cy="27.57" r="14.16"/><line class="cls-3" x1="140.55" y1="150.06" x2="217.74" y2="150.06"/><circle class="cls-3" cx="231.9" cy="150.06" r="14.16" transform="translate(46.63 354.93) rotate(-80.78)"/><polyline class="cls-3" points="140.55 173.62 199.19 173.62 217.74 195.46"/><circle class="cls-3" cx="225.71" cy="207.65" r="14.16"/><polyline class="cls-3" points="140.55 195.46 189.66 195.46 189.66 218.23"/><circle class="cls-3" cx="189.66" cy="232.41" r="14.16"/></svg>