<svg id="Layer_1" data-name="Layer 1" xmlns="http://www.w3.org/2000/svg" viewBox="0 0 184 142"><defs><style>.cls-1{fill:#f36e38;}.cls-2{fill:#3e3e63;}</style></defs><title>digital</title><g id="Cloud_technology" data-name="Cloud technology"><path class="cls-1" d="M58.09,40.37H58A18.28,18.28,0,0,0,39.71,58.65v.14a1.71,1.71,0,0,0,1.71,1.7h0a1.72,1.72,0,0,0,1.7-1.72h0a14.85,14.85,0,0,1,14.74-15h.21a1.71,1.71,0,0,0,0-3.42Z"/><path class="cls-1" d="M79.43,75.62h24.9a3.21,3.21,0,0,1,3.21,3.2h0v24.91a3.21,3.21,0,0,1-3.21,3.2H79.43a3.21,3.21,0,0,1-3.21-3.2h0V78.82a3.21,3.21,0,0,1,3.21-3.2Z"/><path class="cls-2" d="M126,85.66a27,27,0,1,0,.53-54h-.31A8,8,0,0,1,119,27,29.73,29.73,0,0,0,65,27a8,8,0,0,1-7.27,4.62h-.08a27,27,0,0,0-27,27v.2A27.25,27.25,0,0,0,58,85.66H68.43v4.67H51.31a5,5,0,1,0,0,3.41H68.43v3.55H57.78a4.2,4.2,0,0,0-4.19,4.2v20.2a5,5,0,1,0,3.41,0v-20.2a.78.78,0,0,1,.78-.78H68.43v5.74a8.28,8.28,0,0,0,8.27,8.28h5.42s0,.11,0,.16v7.24a5,5,0,1,0,3.41,0v-7.24a.86.86,0,0,0,0-.16h13a.86.86,0,0,0,0,.16v7.24a5,5,0,1,0,3.42,0v-7.24s0-.11,0-.16h5.12a8.29,8.29,0,0,0,8.27-8.28v-5.74h9.09a.78.78,0,0,1,.78.78v20.2a5,5,0,1,0,3.41,0v-20.2a4.2,4.2,0,0,0-4.19-4.2h-9.09V93.74h15.56a5,5,0,1,0,0-3.41H115.33V85.66Zm-14.08,20.79a4.86,4.86,0,0,1-4.85,4.86H76.7a4.87,4.87,0,0,1-4.86-4.86V76.1a4.87,4.87,0,0,1,4.86-4.86h30.36a4.86,4.86,0,0,1,4.85,4.86Zm3.24-32.06a8.29,8.29,0,0,0-8.09-6.57H102V55.55a5,5,0,1,0-3.42,0V67.82h-13V55.55a5,5,0,1,0-3.42,0V67.82H76.7a8.29,8.29,0,0,0-8.09,6.57H65A1.39,1.39,0,0,1,63.65,73V64.9a5,5,0,1,0-3.42,0V73A4.82,4.82,0,0,0,65,77.81h3.39v4.43H58a23.59,23.59,0,1,1-.5-47.18h.28a11.46,11.46,0,0,0,10.35-6.6,26.32,26.32,0,0,1,47.72,0,11.43,11.43,0,0,0,10.36,6.6h.09A23.59,23.59,0,0,1,149.9,58.65v.18A23.81,23.81,0,0,1,126,82.24H115.33V77.81h1.83A4.82,4.82,0,0,0,122,73V64.9a5,5,0,1,0-3.42,0V73a1.39,1.39,0,0,1-1.39,1.39Z"/><circle class="cls-1" cx="83.77" cy="50.79" r="5.27"/><circle class="cls-1" cx="61.94" cy="60" r="5.27"/><circle class="cls-1" cx="100.29" cy="50.79" r="5.27"/><circle class="cls-1" cx="120.24" cy="60" r="5.27"/><circle class="cls-1" cx="135.6" cy="92.06" r="5.27"/><circle class="cls-1" cx="126.92" cy="126.65" r="5.27"/><circle class="cls-1" cx="100.43" cy="126.91" r="5.27"/><circle class="cls-1" cx="83.7" cy="126.91" r="5.27"/><circle class="cls-1" cx="55.34" cy="126.65" r="5.27"/><circle class="cls-1" cx="46.55" cy="92.15" r="5.27"/></g></svg>