<svg id="digital_transformation" data-name="digital transformation" xmlns="http://www.w3.org/2000/svg" viewBox="0 0 260 260"><defs><style>.cls-1,.cls-3{fill:#f36e38;}.cls-1{opacity:0.1;}.cls-2{fill:#0b3a5b;}</style></defs><path class="cls-1" d="M15.49,126.44a116,116,0,1,1,116,116A116,116,0,0,1,15.49,126.44Z"/><path class="cls-1" d="M184,103a46.3,46.3,0,0,1,13.32-8.71c-5.12-20.53-19.46-35.46-37.38-39.19C173.74,64.39,183.47,82.43,184,103Zm38.86,3.37a44.6,44.6,0,0,1,4.59,20.27c0,13.07-5.11,24.83-12.76,32a26.58,26.58,0,0,1-17.87,7.19H84c-5.62,0-9.71-5.88-9.71-13.07,0-13.07-7.14-23.53-16.84-25.49,4.08,4.58,6.63,11.11,6.63,19s-2.55,15-7.15,19.6c-3.57,3.93-8.16,6.54-13.27,6.54a7,7,0,0,1-3.57-.65c3.06,3.92,7.65,6.53,12.25,6.53H207A26.58,26.58,0,0,0,224.88,171c7.66-6.53,12.76-18.3,12.76-31.37C237.64,125.29,231.52,112.87,222.84,106.33Z"/><path class="cls-2" d="M74.8,178.88c.09,1,.21,1.93.35,2.88H187.87c.15-.95.27-1.91.35-2.88Z"/><path class="cls-2" d="M22.72,151.28c0,14.73,9.43,27.34,22.43,30l2.53.51H77.31l0,0c-.09-.94-.17-1.89-.23-2.84,0,0,0,0,0,0H49.59c-13.42,0-24.33-12.38-24.33-27.6,0-13.13,8.41-24.58,19.65-26.88h0a11.65,11.65,0,0,1,4.67-.73,22.34,22.34,0,0,1,13.29,4.41A28,28,0,0,1,72,140.14l.09.22a.84.84,0,0,0,.51.5,1.42,1.42,0,0,0,1.14,0c.46-.21.67-1.07.44-1.8h0c-4.56-11.26-14-18.24-24.61-18.24H45.76a0,0,0,0,1,0,0v-4.35c0-21.62,15.51-39.22,34.57-39.22,6.67,0,13.58,2.45,20,7.07l.12.09.12.1s0,0,0,0a.93.93,0,0,0,1.42-.09c.23-.28.47-.54,1-1.12h0l1.76-3a58.11,58.11,0,0,1,17-18.73l.11-.07a45.22,45.22,0,0,1,25-7.55,46,46,0,0,1,29.89,11.18A55.75,55.75,0,0,1,194.6,94.3l1,4s0,0,0,0l-3.5,1.32a41.63,41.63,0,0,0-21,18.48,2,2,0,0,0,.29,2.05H172a2.41,2.41,0,0,0,1.37-.91h0c5.22-9.79,13.78-16.25,24.11-18.2l.31-.06H198l.5-.57h4.31c19.67,0,35.65,18.42,34.91,40.72-.7,20.94-15.93,37.72-34.55,37.72H187a0,0,0,0,0,0,0c-.06.95-.14,1.9-.24,2.84l0,0h16.48c20.25,0,36.75-18.48,37.11-41.34.37-23.62-16.67-42.86-37.49-42.86h-4.58l0,0-.77-3.19c-6.22-25.47-27-43.27-50.57-43.27a47.22,47.22,0,0,0-26.21,8.11l-.14.09A48,48,0,0,0,103.07,78l-1.83,3.45s0,0,0,0L98,79.67c-6.25-3.55-12.22-5.35-17.73-5.35-20.46,0-37.11,18.89-37.11,42.1v4.88a0,0,0,0,1,0,0l-2.62,1c-10.68,4-17.85,15.68-17.85,29"/><path class="cls-3" d="M161.15,115.49a6.45,6.45,0,0,0-2.67-4,5.17,5.17,0,0,0-4.39-.7,6.26,6.26,0,0,0-4.17,4.72l-.1.47H139.2a3.53,3.53,0,0,1-2.82-1.92l-9.69-16.58a5.44,5.44,0,0,0-4.45-3.11H111.83l-.11-.47c-.8-3.51-4-5.63-7.07-4.72s-5,4.5-4.16,8a5.66,5.66,0,0,0,11.23,0l.11-.46h10.45a3.52,3.52,0,0,1,2.82,1.91l9.69,16.59a5.42,5.42,0,0,0,4.46,3.1h10.57l.1.47a6.53,6.53,0,0,0,2.67,4,5.16,5.16,0,0,0,4.4.71C160.08,122.6,162,119,161.15,115.49ZM106.06,99.75a4.26,4.26,0,1,1,3.73-4.22A4,4,0,0,1,106.06,99.75Zm49.36,21.61a4.26,4.26,0,1,1,3.73-4.22A4,4,0,0,1,155.42,121.36Z"/><path class="cls-3" d="M124.42,160.2l.1-.47h10.27a5.51,5.51,0,0,0,4.46-2.79l9.68-15.12a3.53,3.53,0,0,1,2.81-1.9H165.5l.13.43a6.33,6.33,0,0,0,2.87,3.84,5.16,5.16,0,0,0,4.43.4,6.5,6.5,0,0,0,4-5.87c.1-3.62-2.43-6.66-5.62-6.76a6,6,0,0,0-5.83,5.12l-.1.49H151.77a5.51,5.51,0,0,0-4.46,2.79l-9.68,15.12a3.56,3.56,0,0,1-2.81,1.9h-10.3l-.1-.47a6.53,6.53,0,0,0-2.67-4,5.26,5.26,0,0,0-2.94-.92,5.31,5.31,0,0,0-1.46.21c-3.09.91-5,4.51-4.16,8s4,5.63,7.06,4.72A6.24,6.24,0,0,0,124.42,160.2Zm46.71-25.68a4.26,4.26,0,1,1-3.72,4.23A4,4,0,0,1,171.13,134.52Zm-52.37,28.26a4.26,4.26,0,1,1,3.72-4.23A4,4,0,0,1,118.76,162.78Z"/><path class="cls-3" d="M118.76,110.56c-3.2,0-5.8,3-5.8,6.58s2.6,6.58,5.8,6.58,5.8-3,5.8-6.58S122,110.56,118.76,110.56Zm0,10.8a4.26,4.26,0,1,1,3.72-4.22A4,4,0,0,1,118.76,121.36Z"/><path class="cls-3" d="M148.33,96.15l-.11-.46a6.47,6.47,0,0,0-2.67-4,5.17,5.17,0,0,0-4.39-.7c-3.1.91-5,4.5-4.17,8a6,6,0,0,0,5.58,4.94h0A6,6,0,0,0,148.22,99l.11-.46h10.11a1.19,1.19,0,0,0,0-2.36Zm-5.76,5.41a4.26,4.26,0,1,1,3.72-4.23A4,4,0,0,1,142.57,101.56Z"/><path class="cls-3" d="M123.52,85.9h4.76a1.18,1.18,0,0,0,0-2.35h-4.76a1.18,1.18,0,0,0,0,2.35Z"/><path class="cls-3" d="M129.87,166.38h-3.18a1.19,1.19,0,0,0,0,2.35h3.18a1.18,1.18,0,0,0,0-2.35Z"/><path class="cls-3" d="M130.79,87.8a1.32,1.32,0,0,0,0,1.38,1,1,0,0,0,.7.32,1.11,1.11,0,0,0,1-1.19,1.22,1.22,0,0,0-.27-.77A1,1,0,0,0,130.79,87.8Z"/><path class="cls-3" d="M139.39,168.73a1.18,1.18,0,0,0,0-2.35h-4.76a1.18,1.18,0,0,0,0,2.35Z"/><path class="cls-3" d="M111.72,131.7c-.8-3.51-4-5.63-7.07-4.73a5.91,5.91,0,0,0-3.54,3,7.29,7.29,0,0,0-.62,5,6.53,6.53,0,0,0,2.67,4,5.17,5.17,0,0,0,4.39.7,6.23,6.23,0,0,0,4.17-4.72l.11-.47h18.62l.11.47a6.53,6.53,0,0,0,2.67,4,5.17,5.17,0,0,0,4.39.7,5.9,5.9,0,0,0,3.55-3,7.25,7.25,0,0,0,.62-5c-.8-3.51-4-5.63-7.07-4.73a6.25,6.25,0,0,0-4.16,4.73l-.11.47H111.83Zm-5.66,5.87a4.26,4.26,0,1,1,3.73-4.23A4,4,0,0,1,106.06,137.57Zm30.16-8.45a4.26,4.26,0,1,1-3.73,4.22A4,4,0,0,1,136.22,129.12Z"/><path class="cls-3" d="M115.58,83.55a1.19,1.19,0,0,0,0,2.35h3.18a1.18,1.18,0,0,0,0-2.35Z"/><path class="cls-3" d="M163.2,98.51H168a1.19,1.19,0,0,0,0-2.36H163.2a1.19,1.19,0,0,0,0,2.36Z"/><path class="cls-3" d="M177.48,157.38h-3.17a1.18,1.18,0,0,0,0,2.35h3.17a1.18,1.18,0,0,0,0-2.35Z"/><path class="cls-3" d="M144.15,166.38a1.19,1.19,0,0,0,0,2.35h3.18a1.19,1.19,0,0,0,0-2.35Z"/><path class="cls-3" d="M164.79,159.73h4.76a1.19,1.19,0,0,0,0-2.35h-4.76a1.18,1.18,0,0,0,0,2.35Z"/><path class="cls-3" d="M175.9,96.15h-3.18a1.19,1.19,0,0,0,0,2.36h3.18a1.19,1.19,0,0,0,0-2.36Z"/><path class="cls-3" d="M155.26,152c-3.19,0-5.8,3-5.8,6.58s2.61,6.58,5.8,6.58,5.8-2.95,5.8-6.58S158.46,152,155.26,152Zm0,10.81a4.26,4.26,0,1,1,3.73-4.23A4,4,0,0,1,155.26,162.78Z"/><path class="cls-3" d="M198.39,159h-5.84a.7.7,0,0,0-.64.74v.61a.69.69,0,0,0,.64.73h5.84a.69.69,0,0,0,.65-.73v-.6A.71.71,0,0,0,198.39,159Z"/></svg>