<svg id="digital_transformation" data-name="digital transformation" xmlns="http://www.w3.org/2000/svg" viewBox="0 0 260 260"><defs><style>.cls-1{fill:#454560;}.cls-2{fill:#f36e38;}.cls-3{opacity:0.1;}</style></defs><path class="cls-1" d="M167.5,15.26H97.09A24.58,24.58,0,0,0,72.55,39.8V216.17a24.58,24.58,0,0,0,24.54,24.54H167.5a24.58,24.58,0,0,0,24.55-24.54V39.8A24.58,24.58,0,0,0,167.5,15.26Zm19.64,200.89a19.64,19.64,0,0,1-19.61,19.61H97.09a19.64,19.64,0,0,1-19.61-19.61V39.8A19.64,19.64,0,0,1,97.09,20.18h15.7a2.67,2.67,0,0,0-.05.51v4.15a2.94,2.94,0,0,0,2.94,2.94H148.9a2.94,2.94,0,0,0,2.94-2.94V20.66a4.23,4.23,0,0,0-.05-.5H167.5a19.64,19.64,0,0,1,19.62,19.61V216.15Z"/><path class="cls-2" d="M145.55,214.49h-26.5a2.94,2.94,0,0,0-2.94,2.94v2.44a2.94,2.94,0,0,0,2.94,2.94h26.53a2.94,2.94,0,0,0,2.94-2.94v-2.42A3,3,0,0,0,145.55,214.49Z"/><g class="cls-3"><circle class="cls-2" cx="134.09" cy="122.38" r="47.89"/></g><path class="cls-2" d="M143.38,136.82a1.77,1.77,0,0,1-.56-.53,2,2,0,0,1-.18-.32H117.56V111.25h34v16.14a1.93,1.93,0,0,1,1.6,1.2,1.87,1.87,0,0,1,.74-.22,1.56,1.56,0,0,1,.53,0V105.09a2.39,2.39,0,0,0-2.39-2.39h-35a2.39,2.39,0,0,0-2.39,2.39v31.36a2.39,2.39,0,0,0,2.39,2.39h26.09a1.83,1.83,0,0,1-.14-1.32A2,2,0,0,1,143.38,136.82Zm5.6-30.11a.88.88,0,0,1,.88-.88h.88a.89.89,0,0,1,.89.88v1a.89.89,0,0,1-.89.88h-.88a.88.88,0,0,1-.88-.88Zm-4.11,0a.89.89,0,0,1,.89-.88h.88a.88.88,0,0,1,.88.88v1a.88.88,0,0,1-.88.88h-.88a.89.89,0,0,1-.89-.88Zm-4.1,0a.88.88,0,0,1,.88-.88h.88a.89.89,0,0,1,.89.88v1a.89.89,0,0,1-.89.88h-.88a.88.88,0,0,1-.88-.88Z"/><path class="cls-2" d="M157.28,135.14l-.26-1.5a.38.38,0,0,0-.44-.31l-1.33.24a5,5,0,0,0-.61-1l.87-1.05a.37.37,0,0,0,.09-.27.35.35,0,0,0-.14-.25l-1.17-1a.33.33,0,0,0-.27-.09.38.38,0,0,0-.25.13l-.87,1a5.08,5.08,0,0,0-1.15-.41v-1.36a.36.36,0,0,0-.37-.37h-1.53a.37.37,0,0,0-.37.37v1.36a5,5,0,0,0-1.14.41l-.88-1a.37.37,0,0,0-.52,0l-1.17,1a.34.34,0,0,0-.13.25.36.36,0,0,0,.08.27l.88,1.05a4.57,4.57,0,0,0-.61,1l-1.34-.24a.37.37,0,0,0-.43.31l-.27,1.5a.45.45,0,0,0,.06.28.41.41,0,0,0,.24.15l1.34.24a6,6,0,0,0,.21,1.2l-1.17.68a.36.36,0,0,0-.18.22.38.38,0,0,0,0,.28l.76,1.33a.4.4,0,0,0,.23.17h.1a.29.29,0,0,0,.18,0l1.18-.68a5.4,5.4,0,0,0,.93.79l-.46,1.27a.36.36,0,0,0,0,.29.36.36,0,0,0,.21.19l1.43.52.13,0a.42.42,0,0,0,.16,0,.36.36,0,0,0,.19-.21l.47-1.28a4.08,4.08,0,0,0,.61,0,4,4,0,0,0,.6,0l.47,1.28a.36.36,0,0,0,.19.21.42.42,0,0,0,.16,0l.13,0,1.43-.52a.36.36,0,0,0,.21-.19.36.36,0,0,0,0-.29l-.46-1.27a5.4,5.4,0,0,0,.93-.79l1.18.68a.29.29,0,0,0,.18,0h.1a.36.36,0,0,0,.23-.17l.76-1.33a.38.38,0,0,0,0-.28.36.36,0,0,0-.18-.22l-1.17-.68a5.39,5.39,0,0,0,.21-1.2l1.34-.24a.41.41,0,0,0,.24-.15A.35.35,0,0,0,157.28,135.14Zm-6.66,2.39a2,2,0,1,1,2-2.05A2,2,0,0,1,150.62,137.53Z"/><path class="cls-1" d="M131.39,125a1.23,1.23,0,0,0-.72-1.13l-4-1.86,4-1.86a1.26,1.26,0,0,0,.72-1.13v0a1.25,1.25,0,0,0-1.24-1.25,1.17,1.17,0,0,0-.52.12l-6.4,3a1.23,1.23,0,0,0-.72,1.12V122a1.25,1.25,0,0,0,.72,1.13l6.4,3a1.28,1.28,0,0,0,1.19-.08,1.25,1.25,0,0,0,.57-1.05v0Z"/><path class="cls-1" d="M137.71,114.67a1.26,1.26,0,0,0-1-.51h0a1.23,1.23,0,0,0-1.18.87l-4.22,13.06a1.24,1.24,0,0,0,1.19,1.62h0a1.24,1.24,0,0,0,1.18-.86l4.22-13.06A1.27,1.27,0,0,0,137.71,114.67Z"/><path class="cls-1" d="M145.93,120.8l-6.4-3a1.17,1.17,0,0,0-.52-.12,1.22,1.22,0,0,0-.67.2,1.24,1.24,0,0,0-.58,1v0a1.27,1.27,0,0,0,.72,1.13l4,1.86-4,1.86a1.25,1.25,0,0,0-.72,1.13v0a1.25,1.25,0,0,0,.58,1.05,1.28,1.28,0,0,0,1.19.08l6.4-3a1.25,1.25,0,0,0,.72-1.13v-.09A1.23,1.23,0,0,0,145.93,120.8Z"/></svg>