<svg id="digital_transformation" data-name="digital transformation" xmlns="http://www.w3.org/2000/svg" viewBox="0 0 260 260"><defs><style>.cls-1{opacity:0.1;}.cls-2{fill:#f36e38;}.cls-3{fill:#fff;}.cls-4{fill:#454560;}</style></defs><g class="cls-1"><circle class="cls-2" cx="126.75" cy="133.78" r="55.12"/><path class="cls-3" d="M126.75,189.4a55.62,55.62,0,1,1,55.62-55.62A55.68,55.68,0,0,1,126.75,189.4Zm0-110.24a54.62,54.62,0,1,0,54.62,54.62A54.69,54.69,0,0,0,126.75,79.16Z"/></g><path class="cls-2" d="M154.73,222.91l1.08,3.4c29.89-9.57,53.88-33.55,63.11-63.09l-3.42-1.08A94.75,94.75,0,0,1,154.73,222.91Z"/><path class="cls-4" d="M34.31,120.13c6.08-45.43,45.29-79.9,92.41-79.9,53.88,0,91.32,31.15,93.16,77.51A1.79,1.79,0,0,0,223,118.9a1.81,1.81,0,0,0,.5-1.33c-1.92-48.41-40.8-80.94-96.75-80.94-49.19,0-90,36.17-96.06,83.71Z"/><path class="cls-2" d="M97.67,226.3l1.12-3.74a93.9,93.9,0,0,1-61.17-60.8l-3.4,1.08A99.15,99.15,0,0,0,97.67,226.3Z"/><path class="cls-4" d="M38.82,116.78H24.62a9.91,9.91,0,0,0-9.9,9.9v14.2a9.92,9.92,0,0,0,9.9,9.91h14.2a9.92,9.92,0,0,0,9.91-9.91v-14.2A9.91,9.91,0,0,0,38.82,116.78Zm6.31,17.5a12.91,12.91,0,0,1-12.91,12.9h-1a12.91,12.91,0,0,1-12.9-12.9v-1A12.9,12.9,0,0,1,30.8,120.4l.42,0h1a12.92,12.92,0,0,1,12.91,12.9Z"/><path class="cls-4" d="M229.38,116.28h-15.2a9.91,9.91,0,0,0-9.9,9.9v15.2a9.92,9.92,0,0,0,9.9,9.91h15.2a9.92,9.92,0,0,0,9.91-9.91v-15.2A9.91,9.91,0,0,0,229.38,116.28Zm-7.6,30.4a12.9,12.9,0,1,1,12.91-12.9A12.91,12.91,0,0,1,221.78,146.68Z"/><path class="cls-4" d="M221.78,26.62A13.2,13.2,0,0,0,209,36.53l-.39,1.5H41.05l-.47-1.34a9.41,9.41,0,1,0,0,6.27l.47-1.33H208.63l.39,1.5a13.2,13.2,0,1,0,12.76-16.51Z"/><path class="cls-3" d="M140.79,183.7H112.71l-.11-.34c-5.07-14.46-15.83-29-24.22-37.83l-.31-.32.28-.34c11.24-13.65,29.58-45,37.93-68.28l.47-1.31.47,1.31c8.35,23.23,26.69,54.63,37.93,68.28l.29.35-.32.32c-8.4,8.4-19.15,23.35-24.21,37.82Zm-27.37-1h26.66c5.43-15.29,16.23-29.67,24-37.55-11.1-13.63-28.83-43.94-37.34-66.93-8.51,23-26.24,53.31-37.34,66.94C97.76,154,108.32,168.37,113.42,182.7Z"/><rect class="cls-2" x="125.11" y="82.56" width="3.6" height="60.62"/><path class="cls-3" d="M107.75,179.4h38v57h-38Z"/><path class="cls-3" d="M146.26,236.91h-39v-58h39Zm-1-57h-37v56h37"/><g class="cls-1"><path d="M151.06,237.91H102.44V193.1h48.62Zm-45.62-3h42.62V196.1H105.44Z"/><path class="cls-3" d="M150.06,236.91H103.44V194.1h46.62Zm-45.62-1h44.62V195.1H104.44Z"/><path d="M151.56,238.41H101.94V192.6h49.62Zm-45.62-4h41.62V196.6H105.94Z"/></g><path class="cls-2" d="M147,190.3V175.09H106.47V190.3h-3.31v50.41h47.19V190.3Zm-5.35,45.88H112.31a4.56,4.56,0,0,1-4.56-4.56V199.39a4.56,4.56,0,0,1,4.56-4.56h29.38a4.57,4.57,0,0,1,4.57,4.56v32.23A4.57,4.57,0,0,1,141.69,236.18ZM114,190.3v-6.6h25.59v6.6Z"/><path class="cls-4" d="M130.55,139.58H123a1.8,1.8,0,1,0,0,3.6h7.6a1.8,1.8,0,0,0,0-3.6Z"/><path class="cls-4" d="M87.68,148.48c7.66,7.66,18.29,22.52,23.54,37.05l0,.14a2.16,2.16,0,0,0,2,1.53H141c.57,0,1.54-.15,1.54-1.16v-.25l.08-.23c4.69-14.07,15.6-28.75,23.52-37.05l.19-.17a2.11,2.11,0,0,0,.08-2.84c-9.67-12-28.61-43-37.47-67.67l0-.14a2.16,2.16,0,0,0-2-1.53,2.14,2.14,0,0,0-2,1.53l0,.14c-8.85,24.65-27.79,55.68-37.49,67.71A2.09,2.09,0,0,0,87.68,148.48Zm4.94-3.18c9.83-13.11,24.27-37,32.83-57.35l1.81-4.29,1.86,4.26c9.43,21.5,23.66,45.14,32.84,57.38l1,1.29-1.05,1.22c-5.5,6.36-15.58,19.24-21.32,34l-.5,1.27H114.9l-.49-1.27c-4.12-10.58-11.62-22.34-21.7-34l-1-1.22Z"/><path class="cls-4" d="M119.56,50.15h14.38a4.21,4.21,0,0,0,4.22-4.21V31.56a4.22,4.22,0,0,0-4.22-4.21H119.56a4.22,4.22,0,0,0-4.21,4.21V45.94A4.21,4.21,0,0,0,119.56,50.15Z"/></svg>