<svg id="Layer_1" data-name="Layer 1" xmlns="http://www.w3.org/2000/svg" viewBox="0 0 184 142"><defs><style>.cls-1{fill:#ac3c24;}.cls-2{fill:#3e3e63;}</style></defs><title>WebDev</title><circle class="cls-1" cx="50.07" cy="20.82" r="1.94"/><circle class="cls-1" cx="33.48" cy="20.82" r="1.94"/><path class="cls-1" d="M41.78,18.88a1.94,1.94,0,1,0,1.93,1.94A1.94,1.94,0,0,0,41.78,18.88Z"/><path class="cls-1" d="M56.24,62.13a2,2,0,0,0,0,2.73l10.93,11a2,2,0,0,0,1.37.58h0a1.91,1.91,0,0,0,1.37-.57,1.94,1.94,0,0,0,0-2.74l-9.51-9.64,9.51-9.52a2,2,0,0,0-2.76-2.76Z"/><path class="cls-1" d="M107.34,75.76l11-10.82a1.93,1.93,0,0,0,0-2.72l-11-11A2,2,0,0,0,106,50.7a1.9,1.9,0,0,0-1.37.57,1.94,1.94,0,0,0,0,2.75l9.52,9.52-9.52,9.52a1.92,1.92,0,0,0,2.73,2.7Z"/><path class="cls-2" d="M93.79,52.35l-.14-.08a2,2,0,0,0-1-.26,2.22,2.22,0,0,0-.51.06A1.94,1.94,0,0,0,91,53L80.15,72a1.94,1.94,0,1,0,3.24,2.12l.09-.15,11-19A2,2,0,0,0,93.79,52.35Z"/><path class="cls-2" d="M172.89,105.9V98.74a5.72,5.72,0,0,0-5.71-5.64,1.86,1.86,0,0,1-1.72-1.21,29.79,29.79,0,0,0-4.74-8.21,1.86,1.86,0,0,1-.05-2.17,5.75,5.75,0,0,0-2.15-7.79l-2.7-1.62V17.88A7.83,7.83,0,0,0,148,10.06H26.57a7.83,7.83,0,0,0-7.82,7.82V92.33a5.89,5.89,0,0,0,5.85,5.85H66.07l-3.48,12.87H57.92a11.69,11.69,0,0,0-11.4,9l-.18.77h-8a1.94,1.94,0,1,0,0,3.87h75.91l-.08,1.07a5.23,5.23,0,0,0,.18,1.76A5.65,5.65,0,0,0,117,131l6.21,3.59a5.75,5.75,0,0,0,7.85-2.13,1.94,1.94,0,0,1,1.94-.9,27.65,27.65,0,0,0,9.43,0,1.89,1.89,0,0,1,1.95.94,5.77,5.77,0,0,0,5,2.84h.1a5.7,5.7,0,0,0,2.83-.75l6.19-3.58a5.78,5.78,0,0,0,2.68-3.51,5.7,5.7,0,0,0-.57-4.35,1.86,1.86,0,0,1,0-2.07,30.06,30.06,0,0,0,4.8-8.25,1.83,1.83,0,0,1,1.74-1.2A5.8,5.8,0,0,0,172.89,105.9Zm-150.26-88a3.94,3.94,0,0,1,3.94-3.94H148a3.94,3.94,0,0,1,3.94,3.94v9.81H22.63Zm2,76.42h0a2,2,0,0,1-2-2V31.57H151.94V69.89l-1.25-.33a5.7,5.7,0,0,0-6.33,2.5,1.86,1.86,0,0,1-1.92.84,29.13,29.13,0,0,0-9.41,0,1.79,1.79,0,0,1-1.9-.86,5.75,5.75,0,0,0-7.83-2.13l-6.23,3.6A5.63,5.63,0,0,0,114.39,77a5.78,5.78,0,0,0,.52,4.35,1.8,1.8,0,0,1,0,2.13,29.36,29.36,0,0,0-4.76,8.23,1.86,1.86,0,0,1-1.73,1.2A5.78,5.78,0,0,0,105,94l-.27.2Zm79.14,15.13,1.29,1.62H66.4l3.47-12.87h32.62v7.73A5.88,5.88,0,0,0,103.74,109.43ZM50.16,120.84l.68-1.43a7.87,7.87,0,0,1,7.08-4.48h53l.27.55a31.83,31.83,0,0,0,2.22,3.79l1.08,1.57Zm111.65-9.34a26.08,26.08,0,0,1-4.1,7.12,5.74,5.74,0,0,0-.52,6.51,1.79,1.79,0,0,1,.08,1.46,1.82,1.82,0,0,1-.87,1.11l-6.11,3.47a1.89,1.89,0,0,1-.92.24,2.32,2.32,0,0,1-.52-.07,1.91,1.91,0,0,1-1.13-.9,5.81,5.81,0,0,0-5.93-2.77,24.18,24.18,0,0,1-8.14,0,5.82,5.82,0,0,0-5.94,2.81,1.93,1.93,0,0,1-2.54.7l-6.23-3.6a1.88,1.88,0,0,1-.86-1.11,1.77,1.77,0,0,1,0-1.39,5.87,5.87,0,0,0-.49-6.59,25.41,25.41,0,0,1-4.12-7.11,5.67,5.67,0,0,0-5.27-3.59,1.88,1.88,0,0,1-1.88-1.88V98.74a1.84,1.84,0,0,1,1.78-1.88h.15a5.77,5.77,0,0,0,5.3-3.71A25.11,25.11,0,0,1,117.73,86a5.81,5.81,0,0,0,.52-6.51,1.88,1.88,0,0,1-.08-1.48,1.75,1.75,0,0,1,.92-1.12l6.38-3.65a2,2,0,0,1,.84,0,1.88,1.88,0,0,1,1.44.87,5.8,5.8,0,0,0,6,2.84,24.24,24.24,0,0,1,8.15,0,5.8,5.8,0,0,0,5.86-3,1.81,1.81,0,0,1,1.15-.88,1.86,1.86,0,0,1,1.4.2h0l6.2,3.59a1.67,1.67,0,0,1,.86,1.08,1.84,1.84,0,0,1,0,1.4,5.86,5.86,0,0,0,.48,6.57,26,26,0,0,1,4.1,7.15A5.86,5.86,0,0,0,167.21,97a1.79,1.79,0,0,1,1.86,1.78v7.15a1.88,1.88,0,0,1-1.88,1.88A5.83,5.83,0,0,0,161.81,111.5Z"/><path class="cls-1" d="M125.38,102.32A12.34,12.34,0,1,0,137.72,90,12.35,12.35,0,0,0,125.38,102.32Zm20.8,0a8.5,8.5,0,0,1-7.46,8.35v.06l-1,.06a8.47,8.47,0,1,1,8.46-8.47Z"/></svg>