<svg xmlns="http://www.w3.org/2000/svg" width="247.841" height="171.206" viewBox="0 0 247.841 171.206">
  <g id="Group_6" data-name="Group 6" transform="translate(-1406.815 -439.562)">
    <g id="Group_2" data-name="Group 2">
      <path id="Path_1" data-name="Path 1" d="M1654.645,523.982c-.41-17.58-12.058-34.956-36.291-34.956h-9.794c-.342-5.977-2.833-15.108-12.909-24.238-17.138-15.534-41.259-3.757-41.259-3.757s-7.668-21.469-38.983-21.469c-.746,0-1.51.017-2.275.042-36.606,1.183-39.643,34.826-39.643,34.826-20.853-5-28.076,7.833-30.254,13.78-24.281.184-36.621,17.989-36.42,37,.1,19.314,12.676,36.181,36.8,36.181a37.157,37.157,0,0,0,17.145-4.191c.6-.156.933-.251.933-.251s.533,18.752,21.961,22.5,33.233-14.466,33.233-14.466,0,16.61,32.675,21.439c32.692,4.818,42.873-21.976,42.873-21.976,14.5,4.948,23.131.359,27.62-3.9C1643.933,559.732,1655.042,541.755,1654.645,523.982Z" fill="#fff"/>
      <g id="Group_1" data-name="Group 1">
        <path id="Path_2" data-name="Path 2" d="M1460.974,542.793a25.21,25.21,0,0,1-17.823,7.335c-16.5,0-25.09-11.525-25.16-24.733-.144-13.072,8.381-25.3,25.16-25.3a25.221,25.221,0,0,1,17.823,7.333l-2.588,2.244a21.394,21.394,0,0,0-15.235-6.223c-14.257,0-21.6,10.062-21.525,21.8.139,11.466,7.406,21.388,21.525,21.388a21.874,21.874,0,0,0,15.307-6.224Z" fill="#004490"/>
        <path id="Path_3" data-name="Path 3" d="M1467.261,541.745h7.338v-32.71h-7.612v-8.386h16.774v41.1h6.775v7.829h-23.275Z" fill="#004490"/>
        <path id="Path_4" data-name="Path 4" d="M1498.017,521.542c0-29.207,42.906-29.137,42.906,0v7.065c0,29.142-42.906,29.209-42.906,0Zm9.154,7.065c0,17.75,24.6,17.75,24.6,0v-7.065c0-17.465-24.6-17.676-24.6,0Z" fill="#004490"/>
        <path id="Path_5" data-name="Path 5" d="M1589.993,500.649v30.4c0,25.578-37.463,25.655-37.463,0v-30.4h3.7v30.4c0,21.033,30.045,20.967,30.045,0v-30.4Z" fill="#004490"/>
        <path id="Path_6" data-name="Path 6" d="M1644.782,524.557c.281,12.435-7.683,25.017-24.812,25.017h-16.559V500.649h16.559C1636.542,500.649,1644.5,512.533,1644.782,524.557Zm-37.6-20.345v41.727h12.784c14.537,0,21.248-10.9,21.039-21.382-.211-10.209-6.924-20.345-21.039-20.345Z" fill="#004490"/>
      </g>
    </g>
    <g id="Group_4" data-name="Group 4">
      <g id="Group_3" data-name="Group 3">
        <path id="Path_7" data-name="Path 7" d="M1472.3,590.1v14.154h-.973v-2.2a4.718,4.718,0,0,1-4.17,2.365,5.158,5.158,0,0,1,.026-10.311,4.412,4.412,0,0,1,4.144,2.348V590.1Zm-9.162,9.159a3.87,3.87,0,0,0,4.082,4.178,4.194,4.194,0,0,0,0-8.386A3.875,3.875,0,0,0,1463.138,599.261Z" fill="#fff"/>
        <path id="Path_8" data-name="Path 8" d="M1475.6,599.261a5.022,5.022,0,0,1,5.078-5.155c2.8,0,5.312,1.717,4.925,5.626h-9a3.932,3.932,0,0,0,4.071,3.7,4.7,4.7,0,0,0,3.6-1.516l.7.563a5.467,5.467,0,0,1-4.3,1.921A4.9,4.9,0,0,1,1475.6,599.261Zm9.115-.4c-.024-2.47-1.637-3.842-4.037-3.842a4,4,0,0,0-4.071,3.842Z" fill="#fff"/>
        <path id="Path_9" data-name="Path 9" d="M1496.048,596.088a4.3,4.3,0,0,0-3.115-1.054c-1.555-.019-3.055.567-3.012,1.84.035,1.339,1.781,1.6,3.037,1.822,1.773.3,4.221.605,4.117,2.932-.055,2.2-2.344,2.789-4.107,2.789a5.144,5.144,0,0,1-4.364-2l.723-.647a4.441,4.441,0,0,0,3.668,1.7c1.209,0,3.053-.325,3.106-1.9.043-1.438-1.618-1.72-3.25-1.983-1.938-.325-3.868-.693-3.879-2.689-.024-1.964,1.941-2.81,3.961-2.791a5.242,5.242,0,0,1,3.718,1.334Z" fill="#fff"/>
        <path id="Path_10" data-name="Path 10" d="M1501.61,591.011a.8.8,0,0,1-1.59,0A.8.8,0,0,1,1501.61,591.011Zm-1.312,3.216v10.029h.988V594.227Z" fill="#fff"/>
        <path id="Path_11" data-name="Path 11" d="M1513.159,593.859l.647.571-.971,1.125a4.93,4.93,0,0,1-1.455,7.651,3.664,3.664,0,0,1,2.732,3.577c0,2.687-2.107,3.985-4.758,3.985s-4.724-1.455-4.724-3.985h.992c0,2.04,1.732,3.012,3.732,3.012s3.78-.883,3.78-3.012c0-2.145-1.912-2.989-3.78-2.989a4.856,4.856,0,0,1,0-9.707,5.084,5.084,0,0,1,2.836.906Zm-7.5,5.1a3.656,3.656,0,0,0,3.7,3.839,3.834,3.834,0,0,0,3.747-3.839,3.592,3.592,0,0,0-3.747-3.883A3.531,3.531,0,0,0,1505.657,598.962Z" fill="#fff"/>
        <path id="Path_12" data-name="Path 12" d="M1518.1,594.264v1.781a3.978,3.978,0,0,1,3.56-1.958,4.16,4.16,0,0,1,4.5,4.406v5.763h-.99v-5.744a3.2,3.2,0,0,0-3.551-3.459,3.483,3.483,0,0,0-3.506,3.643v5.56h-.99v-9.992Z" fill="#fff"/>
        <path id="Path_13" data-name="Path 13" d="M1545.644,593.522c0-2.232-1.737-2.607-3.616-2.607-2.715,0-4,1.246-3.986,2.848.018,2.16,2.328,2.829,4.021,2.829h6.01v.867h-1.289v3.1c0,1.513.336,2.87,1.754,2.848v.851a2.144,2.144,0,0,1-2.365-1.8,4.446,4.446,0,0,1-4.164,1.983c-3.438,0-5.246-1.523-5.246-3.946a3.861,3.861,0,0,1,2.857-3.459,3.462,3.462,0,0,1-2.6-3.257c0-2.18,1.8-3.754,5.029-3.754,2.265,0,4.555.582,4.555,3.5Zm.248,3.937h-3.883c-2.8,0-4.209,1.582-4.209,3.036,0,1.817,1.336,2.988,4.185,2.988,1.621,0,3.907-.565,3.907-2.926Z" fill="#fff"/>
        <path id="Path_14" data-name="Path 14" d="M1568.806,604.256h-1.09l-1.621-4.366-1.215-3.884-1.246,3.9-1.621,4.347h-1.09l-3.557-9.992h1.088l3.02,8.838,3.048-8.838h.713l3.028,8.838,2.99-8.838h1.1Z" fill="#fff"/>
        <path id="Path_15" data-name="Path 15" d="M1574.413,599.261a5.029,5.029,0,0,1,5.08-5.155c2.809,0,5.311,1.717,4.934,5.626h-9a3.933,3.933,0,0,0,4.07,3.7,4.66,4.66,0,0,0,3.59-1.516l.711.563a5.48,5.48,0,0,1-4.3,1.921A4.9,4.9,0,0,1,1574.413,599.261Zm9.115-.4c-.013-2.47-1.631-3.842-4.035-3.842a3.994,3.994,0,0,0-4.07,3.842Z" fill="#fff"/>
        <path id="Path_16" data-name="Path 16" d="M1588.979,590.1v6.352a4.417,4.417,0,0,1,4.147-2.348,5.158,5.158,0,0,1,.014,10.311,4.71,4.71,0,0,1-4.161-2.365v2.2h-.97V590.1Zm.022,9.141a3.983,3.983,0,0,0,4.08,4.2,4.194,4.194,0,0,0,0-8.386A4,4,0,0,0,1589,599.243Z" fill="#fff"/>
      </g>
    </g>
  </g>
</svg>
