<svg xmlns="http://www.w3.org/2000/svg" width="46.201" height="45.802" viewBox="0 0 46.201 45.802">
  <g id="Group_2" data-name="Group 2" transform="translate(-61.815 -63.893)">
    <path id="Path_1" data-name="Path 1" d="M387.917,317.491a.718.718,0,1,0,0,1.436h3.971a.718.718,0,1,0,0-1.436Z" transform="translate(-284.716 -221.878)" fill="#595c5f" stroke="#fff" stroke-width="0.25"/>
    <path id="Path_2" data-name="Path 2" d="M387.917,279.258a.718.718,0,1,0,0,1.436h3.971a.718.718,0,1,0,0-1.436Z" transform="translate(-284.716 -188.41)" fill="#595c5f" stroke="#fff" stroke-width="0.25"/>
    <path id="Path_3" data-name="Path 3" d="M387.917,241.024a.718.718,0,1,0,0,1.436h3.971a.718.718,0,0,0,0-1.436Z" transform="translate(-284.716 -154.942)" fill="#595c5f" stroke="#fff" stroke-width="0.25"/>
    <path id="Path_4" data-name="Path 4" d="M387.917,202.791a.718.718,0,1,0,0,1.436h3.971a.718.718,0,1,0,0-1.436Z" transform="translate(-284.716 -121.475)" fill="#595c5f" stroke="#fff" stroke-width="0.25"/>
    <path id="Path_5" data-name="Path 5" d="M387.917,164.557a.718.718,0,1,0,0,1.436h3.971a.718.718,0,1,0,0-1.436Z" transform="translate(-284.716 -88.007)" fill="#595c5f" stroke="#fff" stroke-width="0.25"/>
    <path id="Path_6" data-name="Path 6" d="M316.754,68.707a.718.718,0,1,0,1.436,0V64.736a.718.718,0,0,0-1.436,0Z" transform="translate(-223.052 0)" fill="#595c5f" stroke="#fff" stroke-width="0.25"/>
    <path id="Path_7" data-name="Path 7" d="M278.52,68.707a.718.718,0,0,0,1.436,0V64.736a.718.718,0,0,0-1.436,0Z" transform="translate(-189.583 0)" fill="#595c5f" stroke="#fff" stroke-width="0.25"/>
    <path id="Path_8" data-name="Path 8" d="M240.287,68.707a.718.718,0,0,0,1.436,0V64.736a.718.718,0,0,0-1.436,0Z" transform="translate(-156.116 0)" fill="#595c5f" stroke="#fff" stroke-width="0.25"/>
    <path id="Path_9" data-name="Path 9" d="M202.053,68.707a.718.718,0,0,0,1.436,0V64.736a.718.718,0,0,0-1.436,0Z" transform="translate(-122.648 0)" fill="#595c5f" stroke="#fff" stroke-width="0.25"/>
    <path id="Path_10" data-name="Path 10" d="M163.819,68.707a.718.718,0,0,0,1.436,0V64.736a.718.718,0,0,0-1.436,0Z" transform="translate(-89.18 0)" fill="#595c5f" stroke="#fff" stroke-width="0.25"/>
    <path id="Path_11" data-name="Path 11" d="M62.658,317.491a.718.718,0,1,0,0,1.436h3.971a.718.718,0,1,0,0-1.436Z" transform="translate(0 -221.878)" fill="#595c5f" stroke="#fff" stroke-width="0.25"/>
    <path id="Path_12" data-name="Path 12" d="M62.658,279.258a.718.718,0,1,0,0,1.436h3.971a.718.718,0,1,0,0-1.436Z" transform="translate(0 -188.41)" fill="#595c5f" stroke="#fff" stroke-width="0.25"/>
    <path id="Path_13" data-name="Path 13" d="M62.658,241.024a.718.718,0,0,0,0,1.436h3.971a.718.718,0,1,0,0-1.436Z" transform="translate(0 -154.942)" fill="#595c5f" stroke="#fff" stroke-width="0.25"/>
    <path id="Path_14" data-name="Path 14" d="M62.658,202.791a.718.718,0,1,0,0,1.436h3.971a.718.718,0,1,0,0-1.436Z" transform="translate(0 -121.475)" fill="#595c5f" stroke="#fff" stroke-width="0.25"/>
    <path id="Path_15" data-name="Path 15" d="M62.658,164.557a.718.718,0,1,0,0,1.436h3.971a.718.718,0,1,0,0-1.436Z" transform="translate(0 -88.007)" fill="#595c5f" stroke="#fff" stroke-width="0.25"/>
    <path id="Path_16" data-name="Path 16" d="M165.255,386.8a.718.718,0,1,0-1.436,0v3.971a.718.718,0,1,0,1.436,0Z" transform="translate(-89.18 -281.918)" fill="#595c5f" stroke="#fff" stroke-width="0.25"/>
    <path id="Path_17" data-name="Path 17" d="M203.489,386.8a.718.718,0,1,0-1.436,0v3.971a.718.718,0,0,0,1.436,0Z" transform="translate(-122.648 -281.918)" fill="#595c5f" stroke="#fff" stroke-width="0.25"/>
    <path id="Path_18" data-name="Path 18" d="M241.723,386.8a.718.718,0,1,0-1.436,0v3.971a.718.718,0,1,0,1.436,0Z" transform="translate(-156.116 -281.918)" fill="#595c5f" stroke="#fff" stroke-width="0.25"/>
    <path id="Path_19" data-name="Path 19" d="M279.956,386.8a.718.718,0,1,0-1.436,0v3.971a.718.718,0,0,0,1.436,0Z" transform="translate(-189.583 -281.918)" fill="#595c5f" stroke="#fff" stroke-width="0.25"/>
    <path id="Path_20" data-name="Path 20" d="M318.19,386.8a.718.718,0,1,0-1.436,0v3.971a.718.718,0,1,0,1.436,0Z" transform="translate(-223.052 -281.918)" fill="#595c5f" stroke="#fff" stroke-width="0.25"/>
    <path id="Path_21" data-name="Path 21" d="M124.625,97.314H100.8a5.655,5.655,0,0,0-5.636,5.636v23.476a5.655,5.655,0,0,0,5.636,5.637h23.829a5.655,5.655,0,0,0,5.637-5.637V102.95a5.655,5.655,0,0,0-5.637-5.636ZM100.8,95.878h23.829a7.091,7.091,0,0,1,7.072,7.072v23.476a7.091,7.091,0,0,1-7.072,7.072H100.8a7.091,7.091,0,0,1-7.072-7.072V102.95a7.091,7.091,0,0,1,7.072-7.072Z" transform="translate(-27.822 -27.889)" fill="#595c5f" stroke="#fff" stroke-width="0.25"/>
    <g id="Group_1" data-name="Group 1" transform="translate(71.518 73.341)">
      <path id="Path_22" data-name="Path 22" d="M330.74,138.81a1.5,1.5,0,1,0,1.5,1.5A1.5,1.5,0,0,0,330.74,138.81Z" transform="translate(-305.499 -138.81)" fill="#595c5f" stroke="#fff" stroke-width="0.25" fill-rule="evenodd"/>
      <path id="Path_23" data-name="Path 23" d="M140.28,330.686a1.5,1.5,0,1,0,1.5,1.5A1.5,1.5,0,0,0,140.28,330.686Z" transform="translate(-138.78 -306.769)" fill="#595c5f" stroke="#fff" stroke-width="0.25" fill-rule="evenodd"/>
    </g>
  </g>
</svg>
